<svg id="Layer_1" data-name="Layer 1" xmlns="http://www.w3.org/2000/svg" xmlns:xlink="http://www.w3.org/1999/xlink" viewBox="0 0 48 48"><defs><style>.cls-1{fill:url(#linear-gradient);}.cls-2{fill:url(#linear-gradient-2);}.cls-3{fill:url(#linear-gradient-3);}.cls-4{fill:url(#linear-gradient-4);}.cls-5{fill:url(#linear-gradient-5);}.cls-6{fill:url(#linear-gradient-6);}.cls-7{fill:url(#linear-gradient-7);}.cls-8{fill:url(#linear-gradient-8);}.cls-9{fill:url(#linear-gradient-9);}</style><linearGradient id="linear-gradient" x1="21" y1="69.89" x2="21" y2="30.65" gradientUnits="userSpaceOnUse"><stop offset="0" stop-color="#fff"/><stop offset="0.52" stop-color="#cce2e6"/><stop offset="1" stop-color="#8fa1bb"/></linearGradient><linearGradient id="linear-gradient-2" y1="69.43" x2="21" y2="32.36" xlink:href="#linear-gradient"/><linearGradient id="linear-gradient-3" y1="-31.71" x2="21" y2="42.18" xlink:href="#linear-gradient"/><linearGradient id="linear-gradient-4" x1="0.25" y1="23.46" x2="0.75" y2="23.46" xlink:href="#linear-gradient"/><linearGradient id="linear-gradient-5" y1="-6.11" x2="21" y2="30.05" xlink:href="#linear-gradient"/><linearGradient id="linear-gradient-6" x1="34.5" y1="46.12" x2="34.5" y2="3.1" gradientUnits="userSpaceOnUse"><stop offset="0" stop-color="#27e9de"/><stop offset="0.52" stop-color="#03a4ec"/><stop offset="1" stop-color="#2547a8"/></linearGradient><linearGradient id="linear-gradient-7" x1="23.62" y1="42.43" x2="34" y2="9.06" xlink:href="#linear-gradient-6"/><linearGradient id="linear-gradient-8" x1="34.5" y1="12.78" x2="34.5" y2="1.23" xlink:href="#linear-gradient"/><linearGradient id="linear-gradient-9" x1="625.59" y1="-628.56" x2="625.59" y2="-644.49" gradientTransform="translate(-591.09 270.09)" xlink:href="#linear-gradient"/></defs><title>add, new, dental, dentist, healthcare</title><path class="cls-1" d="M28.71,9a9.7,9.7,0,0,0-7.17,3.28.74.74,0,0,1-1.08,0A9.7,9.7,0,0,0,13.29,9C7.61,9,3,14.16,3,20.53A12.6,12.6,0,0,0,4.77,27a16,16,0,0,1,2.31,6.35A32.43,32.43,0,0,0,10,43.56,2.47,2.47,0,0,0,12,45a2.37,2.37,0,0,0,2.56-2.36V41.8a6.67,6.67,0,0,1,3.08-5.74,6.43,6.43,0,0,1,6.7,0,6.67,6.67,0,0,1,3.08,5.74v.59a2.5,2.5,0,0,0,1.84,2.55,2.37,2.37,0,0,0,2.66-1.28,32.42,32.42,0,0,0,3-10.4,13,13,0,0,1,2-5.77,12.54,12.54,0,0,0,2.06-7C39,14.16,34.39,9,28.71,9Z"/><path class="cls-2" d="M36.93,27.49a12.42,12.42,0,0,0,2-5.62l0-.3c0-.25-.06-.5-.11-.74-1-5.22-5.11-9.14-10.06-9.14A9.7,9.7,0,0,0,21.54,15a.74.74,0,0,1-1.08,0,9.7,9.7,0,0,0-7.17-3.28c-4.95,0-9.08,3.92-10.06,9.14,0,.24-.08.49-.11.74l0,.3A12.48,12.48,0,0,0,4.77,27,16.46,16.46,0,0,1,7,32.72a11.79,11.79,0,0,0,8.23,3.4,11.61,11.61,0,0,0,3.22-.46,6.43,6.43,0,0,1,5.13,0,11.61,11.61,0,0,0,3.22.46A11.82,11.82,0,0,0,35,32.75,12.76,12.76,0,0,1,36.93,27.49Z"/><path class="cls-3" d="M38.94,19.29c0-.14,0-.28-.06-.41s-.06-.5-.11-.74C37.79,12.92,33.66,9,28.71,9a9.7,9.7,0,0,0-7.17,3.28.74.74,0,0,1-1.08,0A9.7,9.7,0,0,0,13.29,9C8.34,9,4.21,12.92,3.23,18.14c0,.24-.08.49-.11.74s0,.27-.06.41c0,.42-.06.84-.06,1.26,0,0,0,.07,0,.11,0,.32,0,.64,0,1s0,.4.06.6,0,.13,0,.2A12.43,12.43,0,0,0,4.77,27c.25.42.49.85.71,1.28a12,12,0,0,0,9.73,5.11A11.63,11.63,0,0,0,19,32.78a5.93,5.93,0,0,1,3.91,0,11.63,11.63,0,0,0,3.83.65,12,12,0,0,0,9.43-4.69,11.11,11.11,0,0,1,.71-1.24,12.35,12.35,0,0,0,1.91-5l0-.2c0-.23.06-.46.08-.7s0-.63,0-.95c0,0,0-.09,0-.14C39,20.13,39,19.71,38.94,19.29Z"/><path class="cls-4" d="M24,33.09a11.63,11.63,0,0,0,2.79.34,12,12,0,0,0,9.43-4.69,11.12,11.12,0,0,1,.71-1.24,12.35,12.35,0,0,0,1.91-5l0-.2c0-.23.06-.46.08-.7s0-.63,0-.95c0,0,0-.09,0-.14,0-.43,0-.85-.06-1.26,0-.14,0-.28-.06-.41s-.06-.5-.11-.74a12.15,12.15,0,0,0-1.92-4.64H24Z"/><path class="cls-5" d="M38.94,19.29c0-.14,0-.28-.06-.41s-.06-.5-.11-.74C37.79,12.92,33.66,9,28.71,9A9.61,9.61,0,0,0,22,11.84a1.37,1.37,0,0,1-1.94,0A9.61,9.61,0,0,0,13.29,9C8.34,9,4.21,12.92,3.23,18.14c0,.24-.08.49-.11.74s0,.27-.06.41c0,.42-.06.84-.06,1.26,0,0,0,.07,0,.11,0,.32,0,.64,0,1s0,.37.06.55V22.1c0-.25.06-.5.11-.74a11.9,11.9,0,0,1,3.14-6.12,1.1,1.1,0,0,0,.76.31A1.09,1.09,0,0,0,8,15a1.88,1.88,0,0,0,2.68-1.6,1.29,1.29,0,0,0,1.56-1.16,9.27,9.27,0,0,1,1-.06,9.7,9.7,0,0,1,7.17,3.28.74.74,0,0,0,1.08,0,9.7,9.7,0,0,1,7.17-3.28c4.95,0,9.08,3.92,10.06,9.14,0,.24.08.49.11.74v.06c0-.17,0-.34.06-.52s0-.63,0-.95c0,0,0-.09,0-.14C39,20.13,39,19.71,38.94,19.29Z"/><circle class="cls-6" cx="34.5" cy="13.5" r="10.5"/><path class="cls-7" d="M28.71,9a9.26,9.26,0,0,0-4.09,1A10.49,10.49,0,0,0,38.74,23.1,13,13,0,0,0,39,20.53C39,14.16,34.4,9,28.71,9Z"/><rect class="cls-8" x="33" y="8.91" width="3" height="9.19" rx="1.26" ry="1.26"/><rect class="cls-9" x="33" y="8.91" width="3" height="9.19" rx="1.26" ry="1.26" transform="translate(48 -21) rotate(90)"/></svg>