<svg id="Layer_1" data-name="Layer 1" xmlns="http://www.w3.org/2000/svg" xmlns:xlink="http://www.w3.org/1999/xlink" viewBox="0 0 48 48"><defs><style>.cls-1{fill:url(#linear-gradient);}.cls-2{fill:url(#linear-gradient-2);}.cls-3{fill:url(#linear-gradient-3);}.cls-4{fill:url(#linear-gradient-4);}.cls-5{fill:url(#linear-gradient-5);}.cls-6{fill:url(#linear-gradient-6);}.cls-7{fill:url(#linear-gradient-7);}.cls-8{fill:url(#linear-gradient-8);}.cls-9{fill:url(#linear-gradient-9);}.cls-10{fill:url(#linear-gradient-10);}.cls-11{fill:url(#linear-gradient-11);}</style><linearGradient id="linear-gradient" x1="19.84" y1="43.51" x2="19.84" y2="32.6" gradientUnits="userSpaceOnUse"><stop offset="0" stop-color="#273a9b"/><stop offset="0.56" stop-color="#202f65"/><stop offset="1" stop-color="#021e2f"/></linearGradient><linearGradient id="linear-gradient-2" x1="19.84" y1="47.86" x2="19.84" y2="32.5" xlink:href="#linear-gradient"/><linearGradient id="linear-gradient-3" x1="19.84" y1="18.09" x2="19.84" y2="-0.31" gradientUnits="userSpaceOnUse"><stop offset="0" stop-color="#f3c57a"/><stop offset="0.49" stop-color="#f39369"/><stop offset="1" stop-color="#e94867"/></linearGradient><linearGradient id="linear-gradient-4" x1="-86.76" y1="133.6" x2="107.72" y2="-60.88" xlink:href="#linear-gradient-3"/><linearGradient id="linear-gradient-5" x1="24.26" y1="97.02" x2="24.26" y2="-0.99" xlink:href="#linear-gradient-3"/><linearGradient id="linear-gradient-6" x1="4.87" y1="11.07" x2="33.73" y2="29.4" xlink:href="#linear-gradient-3"/><linearGradient id="linear-gradient-7" x1="9.57" y1="3.67" x2="38.43" y2="22" xlink:href="#linear-gradient-3"/><linearGradient id="linear-gradient-8" x1="35.93" y1="47.25" x2="35.93" y2="2.25" gradientUnits="userSpaceOnUse"><stop offset="0" stop-color="#27e9de"/><stop offset="0.52" stop-color="#03a4ec"/><stop offset="1" stop-color="#2547a8"/></linearGradient><linearGradient id="linear-gradient-9" x1="31.77" y1="55.13" x2="31.77" y2="11.81" xlink:href="#linear-gradient-8"/><linearGradient id="linear-gradient-10" x1="36" y1="45.75" x2="36" y2="22.9" xlink:href="#linear-gradient"/><linearGradient id="linear-gradient-11" x1="648" y1="-392.25" x2="648" y2="-415.1" gradientTransform="translate(-612 438)" xlink:href="#linear-gradient"/></defs><title>add, new, create, notification, bell</title><circle class="cls-1" cx="19.84" cy="35.04" r="6.96"/><path class="cls-2" d="M13.2,37.13a7,7,0,0,0,2.48,3.48H24a7,7,0,0,0,2.48-3.48Z"/><path class="cls-3" d="M22.63,10H17.06V5.79A2.79,2.79,0,0,1,19.84,3h0a2.79,2.79,0,0,1,2.79,2.79Z"/><path class="cls-4" d="M36.09,34l-.35-.56a12.94,12.94,0,0,1-2-6.86V20.11A14.19,14.19,0,0,0,20.52,5.8,13.93,13.93,0,0,0,5.92,19.71v6.87a12.94,12.94,0,0,1-2,6.86L3.6,34a3.4,3.4,0,0,0,2.88,5.2H33.21A3.4,3.4,0,0,0,36.09,34Z"/><path class="cls-5" d="M33.21,39.21A3.4,3.4,0,0,0,36.09,34l-.35-.56a12.94,12.94,0,0,1-2-6.86V20.11A14.19,14.19,0,0,0,21.18,5.85a13.87,13.87,0,0,0-9.28,2.44l2.55,1.88a13.27,13.27,0,0,1,5.39,10.67V37.68a1.54,1.54,0,0,0,1.54,1.54Z"/><path class="cls-6" d="M10.09,21.11a1.39,1.39,0,0,1-1.39-1.39,11.16,11.16,0,0,1,4.78-9.15,1.39,1.39,0,0,1,1.59,2.29,8.37,8.37,0,0,0-3.59,6.86A1.39,1.39,0,0,1,10.09,21.11Z"/><path class="cls-7" d="M18.76,11.42a1.39,1.39,0,0,1-.15-2.78,11.45,11.45,0,0,1,1.76-.05,1.39,1.39,0,0,1-.13,2.78,8.51,8.51,0,0,0-1.33,0Z"/><circle class="cls-8" cx="35.93" cy="36" r="9"/><path class="cls-9" d="M36.09,34l-.35-.56a12.94,12.94,0,0,1-1.94-6.18,9,9,0,0,0-6.27,12h5.68A3.4,3.4,0,0,0,36.09,34Z"/><rect class="cls-10" x="34.5" y="31.31" width="3" height="9.19" rx="1.26" ry="1.26"/><rect class="cls-11" x="34.5" y="31.31" width="3" height="9.19" rx="1.26" ry="1.26" transform="translate(71.91 -0.09) rotate(90)"/></svg>