<svg id="Layer_1" data-name="Layer 1" xmlns="http://www.w3.org/2000/svg" xmlns:xlink="http://www.w3.org/1999/xlink" viewBox="0 0 48 48"><defs><style>.cls-1{fill:url(#linear-gradient);}.cls-2{fill:url(#linear-gradient-2);}.cls-3{fill:url(#linear-gradient-3);}.cls-4{fill:url(#linear-gradient-4);}.cls-5{fill:url(#linear-gradient-5);}.cls-6{fill:url(#linear-gradient-6);}.cls-7{fill:url(#linear-gradient-7);}.cls-8{fill:url(#linear-gradient-8);}.cls-9{fill:url(#linear-gradient-9);}.cls-10{fill:url(#linear-gradient-10);}.cls-11{fill:url(#linear-gradient-11);}.cls-12{fill:url(#linear-gradient-12);}.cls-13{fill:url(#linear-gradient-13);}</style><linearGradient id="linear-gradient" x1="24" y1="93.46" x2="24" y2="-22.89" gradientUnits="userSpaceOnUse"><stop offset="0" stop-color="#27e9de"/><stop offset="0.52" stop-color="#03a4ec"/><stop offset="1" stop-color="#2547a8"/></linearGradient><linearGradient id="linear-gradient-2" x1="18.75" y1="95.46" x2="18.75" y2="-2.1" gradientUnits="userSpaceOnUse"><stop offset="0" stop-color="#273a9b"/><stop offset="0.56" stop-color="#202f65"/><stop offset="1" stop-color="#021e2f"/></linearGradient><linearGradient id="linear-gradient-3" x1="34.5" y1="78.71" x2="34.5" y2="-12.49" xlink:href="#linear-gradient"/><linearGradient id="linear-gradient-4" x1="34.46" y1="55.96" x2="34.46" y2="14.17" xlink:href="#linear-gradient"/><linearGradient id="linear-gradient-5" x1="12.75" y1="99.71" x2="12.75" y2="-11.91" xlink:href="#linear-gradient"/><linearGradient id="linear-gradient-6" x1="23.25" y1="81.21" x2="23.25" y2="9.35" xlink:href="#linear-gradient-2"/><linearGradient id="linear-gradient-7" x1="36" y1="56.08" x2="36" y2="25.55" xlink:href="#linear-gradient-2"/><linearGradient id="linear-gradient-8" x1="35.98" y1="35.68" x2="35.98" y2="12.96" xlink:href="#linear-gradient-2"/><linearGradient id="linear-gradient-9" x1="36.07" y1="51.96" x2="36.07" y2="-2.06" gradientUnits="userSpaceOnUse"><stop offset="0" stop-color="#fff"/><stop offset="0.52" stop-color="#cce2e6"/><stop offset="1" stop-color="#8fa1bb"/></linearGradient><linearGradient id="linear-gradient-10" x1="862.46" y1="-270.5" x2="862.46" y2="-324.51" gradientTransform="translate(-826.38 -67.47)" xlink:href="#linear-gradient-9"/><linearGradient id="linear-gradient-11" x1="34.46" y1="18.49" x2="34.46" y2="-16.54" xlink:href="#linear-gradient-9"/><linearGradient id="linear-gradient-12" x1="37.23" y1="21.59" x2="37.23" y2="1.2" xlink:href="#linear-gradient-9"/><linearGradient id="linear-gradient-13" x1="34.46" y1="25.31" x2="34.46" y2="-0.35" xlink:href="#linear-gradient-2"/></defs><title>add, new, create, map, location</title><path class="cls-1" d="M23.1,5.06l-9,5.16a1.17,1.17,0,0,1-1.16,0L4.76,5.55A1.17,1.17,0,0,0,3,6.57v27.3a1.17,1.17,0,0,0,.59,1l9.33,5.33a1.17,1.17,0,0,0,1.16,0l9-5.16A3.91,3.91,0,0,1,25,34.54H43.83A1.17,1.17,0,0,0,45,33.37V5.72a1.17,1.17,0,0,0-1.17-1.17H25A3.91,3.91,0,0,0,23.1,5.06Z"/><path class="cls-2" d="M14.08,40.22l9-5.16a3.91,3.91,0,0,1,.9-.37v-30a3.91,3.91,0,0,0-.9.37l-9,5.16a1.17,1.17,0,0,1-.58.15v30A1.17,1.17,0,0,0,14.08,40.22Z"/><path class="cls-3" d="M43.83,4.54H25a3.91,3.91,0,0,0-1,.14v30a3.91,3.91,0,0,1,1-.14H43.83A1.17,1.17,0,0,0,45,33.37V5.72A1.17,1.17,0,0,0,43.83,4.54Z"/><rect class="cls-4" x="28.93" y="14.96" width="11.06" height="20.44"/><path class="cls-5" d="M12.92,10.22,12,9.69v30l.92.52a1.17,1.17,0,0,0,.58.15v-30A1.17,1.17,0,0,1,12.92,10.22Z"/><path class="cls-6" d="M22.5,5.4v30l.6-.34a3.91,3.91,0,0,1,.9-.37v-30a3.91,3.91,0,0,0-.9.37Z"/><circle class="cls-7" cx="36" cy="34.46" r="9"/><path class="cls-8" d="M36,25.46a9,9,0,0,0-9,9s0,.06,0,.09H43.83a1.16,1.16,0,0,0,1.13-1A9,9,0,0,0,36,25.46Z"/><rect class="cls-9" x="34.57" y="29.77" width="3" height="9.19" rx="1.26" ry="1.26"/><rect class="cls-10" x="34.57" y="29.77" width="3" height="9.19" rx="1.26" ry="1.26" transform="translate(70.44 -1.71) rotate(90)"/><path class="cls-11" d="M38.37,18.84l-3.53,3.53a.54.54,0,0,1-.77,0l-3.53-3.53a5.53,5.53,0,0,1,0-7.82h0a5.53,5.53,0,0,1,7.82,0h0A5.53,5.53,0,0,1,38.37,18.84Z"/><path class="cls-12" d="M38.37,11A5.51,5.51,0,0,0,34.46,9.4V22.53a.54.54,0,0,0,.38-.16l3.53-3.53A5.53,5.53,0,0,0,38.37,11Z"/><circle class="cls-13" cx="34.46" cy="14.93" r="2.66"/></svg>