<svg id="Layer_1" data-name="Layer 1" xmlns="http://www.w3.org/2000/svg" xmlns:xlink="http://www.w3.org/1999/xlink" viewBox="0 0 48 48"><defs><style>.cls-1{fill:url(#linear-gradient);}.cls-2{fill:url(#linear-gradient-2);}.cls-3{fill:url(#linear-gradient-3);}.cls-4{fill:url(#linear-gradient-4);}.cls-5{fill:url(#linear-gradient-5);}</style><linearGradient id="linear-gradient" x1="1371" y1="463.23" x2="1371" y2="562.07" gradientTransform="translate(1395 497.97) rotate(180)" gradientUnits="userSpaceOnUse"><stop offset="0" stop-color="#fff"/><stop offset="0.52" stop-color="#cce2e6"/><stop offset="1" stop-color="#8fa1bb"/></linearGradient><linearGradient id="linear-gradient-2" x1="1371" y1="541.13" x2="1371" y2="445.61" gradientTransform="translate(1395 497.97) rotate(180)" gradientUnits="userSpaceOnUse"><stop offset="0" stop-color="#f3c57a"/><stop offset="0.49" stop-color="#f39369"/><stop offset="1" stop-color="#e94867"/></linearGradient><linearGradient id="linear-gradient-3" x1="1384.11" y1="575.98" x2="1384.11" y2="448.57" xlink:href="#linear-gradient-2"/><linearGradient id="linear-gradient-4" x1="1357.89" y1="575.98" x2="1357.89" y2="448.57" xlink:href="#linear-gradient-2"/><linearGradient id="linear-gradient-5" x1="1371" y1="575.98" x2="1371" y2="448.57" xlink:href="#linear-gradient-2"/></defs><title>arrow, down, downwards, download</title><circle class="cls-1" cx="24" cy="23.98" r="21.03"/><path class="cls-2" d="M25.19,45A21.2,21.2,0,0,0,45.06,24.34a20.92,20.92,0,0,0-4.15-12.9,6.52,6.52,0,0,0-11.75,3.91V23.3a.73.73,0,0,0,.73.73h2.63a1,1,0,0,1,.74,1.62L24.61,35.7a.81.81,0,0,1-1.23,0L14.73,25.65A1,1,0,0,1,15.47,24h2.63a.73.73,0,0,0,.73-.73V15.36A6.52,6.52,0,0,0,7.09,11.45,21.05,21.05,0,0,0,25.19,45Z"/><path class="cls-3" d="M7.09,14.5a6.52,6.52,0,0,1,11.75,3.91V15.36A6.52,6.52,0,0,0,7.09,11.45,20.91,20.91,0,0,0,2.94,24c0,.52,0,1,.06,1.54A20.89,20.89,0,0,1,7.09,14.5Z"/><path class="cls-4" d="M40.91,14.5A20.89,20.89,0,0,1,45,25.39c0-.35.06-.69.07-1a20.92,20.92,0,0,0-4.15-12.9,6.52,6.52,0,0,0-11.75,3.91v3.05A6.52,6.52,0,0,1,40.91,14.5Z"/><path class="cls-5" d="M15.47,27.08a1,1,0,0,0-.74,1.62l8.66,10.05a.81.81,0,0,0,1.23,0L33.27,28.7a1,1,0,0,0-.74-1.62H32L24.61,35.7a.81.81,0,0,1-1.23,0L16,27.08Z"/></svg>