<svg id="Layer_1" data-name="Layer 1" xmlns="http://www.w3.org/2000/svg" xmlns:xlink="http://www.w3.org/1999/xlink" viewBox="0 0 48 48"><defs><style>.cls-1{fill:url(#linear-gradient);}.cls-2{fill:url(#linear-gradient-2);}.cls-3{fill:url(#linear-gradient-3);}</style><linearGradient id="linear-gradient" x1="24" y1="111.67" x2="24" y2="-11.72" gradientTransform="translate(-9.94 24) rotate(-45)" gradientUnits="userSpaceOnUse"><stop offset="0" stop-color="#f3c57a"/><stop offset="0.49" stop-color="#f39369"/><stop offset="1" stop-color="#e94867"/></linearGradient><linearGradient id="linear-gradient-2" x1="23.95" y1="91.17" x2="23.95" y2="18.85" gradientTransform="matrix(1, 0, 0, 1, 0, 0)" xlink:href="#linear-gradient"/><linearGradient id="linear-gradient-3" x1="466.5" y1="21.5" x2="466.5" y2="-7.02" gradientTransform="translate(43.5 -442.5) rotate(90)" gradientUnits="userSpaceOnUse"><stop offset="0" stop-color="#fff"/><stop offset="0.52" stop-color="#cce2e6"/><stop offset="1" stop-color="#8fa1bb"/></linearGradient></defs><title>arrow, sign, down, downwards, download</title><rect class="cls-1" x="8.73" y="8.73" width="30.55" height="30.55" rx="1.47" ry="1.47" transform="translate(24 -9.94) rotate(45)"/><path class="cls-2" d="M14.9,36.5,23,44.56a1.47,1.47,0,0,0,2.07,0l8-8V24.69H14.9Z"/><path class="cls-3" d="M24.79,33.38l8-8a1.12,1.12,0,0,0,0-1.59l-2-2a1.12,1.12,0,0,0-1.59,0l-2.68,2.68V15.6a1.31,1.31,0,0,0-1.31-1.31H22.79a1.31,1.31,0,0,0-1.31,1.31v8.92L18.8,21.84a1.12,1.12,0,0,0-1.59,0l-2,2a1.12,1.12,0,0,0,0,1.59l8,8A1.12,1.12,0,0,0,24.79,33.38Z"/></svg>