<svg id="Layer_1" data-name="Layer 1" xmlns="http://www.w3.org/2000/svg" xmlns:xlink="http://www.w3.org/1999/xlink" viewBox="0 0 48 48"><defs><style>.cls-1{fill:url(#linear-gradient);}.cls-2{fill:url(#linear-gradient-2);}.cls-3{fill:url(#linear-gradient-3);}.cls-4{fill:url(#linear-gradient-4);}.cls-5{fill:url(#linear-gradient-5);}.cls-6{fill:url(#linear-gradient-6);}.cls-7{fill:url(#linear-gradient-7);}.cls-8{fill:url(#linear-gradient-8);}.cls-9{fill:url(#linear-gradient-9);}.cls-10{fill:url(#linear-gradient-10);}.cls-11{fill:url(#linear-gradient-11);}.cls-12{fill:url(#linear-gradient-12);}.cls-13{fill:url(#linear-gradient-13);}.cls-14{fill:url(#linear-gradient-14);}.cls-15{fill:url(#linear-gradient-15);}.cls-16{fill:url(#linear-gradient-16);}.cls-17{fill:url(#linear-gradient-17);}.cls-18{fill:url(#linear-gradient-18);}.cls-19{fill:url(#linear-gradient-19);}.cls-20{fill:url(#linear-gradient-20);}.cls-21{fill:url(#linear-gradient-21);}.cls-22{fill:url(#linear-gradient-22);}.cls-23{fill:url(#linear-gradient-23);}.cls-24{fill:url(#linear-gradient-24);}.cls-25{fill:url(#linear-gradient-25);}.cls-26{fill:url(#linear-gradient-26);}</style><linearGradient id="linear-gradient" x1="16.5" y1="24.37" x2="16.5" y2="-3.6" gradientUnits="userSpaceOnUse"><stop offset="0" stop-color="#fff"/><stop offset="0.52" stop-color="#cce2e6"/><stop offset="1" stop-color="#8fa1bb"/></linearGradient><linearGradient id="linear-gradient-2" x1="16.5" y1="17.14" x2="16.5" y2="-3.69" xlink:href="#linear-gradient"/><linearGradient id="linear-gradient-3" x1="13.29" y1="27.83" x2="13.29" y2="0.96" xlink:href="#linear-gradient"/><linearGradient id="linear-gradient-4" x1="19.71" y1="27.83" x2="19.71" y2="0.96" xlink:href="#linear-gradient"/><linearGradient id="linear-gradient-5" x1="6.84" y1="23.49" x2="6.84" y2="11.6" gradientUnits="userSpaceOnUse"><stop offset="0" stop-color="#273a9b"/><stop offset="0.56" stop-color="#202f65"/><stop offset="1" stop-color="#021e2f"/></linearGradient><linearGradient id="linear-gradient-6" x1="16.5" y1="46.07" x2="16.5" y2="-11.38" xlink:href="#linear-gradient-5"/><linearGradient id="linear-gradient-7" x1="13.29" y1="37.29" x2="13.29" y2="3.49" gradientUnits="userSpaceOnUse"><stop offset="0" stop-color="#f3c57a"/><stop offset="0.49" stop-color="#f39369"/><stop offset="1" stop-color="#e94867"/></linearGradient><linearGradient id="linear-gradient-8" x1="19.71" y1="37.29" x2="19.71" y2="3.49" xlink:href="#linear-gradient-7"/><linearGradient id="linear-gradient-9" x1="30.75" y1="61.17" x2="30.75" y2="10.5" xlink:href="#linear-gradient-7"/><linearGradient id="linear-gradient-10" x1="-7.5" y1="-7.5" x2="20.47" y2="20.48" xlink:href="#linear-gradient-7"/><linearGradient id="linear-gradient-11" x1="30.75" y1="44.95" x2="30.75" y2="-0.22" xlink:href="#linear-gradient-7"/><linearGradient id="linear-gradient-12" x1="30.75" y1="39.23" x2="30.75" y2="-5.57" xlink:href="#linear-gradient-7"/><linearGradient id="linear-gradient-13" x1="16.97" y1="16.97" x2="33.45" y2="33.46" xlink:href="#linear-gradient-7"/><linearGradient id="linear-gradient-14" x1="30.75" y1="28.6" x2="30.75" y2="-8.39" xlink:href="#linear-gradient-7"/><linearGradient id="linear-gradient-15" x1="30.75" y1="28.6" x2="30.75" y2="-8.39" xlink:href="#linear-gradient-7"/><linearGradient id="linear-gradient-16" x1="25.66" y1="28.6" x2="25.66" y2="-8.39" gradientTransform="translate(14.41 -9.89) rotate(30)" xlink:href="#linear-gradient-7"/><linearGradient id="linear-gradient-17" x1="35.84" y1="28.6" x2="35.84" y2="-8.39" gradientTransform="translate(24.59 -12.62) rotate(30)" xlink:href="#linear-gradient-7"/><linearGradient id="linear-gradient-18" x1="21.94" y1="28.6" x2="21.94" y2="-8.39" gradientTransform="translate(33.19 -6.17) rotate(60)" xlink:href="#linear-gradient-7"/><linearGradient id="linear-gradient-19" x1="39.56" y1="28.6" x2="39.56" y2="-8.39" gradientTransform="translate(50.82 -16.34) rotate(60)" xlink:href="#linear-gradient-7"/><linearGradient id="linear-gradient-20" x1="20.57" y1="28.6" x2="20.57" y2="-8.38" xlink:href="#linear-gradient-7"/><linearGradient id="linear-gradient-21" x1="40.93" y1="28.6" x2="40.93" y2="-8.38" xlink:href="#linear-gradient-7"/><linearGradient id="linear-gradient-22" x1="21.94" y1="28.6" x2="21.94" y2="-8.39" gradientTransform="translate(20.86 -6.17) rotate(30)" xlink:href="#linear-gradient-7"/><linearGradient id="linear-gradient-23" x1="39.56" y1="28.6" x2="39.56" y2="-8.39" gradientTransform="translate(18.13 -16.34) rotate(30)" xlink:href="#linear-gradient-7"/><linearGradient id="linear-gradient-24" x1="25.66" y1="28.6" x2="25.66" y2="-8.39" gradientTransform="translate(47.1 -2.44) rotate(60)" xlink:href="#linear-gradient-7"/><linearGradient id="linear-gradient-25" x1="35.84" y1="28.6" x2="35.84" y2="-8.39" gradientTransform="translate(36.91 -20.07) rotate(59.99)" xlink:href="#linear-gradient-7"/><linearGradient id="linear-gradient-26" x1="30.24" y1="31.77" x2="30.24" y2="4.53" xlink:href="#linear-gradient"/></defs><title>bitcoin, currency, finance, clock, time</title><circle class="cls-1" cx="16.5" cy="16.5" r="13.5"/><circle class="cls-2" cx="16.5" cy="16.5" r="7.71"/><polygon class="cls-3" points="10.71 27.67 15.86 27.67 15.86 15.74 10.71 17.99 10.71 27.67"/><polygon class="cls-4" points="17.14 27.67 22.29 27.67 22.29 18.95 17.14 15.21 17.14 27.67"/><path class="cls-5" d="M3.91,14.58v5.26a.32.32,0,0,0,.54.24l5.12-4.53a.56.56,0,0,0-.37-1Z"/><path class="cls-6" d="M15.51,3A13.57,13.57,0,0,0,3.27,13.81,13.35,13.35,0,0,0,3.46,20a.51.51,0,0,0,.84.25L7,17.86a9.65,9.65,0,1,1,1.83,4.42,1,1,0,0,0-1.45-.16L5.92,23.39a1,1,0,0,0-.12,1.34A13.5,13.5,0,1,0,15.51,3Z"/><path class="cls-7" d="M10.71,13.27v.68a.62.62,0,0,0,.62.62h2a.62.62,0,0,1,.62.62v.34h-2a.63.63,0,0,0-.44.18l-.6.6a.62.62,0,0,0-.18.44v2.38a.62.62,0,0,0,.18.44l.6.6a.62.62,0,0,0,.44.18h3.29a.62.62,0,0,0,.62-.62v-.68a.62.62,0,0,0-.62-.62h-2a.62.62,0,0,1-.62-.62v-.34h2a.63.63,0,0,0,.44-.18l.6-.6a.62.62,0,0,0,.18-.44V13.87a.62.62,0,0,0-.18-.44l-.6-.6a.62.62,0,0,0-.44-.18H11.34A.62.62,0,0,0,10.71,13.27Z"/><path class="cls-8" d="M20.36,13.27v1.64a.62.62,0,0,1-.62.62h0a.62.62,0,0,1-.62-.62V13.27a.62.62,0,0,0-.62-.62h-.68a.62.62,0,0,0-.62.62v3.57a.62.62,0,0,0,.62.62h2a.62.62,0,0,1,.62.62v1.64a.62.62,0,0,0,.62.62h.68a.62.62,0,0,0,.62-.62V13.27a.62.62,0,0,0-.62-.62H21A.62.62,0,0,0,20.36,13.27Z"/><circle class="cls-9" cx="30.75" cy="30.75" r="14.25"/><path class="cls-10" d="M26.1,17.29a9.63,9.63,0,0,1-8.81,8.81A14.18,14.18,0,0,0,16.54,30c.45,0,.9,0,1.36-.06A13.56,13.56,0,0,0,30,17.26c0-.24,0-.48,0-.72A14.18,14.18,0,0,0,26.1,17.29Z"/><circle class="cls-11" cx="30.75" cy="30.75" r="11.2"/><circle class="cls-12" cx="30.75" cy="30.76" r="10.16"/><path class="cls-13" d="M20.7,29.32a13.63,13.63,0,0,0,8.62-8.61A10.15,10.15,0,0,0,20.7,29.32Z"/><circle class="cls-14" cx="30.75" cy="20.57" r="0.51"/><circle class="cls-15" cx="30.75" cy="40.93" r="0.51"/><circle class="cls-16" cx="25.66" cy="21.94" r="0.51" transform="translate(-7.53 15.77) rotate(-30)"/><circle class="cls-17" cx="35.84" cy="39.56" r="0.51" transform="translate(-14.98 23.22) rotate(-30)"/><circle class="cls-18" cx="21.94" cy="25.66" r="0.51" transform="matrix(0.5, -0.87, 0.87, 0.5, -11.26, 31.83)"/><circle class="cls-19" cx="39.56" cy="35.84" r="0.51" transform="translate(-11.25 52.19) rotate(-60)"/><circle class="cls-20" cx="20.57" cy="30.75" r="0.51"/><circle class="cls-21" cx="40.93" cy="30.75" r="0.51"/><circle class="cls-22" cx="21.94" cy="35.84" r="0.51" transform="translate(-14.98 15.77) rotate(-30)"/><circle class="cls-23" cx="39.56" cy="25.66" r="0.51" transform="translate(-7.53 23.22) rotate(-30)"/><circle class="cls-24" cx="25.66" cy="39.56" r="0.51" transform="translate(-21.43 42.01) rotate(-60)"/><circle class="cls-25" cx="35.84" cy="21.94" r="0.51" transform="translate(-1.08 42) rotate(-59.99)"/><path class="cls-26" d="M35.83,28.39a3.69,3.69,0,0,0-3.76-3.75h-.29a0,0,0,0,1,0,0v-1a1,1,0,1,0-2,0v1h-1v-1a1,1,0,1,0-2,0v1a0,0,0,0,1,0,0h-1a1,1,0,1,0,0,2,1.05,1.05,0,0,1,1,1.08v7a0,0,0,0,1,0,0h-1a1,1,0,0,0,0,2,1,1,0,0,1,1,1,1,1,0,1,0,2,0v-1h1v1a1,1,0,1,0,2,0v-1a0,0,0,0,1,0,0h.29a3.69,3.69,0,0,0,3.76-3.75,3.55,3.55,0,0,0-1.06-2.35,0,0,0,0,1,0,0A3.55,3.55,0,0,0,35.83,28.39Zm-3.67,6.43H29.31a.59.59,0,0,1-.59-.59V32a.28.28,0,0,1,.28-.28h3.28a1.53,1.53,0,0,1,1.52,1.67A1.6,1.6,0,0,1,32.17,34.82Zm0-5.09H29.31a.59.59,0,0,1-.59-.59V27a.28.28,0,0,1,.28-.28h3.28a1.53,1.53,0,0,1,1.52,1.67A1.6,1.6,0,0,1,32.17,29.73Z"/></svg>