<svg id="Layer_1" data-name="Layer 1" xmlns="http://www.w3.org/2000/svg" xmlns:xlink="http://www.w3.org/1999/xlink" viewBox="0 0 48 48"><defs><style>.cls-1{fill:url(#linear-gradient);}.cls-2{fill:url(#linear-gradient-2);}.cls-3{fill:url(#linear-gradient-3);}.cls-4{fill:url(#linear-gradient-4);}.cls-5{fill:url(#linear-gradient-5);}.cls-6{fill:url(#linear-gradient-6);}.cls-7{fill:url(#linear-gradient-7);}.cls-8{fill:url(#linear-gradient-8);}.cls-9{fill:url(#linear-gradient-9);}.cls-10{fill:url(#linear-gradient-10);}</style><linearGradient id="linear-gradient" x1="24" y1="-2" x2="24" y2="79.32" gradientUnits="userSpaceOnUse"><stop offset="0" stop-color="#fff"/><stop offset="0.52" stop-color="#cce2e6"/><stop offset="1" stop-color="#8fa1bb"/></linearGradient><linearGradient id="linear-gradient-2" x1="24" y1="18.75" x2="24" y2="0.01" gradientUnits="userSpaceOnUse"><stop offset="0" stop-color="#273a9b"/><stop offset="0.56" stop-color="#202f65"/><stop offset="1" stop-color="#021e2f"/></linearGradient><linearGradient id="linear-gradient-3" x1="24" y1="3.67" x2="24" y2="68.63" gradientUnits="userSpaceOnUse"><stop offset="0" stop-color="#fff"/><stop offset="0.41" stop-color="#cce2e6"/><stop offset="1" stop-color="#8fa1bb"/></linearGradient><linearGradient id="linear-gradient-4" x1="11.27" y1="20.94" x2="11.27" y2="5.28" xlink:href="#linear-gradient-2"/><linearGradient id="linear-gradient-5" x1="11.27" y1="21.02" x2="11.27" y2="-15.79" gradientUnits="userSpaceOnUse"><stop offset="0" stop-color="#f3c57a"/><stop offset="0.49" stop-color="#f39369"/><stop offset="1" stop-color="#e94867"/></linearGradient><linearGradient id="linear-gradient-6" x1="36.76" y1="20.94" x2="36.76" y2="5.28" xlink:href="#linear-gradient-2"/><linearGradient id="linear-gradient-7" x1="36.76" y1="21.02" x2="36.76" y2="-15.79" xlink:href="#linear-gradient-5"/><linearGradient id="linear-gradient-8" y1="20.67" x2="24" y2="8.13" xlink:href="#linear-gradient-3"/><linearGradient id="linear-gradient-9" x1="24" y1="15.9" x2="24" y2="69.52" gradientUnits="userSpaceOnUse"><stop offset="0" stop-color="#27e9de"/><stop offset="0.52" stop-color="#03a4ec"/><stop offset="1" stop-color="#2547a8"/></linearGradient><linearGradient id="linear-gradient-10" x1="27.14" y1="59.25" x2="27.14" y2="8.73" xlink:href="#linear-gradient-9"/></defs><title>bookmark, schedule, date, appointment</title><path class="cls-1" d="M3,9H45a0,0,0,0,1,0,0V37.07A7.93,7.93,0,0,1,37.07,45H10.93A7.93,7.93,0,0,1,3,37.07V9A0,0,0,0,1,3,9Z"/><path class="cls-2" d="M7.68,6H40.32A4.68,4.68,0,0,1,45,10.68V15a0,0,0,0,1,0,0H3a0,0,0,0,1,0,0V10.68A4.68,4.68,0,0,1,7.68,6Z"/><path class="cls-3" d="M3,16.78a1.63,1.63,0,0,0,1.17,1.56L16.55,22a10.37,10.37,0,0,1,7.45,10V45H37.07A7.93,7.93,0,0,0,45,37.07V15H3Z"/><circle class="cls-4" cx="11.27" cy="10.72" r="3.22"/><path class="cls-5" d="M11.27,13.14h0A2.27,2.27,0,0,1,9,10.86V5.27A2.27,2.27,0,0,1,11.27,3h0a2.27,2.27,0,0,1,2.27,2.27v5.59A2.27,2.27,0,0,1,11.27,13.14Z"/><circle class="cls-6" cx="36.76" cy="10.72" r="3.22"/><path class="cls-7" d="M36.76,13.14h0a2.27,2.27,0,0,1-2.27-2.27V5.27A2.27,2.27,0,0,1,36.76,3h0A2.27,2.27,0,0,1,39,5.27v5.59A2.27,2.27,0,0,1,36.76,13.14Z"/><rect class="cls-8" x="3" y="15" width="42" height="1.5"/><path class="cls-9" d="M25.42,21l1.68,3.4a1.58,1.58,0,0,0,1.19.87l3.76.55a1.58,1.58,0,0,1,.88,2.7l-2.72,2.65a1.58,1.58,0,0,0-.46,1.4l.64,3.74A1.58,1.58,0,0,1,28.1,38l-3.36-1.77a1.58,1.58,0,0,0-1.47,0L19.9,38a1.58,1.58,0,0,1-2.3-1.67l.64-3.74a1.58,1.58,0,0,0-.46-1.4l-2.72-2.65a1.58,1.58,0,0,1,.88-2.7l3.76-.55a1.58,1.58,0,0,0,1.19-.87L22.58,21A1.58,1.58,0,0,1,25.42,21Z"/><path class="cls-10" d="M32,25.86l-3.76-.55a1.58,1.58,0,0,1-1.19-.87L25.42,21a1.58,1.58,0,0,0-2.84,0l-1.68,3.4,0,.05A10.36,10.36,0,0,1,24,31.93v4.15a1.58,1.58,0,0,1,.74.18L28.1,38a1.58,1.58,0,0,0,2.3-1.67l-.64-3.74a1.58,1.58,0,0,1,.46-1.4l2.72-2.65A1.58,1.58,0,0,0,32,25.86Z"/></svg>