<svg id="Layer_1" data-name="Layer 1" xmlns="http://www.w3.org/2000/svg" xmlns:xlink="http://www.w3.org/1999/xlink" viewBox="0 0 48 48"><defs><style>.cls-1{fill:url(#linear-gradient);}.cls-2{fill:url(#linear-gradient-2);}.cls-3{fill:url(#linear-gradient-3);}.cls-4{fill:url(#linear-gradient-4);}.cls-5{fill:url(#linear-gradient-5);}.cls-6{fill:url(#linear-gradient-6);}</style><linearGradient id="linear-gradient" x1="20.99" y1="49.67" x2="20.99" y2="-18.07" gradientUnits="userSpaceOnUse"><stop offset="0" stop-color="#27e9de"/><stop offset="0.52" stop-color="#03a4ec"/><stop offset="1" stop-color="#2547a8"/></linearGradient><linearGradient id="linear-gradient-2" x1="28.22" y1="46.84" x2="28.22" y2="16.55" xlink:href="#linear-gradient"/><linearGradient id="linear-gradient-3" x1="37.56" y1="16.99" x2="0.94" y2="22.99" gradientUnits="userSpaceOnUse"><stop offset="0" stop-color="#273a9b"/><stop offset="0.56" stop-color="#202f65"/><stop offset="1" stop-color="#021e2f"/></linearGradient><linearGradient id="linear-gradient-4" x1="28.22" y1="47.64" x2="28.22" y2="-9.39" xlink:href="#linear-gradient-3"/><linearGradient id="linear-gradient-5" x1="31.23" y1="34.38" x2="31.23" y2="12.76" xlink:href="#linear-gradient-3"/><linearGradient id="linear-gradient-6" x1="31.23" y1="38.37" x2="31.23" y2="-0.65" gradientUnits="userSpaceOnUse"><stop offset="0" stop-color="#f3c57a"/><stop offset="0.49" stop-color="#f39369"/><stop offset="1" stop-color="#e94867"/></linearGradient></defs><title>brain, storming, settings, thought, preferences</title><path class="cls-1" d="M36.32,30.72a4.72,4.72,0,0,1,.54-3.17A16.49,16.49,0,1,0,7.61,12.36L3.16,21.81A1.54,1.54,0,0,0,4.55,24H5a1,1,0,0,1,1,1V29.2a6.8,6.8,0,0,0,6.8,6.8h0a4.49,4.49,0,0,1,4.45,3.86L18,45H39Z"/><path class="cls-2" d="M38.36,23.94H17.47V41.51L18,45H39L36.32,30.72a4.72,4.72,0,0,1,.54-3.17A16.43,16.43,0,0,0,38.36,23.94Z"/><path class="cls-3" d="M41.32,18h0a3.39,3.39,0,0,1,1-2.39l2.22-2.25a1.62,1.62,0,0,0,.25-1.95L43.72,9.6a1.62,1.62,0,0,0-1.81-.76l-3.09.81a3.39,3.39,0,0,1-2.59-.37h0a3.33,3.33,0,0,1-1.51-2l-.85-3.1A1.62,1.62,0,0,0,32.28,3H30.17a1.62,1.62,0,0,0-1.56,1.19l-.85,3.1a3.33,3.33,0,0,1-1.51,2h0a3.39,3.39,0,0,1-2.59.37l-3.09-.81a1.62,1.62,0,0,0-1.81.76l-1.05,1.83a1.62,1.62,0,0,0,.25,1.95l2.33,2.36A3.19,3.19,0,0,1,21.14,18h0a3.19,3.19,0,0,1-.87,2.28l-2.33,2.36a1.62,1.62,0,0,0-.25,1.95l1.05,1.83a1.62,1.62,0,0,0,1.81.76l3.23-.85a3.14,3.14,0,0,1,2.42.39l.07,0a3.13,3.13,0,0,1,1.46,1.85l.88,3.22a1.62,1.62,0,0,0,1.56,1.19h2.11a1.62,1.62,0,0,0,1.56-1.19l.86-3.12a3.28,3.28,0,0,1,1.48-1.95l.17-.1a3,3,0,0,1,2.32-.33l3.23.85a1.62,1.62,0,0,0,1.81-.76l1.05-1.83a1.62,1.62,0,0,0-.25-1.95L42.3,20.44a3.4,3.4,0,0,1-1-2.39Z"/><path class="cls-4" d="M20.55,27.22l3.23-.85a3.14,3.14,0,0,1,2.42.39l.07,0a3.13,3.13,0,0,1,1.46,1.85l.88,3.22a1.62,1.62,0,0,0,1.56,1.19h2.11a1.62,1.62,0,0,0,1.56-1.19l.86-3.12a3.28,3.28,0,0,1,1.48-1.95l.17-.1a3,3,0,0,1,1.14-.4A16.47,16.47,0,0,0,28.61,4.19l-.85,3.1a3.33,3.33,0,0,1-1.51,2h0a3.39,3.39,0,0,1-2.59.37l-3.09-.81a1.62,1.62,0,0,0-1.81.76l-1.05,1.83a1.62,1.62,0,0,0,.25,1.95l2.33,2.36A3.19,3.19,0,0,1,21.14,18h0a3.19,3.19,0,0,1-.87,2.28l-2.33,2.36a1.62,1.62,0,0,0-.25,1.95l1.05,1.83A1.62,1.62,0,0,0,20.55,27.22Z"/><path class="cls-5" d="M27.57,28.34a2.81,2.81,0,0,1,.16.31l.88,3.22a1.62,1.62,0,0,0,1.56,1.19h2.11a1.62,1.62,0,0,0,1.56-1.19l.86-3.12a3.17,3.17,0,0,1,.19-.38V18H27.57Z"/><circle class="cls-6" cx="31.23" cy="18.03" r="3.68"/></svg>