<svg id="Layer_1" data-name="Layer 1" xmlns="http://www.w3.org/2000/svg" xmlns:xlink="http://www.w3.org/1999/xlink" viewBox="0 0 48 48"><defs><style>.cls-1{fill:url(#linear-gradient);}.cls-2{fill:url(#linear-gradient-2);}.cls-3{fill:url(#linear-gradient-3);}.cls-4{fill:url(#linear-gradient-4);}.cls-5{fill:url(#linear-gradient-5);}.cls-6{fill:url(#linear-gradient-6);}.cls-7{fill:url(#linear-gradient-7);}.cls-8{fill:url(#linear-gradient-8);}.cls-9{fill:url(#linear-gradient-9);}</style><linearGradient id="linear-gradient" x1="24" y1="32.83" x2="24" y2="-3.97" gradientUnits="userSpaceOnUse"><stop offset="0" stop-color="#fff"/><stop offset="0.52" stop-color="#cce2e6"/><stop offset="1" stop-color="#8fa1bb"/></linearGradient><linearGradient id="linear-gradient-2" x1="16.97" y1="52.17" x2="16.97" y2="3.24" gradientUnits="userSpaceOnUse"><stop offset="0" stop-color="#f3c57a"/><stop offset="0.49" stop-color="#f39369"/><stop offset="1" stop-color="#e94867"/></linearGradient><linearGradient id="linear-gradient-3" x1="24.39" y1="44.33" x2="24.39" y2="-4.09" xlink:href="#linear-gradient"/><linearGradient id="linear-gradient-4" x1="31.03" y1="52.17" x2="31.03" y2="3.24" xlink:href="#linear-gradient-2"/><linearGradient id="linear-gradient-5" x1="24" y1="52.5" x2="24" y2="-29.55" gradientUnits="userSpaceOnUse"><stop offset="0" stop-color="#273a9b"/><stop offset="0.56" stop-color="#202f65"/><stop offset="1" stop-color="#021e2f"/></linearGradient><linearGradient id="linear-gradient-6" y1="28.47" x2="24" y2="10.5" xlink:href="#linear-gradient-5"/><linearGradient id="linear-gradient-7" y1="34.55" x2="24" y2="11.14" xlink:href="#linear-gradient-5"/><linearGradient id="linear-gradient-8" x1="24" y1="21.02" x2="24" y2="9.61" xlink:href="#linear-gradient"/><linearGradient id="linear-gradient-9" x1="24" y1="20.67" x2="24" y2="7.49" xlink:href="#linear-gradient"/></defs><title>bug, protection, shield, safety, security</title><path class="cls-1" d="M30.09,7.69a25.58,25.58,0,0,1-5.21-2.5,1.64,1.64,0,0,0-1.76,0,25.58,25.58,0,0,1-5.21,2.5A23.7,23.7,0,0,1,9.5,9.11a1.67,1.67,0,0,0-1.75,1.65V28a13.25,13.25,0,0,0,6.63,11.48l3.21,1.86a12.82,12.82,0,0,0,12.82,0l3.21-1.86A13.25,13.25,0,0,0,40.25,28V10.76A1.67,1.67,0,0,0,38.5,9.11,23.7,23.7,0,0,1,30.09,7.69Z"/><path class="cls-2" d="M9.94,24V35.3a13.24,13.24,0,0,0,4.44,4.18l3.21,1.86A12.82,12.82,0,0,0,24,43.06V24Z"/><path class="cls-3" d="M38.5,9.11h-.83a24.31,24.31,0,0,1-7.59-1.42,25.58,25.58,0,0,1-5.21-2.5,1.46,1.46,0,0,0-1.63,0A25.59,25.59,0,0,1,18,7.69a24.32,24.32,0,0,1-7.58,1.43H9.6a1.67,1.67,0,0,0-1.07.38l9.56.62A6.32,6.32,0,0,1,24,16.42V43.06a12.82,12.82,0,0,0,6.41-1.72l3.21-1.86A13.25,13.25,0,0,0,40.25,28V10.76A1.67,1.67,0,0,0,38.5,9.11Z"/><path class="cls-4" d="M38.06,9.1a23.92,23.92,0,0,1-8-1.41,25.58,25.58,0,0,1-5.21-2.5A1.64,1.64,0,0,0,24,4.94h0V24H38.06Z"/><path class="cls-5" d="M40.16,7.57h-.76A26.63,26.63,0,0,1,30.72,6,28.24,28.24,0,0,1,25,3.24a1.81,1.81,0,0,0-1.94,0A28.24,28.24,0,0,1,17.28,6,26.63,26.63,0,0,1,8.61,7.58H7.93A1.84,1.84,0,0,0,6.06,9.39v19a14.63,14.63,0,0,0,7.31,12.67l3.55,2a14.15,14.15,0,0,0,14.15,0l3.55-2a14.62,14.62,0,0,0,7.31-12.67v-19A1.83,1.83,0,0,0,40.16,7.57ZM35.94,28.43a8.62,8.62,0,0,1-4.31,7.47l-3.55,2a8.15,8.15,0,0,1-8.15,0l-3.55-2a8.63,8.63,0,0,1-4.31-7.47V15.33a2.28,2.28,0,0,1,1.86-2.25,35.18,35.18,0,0,0,5.34-1.42,35.58,35.58,0,0,0,3.82-1.59,2.06,2.06,0,0,1,1.82,0,35.58,35.58,0,0,0,3.82,1.59,35.18,35.18,0,0,0,5.34,1.42,2.28,2.28,0,0,1,1.86,2.25Z"/><path class="cls-6" d="M24,23.63h0a3.16,3.16,0,0,1-3.16-3.16v-.6A3.16,3.16,0,0,1,24,16.71h0a3.16,3.16,0,0,1,3.16,3.16v.6A3.16,3.16,0,0,1,24,23.63Z"/><path class="cls-7" d="M32.22,24a1.07,1.07,0,0,0-1.67,0,1.67,1.67,0,0,1-1.12.64h-.1a5.34,5.34,0,0,0-.22-1.46,3.81,3.81,0,0,0,2.08-3.54,1.06,1.06,0,0,0-2.12.08,1.68,1.68,0,0,1-.94,1.58,5.34,5.34,0,0,0-8.26,0,1.68,1.68,0,0,1-.94-1.58,1.06,1.06,0,0,0-2.12-.08,3.81,3.81,0,0,0,2.08,3.54,5.34,5.34,0,0,0-.22,1.46h-.1A1.67,1.67,0,0,1,17.44,24a1.07,1.07,0,0,0-1.67,0,1.09,1.09,0,0,0,0,1.36,3.78,3.78,0,0,0,2.5,1.41,3.82,3.82,0,0,0,.48,0,5.29,5.29,0,0,0,.35,1.09,3.77,3.77,0,0,0-1.85,1.83,1.1,1.1,0,0,0,.34,1.38,1.06,1.06,0,0,0,1.57-.45,1.67,1.67,0,0,1,1-.9l.48.11a5.32,5.32,0,0,0,6.76,0l.48-.11a1.67,1.67,0,0,1,1,.9,1.06,1.06,0,0,0,1.57.45,1.1,1.1,0,0,0,.34-1.38,3.77,3.77,0,0,0-1.85-1.83,5.29,5.29,0,0,0,.35-1.09,3.82,3.82,0,0,0,.48,0,3.78,3.78,0,0,0,2.5-1.41A1.09,1.09,0,0,0,32.22,24Z"/><path class="cls-8" d="M24,26.22h0a.91.91,0,0,1-.9-.79l-.36-2.66a.91.91,0,0,1,.9-1h.73a.91.91,0,0,1,.9,1l-.36,2.66A.91.91,0,0,1,24,26.22Z"/><path class="cls-9" d="M24.2,28.48h-.4a.72.72,0,0,1-.72-.72h0A.72.72,0,0,1,23.8,27h.4a.72.72,0,0,1,.72.72h0A.72.72,0,0,1,24.2,28.48Z"/></svg>