<svg id="Layer_1" data-name="Layer 1" xmlns="http://www.w3.org/2000/svg" xmlns:xlink="http://www.w3.org/1999/xlink" viewBox="0 0 48 48"><defs><style>.cls-1{fill:url(#linear-gradient);}.cls-2{fill:url(#linear-gradient-2);}.cls-3{fill:url(#linear-gradient-3);}.cls-4{fill:url(#linear-gradient-4);}.cls-5{fill:url(#linear-gradient-5);}.cls-6{fill:url(#linear-gradient-6);}.cls-7{fill:url(#linear-gradient-7);}.cls-8{fill:url(#linear-gradient-8);}.cls-9{fill:url(#linear-gradient-9);}.cls-10{fill:url(#linear-gradient-10);}</style><linearGradient id="linear-gradient" x1="-22.61" y1="24" x2="-33.34" y2="24" gradientTransform="translate(67.5)" gradientUnits="userSpaceOnUse"><stop offset="0" stop-color="#fff"/><stop offset="0.52" stop-color="#cce2e6"/><stop offset="1" stop-color="#8fa1bb"/></linearGradient><linearGradient id="linear-gradient-2" x1="-35.8" y1="45.63" x2="-35.8" y2="12.93" gradientTransform="translate(67.5)" gradientUnits="userSpaceOnUse"><stop offset="0" stop-color="#27e9de"/><stop offset="0.52" stop-color="#03a4ec"/><stop offset="1" stop-color="#2547a8"/></linearGradient><linearGradient id="linear-gradient-3" x1="-23.74" y1="9.03" x2="-38.41" y2="26.6" xlink:href="#linear-gradient-2"/><linearGradient id="linear-gradient-4" x1="-37.36" y1="45.37" x2="-37.36" y2="22.45" xlink:href="#linear-gradient-2"/><linearGradient id="linear-gradient-5" x1="-44.82" y1="6.81" x2="-35.81" y2="24.96" xlink:href="#linear-gradient-2"/><linearGradient id="linear-gradient-6" x1="-16.61" x2="-27.34" gradientTransform="matrix(-1, 0, 0, 1, -13.5, 0)" xlink:href="#linear-gradient"/><linearGradient id="linear-gradient-7" x1="-29.8" y1="45.63" x2="-29.8" y2="12.93" gradientTransform="matrix(-1, 0, 0, 1, -13.5, 0)" xlink:href="#linear-gradient-2"/><linearGradient id="linear-gradient-8" x1="-17.74" y1="9.03" x2="-32.41" y2="26.6" gradientTransform="matrix(-1, 0, 0, 1, -13.5, 0)" xlink:href="#linear-gradient-2"/><linearGradient id="linear-gradient-9" x1="-31.36" y1="45.37" x2="-31.36" y2="22.45" gradientTransform="matrix(-1, 0, 0, 1, -13.5, 0)" xlink:href="#linear-gradient-2"/><linearGradient id="linear-gradient-10" x1="-38.82" y1="6.81" x2="-29.81" y2="24.96" gradientTransform="matrix(-1, 0, 0, 1, -13.5, 0)" xlink:href="#linear-gradient-2"/></defs><title>car, vehicle, transportation, headlights, light</title><polygon class="cls-1" points="45 45 36.42 27.86 36.42 20.14 45 3 45 45"/><path class="cls-2" d="M25.5,24c0,3.41,3.63,6.18,8.11,6.18a10.27,10.27,0,0,0,2.88-.41,1.17,1.17,0,0,0,.81-.82,20.62,20.62,0,0,0,0-9.9,1.17,1.17,0,0,0-.81-.82,10.27,10.27,0,0,0-2.88-.41C29.13,17.82,25.5,20.59,25.5,24Z"/><path class="cls-3" d="M33.61,19.37a10.27,10.27,0,0,1,2.88.41,1.17,1.17,0,0,1,.81.82,19.91,19.91,0,0,1,.58,4.18c0-.26,0-.51,0-.77a20.1,20.1,0,0,0-.6-4.95,1.17,1.17,0,0,0-.81-.82,10.27,10.27,0,0,0-2.88-.41c-4.48,0-8.11,2.77-8.11,6.18a4.75,4.75,0,0,0,.07.77C26.07,21.73,29.47,19.37,33.61,19.37Z"/><path class="cls-4" d="M25.5,24c0,3.41,3.63,6.18,8.11,6.18l.58,0a31.87,31.87,0,0,0,0-12.32l-.58,0C29.13,17.82,25.5,20.59,25.5,24Z"/><path class="cls-5" d="M25.57,24.77h0c.5-3,3.9-5.41,8-5.41.29,0,.57,0,.85,0-.08-.53-.17-1-.27-1.56l-.58,0c-4.48,0-8.11,2.77-8.11,6.18a4.75,4.75,0,0,0,0,.49C25.54,24.58,25.55,24.68,25.57,24.77Z"/><polygon class="cls-6" points="3 45 11.58 27.86 11.58 20.14 3 3 3 45"/><path class="cls-7" d="M22.5,24c0,3.41-3.63,6.18-8.11,6.18a10.27,10.27,0,0,1-2.88-.41,1.17,1.17,0,0,1-.81-.82,20.62,20.62,0,0,1,0-9.9,1.17,1.17,0,0,1,.81-.82,10.27,10.27,0,0,1,2.88-.41C18.87,17.82,22.5,20.59,22.5,24Z"/><path class="cls-8" d="M14.39,19.37a10.27,10.27,0,0,0-2.88.41,1.17,1.17,0,0,0-.81.82,19.91,19.91,0,0,0-.58,4.18c0-.26,0-.51,0-.77a20.1,20.1,0,0,1,.6-4.95,1.17,1.17,0,0,1,.81-.82,10.27,10.27,0,0,1,2.88-.41c4.48,0,8.11,2.77,8.11,6.18a4.76,4.76,0,0,1-.07.77C21.93,21.73,18.53,19.37,14.39,19.37Z"/><path class="cls-9" d="M22.5,24c0,3.41-3.63,6.18-8.11,6.18l-.58,0a31.87,31.87,0,0,1,0-12.32l.58,0C18.87,17.82,22.5,20.59,22.5,24Z"/><path class="cls-10" d="M22.43,24.77h0c-.5-3-3.9-5.41-8-5.41-.29,0-.57,0-.85,0,.08-.53.17-1,.27-1.56l.58,0c4.48,0,8.11,2.77,8.11,6.18a4.75,4.75,0,0,1,0,.49C22.46,24.58,22.45,24.68,22.43,24.77Z"/></svg>