<svg id="Layer_1" data-name="Layer 1" xmlns="http://www.w3.org/2000/svg" xmlns:xlink="http://www.w3.org/1999/xlink" viewBox="0 0 48 48"><defs><style>.cls-1{fill:url(#linear-gradient);}.cls-2{fill:url(#linear-gradient-2);}.cls-3{fill:url(#linear-gradient-3);}.cls-4{fill:url(#linear-gradient-4);}.cls-5{fill:url(#linear-gradient-5);}.cls-6{fill:url(#linear-gradient-6);}.cls-7{fill:url(#linear-gradient-7);}.cls-8{fill:url(#linear-gradient-8);}.cls-9{fill:url(#linear-gradient-9);}.cls-10{fill:url(#linear-gradient-10);}.cls-11{fill:url(#linear-gradient-11);}.cls-12{fill:url(#linear-gradient-12);}.cls-13{fill:url(#linear-gradient-13);}.cls-14{fill:url(#linear-gradient-14);}.cls-15{fill:url(#linear-gradient-15);}.cls-16{fill:url(#linear-gradient-16);}.cls-17{fill:url(#linear-gradient-17);}.cls-18{fill:url(#linear-gradient-18);}</style><linearGradient id="linear-gradient" x1="23.89" y1="40.92" x2="23.89" y2="-7.17" gradientUnits="userSpaceOnUse"><stop offset="0" stop-color="#f3c57a"/><stop offset="0.49" stop-color="#f39369"/><stop offset="1" stop-color="#e94867"/></linearGradient><linearGradient id="linear-gradient-2" x1="23.89" y1="50.86" x2="23.89" y2="-3.65" xlink:href="#linear-gradient"/><linearGradient id="linear-gradient-3" x1="23.89" y1="25.79" x2="23.89" y2="7.38" xlink:href="#linear-gradient"/><linearGradient id="linear-gradient-4" x1="23.89" y1="29.18" x2="23.89" y2="17.14" xlink:href="#linear-gradient"/><linearGradient id="linear-gradient-5" x1="23.89" y1="39" x2="23.89" y2="15.72" xlink:href="#linear-gradient"/><linearGradient id="linear-gradient-6" x1="23.89" y1="63.89" x2="23.89" y2="18.83" gradientUnits="userSpaceOnUse"><stop offset="0" stop-color="#273a9b"/><stop offset="0.56" stop-color="#202f65"/><stop offset="1" stop-color="#021e2f"/></linearGradient><linearGradient id="linear-gradient-7" x1="41.88" y1="27.83" x2="41.88" y2="24.85" gradientUnits="userSpaceOnUse"><stop offset="0" stop-color="#fff"/><stop offset="0.52" stop-color="#cce2e6"/><stop offset="1" stop-color="#8fa1bb"/></linearGradient><linearGradient id="linear-gradient-8" x1="-0.96" y1="50.35" x2="24.98" y2="22.09" xlink:href="#linear-gradient-6"/><linearGradient id="linear-gradient-9" x1="28.39" y1="20" x2="28.39" y2="12.24" xlink:href="#linear-gradient-6"/><linearGradient id="linear-gradient-10" x1="23.89" y1="23.56" x2="23.89" y2="11.74" xlink:href="#linear-gradient"/><linearGradient id="linear-gradient-11" x1="23.89" y1="12.49" x2="23.89" y2="5.18" xlink:href="#linear-gradient"/><linearGradient id="linear-gradient-12" x1="19.39" y1="20" x2="19.39" y2="12.24" xlink:href="#linear-gradient-6"/><linearGradient id="linear-gradient-13" x1="20.27" y1="17.37" x2="21.5" y2="18.6" xlink:href="#linear-gradient-6"/><linearGradient id="linear-gradient-14" x1="29.27" y1="17.37" x2="30.5" y2="18.6" xlink:href="#linear-gradient-6"/><linearGradient id="linear-gradient-15" x1="17.62" y1="24.37" x2="17.62" y2="7.66" gradientTransform="translate(28.03 -4.84) rotate(67.76)" xlink:href="#linear-gradient"/><linearGradient id="linear-gradient-16" x1="30.17" y1="24.37" x2="30.17" y2="7.66" gradientTransform="translate(9.23 -10.05) rotate(22.24)" xlink:href="#linear-gradient"/><linearGradient id="linear-gradient-17" x1="23.89" y1="0" x2="23.89" y2="24.66" xlink:href="#linear-gradient-6"/><linearGradient id="linear-gradient-18" x1="23.89" y1="11.27" x2="23.89" y2="2.94" xlink:href="#linear-gradient-6"/></defs><title>chick, chicken, hatchling, hatch, animal</title><path class="cls-1" d="M9.13,33c0-14.91,6.61-27,14.77-27S38.66,18.09,38.66,33"/><path class="cls-2" d="M9.13,35.36c0-14.91,6.61-27,14.77-27s14.77,12.09,14.77,27"/><path class="cls-3" d="M23.89,13.73c1.46,0,2.65-3.76,2.65-6.23a4.82,4.82,0,0,0-.12-1.1,8.14,8.14,0,0,0-5.06,0,4.83,4.83,0,0,0-.12,1.1C21.24,10,22.43,13.73,23.89,13.73Z"/><path class="cls-4" d="M21.06,20.33l1.17-.55a3.92,3.92,0,0,1,3.35,0l1.17.55a.34.34,0,0,1,.09.54l-1.69,1.69a1.76,1.76,0,0,1-2.48,0L21,20.87A.34.34,0,0,1,21.06,20.33Z"/><path class="cls-5" d="M38,25.15l-1.4,1.4h0l-1,1a1.54,1.54,0,0,1-2.17,0l-1-1h0l-2.1-2.1a1.54,1.54,0,0,0-2.17,0L26,26.55l-1,1a1.54,1.54,0,0,1-2.17,0l-1-1h0l-2.1-2.1a1.54,1.54,0,0,0-2.17,0l-2.1,2.1h0l-1,1a1.54,1.54,0,0,1-2.17,0l-1-1h0l-1.4-1.4A48,48,0,0,0,9.13,33H38.66A48,48,0,0,0,38,25.15Z"/><path class="cls-6" d="M40.89,27.56a1.54,1.54,0,0,0-2.17,0l-2.1,2.1h0l-1,1a1.54,1.54,0,0,1-2.17,0l-1-1h0l-2.1-2.1a1.54,1.54,0,0,0-2.17,0L26,29.65l-1,1a1.54,1.54,0,0,1-2.17,0l-1-1h0l-2.1-2.1a1.54,1.54,0,0,0-2.17,0l-2.1,2.1h0l-1,1a1.54,1.54,0,0,1-2.17,0l-1-1h0l-2.1-2.1a1.54,1.54,0,0,0-2.17,0h0a2.74,2.74,0,0,0-.76,2.33C7.52,39.46,14.94,45,23.89,45s16.38-5.54,17.76-15.12a2.74,2.74,0,0,0-.76-2.33Z"/><path class="cls-7" d="M41.86,25.4q0,.59,0,1.18C41.89,26.19,41.88,25.79,41.86,25.4Z"/><path class="cls-8" d="M6.13,29.71c0,.14,0,.29.05.43s.1.55.15.82.13.64.2.95v0c.06.26.14.51.21.76s.18.6.28.89H7c.09.25.18.49.28.74s.23.56.35.83.22.46.34.69.27.52.42.77.26.43.4.64.28.41.42.62l.21.28.31.41.33.39a16.17,16.17,0,0,0,1.13,1.2l.19.19.17.16c.21.19.43.38.65.55l.27.21c.28.22.56.43.86.63l.07,0a17.39,17.39,0,0,0,4.45,2.13c-4.49-3-7.44-8.25-7.48-15.19L9.07,27.56a1.54,1.54,0,0,0-2.17,0A2.72,2.72,0,0,0,6.13,29.71Z"/><circle class="cls-9" cx="28.39" cy="16.5" r="1.5"/><path class="cls-10" d="M26.73,20.93l-1.17.55a3.92,3.92,0,0,1-3.35,0l-1.17-.55a.34.34,0,0,1-.09-.54l2-2a1.35,1.35,0,0,1,1.9,0l2,2A.34.34,0,0,1,26.73,20.93Z"/><path class="cls-11" d="M21.06,20.93l.29.14,1.6-1.6a1.35,1.35,0,0,1,1.9,0l1.6,1.6.29-.14a.34.34,0,0,0,.09-.54l-2-2a1.35,1.35,0,0,0-1.9,0l-2,2A.34.34,0,0,0,21.06,20.93Z"/><circle class="cls-12" cx="19.39" cy="16.5" r="1.5"/><path class="cls-13" d="M19.39,15a1.5,1.5,0,0,0-1.5,1.5h1.5Z"/><path class="cls-14" d="M28.39,15a1.5,1.5,0,0,0-1.5,1.5h1.5Z"/><ellipse class="cls-15" cx="17.62" cy="18.45" rx="0.95" ry="2" transform="translate(-6.13 27.78) rotate(-67.76)"/><ellipse class="cls-16" cx="30.17" cy="18.45" rx="2" ry="0.95" transform="translate(-4.74 12.79) rotate(-22.24)"/><path class="cls-17" d="M26.54,5.71c0,2.47-1.19,6.23-2.65,6.23s-2.65-3.76-2.65-6.23S22.43,3,23.89,3,26.54,3.24,26.54,5.71Z"/><path class="cls-18" d="M26.51,6.43a8.15,8.15,0,0,0-5.23,0c.19,2.42,1.29,5.51,2.62,5.51S26.32,8.85,26.51,6.43Z"/></svg>