<svg id="Layer_1" data-name="Layer 1" xmlns="http://www.w3.org/2000/svg" xmlns:xlink="http://www.w3.org/1999/xlink" viewBox="0 0 48 48"><defs><style>.cls-1{fill:url(#linear-gradient);}.cls-2{fill:url(#linear-gradient-2);}.cls-3{fill:url(#linear-gradient-3);}.cls-4{fill:url(#linear-gradient-4);}.cls-5{fill:url(#linear-gradient-5);}.cls-6{fill:url(#linear-gradient-6);}.cls-7{fill:url(#linear-gradient-7);}.cls-8{fill:url(#linear-gradient-8);}.cls-9{fill:url(#linear-gradient-9);}.cls-10{fill:url(#linear-gradient-10);}.cls-11{fill:url(#linear-gradient-11);}.cls-12{fill:url(#linear-gradient-12);}.cls-13{fill:url(#linear-gradient-13);}.cls-14{fill:url(#linear-gradient-14);}.cls-15{fill:url(#linear-gradient-15);}.cls-16{fill:url(#linear-gradient-16);}.cls-17{fill:url(#linear-gradient-17);}.cls-18{fill:url(#linear-gradient-18);}.cls-19{fill:url(#linear-gradient-19);}</style><linearGradient id="linear-gradient" x1="21" y1="41.83" x2="21" y2="-18.24" gradientUnits="userSpaceOnUse"><stop offset="0" stop-color="#273a9b"/><stop offset="0.56" stop-color="#202f65"/><stop offset="1" stop-color="#021e2f"/></linearGradient><linearGradient id="linear-gradient-2" y1="50.48" x2="21" y2="13.5" xlink:href="#linear-gradient"/><linearGradient id="linear-gradient-3" x1="21" y1="38.66" x2="21" y2="-11.43" gradientUnits="userSpaceOnUse"><stop offset="0" stop-color="#fff"/><stop offset="0.52" stop-color="#cce2e6"/><stop offset="1" stop-color="#8fa1bb"/></linearGradient><linearGradient id="linear-gradient-4" y1="18.44" x2="21" y2="-10.39" xlink:href="#linear-gradient-3"/><linearGradient id="linear-gradient-5" x1="21" y1="23.83" x2="21" y2="1.82" gradientUnits="userSpaceOnUse"><stop offset="0" stop-color="#27e9de"/><stop offset="0.52" stop-color="#03a4ec"/><stop offset="1" stop-color="#2547a8"/></linearGradient><linearGradient id="linear-gradient-6" x1="21" y1="25.38" x2="21" y2="11.22" xlink:href="#linear-gradient-5"/><linearGradient id="linear-gradient-7" x1="24.2" y1="27.27" x2="24.2" y2="15.1" gradientUnits="userSpaceOnUse"><stop offset="0" stop-color="#f3c57a"/><stop offset="0.49" stop-color="#f39369"/><stop offset="1" stop-color="#e94867"/></linearGradient><linearGradient id="linear-gradient-8" x1="22.28" y1="30.47" x2="22.28" y2="17.93" xlink:href="#linear-gradient-7"/><linearGradient id="linear-gradient-9" x1="31.04" y1="23.45" x2="31.73" y2="15.71" xlink:href="#linear-gradient-5"/><linearGradient id="linear-gradient-10" x1="56.12" y1="29.1" x2="8.9" y2="4.42" xlink:href="#linear-gradient-3"/><linearGradient id="linear-gradient-11" x1="47.7" y1="45.21" x2="0.49" y2="20.53" xlink:href="#linear-gradient-3"/><linearGradient id="linear-gradient-12" x1="49.71" y1="41.36" x2="2.49" y2="16.69" xlink:href="#linear-gradient-3"/><linearGradient id="linear-gradient-13" y1="26.66" x2="21" y2="12.5" xlink:href="#linear-gradient"/><linearGradient id="linear-gradient-14" x1="36" y1="61" x2="36" y2="4.39" xlink:href="#linear-gradient-7"/><linearGradient id="linear-gradient-15" x1="40.69" y1="50.16" x2="29.13" y2="25.16" xlink:href="#linear-gradient-7"/><linearGradient id="linear-gradient-16" x1="33.94" y1="33.95" x2="25.71" y2="25.71" xlink:href="#linear-gradient-7"/><linearGradient id="linear-gradient-17" x1="36" y1="48.06" x2="36" y2="24.36" xlink:href="#linear-gradient"/><linearGradient id="linear-gradient-18" x1="36" y1="42.53" x2="36" y2="33.9" xlink:href="#linear-gradient"/><linearGradient id="linear-gradient-19" x1="36" y1="38.11" x2="36" y2="29.29" xlink:href="#linear-gradient-3"/></defs><title>clock, time, timer, alarm, settings, preferences</title><circle class="cls-1" cx="21" cy="21" r="18"/><path class="cls-2" d="M33.8,21H8.2V33.64a18,18,0,0,0,25.61,0Z"/><circle class="cls-3" cx="21" cy="21.02" r="12.8"/><circle class="cls-4" cx="21" cy="21" r="10.26"/><path class="cls-5" d="M22.28,21H19.72V13.31A1.28,1.28,0,0,1,21,12h0a1.28,1.28,0,0,1,1.28,1.28Z"/><path class="cls-6" d="M22.28,18.79a2.49,2.49,0,0,0-2.56,0V21h2.56Z"/><path class="cls-7" d="M26.13,22.28H21V19.72h5.13A1.28,1.28,0,0,1,27.41,21h0A1.28,1.28,0,0,1,26.13,22.28Z"/><path class="cls-8" d="M21,22.28h2.21a2.49,2.49,0,0,0,0-2.56H21Z"/><circle class="cls-9" cx="31.26" cy="21" r="0.64"/><circle class="cls-10" cx="21" cy="10.74" r="0.64"/><circle class="cls-11" cx="21" cy="31.26" r="0.64"/><circle class="cls-12" cx="10.74" cy="21" r="0.64"/><circle class="cls-13" cx="21" cy="21" r="1.28"/><circle class="cls-14" cx="36" cy="36" r="9"/><path class="cls-15" d="M37.88,27.2A9,9,0,0,0,27.2,37.88,18,18,0,0,0,37.88,27.2Z"/><path class="cls-16" d="M28.12,31.66a12.87,12.87,0,0,0,3.53-3.53A9,9,0,0,0,28.12,31.66Z"/><path class="cls-17" d="M40,36h0a1.35,1.35,0,0,1,.39-1l.89-.9a.65.65,0,0,0,.1-.78L41,32.64a.65.65,0,0,0-.72-.3L39,32.66a1.35,1.35,0,0,1-1-.15h0a1.33,1.33,0,0,1-.6-.79L37,30.48a.65.65,0,0,0-.62-.48h-.84a.65.65,0,0,0-.62.48l-.34,1.24a1.33,1.33,0,0,1-.6.79h0a1.35,1.35,0,0,1-1,.15l-1.23-.32a.65.65,0,0,0-.72.3l-.42.73a.65.65,0,0,0,.1.78l.93.94A1.27,1.27,0,0,1,32,36h0a1.27,1.27,0,0,1-.35.91l-.93.94a.65.65,0,0,0-.1.78l.42.73a.65.65,0,0,0,.72.3L33,39.33a1.25,1.25,0,0,1,1,.15l0,0a1.25,1.25,0,0,1,.58.74L35,41.52a.65.65,0,0,0,.62.48h.84a.65.65,0,0,0,.62-.48l.34-1.25A1.31,1.31,0,0,1,38,39.5l.07,0a1.21,1.21,0,0,1,.93-.13l1.29.34a.65.65,0,0,0,.72-.3l.42-.73a.65.65,0,0,0-.1-.78l-.89-.9A1.35,1.35,0,0,1,40,36Z"/><path class="cls-18" d="M34.54,40.11a1.12,1.12,0,0,1,.06.12L35,41.52a.65.65,0,0,0,.62.48h.84a.65.65,0,0,0,.62-.48l.34-1.25a1.27,1.27,0,0,1,.07-.15V36H34.54Z"/><circle class="cls-19" cx="36" cy="36" r="1.46"/></svg>