<svg id="Layer_1" data-name="Layer 1" xmlns="http://www.w3.org/2000/svg" xmlns:xlink="http://www.w3.org/1999/xlink" viewBox="0 0 48 48"><defs><style>.cls-1{fill:url(#linear-gradient);}.cls-2{fill:url(#linear-gradient-2);}.cls-3{fill:url(#linear-gradient-3);}.cls-4{fill:url(#linear-gradient-4);}.cls-5{fill:url(#linear-gradient-5);}.cls-6{fill:url(#linear-gradient-6);}.cls-7{fill:url(#linear-gradient-7);}.cls-8{fill:url(#linear-gradient-8);}.cls-9{fill:url(#linear-gradient-9);}.cls-10{fill:url(#linear-gradient-10);}.cls-11{fill:url(#linear-gradient-11);}.cls-12{fill:url(#linear-gradient-12);}.cls-13{fill:url(#linear-gradient-13);}.cls-14{fill:url(#linear-gradient-14);}</style><linearGradient id="linear-gradient" x1="24" y1="84" x2="24" y2="-21.46" gradientUnits="userSpaceOnUse"><stop offset="0" stop-color="#27e9de"/><stop offset="0.52" stop-color="#03a4ec"/><stop offset="1" stop-color="#2547a8"/></linearGradient><linearGradient id="linear-gradient-2" x1="7.55" y1="48.88" x2="7.55" y2="2.23" xlink:href="#linear-gradient"/><linearGradient id="linear-gradient-3" x1="-6.29" y1="68.69" x2="44.21" y2="-3.97" xlink:href="#linear-gradient"/><linearGradient id="linear-gradient-4" x1="36" x2="36" y2="-21.46" xlink:href="#linear-gradient"/><linearGradient id="linear-gradient-5" x1="18.23" y1="13.07" x2="48.17" y2="25.88" xlink:href="#linear-gradient"/><linearGradient id="linear-gradient-6" x1="3.24" y1="-5" x2="29.49" y2="21" xlink:href="#linear-gradient"/><linearGradient id="linear-gradient-7" x1="20" y1="8.94" x2="49.93" y2="21.75" xlink:href="#linear-gradient"/><linearGradient id="linear-gradient-8" x1="5.89" y1="-1.14" x2="35.83" y2="11.68" xlink:href="#linear-gradient"/><linearGradient id="linear-gradient-9" x1="-5.38" y1="6.62" x2="19.86" y2="31.86" xlink:href="#linear-gradient"/><linearGradient id="linear-gradient-10" x1="-8.91" y1="-1.14" x2="29.53" y2="37.3" xlink:href="#linear-gradient"/><linearGradient id="linear-gradient-11" x1="19.5" y1="32.25" x2="19.5" y2="14.66" xlink:href="#linear-gradient"/><linearGradient id="linear-gradient-12" x1="19.5" y1="32.81" x2="19.5" y2="13.99" xlink:href="#linear-gradient"/><linearGradient id="linear-gradient-13" x1="-106.77" y1="-114.46" x2="-106.77" y2="-132.05" gradientTransform="translate(32.78 184.02) rotate(45)" xlink:href="#linear-gradient"/><linearGradient id="linear-gradient-14" x1="38.56" y1="46.57" x2="31.31" y2="19.32" xlink:href="#linear-gradient"/></defs><title>cloud, snow, snowing, weather, forecast</title><path class="cls-1" d="M35.94,13.53a12,12,0,0,0-23.87,0A9.74,9.74,0,0,0,12.75,33h22.5a9.74,9.74,0,0,0,.69-19.47Z"/><path class="cls-2" d="M11.94,13.8l.11-.27a9.74,9.74,0,0,0-9,8.81,9.79,9.79,0,0,1,5.2-4.93A6.53,6.53,0,0,0,11.94,13.8Z"/><path class="cls-3" d="M44.92,22a10.38,10.38,0,0,0-.19-1,9.74,9.74,0,0,0-8.79-7.47,12,12,0,0,0-1.46-4.4h0a12.1,12.1,0,0,0-.84-1.29l0,0c-.14-.18-.28-.36-.43-.53l-.13-.16A12.43,12.43,0,0,0,31.6,5.72l-.23-.19-.44-.32L30.58,5l-.41-.26q-.36-.22-.74-.41l-.35-.16-.54-.24-.36-.14-.68-.23-.23-.07c-.31-.09-.62-.16-.93-.22l-.29,0-.74-.1L25,3c-.34,0-.68,0-1,0s-.76,0-1.14.05l-.44.06c-.22,0-.45.05-.66.09s-.42.1-.63.15l-.44.1c-.21.06-.41.14-.62.21l-.42.14c-.22.09-.44.19-.66.29l-.33.15c-.25.13-.5.27-.74.41l-.19.11c-.27.17-.53.34-.78.53l-.1.07c-.27.2-.53.42-.79.64l0,0a12,12,0,0,0-4,7.47,12,12,0,0,1,11.06-7.3h.1A5.39,5.39,0,0,1,28,14a8.93,8.93,0,0,0-1,4v4.5a9,9,0,0,1,7.25-8.82,12,12,0,0,1,.81,3.06,9.74,9.74,0,0,1,9.06,9.72c0,.31,0,.61,0,.91h0a10,10,0,0,0,.38-.95v0c.1-.3.19-.61.27-.93l0-.1c.06-.29.11-.58.15-.88,0-.06,0-.12,0-.18A9.59,9.59,0,0,0,45,23.25a9.24,9.24,0,0,0-.07-1.12Z"/><path class="cls-4" d="M35.25,33a9.74,9.74,0,0,0,.69-19.47v0a9,9,0,0,0-8.93,9V33Z"/><path class="cls-5" d="M31,22.5h0a1.51,1.51,0,0,1-1.43-2A6.77,6.77,0,0,1,34,16.09a1.51,1.51,0,0,1,2,1.42h0a1.5,1.5,0,0,1-1.07,1.44,3.75,3.75,0,0,0-2.46,2.47A1.5,1.5,0,0,1,31,22.5Z"/><path class="cls-6" d="M16.5,13.1h0a1.51,1.51,0,0,1-1.43-2,6.77,6.77,0,0,1,4.42-4.45,1.51,1.51,0,0,1,2,1.42h0a1.5,1.5,0,0,1-1.07,1.44A3.75,3.75,0,0,0,17.93,12,1.5,1.5,0,0,1,16.5,13.1Z"/><circle class="cls-7" cx="38.1" cy="16.69" r="0.9"/><circle class="cls-8" cx="24" cy="6.61" r="0.9"/><circle class="cls-9" cx="7.5" cy="19.5" r="0.9"/><circle class="cls-10" cx="10.7" cy="18.47" r="1.36"/><path class="cls-11" d="M24,36.63l1.45-.83a1.5,1.5,0,0,0,.55-2h0a1.5,1.5,0,0,0-2-.55L22.5,34,21,33.17V31.5A1.5,1.5,0,0,0,19.5,30h0A1.5,1.5,0,0,0,18,31.5v1.67L16.5,34l-1.45-.83a1.5,1.5,0,0,0-2,.55h0a1.5,1.5,0,0,0,.55,2l1.45.83v1.73l-1.45.83a1.5,1.5,0,0,0-.55,2h0a1.5,1.5,0,0,0,2,.55L16.5,41l1.5.87V43.5A1.5,1.5,0,0,0,19.5,45h0A1.5,1.5,0,0,0,21,43.5V41.83L22.5,41l1.45.83a1.5,1.5,0,0,0,2-.55h0a1.5,1.5,0,0,0-.55-2L24,38.37Zm-3,0v1.73l-1.5.87L18,38.37V36.63l1.5-.87Z"/><path class="cls-12" d="M19.5,30A1.5,1.5,0,0,0,18,31.5V33h3V31.5A1.5,1.5,0,0,0,19.5,30Z"/><path class="cls-13" d="M38.29,33.87l1.61.43a1.5,1.5,0,0,0,1.84-1.06h0a1.5,1.5,0,0,0-1.06-1.84L39.07,31l-.45-1.67,1.18-1.18a1.5,1.5,0,0,0,0-2.12h0a1.5,1.5,0,0,0-2.12,0L36.5,27.17l-1.67-.45-.43-1.61a1.5,1.5,0,0,0-1.84-1.06h0a1.5,1.5,0,0,0-1.06,1.84l.43,1.61-1.22,1.22-1.61-.43a1.5,1.5,0,0,0-1.84,1.06h0a1.5,1.5,0,0,0,1.06,1.84l1.61.43.45,1.67L29.2,34.48a1.5,1.5,0,0,0,0,2.12h0a1.5,1.5,0,0,0,2.12,0l1.18-1.18,1.67.45.43,1.61a1.5,1.5,0,0,0,1.84,1.06h0A1.5,1.5,0,0,0,37.5,36.7l-.43-1.61Zm-2.12-2.12L34.95,33l-1.67-.45-.45-1.67,1.22-1.23,1.67.45Z"/><path class="cls-14" d="M39.8,26a1.5,1.5,0,0,0-2.12,0L36.5,27.17l-1.67-.45-.43-1.61a1.5,1.5,0,0,0-2.9.78l.43,1.61-1.22,1.22-1.61-.43a1.5,1.5,0,0,0-.78,2.9l1.61.43L30.3,33h5a9.7,9.7,0,0,0,5.37-1.62L39.07,31l-.45-1.67,1.18-1.18A1.5,1.5,0,0,0,39.8,26Zm-4.86,7-1.67-.45-.45-1.67,1.22-1.22,1.67.45.45,1.67Z"/></svg>