<svg id="Layer_1" data-name="Layer 1" xmlns="http://www.w3.org/2000/svg" xmlns:xlink="http://www.w3.org/1999/xlink" viewBox="0 0 48 48"><defs><style>.cls-1{fill:url(#linear-gradient);}.cls-2{fill:url(#linear-gradient-2);}.cls-3{fill:url(#linear-gradient-3);}.cls-4{fill:url(#linear-gradient-4);}.cls-5{fill:url(#linear-gradient-5);}.cls-6{fill:url(#linear-gradient-6);}.cls-7{fill:url(#linear-gradient-7);}.cls-8{fill:url(#linear-gradient-8);}.cls-9{fill:url(#linear-gradient-9);}</style><linearGradient id="linear-gradient" x1="19.52" y1="12.17" x2="19.52" y2="-8.58" gradientUnits="userSpaceOnUse"><stop offset="0" stop-color="#273a9b"/><stop offset="0.56" stop-color="#202f65"/><stop offset="1" stop-color="#021e2f"/></linearGradient><linearGradient id="linear-gradient-2" x1="24" y1="6.17" x2="24" y2="71.08" gradientUnits="userSpaceOnUse"><stop offset="0" stop-color="#fff"/><stop offset="0.52" stop-color="#cce2e6"/><stop offset="1" stop-color="#8fa1bb"/></linearGradient><linearGradient id="linear-gradient-3" x1="24" y1="21.09" x2="24" y2="-2.58" xlink:href="#linear-gradient"/><linearGradient id="linear-gradient-4" x1="24" y1="7.01" x2="24" y2="29.77" xlink:href="#linear-gradient"/><linearGradient id="linear-gradient-5" y1="-16.66" x2="24" y2="78.43" xlink:href="#linear-gradient-2"/><linearGradient id="linear-gradient-6" x1="24" y1="57.34" x2="24" y2="-4.66" gradientUnits="userSpaceOnUse"><stop offset="0" stop-color="#27e9de"/><stop offset="0.52" stop-color="#03a4ec"/><stop offset="1" stop-color="#2547a8"/></linearGradient><linearGradient id="linear-gradient-7" x1="27.37" y1="58.84" x2="27.37" y2="13.33" xlink:href="#linear-gradient-6"/><linearGradient id="linear-gradient-8" y1="30.53" x2="24" y2="17.93" xlink:href="#linear-gradient-2"/><linearGradient id="linear-gradient-9" x1="24.62" y1="38.15" x2="24.62" y2="18.63" xlink:href="#linear-gradient-2"/></defs><title>coffee, beverage, drink, container</title><path class="cls-1" d="M15,6.75l1.09-2.91a1,1,0,0,1,1.36-.6L24,5.84"/><path class="cls-2" d="M31.18,44.84H16.82A2.11,2.11,0,0,1,14.73,43L10.5,14.84h27L33.27,43A2.11,2.11,0,0,1,31.18,44.84Z"/><rect class="cls-3" x="7.5" y="8.84" width="33" height="6" rx="1.76" ry="1.76"/><path class="cls-4" d="M11.94,5.84H36.06A1.44,1.44,0,0,1,37.5,7.28V8.84a0,0,0,0,1,0,0h-27a0,0,0,0,1,0,0V7.28A1.44,1.44,0,0,1,11.94,5.84Z"/><path class="cls-5" d="M24,14.84H10.5l.45,3,7.89,4.79A10.71,10.71,0,0,1,24,31.79V44.84h7.18A2.11,2.11,0,0,0,33.27,43l4.23-28.2Z"/><polygon class="cls-6" points="34.58 34.34 36.38 22.34 11.63 22.34 13.43 34.34 34.58 34.34"/><path class="cls-7" d="M34.58,34.34l1.8-12h-18l.48.29A10.71,10.71,0,0,1,24,31.79v2.55Z"/><circle class="cls-8" cx="24" cy="28.34" r="3.03"/><path class="cls-9" d="M24,25.31a3,3,0,0,0-1.79.59A10.68,10.68,0,0,1,24,31.37h0a3,3,0,1,0,0-6.06Z"/></svg>