<svg id="Layer_1" data-name="Layer 1" xmlns="http://www.w3.org/2000/svg" xmlns:xlink="http://www.w3.org/1999/xlink" viewBox="0 0 48 48"><defs><style>.cls-1{fill:url(#linear-gradient);}.cls-2{fill:url(#linear-gradient-2);}.cls-3{fill:url(#linear-gradient-3);}.cls-4{fill:url(#linear-gradient-4);}.cls-5{fill:url(#linear-gradient-5);}.cls-6{fill:url(#linear-gradient-6);}.cls-7{fill:url(#linear-gradient-7);}.cls-8{fill:url(#linear-gradient-8);}.cls-9{fill:url(#linear-gradient-9);}.cls-10{fill:url(#linear-gradient-10);}.cls-11{fill:url(#linear-gradient-11);}.cls-12{fill:url(#linear-gradient-12);}.cls-13{fill:url(#linear-gradient-13);}.cls-14{fill:url(#linear-gradient-14);}.cls-15{fill:url(#linear-gradient-15);}.cls-16{fill:url(#linear-gradient-16);}.cls-17{fill:url(#linear-gradient-17);}.cls-18{fill:url(#linear-gradient-18);}.cls-19{fill:url(#linear-gradient-19);}.cls-20{fill:url(#linear-gradient-20);}.cls-21{fill:url(#linear-gradient-21);}.cls-22{fill:url(#linear-gradient-22);}.cls-23{fill:url(#linear-gradient-23);}.cls-24{fill:url(#linear-gradient-24);}.cls-25{fill:url(#linear-gradient-25);}.cls-26{fill:url(#linear-gradient-26);}.cls-27{fill:url(#linear-gradient-27);}.cls-28{fill:url(#linear-gradient-28);}.cls-29{fill:url(#linear-gradient-29);}.cls-30{fill:url(#linear-gradient-30);}.cls-31{fill:url(#linear-gradient-31);}.cls-32{fill:url(#linear-gradient-32);}.cls-33{fill:url(#linear-gradient-33);}.cls-34{fill:url(#linear-gradient-34);}.cls-35{fill:url(#linear-gradient-35);}.cls-36{fill:url(#linear-gradient-36);}.cls-37{fill:url(#linear-gradient-37);}.cls-38{fill:url(#linear-gradient-38);}.cls-39{fill:url(#linear-gradient-39);}.cls-40{fill:url(#linear-gradient-40);}.cls-41{fill:url(#linear-gradient-41);}.cls-42{fill:url(#linear-gradient-42);}.cls-43{fill:url(#linear-gradient-43);}.cls-44{fill:url(#linear-gradient-44);}.cls-45{fill:url(#linear-gradient-45);}.cls-46{fill:url(#linear-gradient-46);}.cls-47{fill:url(#linear-gradient-47);}</style><linearGradient id="linear-gradient" x1="33" y1="39.71" x2="33" y2="32.54" gradientUnits="userSpaceOnUse"><stop offset="0" stop-color="#fff"/><stop offset="0.52" stop-color="#cce2e6"/><stop offset="1" stop-color="#8fa1bb"/></linearGradient><linearGradient id="linear-gradient-2" x1="15" y1="43.67" x2="15" y2="36.5" xlink:href="#linear-gradient"/><linearGradient id="linear-gradient-3" x1="33" y1="44" x2="33" y2="23.14" gradientUnits="userSpaceOnUse"><stop offset="0" stop-color="#f3c57a"/><stop offset="0.49" stop-color="#f39369"/><stop offset="1" stop-color="#e94867"/></linearGradient><linearGradient id="linear-gradient-4" y1="40.46" y2="27.84" xlink:href="#linear-gradient-3"/><linearGradient id="linear-gradient-5" y1="48.93" y2="26.78" xlink:href="#linear-gradient-3"/><linearGradient id="linear-gradient-6" y1="25.58" y2="41.92" xlink:href="#linear-gradient-3"/><linearGradient id="linear-gradient-7" y1="30.25" y2="21.56" xlink:href="#linear-gradient-3"/><linearGradient id="linear-gradient-8" y1="38" y2="17.14" xlink:href="#linear-gradient-3"/><linearGradient id="linear-gradient-9" y1="34.46" y2="21.84" xlink:href="#linear-gradient-3"/><linearGradient id="linear-gradient-10" y1="42.93" y2="20.78" xlink:href="#linear-gradient-3"/><linearGradient id="linear-gradient-11" y1="19.58" y2="35.92" xlink:href="#linear-gradient-3"/><linearGradient id="linear-gradient-12" y1="24.25" y2="15.56" xlink:href="#linear-gradient-3"/><linearGradient id="linear-gradient-13" y1="32" y2="11.14" xlink:href="#linear-gradient-3"/><linearGradient id="linear-gradient-14" y1="28.46" y2="15.84" xlink:href="#linear-gradient-3"/><linearGradient id="linear-gradient-15" y1="36.93" y2="14.78" xlink:href="#linear-gradient-3"/><linearGradient id="linear-gradient-16" y1="13.58" y2="29.92" xlink:href="#linear-gradient-3"/><linearGradient id="linear-gradient-17" y1="18.25" y2="9.56" xlink:href="#linear-gradient-3"/><linearGradient id="linear-gradient-18" x1="15" y1="50" x2="15" y2="29.14" xlink:href="#linear-gradient-3"/><linearGradient id="linear-gradient-19" x1="15" y1="46.46" x2="15" y2="33.84" xlink:href="#linear-gradient-3"/><linearGradient id="linear-gradient-20" x1="15" y1="54.93" x2="15" y2="32.78" xlink:href="#linear-gradient-3"/><linearGradient id="linear-gradient-21" x1="15" y1="31.58" x2="15" y2="47.92" xlink:href="#linear-gradient-3"/><linearGradient id="linear-gradient-22" x1="15" y1="36.25" x2="15" y2="27.56" xlink:href="#linear-gradient-3"/><linearGradient id="linear-gradient-23" x1="15" y1="44" x2="15" y2="23.14" xlink:href="#linear-gradient-3"/><linearGradient id="linear-gradient-24" x1="15" y1="40.46" x2="15" y2="27.84" xlink:href="#linear-gradient-3"/><linearGradient id="linear-gradient-25" x1="15" y1="48.93" x2="15" y2="26.78" xlink:href="#linear-gradient-3"/><linearGradient id="linear-gradient-26" x1="15" y1="25.58" x2="15" y2="41.92" xlink:href="#linear-gradient-3"/><linearGradient id="linear-gradient-27" x1="15" y1="30.25" x2="15" y2="21.56" xlink:href="#linear-gradient-3"/><linearGradient id="linear-gradient-28" x1="15" y1="38" x2="15" y2="17.14" xlink:href="#linear-gradient-3"/><linearGradient id="linear-gradient-29" x1="15" y1="34.46" x2="15" y2="21.84" xlink:href="#linear-gradient-3"/><linearGradient id="linear-gradient-30" x1="15" y1="42.93" x2="15" y2="20.78" xlink:href="#linear-gradient-3"/><linearGradient id="linear-gradient-31" x1="15" y1="19.58" x2="15" y2="35.92" xlink:href="#linear-gradient-3"/><linearGradient id="linear-gradient-32" x1="15" y1="24.25" x2="15" y2="15.56" xlink:href="#linear-gradient-3"/><linearGradient id="linear-gradient-33" x1="15" y1="32" x2="15" y2="11.14" xlink:href="#linear-gradient-3"/><linearGradient id="linear-gradient-34" x1="15" y1="28.46" x2="15" y2="15.84" xlink:href="#linear-gradient-3"/><linearGradient id="linear-gradient-35" x1="15" y1="36.93" x2="15" y2="14.78" xlink:href="#linear-gradient-3"/><linearGradient id="linear-gradient-36" x1="15" y1="13.58" x2="15" y2="29.92" xlink:href="#linear-gradient-3"/><linearGradient id="linear-gradient-37" x1="15" y1="18.25" x2="15" y2="9.56" xlink:href="#linear-gradient-3"/><linearGradient id="linear-gradient-38" x1="15" y1="26" x2="15" y2="5.14" xlink:href="#linear-gradient-3"/><linearGradient id="linear-gradient-39" x1="15" y1="22.46" x2="15" y2="9.84" xlink:href="#linear-gradient-3"/><linearGradient id="linear-gradient-40" x1="15" y1="30.93" x2="15" y2="8.78" xlink:href="#linear-gradient-3"/><linearGradient id="linear-gradient-41" x1="15" y1="7.58" x2="15" y2="23.92" xlink:href="#linear-gradient-3"/><linearGradient id="linear-gradient-42" x1="15" y1="12.25" x2="15" y2="3.56" xlink:href="#linear-gradient-3"/><linearGradient id="linear-gradient-43" x1="15" y1="20" x2="15" y2="-0.86" xlink:href="#linear-gradient-3"/><linearGradient id="linear-gradient-44" x1="15" y1="16.46" x2="15" y2="3.84" xlink:href="#linear-gradient-3"/><linearGradient id="linear-gradient-45" x1="15" y1="24.93" x2="15" y2="2.78" xlink:href="#linear-gradient-3"/><linearGradient id="linear-gradient-46" x1="15" y1="1.58" x2="15" y2="17.92" xlink:href="#linear-gradient-3"/><linearGradient id="linear-gradient-47" x1="15" y1="6.25" x2="15" y2="-2.44" xlink:href="#linear-gradient-3"/></defs><title>coin, money, finance, payment</title><rect class="cls-1" x="22.5" y="33.21" width="21" height="7.08"/><rect class="cls-2" x="4.5" y="37.17" width="21" height="7.08"/><path class="cls-3" d="M22.5,29.25v4.5c0,.83,4.7,1.5,10.5,1.5s10.5-.67,10.5-1.5v-4.5Z"/><path class="cls-4" d="M22.5,29.25v1.92c0,.83,4.7,1.5,10.5,1.5s10.5-.67,10.5-1.5V29.25Z"/><path class="cls-5" d="M33,29.25H22.5v1.92c0,.73,3.61,1.33,8.41,1.47A2.14,2.14,0,0,1,33,34.77v.48c5.8,0,10.5-.67,10.5-1.5v-4.5Z"/><ellipse class="cls-6" cx="33" cy="29.25" rx="10.5" ry="1.5"/><ellipse class="cls-7" cx="33" cy="29.25" rx="6.69" ry="0.42"/><path class="cls-8" d="M22.5,23.25v4.5c0,.83,4.7,1.5,10.5,1.5s10.5-.67,10.5-1.5v-4.5Z"/><path class="cls-9" d="M22.5,23.25v1.92c0,.83,4.7,1.5,10.5,1.5s10.5-.67,10.5-1.5V23.25Z"/><path class="cls-10" d="M33,23.25H22.5v1.92c0,.73,3.61,1.33,8.41,1.47A2.14,2.14,0,0,1,33,28.77v.48c5.8,0,10.5-.67,10.5-1.5v-4.5Z"/><ellipse class="cls-11" cx="33" cy="23.25" rx="10.5" ry="1.5"/><ellipse class="cls-12" cx="33" cy="23.25" rx="6.69" ry="0.42"/><path class="cls-13" d="M22.5,17.25v4.5c0,.83,4.7,1.5,10.5,1.5s10.5-.67,10.5-1.5v-4.5Z"/><path class="cls-14" d="M22.5,17.25v1.92c0,.83,4.7,1.5,10.5,1.5s10.5-.67,10.5-1.5V17.25Z"/><path class="cls-15" d="M33,17.25H22.5v1.92c0,.73,3.61,1.33,8.41,1.47A2.14,2.14,0,0,1,33,22.77v.48c5.8,0,10.5-.67,10.5-1.5v-4.5Z"/><ellipse class="cls-16" cx="33" cy="17.25" rx="10.5" ry="1.5"/><ellipse class="cls-17" cx="33" cy="17.25" rx="6.69" ry="0.42"/><path class="cls-18" d="M4.5,35.25v4.5c0,.83,4.7,1.5,10.5,1.5s10.5-.67,10.5-1.5v-4.5Z"/><path class="cls-19" d="M4.5,35.25v1.92c0,.83,4.7,1.5,10.5,1.5s10.5-.67,10.5-1.5V35.25Z"/><path class="cls-20" d="M15,35.25H4.5v1.92c0,.73,3.61,1.33,8.41,1.47A2.14,2.14,0,0,1,15,40.77v.48c5.8,0,10.5-.67,10.5-1.5v-4.5Z"/><ellipse class="cls-21" cx="15" cy="35.25" rx="10.5" ry="1.5"/><ellipse class="cls-22" cx="15" cy="35.25" rx="6.69" ry="0.42"/><path class="cls-23" d="M4.5,29.25v4.5c0,.83,4.7,1.5,10.5,1.5s10.5-.67,10.5-1.5v-4.5Z"/><path class="cls-24" d="M4.5,29.25v1.92c0,.83,4.7,1.5,10.5,1.5s10.5-.67,10.5-1.5V29.25Z"/><path class="cls-25" d="M15,29.25H4.5v1.92c0,.73,3.61,1.33,8.41,1.47A2.14,2.14,0,0,1,15,34.77v.48c5.8,0,10.5-.67,10.5-1.5v-4.5Z"/><ellipse class="cls-26" cx="15" cy="29.25" rx="10.5" ry="1.5"/><ellipse class="cls-27" cx="15" cy="29.25" rx="6.69" ry="0.42"/><path class="cls-28" d="M4.5,23.25v4.5c0,.83,4.7,1.5,10.5,1.5s10.5-.67,10.5-1.5v-4.5Z"/><path class="cls-29" d="M4.5,23.25v1.92c0,.83,4.7,1.5,10.5,1.5s10.5-.67,10.5-1.5V23.25Z"/><path class="cls-30" d="M15,23.25H4.5v1.92c0,.73,3.61,1.33,8.41,1.47A2.14,2.14,0,0,1,15,28.77v.48c5.8,0,10.5-.67,10.5-1.5v-4.5Z"/><ellipse class="cls-31" cx="15" cy="23.25" rx="10.5" ry="1.5"/><ellipse class="cls-32" cx="15" cy="23.25" rx="6.69" ry="0.42"/><path class="cls-33" d="M4.5,17.25v4.5c0,.83,4.7,1.5,10.5,1.5s10.5-.67,10.5-1.5v-4.5Z"/><path class="cls-34" d="M4.5,17.25v1.92c0,.83,4.7,1.5,10.5,1.5s10.5-.67,10.5-1.5V17.25Z"/><path class="cls-35" d="M15,17.25H4.5v1.92c0,.73,3.61,1.33,8.41,1.47A2.14,2.14,0,0,1,15,22.77v.48c5.8,0,10.5-.67,10.5-1.5v-4.5Z"/><ellipse class="cls-36" cx="15" cy="17.25" rx="10.5" ry="1.5"/><ellipse class="cls-37" cx="15" cy="17.25" rx="6.69" ry="0.42"/><path class="cls-38" d="M4.5,11.25v4.5c0,.83,4.7,1.5,10.5,1.5s10.5-.67,10.5-1.5v-4.5Z"/><path class="cls-39" d="M4.5,11.25v1.92c0,.83,4.7,1.5,10.5,1.5s10.5-.67,10.5-1.5V11.25Z"/><path class="cls-40" d="M15,11.25H4.5v1.92c0,.73,3.61,1.33,8.41,1.47A2.14,2.14,0,0,1,15,16.77v.48c5.8,0,10.5-.67,10.5-1.5v-4.5Z"/><ellipse class="cls-41" cx="15" cy="11.25" rx="10.5" ry="1.5"/><ellipse class="cls-42" cx="15" cy="11.25" rx="6.69" ry="0.42"/><path class="cls-43" d="M4.5,5.25v4.5c0,.83,4.7,1.5,10.5,1.5s10.5-.67,10.5-1.5V5.25Z"/><path class="cls-44" d="M4.5,5.25V7.17C4.5,8,9.2,8.67,15,8.67S25.5,8,25.5,7.17V5.25Z"/><path class="cls-45" d="M15,5.25H4.5V7.17c0,.73,3.61,1.33,8.41,1.47A2.14,2.14,0,0,1,15,10.77v.48c5.8,0,10.5-.67,10.5-1.5V5.25Z"/><ellipse class="cls-46" cx="15" cy="5.25" rx="10.5" ry="1.5"/><ellipse class="cls-47" cx="15" cy="5.25" rx="6.69" ry="0.42"/></svg>