<svg id="Layer_1" data-name="Layer 1" xmlns="http://www.w3.org/2000/svg" xmlns:xlink="http://www.w3.org/1999/xlink" viewBox="0 0 48 48"><defs><style>.cls-1{fill:url(#linear-gradient);}.cls-2{fill:url(#linear-gradient-2);}.cls-3{fill:url(#linear-gradient-3);}.cls-4{fill:url(#linear-gradient-4);}.cls-5{fill:url(#linear-gradient-5);}.cls-6{fill:url(#linear-gradient-6);}.cls-7{fill:url(#linear-gradient-7);}.cls-8{fill:#fff;}.cls-9{fill:url(#linear-gradient-8);}.cls-10{fill:url(#linear-gradient-9);}.cls-11{fill:url(#linear-gradient-10);}.cls-12{fill:url(#linear-gradient-11);}.cls-13{fill:url(#linear-gradient-12);}.cls-14{fill:url(#linear-gradient-13);}.cls-15{fill:url(#linear-gradient-14);}.cls-16{fill:url(#linear-gradient-15);}.cls-17{fill:url(#linear-gradient-16);}.cls-18{fill:url(#linear-gradient-17);}.cls-19{fill:url(#linear-gradient-18);}.cls-20{fill:url(#linear-gradient-19);}.cls-21{fill:url(#linear-gradient-20);}</style><linearGradient id="linear-gradient" x1="5.11" y1="29.5" x2="5.11" y2="0.2" gradientUnits="userSpaceOnUse"><stop offset="0" stop-color="#273a9b"/><stop offset="0.56" stop-color="#202f65"/><stop offset="1" stop-color="#021e2f"/></linearGradient><linearGradient id="linear-gradient-2" x1="42.89" y1="29.5" x2="42.89" y2="0.2" xlink:href="#linear-gradient"/><linearGradient id="linear-gradient-3" x1="24" y1="-3.58" x2="24" y2="-15.72" xlink:href="#linear-gradient"/><linearGradient id="linear-gradient-4" x1="24" y1="4.44" x2="24" y2="29.32" xlink:href="#linear-gradient"/><linearGradient id="linear-gradient-5" x1="24" y1="29.58" x2="24" y2="-4.38" xlink:href="#linear-gradient"/><linearGradient id="linear-gradient-6" x1="24" y1="34.5" x2="24" y2="15.98" gradientUnits="userSpaceOnUse"><stop offset="0" stop-color="#27e9de"/><stop offset="0.52" stop-color="#03a4ec"/><stop offset="1" stop-color="#2547a8"/></linearGradient><linearGradient id="linear-gradient-7" x1="24" y1="13.83" x2="24" y2="27.36" xlink:href="#linear-gradient-6"/><linearGradient id="linear-gradient-8" x1="24" y1="60.04" x2="24" y2="6.57" xlink:href="#linear-gradient-6"/><linearGradient id="linear-gradient-9" x1="26.22" y1="72" x2="26.22" y2="4.78" xlink:href="#linear-gradient-6"/><linearGradient id="linear-gradient-10" x1="24" y1="60.08" x2="24" y2="19.1" xlink:href="#linear-gradient-6"/><linearGradient id="linear-gradient-11" x1="22.71" y1="60.08" x2="22.71" y2="19.1" xlink:href="#linear-gradient-6"/><linearGradient id="linear-gradient-12" x1="20.45" y1="60.08" x2="20.45" y2="19.1" xlink:href="#linear-gradient-6"/><linearGradient id="linear-gradient-13" x1="175.71" y1="60.08" x2="175.71" y2="19.1" gradientTransform="matrix(-1, 0, 0, 1, 201, 0)" xlink:href="#linear-gradient-6"/><linearGradient id="linear-gradient-14" x1="173.45" y1="60.08" x2="173.45" y2="19.1" gradientTransform="matrix(-1, 0, 0, 1, 201, 0)" xlink:href="#linear-gradient-6"/><linearGradient id="linear-gradient-15" x1="24" y1="43.06" x2="24" y2="21.15" xlink:href="#linear-gradient-6"/><linearGradient id="linear-gradient-16" x1="24" y1="40.3" x2="24" y2="22.23" gradientUnits="userSpaceOnUse"><stop offset="0" stop-color="#fff"/><stop offset="0.52" stop-color="#cce2e6"/><stop offset="1" stop-color="#8fa1bb"/></linearGradient><linearGradient id="linear-gradient-17" x1="22.71" y1="33.87" x2="22.71" y2="24.83" xlink:href="#linear-gradient-16"/><linearGradient id="linear-gradient-18" x1="20.45" y1="35.48" x2="20.45" y2="26.44" xlink:href="#linear-gradient-16"/><linearGradient id="linear-gradient-19" x1="175.71" y1="33.87" x2="175.71" y2="24.83" gradientTransform="matrix(-1, 0, 0, 1, 201, 0)" xlink:href="#linear-gradient-16"/><linearGradient id="linear-gradient-20" x1="173.45" y1="35.48" x2="173.45" y2="26.44" gradientTransform="matrix(-1, 0, 0, 1, 201, 0)" xlink:href="#linear-gradient-16"/></defs><title>collar, pet, animal, dog, cat</title><path class="cls-1" d="M7.23,15C4.59,13.75,3,12.19,3,10.5v9C3,17.81,4.59,16.25,7.23,15Z"/><path class="cls-2" d="M40.77,15C43.41,16.25,45,17.81,45,19.5v-9C45,12.19,43.41,13.75,40.77,15Z"/><path class="cls-3" d="M7.23,15c3.83-1.82,9.91-3,16.77-3s12.94,1.18,16.77,3C43.41,13.75,45,12.19,45,10.5,45,6.36,35.6,3,24,3S3,6.36,3,10.5C3,12.19,4.59,13.75,7.23,15Z"/><path class="cls-4" d="M24,12c6.86,0,12.94,1.18,16.77,3a14.5,14.5,0,0,0,1.39-.76C38.52,12,31.76,10.5,24,10.5S9.48,12,5.84,14.24A14.5,14.5,0,0,0,7.23,15C11.06,13.18,17.14,12,24,12Z"/><path class="cls-5" d="M40.77,15c-3.83,1.82-9.91,3-16.77,3S11.06,16.82,7.23,15C4.59,16.25,3,17.81,3,19.5,3,23.64,12.4,27,24,27s21-3.36,21-7.5C45,17.81,43.41,16.25,40.77,15Z"/><path class="cls-6" d="M31.07,27.26a13.94,13.94,0,0,0-3.71-1.51.67.67,0,0,1-.51-.83,2.94,2.94,0,0,0,.09-1.54A3,3,0,0,0,21,24a2.92,2.92,0,0,0,.13.86.69.69,0,0,1-.49.89,13.94,13.94,0,0,0-3.72,1.51,6.75,6.75,0,0,0-3.32,5.83V37.2a6.89,6.89,0,0,0,3.5,6,14,14,0,0,0,13.78,0,6.89,6.89,0,0,0,3.5-6V33.09A6.75,6.75,0,0,0,31.07,27.26Z"/><path class="cls-7" d="M31.07,27.26a13.94,13.94,0,0,0-3.71-1.51.67.67,0,0,1-.51-.83,2.93,2.93,0,0,0,.13-.66,15.44,15.44,0,0,0-6,0,2.94,2.94,0,0,0,.11.6.69.69,0,0,1-.49.89,13.94,13.94,0,0,0-3.72,1.51c-.13.08-.25.17-.37.25.09,1.88,3.38,3.39,7.45,3.39s7.36-1.51,7.45-3.39C31.32,27.43,31.2,27.34,31.07,27.26Z"/><circle class="cls-8" cx="10.44" cy="20.42" r="0.75"/><circle class="cls-8" cx="14.94" cy="21.58" r="0.75"/><circle class="cls-8" cx="37.56" cy="20.42" r="0.75"/><circle class="cls-8" cx="33.06" cy="21.58" r="0.75"/><path class="cls-9" d="M13.61,33.09v4.17A6.78,6.78,0,0,0,17,43.12h0a14,14,0,0,0,14,0h0a6.78,6.78,0,0,0,3.39-5.87V33.09A6.78,6.78,0,0,0,31,27.22h0a14,14,0,0,0-14,0h0A6.78,6.78,0,0,0,13.61,33.09Z"/><path class="cls-10" d="M31.28,43a6.71,6.71,0,0,0,3.11-5.76V33.09A6.64,6.64,0,0,0,31.3,27.4a14,14,0,0,0-13.25-.72l3.21,2.84A8.11,8.11,0,0,1,24,35.59v3.68a4.56,4.56,0,0,0,6.79,4Z"/><path class="cls-11" d="M26.63,36.06l-.09,0a1.74,1.74,0,0,1-.73-.64,2.14,2.14,0,0,0-3.62,0,1.74,1.74,0,0,1-.73.64l-.09,0a2.16,2.16,0,0,0-.88,3.14c.5,1,1.22,1.29,2.68.59h0a1.87,1.87,0,0,1,1.63,0h0c1.46.71,2.18.44,2.68-.59A2.16,2.16,0,0,0,26.63,36.06Z"/><path class="cls-12" d="M23.68,32.77c0,.89-.43,1.29-1,1.29s-1-.4-1-1.29.43-1.61,1-1.61S23.68,31.88,23.68,32.77Z"/><path class="cls-13" d="M21.42,34.38c0,.89-.43,1.29-1,1.29s-1-.4-1-1.29.43-1.61,1-1.61S21.42,33.49,21.42,34.38Z"/><path class="cls-14" d="M24.32,32.77c0,.89.43,1.29,1,1.29s1-.4,1-1.29-.43-1.61-1-1.61S24.32,31.88,24.32,32.77Z"/><path class="cls-15" d="M26.58,34.38c0,.89.43,1.29,1,1.29s1-.4,1-1.29-.43-1.61-1-1.61S26.58,33.49,26.58,34.38Z"/><path class="cls-16" d="M18,26.69A56.85,56.85,0,0,0,24,27a56.85,56.85,0,0,0,6-.31A14,14,0,0,0,18,26.69Z"/><path class="cls-17" d="M26.63,35.56l-.09,0a1.74,1.74,0,0,1-.73-.64,2.14,2.14,0,0,0-3.62,0,1.74,1.74,0,0,1-.73.64l-.09,0a2.16,2.16,0,0,0-.88,3.14c.5,1,1.22,1.29,2.68.59h0a1.87,1.87,0,0,1,1.63,0h0c1.46.71,2.18.44,2.68-.59A2.16,2.16,0,0,0,26.63,35.56Z"/><path class="cls-18" d="M23.68,32.27c0,.89-.43,1.29-1,1.29s-1-.4-1-1.29.43-1.61,1-1.61S23.68,31.38,23.68,32.27Z"/><path class="cls-19" d="M21.42,33.88c0,.89-.43,1.29-1,1.29s-1-.4-1-1.29.43-1.61,1-1.61S21.42,33,21.42,33.88Z"/><path class="cls-20" d="M24.32,32.27c0,.89.43,1.29,1,1.29s1-.4,1-1.29-.43-1.61-1-1.61S24.32,31.38,24.32,32.27Z"/><path class="cls-21" d="M26.58,33.88c0,.89.43,1.29,1,1.29s1-.4,1-1.29-.43-1.61-1-1.61S26.58,33,26.58,33.88Z"/></svg>