<svg id="Layer_1" data-name="Layer 1" xmlns="http://www.w3.org/2000/svg" xmlns:xlink="http://www.w3.org/1999/xlink" viewBox="0 0 48 48"><defs><style>.cls-1{fill:url(#linear-gradient);}.cls-2{fill:url(#linear-gradient-2);}.cls-3{fill:url(#linear-gradient-3);}.cls-4{fill:url(#linear-gradient-4);}.cls-5{fill:url(#linear-gradient-5);}.cls-6{fill:url(#linear-gradient-6);}.cls-7{fill:url(#linear-gradient-7);}.cls-8{fill:url(#linear-gradient-8);}.cls-9{fill:url(#linear-gradient-9);}.cls-10{fill:url(#linear-gradient-10);}.cls-11{fill:url(#linear-gradient-11);}.cls-12{fill:url(#linear-gradient-12);}</style><linearGradient id="linear-gradient" x1="24" y1="46" x2="24" y2="-28.67" gradientUnits="userSpaceOnUse"><stop offset="0" stop-color="#fff"/><stop offset="0.52" stop-color="#cce2e6"/><stop offset="1" stop-color="#8fa1bb"/></linearGradient><linearGradient id="linear-gradient-2" x1="24" y1="44.25" x2="24" y2="13.96" xlink:href="#linear-gradient"/><linearGradient id="linear-gradient-3" x1="24" y1="50.12" x2="24" y2="5.62" gradientUnits="userSpaceOnUse"><stop offset="0" stop-color="#f3c57a"/><stop offset="0.49" stop-color="#f39369"/><stop offset="1" stop-color="#e94867"/></linearGradient><linearGradient id="linear-gradient-4" x1="24" y1="38.4" x2="24" y2="-30.2" gradientUnits="userSpaceOnUse"><stop offset="0" stop-color="#273a9b"/><stop offset="0.56" stop-color="#202f65"/><stop offset="1" stop-color="#021e2f"/></linearGradient><linearGradient id="linear-gradient-5" x1="24" y1="34.2" x2="24" y2="21.13" xlink:href="#linear-gradient-4"/><linearGradient id="linear-gradient-6" x1="24" y1="38.4" x2="24" y2="-30.2" xlink:href="#linear-gradient-4"/><linearGradient id="linear-gradient-7" x1="24" y1="15.12" x2="24" y2="-0.93" xlink:href="#linear-gradient-3"/><linearGradient id="linear-gradient-8" x1="24" y1="54.12" x2="24" y2="38.07" xlink:href="#linear-gradient-3"/><linearGradient id="linear-gradient-9" x1="40.89" y1="24.88" x2="40.89" y2="8.83" xlink:href="#linear-gradient-3"/><linearGradient id="linear-gradient-10" x1="40.89" y1="44.44" x2="40.89" y2="28.39" xlink:href="#linear-gradient-3"/><linearGradient id="linear-gradient-11" x1="7.11" y1="24.88" x2="7.11" y2="8.83" xlink:href="#linear-gradient-3"/><linearGradient id="linear-gradient-12" x1="7.11" y1="44.44" x2="7.11" y2="28.39" xlink:href="#linear-gradient-3"/></defs><title>contacts, profile, account, connection</title><polygon class="cls-1" points="7.11 14.25 7.11 33.75 24 43.5 40.89 33.75 40.89 14.25 24 4.5 7.11 14.25"/><polygon class="cls-2" points="12 36.57 24 43.5 36 36.57 36 24 12 24 12 36.57"/><circle class="cls-3" cx="24" cy="24" r="12"/><path class="cls-4" d="M24,27.47a12,12,0,0,0-9.17,4.27,12,12,0,0,0,18.34,0A12,12,0,0,0,24,27.47Z"/><path class="cls-5" d="M24,27.47a11.91,11.91,0,0,0-4.41.86,4.8,4.8,0,0,0,8.82,0A11.91,11.91,0,0,0,24,27.47Z"/><circle class="cls-6" cx="24" cy="21.61" r="4.8"/><circle class="cls-7" cx="24" cy="4.5" r="1.5"/><circle class="cls-8" cx="24" cy="43.5" r="1.5"/><circle class="cls-9" cx="40.89" cy="14.26" r="1.5"/><circle class="cls-10" cx="40.89" cy="33.82" r="1.5"/><circle class="cls-11" cx="7.11" cy="14.26" r="1.5"/><circle class="cls-12" cx="7.11" cy="33.82" r="1.5"/></svg>