<svg id="Layer_1" data-name="Layer 1" xmlns="http://www.w3.org/2000/svg" xmlns:xlink="http://www.w3.org/1999/xlink" viewBox="0 0 48 48"><defs><style>.cls-1{fill:url(#linear-gradient);}.cls-2{fill:url(#linear-gradient-2);}.cls-3{fill:url(#linear-gradient-3);}.cls-4{fill:url(#linear-gradient-4);}.cls-5{fill:url(#linear-gradient-5);}.cls-6{fill:url(#linear-gradient-6);}.cls-7{fill:url(#linear-gradient-7);}.cls-8{fill:url(#linear-gradient-8);}.cls-9{fill:url(#linear-gradient-9);}.cls-10{fill:url(#linear-gradient-10);}.cls-11{fill:url(#linear-gradient-11);}.cls-12{fill:url(#linear-gradient-12);}.cls-13{fill:url(#linear-gradient-13);}.cls-14{fill:url(#linear-gradient-14);}.cls-15{fill:url(#linear-gradient-15);}.cls-16{fill:url(#linear-gradient-16);}.cls-17{fill:url(#linear-gradient-17);}.cls-18{fill:url(#linear-gradient-18);}.cls-19{fill:url(#linear-gradient-19);}.cls-20{fill:url(#linear-gradient-20);}.cls-21{fill:url(#linear-gradient-21);}.cls-22{fill:url(#linear-gradient-22);}.cls-23{fill:url(#linear-gradient-23);}.cls-24{fill:url(#linear-gradient-24);}.cls-25{fill:url(#linear-gradient-25);}.cls-26{fill:url(#linear-gradient-26);}.cls-27{fill:url(#linear-gradient-27);}.cls-28{fill:url(#linear-gradient-28);}.cls-29{fill:url(#linear-gradient-29);}.cls-30{fill:url(#linear-gradient-30);}.cls-31{fill:url(#linear-gradient-31);}.cls-32{fill:url(#linear-gradient-32);}.cls-33{fill:url(#linear-gradient-33);}.cls-34{fill:url(#linear-gradient-34);}.cls-35{fill:url(#linear-gradient-35);}.cls-36{fill:url(#linear-gradient-36);}</style><linearGradient id="linear-gradient" x1="24" y1="57.12" x2="24" y2="19.98" gradientUnits="userSpaceOnUse"><stop offset="0" stop-color="#27e9de"/><stop offset="0.52" stop-color="#03a4ec"/><stop offset="1" stop-color="#2547a8"/></linearGradient><linearGradient id="linear-gradient-2" x1="24" y1="54.06" x2="24" y2="30.14" xlink:href="#linear-gradient"/><linearGradient id="linear-gradient-3" x1="669.7" y1="15.54" x2="662.82" y2="4.99" gradientTransform="matrix(1, 0, 0, -1, -635.57, 17.46)" xlink:href="#linear-gradient"/><linearGradient id="linear-gradient-4" x1="19.95" y1="15.54" x2="13.07" y2="4.99" xlink:href="#linear-gradient"/><linearGradient id="linear-gradient-5" x1="24" y1="-27.85" x2="24" y2="67.54" xlink:href="#linear-gradient"/><linearGradient id="linear-gradient-6" x1="24" y1="56.87" x2="24" y2="-22.32" xlink:href="#linear-gradient"/><linearGradient id="linear-gradient-7" x1="15" y1="42.15" x2="15" y2="7.86" xlink:href="#linear-gradient"/><linearGradient id="linear-gradient-8" x1="34.5" y1="39.82" x2="34.5" y2="11.26" xlink:href="#linear-gradient"/><linearGradient id="linear-gradient-9" x1="24" y1="42.15" x2="24" y2="7.86" xlink:href="#linear-gradient"/><linearGradient id="linear-gradient-10" x1="9.87" y1="37.14" x2="9.87" y2="5.05" xlink:href="#linear-gradient"/><linearGradient id="linear-gradient-11" x1="33" y1="42.15" x2="33" y2="7.86" xlink:href="#linear-gradient"/><linearGradient id="linear-gradient-12" x1="24" y1="43.36" x2="24" y2="-62.23" xlink:href="#linear-gradient"/><linearGradient id="linear-gradient-13" x1="24" y1="29.36" x2="24" y2="7.61" xlink:href="#linear-gradient"/><linearGradient id="linear-gradient-14" x1="44.24" y1="41.86" x2="44.24" y2="-6.03" xlink:href="#linear-gradient"/><linearGradient id="linear-gradient-15" x1="3.75" y1="41.86" x2="3.75" y2="-6.03" xlink:href="#linear-gradient"/><linearGradient id="linear-gradient-16" x1="24" y1="36.36" x2="24" y2="13.07" xlink:href="#linear-gradient"/><linearGradient id="linear-gradient-17" x1="24" y1="29.96" x2="24" y2="21.38" xlink:href="#linear-gradient"/><linearGradient id="linear-gradient-18" x1="24" y1="48.35" x2="24" y2="-13.64" xlink:href="#linear-gradient"/><linearGradient id="linear-gradient-19" x1="44.25" y1="37.31" x2="44.25" y2="13.71" xlink:href="#linear-gradient"/><linearGradient id="linear-gradient-20" x1="3.75" y1="37.31" x2="3.75" y2="13.71" xlink:href="#linear-gradient"/><linearGradient id="linear-gradient-21" x1="24" y1="38.81" x2="24" y2="18.91" xlink:href="#linear-gradient"/><linearGradient id="linear-gradient-22" x1="15" y1="37.73" x2="15" y2="29.04" gradientUnits="userSpaceOnUse"><stop offset="0" stop-color="#273a9b"/><stop offset="0.56" stop-color="#202f65"/><stop offset="1" stop-color="#021e2f"/></linearGradient><linearGradient id="linear-gradient-23" x1="14.25" y1="25.19" x2="14.25" y2="22.44" xlink:href="#linear-gradient-22"/><linearGradient id="linear-gradient-24" x1="33" y1="37.73" x2="33" y2="29.04" xlink:href="#linear-gradient-22"/><linearGradient id="linear-gradient-25" x1="32.25" y1="25.19" x2="32.25" y2="22.44" xlink:href="#linear-gradient-22"/><linearGradient id="linear-gradient-26" x1="24" y1="36.77" x2="24" y2="19.64" xlink:href="#linear-gradient-22"/><linearGradient id="linear-gradient-27" x1="23.98" y1="39.67" x2="23.98" y2="22.78" xlink:href="#linear-gradient-22"/><linearGradient id="linear-gradient-28" x1="15" y1="29.81" x2="15" y2="-1.61" xlink:href="#linear-gradient"/><linearGradient id="linear-gradient-29" x1="33" y1="29.81" x2="33" y2="-1.61" xlink:href="#linear-gradient"/><linearGradient id="linear-gradient-30" x1="38.13" y1="37.14" x2="38.13" y2="5.05" xlink:href="#linear-gradient"/><linearGradient id="linear-gradient-31" x1="642.41" y1="2.47" x2="699.24" y2="30.8" gradientTransform="matrix(-1, 0, 0, 1, 697.75, 0)" xlink:href="#linear-gradient"/><linearGradient id="linear-gradient-32" x1="656.54" y1="4.33" x2="668.92" y2="27.65" gradientTransform="matrix(-1, 0, 0, 1, 697.75, 0)" xlink:href="#linear-gradient"/><linearGradient id="linear-gradient-33" x1="670.62" y1="12.91" x2="670.97" y2="13.08" gradientTransform="matrix(-1, 0, 0, 1, 697.75, 0)" xlink:href="#linear-gradient"/><linearGradient id="linear-gradient-34" x1="-7.34" y1="2.47" x2="49.49" y2="30.8" xlink:href="#linear-gradient"/><linearGradient id="linear-gradient-35" x1="6.79" y1="4.33" x2="19.17" y2="27.65" xlink:href="#linear-gradient"/><linearGradient id="linear-gradient-36" x1="20.87" y1="12.91" x2="21.22" y2="13.08" xlink:href="#linear-gradient"/></defs><title>dog, animal, pet, bulldog</title><ellipse class="cls-1" cx="24" cy="36.6" rx="15.32" ry="6.92"/><path class="cls-2" d="M39.32,36.6c0-3.82-6.86-6.92-15.32-6.92S8.68,32.78,8.68,36.6c0,2.71,3.44,5,8.45,6.18A16.48,16.48,0,0,1,22.38,42h3.23a16.48,16.48,0,0,1,5.25.82C35.87,41.64,39.32,39.3,39.32,36.6Z"/><path class="cls-3" d="M27,4.48h8.17a0,0,0,0,1,0,0V6.86A6.12,6.12,0,0,1,29.05,13H27a0,0,0,0,1,0,0V4.48A0,0,0,0,1,27,4.48Z" transform="translate(62.18 17.46) rotate(180)"/><path class="cls-4" d="M12.83,4.48h2A6.12,6.12,0,0,1,21,10.6V13a0,0,0,0,1,0,0H12.83a0,0,0,0,1,0,0V4.48A0,0,0,0,1,12.83,4.48Z"/><path class="cls-5" d="M35.64,40.48H12.36a8.55,8.55,0,0,1-8.51-9.32l1-10.66a14.32,14.32,0,0,1,14.26-13h9.85a14.32,14.32,0,0,1,14.26,13l1,10.66A8.55,8.55,0,0,1,35.64,40.48Z"/><path class="cls-6" d="M44.15,31.16l-.84-9.26L43,21.54c-.52-6.2-4.76-11.13-10.19-8.12a15.79,15.79,0,0,1-7.67,1.87H22.81a15.79,15.79,0,0,1-7.67-1.87c-5.44-3-9.67,1.92-10.19,8.12l-.26.41-.84,9.21a8.55,8.55,0,0,0,8.51,9.32H35.64A8.55,8.55,0,0,0,44.15,31.16Z"/><path class="cls-7" d="M18,22.19c0,1-1.34,6-3,6s-3-5-3-6S13.34,21,15,21,18,21.2,18,22.19Z"/><path class="cls-8" d="M36,22.19c0,1-1.34,6-3,6"/><path class="cls-9" d="M44.15,31.24l-.1-.13v0l-.27-.23a4.92,4.92,0,0,0-.65-.57,29.54,29.54,0,0,0-38.3,0,4.92,4.92,0,0,0-.65.57l-.27.23v0l-.1.13a8.54,8.54,0,0,0,8.51,9.24h1.75l.38-.21a15,15,0,0,1,7.89-2h3.23a15,15,0,0,1,7.89,2l.38.21h1.75A8.54,8.54,0,0,0,44.15,31.24Z"/><path class="cls-10" d="M15,13.29V8.07A14.32,14.32,0,0,0,4.81,20.5l-.07.8v.06H6.93A8.07,8.07,0,0,0,15,13.29Z"/><path class="cls-11" d="M33,28.22c-1.66,0-3-5-3-6S31.34,21,33,21s3,.22,3,1.21"/><path class="cls-12" d="M44.62,34.26a4.15,4.15,0,0,0-.57-.9v0l-.27-.23a4.92,4.92,0,0,0-.65-.57,29.54,29.54,0,0,0-38.3,0,4.92,4.92,0,0,0-.65.57l-.27.23v0a4.15,4.15,0,0,0-.57.9c-1.42,3.11,1.69,8,5.6,9a7,7,0,0,0,5.52-.74,15,15,0,0,1,7.89-2h3.23a15,15,0,0,1,7.89,2,7,7,0,0,0,5.52.74C42.93,42.22,46,37.37,44.62,34.26Z"/><path class="cls-13" d="M3.37,37.24a4.15,4.15,0,0,1,.57-.9v0l.27-.23a4.92,4.92,0,0,1,.65-.57,29.54,29.54,0,0,1,38.3,0,4.92,4.92,0,0,1,.65.57l.27.23v0a4.15,4.15,0,0,1,.57.9c0,.1.07.2.11.3a4.71,4.71,0,0,0-.11-3.28,4.15,4.15,0,0,0-.57-.9v0l-.27-.23a4.92,4.92,0,0,0-.65-.57,29.54,29.54,0,0,0-38.3,0,4.92,4.92,0,0,0-.65.57l-.27.23v0a4.15,4.15,0,0,0-.57.9,4.71,4.71,0,0,0-.11,3.28C3.3,37.44,3.33,37.34,3.37,37.24Z"/><path class="cls-14" d="M43.53,35.84c.09.08.19.15.27.24l.27.23v0a4.15,4.15,0,0,1,.57.9c0,.1.07.2.11.3a6.23,6.23,0,0,0,.18-.81c0-.06,0-.13,0-.19A5.16,5.16,0,0,0,45,36c0-.08,0-.16,0-.25a4.32,4.32,0,0,0-.06-.53c0-.07,0-.15,0-.22a3.74,3.74,0,0,0-.23-.7c0-.07-.08-.14-.11-.21A8.54,8.54,0,0,1,43.53,35.84Z"/><path class="cls-15" d="M3.1,35.18a4.32,4.32,0,0,0-.06.53c0,.08,0,.16,0,.25a5.17,5.17,0,0,0,0,.58c0,.06,0,.13,0,.19a6.23,6.23,0,0,0,.18.81c0-.1.06-.2.11-.3a4.15,4.15,0,0,1,.57-.9v0l.27-.23c.08-.09.18-.16.27-.24a8.54,8.54,0,0,1-1-1.78c0,.07-.08.13-.11.21a3.74,3.74,0,0,0-.23.7C3.12,35,3.11,35.11,3.1,35.18Z"/><path class="cls-16" d="M19.43,26.23c0,1.24,2,6.75,4.57,6.75s4.57-5.51,4.57-6.75Z"/><path class="cls-17" d="M20.13,28.72a29.49,29.49,0,0,1,7.74,0,8.45,8.45,0,0,0,.7-2.49H19.43A8.45,8.45,0,0,0,20.13,28.72Z"/><path class="cls-18" d="M44.52,34.06h0A8.73,8.73,0,0,1,39,39.14a7,7,0,0,1-5.52-.74L32.87,38a6.49,6.49,0,0,1-2.8-2.84C29,33,27.34,31.11,25.5,31.11h-3c-1.84,0-3.48,1.86-4.58,4.09A6.49,6.49,0,0,1,15.12,38l-.63.36A7,7,0,0,1,9,39.14a8.73,8.73,0,0,1-5.49-5.08h0C1.81,37.15,5,42.2,9,43.26A6.94,6.94,0,0,0,15.1,42.1a4,4,0,0,1,2.23-.9h.11c.37-.12.75-.21,1.13-.3l.22,0,.93-.17.3,0,.88-.09.31,0c.39,0,.78,0,1.17,0h3.23c.39,0,.78,0,1.17,0l.31,0,.88.09.31,0,.93.17.22,0c.38.09.76.18,1.13.3h.11a4,4,0,0,1,2.23.9A6.94,6.94,0,0,0,39,43.26C43,42.2,46.18,37.15,44.52,34.06Z"/><path class="cls-19" d="M45,35.69a4.3,4.3,0,0,0-.06-.55c0-.08,0-.17-.06-.25a3.75,3.75,0,0,0-.16-.47c0-.09-.07-.19-.12-.28l0-.08a8.54,8.54,0,0,1-1,1.78c.09.08.19.15.27.24l.27.23v0a4.15,4.15,0,0,1,.57.9c0,.09.07.19.1.29l0-.06a6.22,6.22,0,0,0,.16-.76v0a5.18,5.18,0,0,0,0-.79C45,35.82,45,35.76,45,35.69Z"/><path class="cls-20" d="M3.44,34.14c0,.09-.08.18-.12.28a3.75,3.75,0,0,0-.16.47c0,.08,0,.17-.06.25a4.3,4.3,0,0,0-.06.55c0,.07,0,.13,0,.2a5.18,5.18,0,0,0,0,.79v0a6.21,6.21,0,0,0,.17.76l0,.06c0-.1.06-.2.1-.29a4.15,4.15,0,0,1,.57-.9v0l.27-.23c.08-.09.18-.16.27-.24a8.54,8.54,0,0,1-1-1.78Z"/><path class="cls-21" d="M28.8,33.15a4.48,4.48,0,0,0-3.3-2h-3a4.48,4.48,0,0,0-3.3,2,29.27,29.27,0,0,1,9.6,0Z"/><circle class="cls-22" cx="15" cy="23.98" r="1.5"/><path class="cls-23" d="M15,22.48A1.5,1.5,0,0,0,13.5,24H15Z"/><circle class="cls-24" cx="33" cy="23.98" r="1.5"/><path class="cls-25" d="M33,22.48A1.5,1.5,0,0,0,31.5,24H33Z"/><path class="cls-26" d="M28.57,26.23c0,1.24-2,3.75-4.57,3.75s-4.57-2.51-4.57-3.75S21.47,24,24,24,28.57,25,28.57,26.23Z"/><path class="cls-27" d="M21.63,26.29a1.48,1.48,0,0,0-.54,2.56,4.31,4.31,0,0,0,5.7.09,1.51,1.51,0,0,0-.57-2.7A8.48,8.48,0,0,0,24,26,8.37,8.37,0,0,0,21.63,26.29Z"/><path class="cls-28" d="M18,21.44c0,1-1.34,1.79-3,1.79s-3-.8-3-1.79,1.34-1.21,3-1.21S18,20.45,18,21.44Z"/><path class="cls-29" d="M36,21.44c0,1-1.34,1.79-3,1.79s-3-.8-3-1.79,1.34-1.21,3-1.21S36,20.45,36,21.44Z"/><path class="cls-30" d="M43.26,21.36l-.08-.85A14.32,14.32,0,0,0,33,8.08v5.21a8.07,8.07,0,0,0,8.07,8.07Z"/><path class="cls-31" d="M33,4.49h2.17A9.83,9.83,0,0,1,45,14.31v2.15A1.52,1.52,0,0,1,43.48,18H41.07A8.07,8.07,0,0,1,33,9.91V7.43a2.35,2.35,0,0,0-2.35-2.35H30.5A6.1,6.1,0,0,1,33,4.49Z"/><path class="cls-32" d="M35.17,7.17H33a2.34,2.34,0,0,0-2.32-2.1H30.5A6.1,6.1,0,0,1,33,4.49h2.17A9.83,9.83,0,0,1,45,14.31v2.15a1.5,1.5,0,0,1,0,.18A9.82,9.82,0,0,0,35.17,7.17Z"/><path class="cls-33" d="M27.07,13H27v-.06Z"/><path class="cls-34" d="M15,4.49H12.83A9.83,9.83,0,0,0,3,14.31v2.15A1.52,1.52,0,0,0,4.52,18H6.93A8.07,8.07,0,0,0,15,9.91V7.43a2.35,2.35,0,0,1,2.35-2.35h.15A6.1,6.1,0,0,0,15,4.49Z"/><path class="cls-35" d="M12.83,7.17H15a2.34,2.34,0,0,1,2.32-2.1h.15A6.1,6.1,0,0,0,15,4.49H12.83A9.83,9.83,0,0,0,3,14.31v2.15a1.5,1.5,0,0,0,0,.18A9.82,9.82,0,0,1,12.83,7.17Z"/><path class="cls-36" d="M20.92,13H21v-.06Z"/></svg>