<svg id="Layer_1" data-name="Layer 1" xmlns="http://www.w3.org/2000/svg" xmlns:xlink="http://www.w3.org/1999/xlink" viewBox="0 0 48 48"><defs><style>.cls-1{fill:url(#linear-gradient);}.cls-2{fill:url(#linear-gradient-2);}.cls-3{fill:url(#linear-gradient-3);}.cls-4{fill:url(#linear-gradient-4);}.cls-5{fill:url(#linear-gradient-5);}.cls-6{fill:url(#linear-gradient-6);}.cls-7{fill:url(#linear-gradient-7);}.cls-8{fill:url(#linear-gradient-8);}.cls-9{fill:url(#linear-gradient-9);}.cls-10{fill:url(#linear-gradient-10);}.cls-11{fill:#fff;}.cls-12{fill:url(#linear-gradient-11);}</style><linearGradient id="linear-gradient" x1="176.51" y1="407.26" x2="176.51" y2="343.29" gradientTransform="translate(166.97 -368.6) rotate(45)" gradientUnits="userSpaceOnUse"><stop offset="0" stop-color="#f3c57a"/><stop offset="0.49" stop-color="#f39369"/><stop offset="1" stop-color="#e94867"/></linearGradient><linearGradient id="linear-gradient-2" x1="-5.96" y1="62.22" x2="51.7" y2="-2.78" gradientTransform="matrix(1, 0, 0, 1, 0, 0)" xlink:href="#linear-gradient"/><linearGradient id="linear-gradient-3" x1="180.42" y1="412.88" x2="180.42" y2="430.86" gradientTransform="translate(189.26 -396.4) rotate(45)" gradientUnits="userSpaceOnUse"><stop offset="0" stop-color="#fff"/><stop offset="0.52" stop-color="#cce2e6"/><stop offset="1" stop-color="#8fa1bb"/></linearGradient><linearGradient id="linear-gradient-4" x1="180.42" y1="423.21" x2="180.42" y2="412.61" xlink:href="#linear-gradient-3"/><linearGradient id="linear-gradient-5" x1="181.89" y1="421.5" x2="181.89" y2="400.78" gradientTransform="translate(-160.27 -392.49)" xlink:href="#linear-gradient-3"/><linearGradient id="linear-gradient-6" x1="177.09" y1="425.31" x2="177.09" y2="401.37" xlink:href="#linear-gradient-3"/><linearGradient id="linear-gradient-7" x1="-471.59" y1="421.5" x2="-471.59" y2="400.78" gradientTransform="matrix(1, 0, 0, -1, 497.9, 440.56)" xlink:href="#linear-gradient-3"/><linearGradient id="linear-gradient-8" x1="-471.59" y1="425.31" x2="-471.59" y2="401.37" gradientTransform="matrix(-0.71, -0.71, -0.71, 0.71, -14.28, -599.94)" xlink:href="#linear-gradient-3"/><linearGradient id="linear-gradient-9" x1="178.09" y1="419.56" x2="178.09" y2="427.8" xlink:href="#linear-gradient-3"/><linearGradient id="linear-gradient-10" x1="182.75" y1="419.56" x2="182.75" y2="427.8" xlink:href="#linear-gradient-3"/><linearGradient id="linear-gradient-11" x1="36.25" y1="11.75" x2="68.31" y2="-20.31" gradientUnits="userSpaceOnUse"><stop offset="0" stop-color="#273a9b"/><stop offset="0.56" stop-color="#202f65"/><stop offset="1" stop-color="#021e2f"/></linearGradient></defs><title>ecology, plant, tag, organic</title><path class="cls-1" d="M22,6.34,4.59,23.71a5.43,5.43,0,0,0,0,7.67l12,12a5.43,5.43,0,0,0,7.67,0L41.66,26a5.43,5.43,0,0,0,1.4-5.24l-2.54-9.49a5.43,5.43,0,0,0-3.84-3.84L27.2,4.93A5.43,5.43,0,0,0,22,6.34Z"/><path class="cls-2" d="M23.48,24.4,10.55,37.34l6.07,6.07a5.43,5.43,0,0,0,7.67,0L41.66,26a5.43,5.43,0,0,0,1.4-5.24l-2.54-9.49a5.43,5.43,0,0,0-3.84-3.84L28.91,5.39v5.9A18.54,18.54,0,0,1,23.48,24.4Z"/><path class="cls-3" d="M31,25.71,30.3,25A5.16,5.16,0,0,0,23,25a5.16,5.16,0,0,0,0-7.3L22.29,17a.48.48,0,0,0-.69,0l-1.38,1.38a5.16,5.16,0,0,0,0,7.3l.36.36a.43.43,0,0,1,0,.63l-2.45,2a.28.28,0,0,1-.35,0,6.46,6.46,0,0,0-2.25-1.29.32.32,0,0,0-.39.39,7.74,7.74,0,0,0,2,3.09,7.74,7.74,0,0,0,3.09,2,.32.32,0,0,0,.39-.39,6.46,6.46,0,0,0-1.29-2.25.28.28,0,0,1,0-.35l2-2.45a.43.43,0,0,1,.63,0l.36.36a5.16,5.16,0,0,0,7.3,0L31,26.39A.48.48,0,0,0,31,25.71Z"/><path class="cls-4" d="M22.79,25.21c-1.39-1.39-3-2-3.8-1.54a5.13,5.13,0,0,0,1.24,2l.36.36a.43.43,0,0,1,0,.63l-.72.59c.14.16.28.32.44.48s.32.3.48.44l.59-.72a.43.43,0,0,1,.63,0l.36.36a5.13,5.13,0,0,0,2,1.24C24.83,28.23,24.18,26.6,22.79,25.21Z"/><path class="cls-5" d="M18.78,17.89h1a5.16,5.16,0,0,1,5.16,5.16v2.43a0,0,0,0,1,0,0H23.46a5.16,5.16,0,0,1-5.16-5.16V18.37a.48.48,0,0,1,.48-.48Z" transform="translate(21.66 -8.93) rotate(45)"/><path class="cls-6" d="M21.6,22.33c.09-1.87.12-3.68.1-5.4l-.09.07-1.38,1.38a5.16,5.16,0,0,0,0,7.3l1,1h0C21.42,25.31,21.52,23.84,21.6,22.33Z"/><path class="cls-7" d="M28.16,22.59h1.48a0,0,0,0,1,0,0V25a5.16,5.16,0,0,1-5.16,5.16h-1A.48.48,0,0,1,23,29.7V27.75a5.16,5.16,0,0,1,5.16-5.16Z" transform="translate(26.26 63.65) rotate(-135)"/><path class="cls-8" d="M25.67,26.4c1.87-.09,3.68-.12,5.4-.1l-.07.09-1.38,1.38a5.16,5.16,0,0,1-7.3,0l-1-1h0C22.69,26.58,24.16,26.48,25.67,26.4Z"/><path class="cls-9" d="M18.07,28.67a.27.27,0,0,1-.31,0,6.46,6.46,0,0,0-2.25-1.29.31.31,0,0,0-.21,0,2,2,0,0,0,.55,1A1.74,1.74,0,0,0,18.07,28.67Z"/><path class="cls-10" d="M20.64,32.5a6.46,6.46,0,0,0-1.29-2.25.27.27,0,0,1,0-.31,1.74,1.74,0,0,0,.31,2.23,2,2,0,0,0,1,.55A.31.31,0,0,0,20.64,32.5Z"/><circle class="cls-11" cx="33" cy="15" r="3.03"/><path class="cls-12" d="M45,3H42.53L31.82,13.7a1.75,1.75,0,0,0,2.47,2.47L45,5.47Z"/></svg>