<svg id="Layer_1" data-name="Layer 1" xmlns="http://www.w3.org/2000/svg" xmlns:xlink="http://www.w3.org/1999/xlink" viewBox="0 0 48 48"><defs><style>.cls-1{fill:url(#linear-gradient);}.cls-2{fill:url(#linear-gradient-2);}.cls-3{fill:url(#linear-gradient-3);}.cls-4{fill:url(#linear-gradient-4);}.cls-5{fill:url(#linear-gradient-5);}.cls-6{fill:url(#linear-gradient-6);}.cls-7{fill:url(#linear-gradient-7);}.cls-8{fill:url(#linear-gradient-8);}.cls-9{fill:url(#linear-gradient-9);}.cls-10{fill:url(#linear-gradient-10);}.cls-11{fill:url(#linear-gradient-11);}.cls-12{fill:url(#linear-gradient-12);}.cls-13{fill:url(#linear-gradient-13);}.cls-14{fill:url(#linear-gradient-14);}.cls-15{fill:url(#linear-gradient-15);}.cls-16{fill:url(#linear-gradient-16);}.cls-17{fill:url(#linear-gradient-17);}.cls-18{fill:url(#linear-gradient-18);}.cls-19{fill:url(#linear-gradient-19);}.cls-20{fill:url(#linear-gradient-20);}.cls-21{fill:url(#linear-gradient-21);}.cls-22{fill:url(#linear-gradient-22);}.cls-23{fill:url(#linear-gradient-23);}.cls-24{fill:url(#linear-gradient-24);}.cls-25{fill:url(#linear-gradient-25);}.cls-26{fill:url(#linear-gradient-26);}.cls-27{fill:url(#linear-gradient-27);}.cls-28{fill:url(#linear-gradient-28);}.cls-29{fill:url(#linear-gradient-29);}.cls-30{fill:url(#linear-gradient-30);}.cls-31{fill:url(#linear-gradient-31);}.cls-32{fill:url(#linear-gradient-32);}.cls-33{fill:url(#linear-gradient-33);}.cls-34{fill:url(#linear-gradient-34);}</style><linearGradient id="linear-gradient" x1="15" y1="28.9" x2="15" y2="-11.16" gradientUnits="userSpaceOnUse"><stop offset="0" stop-color="#27e9de"/><stop offset="0.52" stop-color="#03a4ec"/><stop offset="1" stop-color="#2547a8"/></linearGradient><linearGradient id="linear-gradient-2" x1="15" y1="34.67" x2="15" y2="10.01" xlink:href="#linear-gradient"/><linearGradient id="linear-gradient-3" x1="15" y1="26.78" x2="15" y2="-6.62" gradientUnits="userSpaceOnUse"><stop offset="0" stop-color="#fff"/><stop offset="0.52" stop-color="#cce2e6"/><stop offset="1" stop-color="#8fa1bb"/></linearGradient><linearGradient id="linear-gradient-4" x1="15" y1="13.29" x2="15" y2="-5.93" xlink:href="#linear-gradient-3"/><linearGradient id="linear-gradient-5" x1="15" y1="16.89" x2="15" y2="2.21" xlink:href="#linear-gradient"/><linearGradient id="linear-gradient-6" x1="15" y1="17.93" x2="15" y2="8.48" xlink:href="#linear-gradient"/><linearGradient id="linear-gradient-7" x1="17.14" y1="19.18" x2="17.14" y2="11.07" gradientUnits="userSpaceOnUse"><stop offset="0" stop-color="#f3c57a"/><stop offset="0.49" stop-color="#f39369"/><stop offset="1" stop-color="#e94867"/></linearGradient><linearGradient id="linear-gradient-8" x1="15.86" y1="21.32" x2="15.86" y2="12.96" xlink:href="#linear-gradient-7"/><linearGradient id="linear-gradient-9" x1="21.7" y1="16.64" x2="22.16" y2="11.47" xlink:href="#linear-gradient"/><linearGradient id="linear-gradient-10" x1="38.43" y1="20.41" x2="6.94" y2="3.95" xlink:href="#linear-gradient-3"/><linearGradient id="linear-gradient-11" x1="32.81" y1="31.15" x2="1.32" y2="14.69" xlink:href="#linear-gradient-3"/><linearGradient id="linear-gradient-12" x1="34.15" y1="28.58" x2="2.66" y2="12.13" xlink:href="#linear-gradient-3"/><linearGradient id="linear-gradient-13" x1="15" y1="18.78" x2="15" y2="9.34" gradientUnits="userSpaceOnUse"><stop offset="0" stop-color="#273a9b"/><stop offset="0.56" stop-color="#202f65"/><stop offset="1" stop-color="#021e2f"/></linearGradient><linearGradient id="linear-gradient-14" x1="29.58" y1="36.39" x2="29.58" y2="28.03" xlink:href="#linear-gradient-3"/><linearGradient id="linear-gradient-15" x1="29.58" y1="59.91" x2="29.58" y2="17.8" xlink:href="#linear-gradient-13"/><linearGradient id="linear-gradient-16" x1="29.58" y1="43.21" x2="29.58" y2="18" xlink:href="#linear-gradient-3"/><linearGradient id="linear-gradient-17" x1="27.04" y1="40.89" x2="27.04" y2="29.11" xlink:href="#linear-gradient-3"/><linearGradient id="linear-gradient-18" x1="32.15" y1="40.89" x2="32.15" y2="29.11" xlink:href="#linear-gradient-3"/><linearGradient id="linear-gradient-19" x1="29.58" y1="41.97" x2="29.58" y2="29.32" xlink:href="#linear-gradient"/><linearGradient id="linear-gradient-20" x1="30.35" y1="43.64" x2="30.35" y2="30.38" xlink:href="#linear-gradient"/><linearGradient id="linear-gradient-21" x1="29.58" y1="40.75" x2="29.58" y2="30.75" xlink:href="#linear-gradient"/><linearGradient id="linear-gradient-22" x1="29.58" y1="5.73" x2="29.58" y2="26.33" xlink:href="#linear-gradient-13"/><linearGradient id="linear-gradient-23" x1="29.58" y1="21.18" x2="29.58" y2="6.33" xlink:href="#linear-gradient-13"/><linearGradient id="linear-gradient-24" x1="29.58" y1="9.78" x2="29.58" y2="39.61" xlink:href="#linear-gradient-3"/><linearGradient id="linear-gradient-25" x1="29.58" y1="29.25" x2="29.58" y2="13.56" xlink:href="#linear-gradient-3"/><linearGradient id="linear-gradient-26" x1="29.58" y1="36.5" x2="29.58" y2="16.26" xlink:href="#linear-gradient-3"/><linearGradient id="linear-gradient-27" x1="21.21" y1="13.11" x2="21.21" y2="27.24" xlink:href="#linear-gradient-3"/><linearGradient id="linear-gradient-28" x1="-164.93" y1="13.11" x2="-164.93" y2="27.24" gradientTransform="matrix(-1, 0, 0, 1, -126.98, 0)" xlink:href="#linear-gradient-3"/><linearGradient id="linear-gradient-29" x1="29.58" y1="35.69" x2="29.58" y2="15.46" xlink:href="#linear-gradient-13"/><linearGradient id="linear-gradient-30" x1="29.58" y1="22.23" x2="29.58" y2="29.38" xlink:href="#linear-gradient"/><linearGradient id="linear-gradient-31" x1="29.66" y1="21.18" x2="29.66" y2="4.81" xlink:href="#linear-gradient-13"/><linearGradient id="linear-gradient-32" x1="28.4" y1="33.94" x2="22.68" y2="26.43" xlink:href="#linear-gradient-3"/><linearGradient id="linear-gradient-33" x1="-172.87" y1="33.94" x2="-178.59" y2="26.43" gradientTransform="matrix(-1, 0, 0, 1, -142.03, 0)" xlink:href="#linear-gradient-3"/><linearGradient id="linear-gradient-34" x1="35.39" y1="19.3" x2="34.61" y2="13.2" xlink:href="#linear-gradient-13"/></defs><title>employee, account, business, time, clock</title><circle class="cls-1" cx="15" cy="15" r="12"/><path class="cls-2" d="M23.54,15H6.47v8.42a12,12,0,0,0,17.08,0Z"/><circle class="cls-3" cx="15" cy="15.01" r="8.54"/><circle class="cls-4" cx="15" cy="15" r="6.84"/><path class="cls-5" d="M15.86,15H14.15V9.87A.85.85,0,0,1,15,9h0a.85.85,0,0,1,.85.85Z"/><path class="cls-6" d="M15.86,13.53a1.66,1.66,0,0,0-1.71,0V15h1.71Z"/><path class="cls-7" d="M18.42,15.86H15V14.15h3.42a.85.85,0,0,1,.85.85h0A.85.85,0,0,1,18.42,15.86Z"/><path class="cls-8" d="M15,15.86h1.47a1.66,1.66,0,0,0,0-1.71H15Z"/><circle class="cls-9" cx="21.84" cy="15" r="0.43"/><circle class="cls-10" cx="15" cy="8.17" r="0.43"/><circle class="cls-11" cx="15" cy="21.84" r="0.43"/><circle class="cls-12" cx="8.16" cy="15" r="0.43"/><circle class="cls-13" cx="15" cy="15" r="0.85"/><path class="cls-14" d="M32.72,30l-.53-2.15H27l-.52,2.13a3.14,3.14,0,0,1-1.56,2l-.35.19,0,.23c.45.54,2.54.95,5,.95s4.59-.41,5-.95l0-.23-.33-.18A3.14,3.14,0,0,1,32.72,30Z"/><path class="cls-15" d="M44.93,41.58,43.77,38.7a10.43,10.43,0,0,0-9.69-6.56h-9a10.43,10.43,0,0,0-9.69,6.56l-1.15,2.88a1,1,0,0,0,.63,1.36A49.84,49.84,0,0,0,29.58,45,49.84,49.84,0,0,0,44.3,42.94,1,1,0,0,0,44.93,41.58Z"/><path class="cls-16" d="M34.09,32.14h-9l-.56,0a10.28,10.28,0,0,0,5.07,7.69,10.28,10.28,0,0,0,5.07-7.69Z"/><path class="cls-17" d="M24.51,32.16A10.22,10.22,0,0,0,25,34.27l1.23.89a1.7,1.7,0,0,0,2.45-.5l.89-1.47-1.22-1.05H25.07Z"/><path class="cls-18" d="M34.09,32.14h-3.2l-1.22,1.05.89,1.47a1.7,1.7,0,0,0,2.45.5l1.13-.81a10.22,10.22,0,0,0,.51-2.18Z"/><path class="cls-19" d="M31.12,38.74a11.62,11.62,0,0,0-1.54-5.32A11.62,11.62,0,0,0,28,38.74a10.29,10.29,0,0,0,1.54,1.11A10.28,10.28,0,0,0,31.12,38.74Z"/><path class="cls-20" d="M29.58,39.86h0a10.28,10.28,0,0,0,1.54-1.11,11.62,11.62,0,0,0-1.54-5.32h0Z"/><path class="cls-21" d="M27,32.16a2.57,2.57,0,0,0,5.14,0Z"/><path class="cls-22" d="M30.58,9h-2a8,8,0,0,0-8,7.49,3.85,3.85,0,0,0,.09,1l.76,3.72H37.72l.76-3.72a3.85,3.85,0,0,0,.09-1A8,8,0,0,0,30.58,9Z"/><path class="cls-23" d="M30.58,10.13h-2a8,8,0,0,0-7.94,7.1c0,.09,0,.18,0,.27l.76,3.72H37.72l.76-3.72c0-.09,0-.18,0-.27A8,8,0,0,0,30.58,10.13Z"/><path class="cls-24" d="M37.29,23.94V16.45l-7.71-3.61-7.71,3.61v7.49A4.68,4.68,0,0,0,24.21,28l.74.43a9.26,9.26,0,0,0,9.26,0L35,28A4.68,4.68,0,0,0,37.29,23.94Z"/><path class="cls-25" d="M27.66,13.74l-5.79,2.71v2.84h7.26a4.73,4.73,0,0,0,3.58-1.64,1,1,0,0,1,1.57.09,3.56,3.56,0,0,0,2.94,1.55h.08V16.45l-7-3.26Z"/><path class="cls-26" d="M27.41,25.23a.37.37,0,0,0-.36.44,2.57,2.57,0,0,0,5.07,0,.37.37,0,0,0-.36-.44Z"/><path class="cls-27" d="M21.87,23.14h0a1.3,1.3,0,0,1-1.3-1.3V20.59a1.3,1.3,0,0,1,1.3-1.3h0Z"/><path class="cls-28" d="M37.29,23.14h0a1.3,1.3,0,0,0,1.3-1.3V20.59a1.3,1.3,0,0,0-1.3-1.3h0Z"/><path class="cls-29" d="M27.41,24.43a.37.37,0,0,0-.36.44,2.57,2.57,0,0,0,5.07,0,.37.37,0,0,0-.36-.44Z"/><path class="cls-30" d="M29.58,25.71a2.56,2.56,0,0,0-1.7.64,2.56,2.56,0,0,0,3.39,0A2.56,2.56,0,0,0,29.58,25.71Z"/><path class="cls-31" d="M33.87,12.92V11.36l-12.19,2.5v4.32h7.45a4.73,4.73,0,0,0,3.58-1.64,1,1,0,0,1,1.57.09,3.56,3.56,0,0,0,2.94,1.55h.42V13.93Z"/><path class="cls-32" d="M26.86,29.82a.37.37,0,0,0-.53.05l-1.78,2.25,0,0,2.27,1.64a1.42,1.42,0,0,0,2.05-.42l.74-1.23Z"/><path class="cls-33" d="M32.37,29.82a.37.37,0,0,1,.53.05l1.78,2.25,0,0-2.27,1.64a1.42,1.42,0,0,1-2.05-.42l-.74-1.23Z"/><path class="cls-34" d="M35.19,14.68a1.48,1.48,0,0,0-1,.43l-1.26,1.26a1,1,0,0,1,1.39.25,3.56,3.56,0,0,0,2.94,1.55h.08v-.35a4,4,0,0,0-1-2.64h0a1.48,1.48,0,0,0-1.11-.51Z"/></svg>