<svg id="Layer_1" data-name="Layer 1" xmlns="http://www.w3.org/2000/svg" xmlns:xlink="http://www.w3.org/1999/xlink" viewBox="0 0 48 48"><defs><style>.cls-1{fill:url(#linear-gradient);}.cls-2{fill:url(#linear-gradient-2);}.cls-3{fill:url(#linear-gradient-3);}.cls-4{fill:url(#linear-gradient-4);}.cls-5{fill:url(#linear-gradient-5);}.cls-6{fill:url(#linear-gradient-6);}.cls-7{fill:url(#linear-gradient-7);}.cls-8{fill:url(#linear-gradient-8);}.cls-9{fill:url(#linear-gradient-9);}.cls-10{fill:url(#linear-gradient-10);}.cls-11{fill:url(#linear-gradient-11);}.cls-12{fill:url(#linear-gradient-12);}.cls-13{fill:url(#linear-gradient-13);}.cls-14{fill:url(#linear-gradient-14);}.cls-15{fill:url(#linear-gradient-15);}.cls-16{fill:url(#linear-gradient-16);}.cls-17{fill:url(#linear-gradient-17);}.cls-18{fill:url(#linear-gradient-18);}.cls-19{fill:url(#linear-gradient-19);}.cls-20{fill:url(#linear-gradient-20);}.cls-21{fill:url(#linear-gradient-21);}.cls-22{fill:url(#linear-gradient-22);}.cls-23{fill:url(#linear-gradient-23);}.cls-24{fill:url(#linear-gradient-24);}.cls-25{fill:url(#linear-gradient-25);}.cls-26{fill:url(#linear-gradient-26);}.cls-27{fill:url(#linear-gradient-27);}</style><linearGradient id="linear-gradient" x1="21" y1="55.1" x2="21" y2="37.35" gradientUnits="userSpaceOnUse"><stop offset="0" stop-color="#273a9b"/><stop offset="0.56" stop-color="#202f65"/><stop offset="1" stop-color="#021e2f"/></linearGradient><linearGradient id="linear-gradient-2" x1="13.69" y1="45.02" x2="14.95" y2="37.58" xlink:href="#linear-gradient"/><linearGradient id="linear-gradient-3" x1="21" y1="22.34" x2="4.5" y2="3.42" xlink:href="#linear-gradient"/><linearGradient id="linear-gradient-4" x1="12" y1="42.6" x2="12" y2="-0.77" xlink:href="#linear-gradient"/><linearGradient id="linear-gradient-5" x1="36.85" y1="55.1" x2="36.85" y2="37.35" xlink:href="#linear-gradient"/><linearGradient id="linear-gradient-6" x1="29.36" y1="45.02" x2="30.62" y2="37.58" xlink:href="#linear-gradient"/><linearGradient id="linear-gradient-7" x1="45" y1="25.78" x2="25.54" y2="28.38" gradientUnits="userSpaceOnUse"><stop offset="0" stop-color="#27e9de"/><stop offset="0.52" stop-color="#03a4ec"/><stop offset="1" stop-color="#2547a8"/></linearGradient><linearGradient id="linear-gradient-8" x1="-2.23" y1="67.25" x2="25.77" y2="31.58" xlink:href="#linear-gradient-7"/><linearGradient id="linear-gradient-9" x1="50.23" y1="36.51" x2="14.32" y2="14.17" xlink:href="#linear-gradient-7"/><linearGradient id="linear-gradient-10" x1="32.21" y1="36.06" x2="32.21" y2="14.13" xlink:href="#linear-gradient"/><linearGradient id="linear-gradient-11" x1="29.76" y1="45.18" x2="31.94" y2="17.64" xlink:href="#linear-gradient"/><linearGradient id="linear-gradient-12" x1="40.36" y1="34.52" x2="32.31" y2="33.91" gradientTransform="translate(12.78 -9.88) rotate(18.52)" xlink:href="#linear-gradient-7"/><linearGradient id="linear-gradient-13" x1="-24.84" y1="152.52" x2="-24.84" y2="144.02" gradientTransform="matrix(1, 0, 0, 0.86, 61.8, -99.13)" gradientUnits="userSpaceOnUse"><stop offset="0" stop-color="#fff"/><stop offset="0.52" stop-color="#cce2e6"/><stop offset="1" stop-color="#8fa1bb"/></linearGradient><linearGradient id="linear-gradient-14" x1="46.47" y1="34.52" x2="38.42" y2="33.91" gradientTransform="translate(13.09 -11.82) rotate(18.52)" xlink:href="#linear-gradient-7"/><linearGradient id="linear-gradient-15" x1="-19.05" y1="154.77" x2="-19.05" y2="146.27" gradientTransform="matrix(1, 0, 0, 0.86, 62.12, -101.07)" xlink:href="#linear-gradient-13"/><linearGradient id="linear-gradient-16" x1="26.81" y1="44.56" x2="26.81" y2="33.24" xlink:href="#linear-gradient"/><linearGradient id="linear-gradient-17" x1="26.81" y1="44.89" x2="26.81" y2="33.69" gradientTransform="matrix(1, 0, 0, 1, 0, 0)" xlink:href="#linear-gradient-13"/><linearGradient id="linear-gradient-18" x1="30.88" y1="44.56" x2="30.88" y2="33.24" xlink:href="#linear-gradient"/><linearGradient id="linear-gradient-19" x1="-553.67" y1="44.56" x2="-553.67" y2="33.24" gradientTransform="matrix(-1, 0, 0, 1, -531, 0)" xlink:href="#linear-gradient"/><linearGradient id="linear-gradient-20" x1="11.15" y1="44.56" x2="11.15" y2="33.24" xlink:href="#linear-gradient"/><linearGradient id="linear-gradient-21" x1="11.15" y1="44.89" x2="11.15" y2="33.69" gradientTransform="matrix(1, 0, 0, 1, 0, 0)" xlink:href="#linear-gradient-13"/><linearGradient id="linear-gradient-22" x1="15.22" y1="44.56" x2="15.22" y2="33.24" xlink:href="#linear-gradient"/><linearGradient id="linear-gradient-23" x1="7.77" y1="44.06" x2="7.77" y2="33.47" xlink:href="#linear-gradient"/><linearGradient id="linear-gradient-24" x1="24.66" y1="34.66" x2="24.66" y2="28.13" xlink:href="#linear-gradient-7"/><linearGradient id="linear-gradient-25" x1="13.75" y1="18.98" x2="36.69" y2="16.35" xlink:href="#linear-gradient"/><linearGradient id="linear-gradient-26" x1="14.26" y1="23.42" x2="37.19" y2="20.79" xlink:href="#linear-gradient"/><linearGradient id="linear-gradient-27" x1="14.76" y1="27.86" x2="37.7" y2="25.23" xlink:href="#linear-gradient"/></defs><title>garbage, truck, transportation, transport, vehicle</title><path class="cls-1" d="M23.27,34.85a3,3,0,0,0-2.06.84,3,3,0,0,0-2.06-.84,3.08,3.08,0,0,0-2.87,2.07l-.16.34a2.23,2.23,0,0,1-.46.61v.84h.47a3.12,3.12,0,0,0,3,2.57h4.12a3.22,3.22,0,0,0,0-6.43Z"/><path class="cls-2" d="M15.27,34.85a3.15,3.15,0,0,0-3.08,3.21,3.31,3.31,0,0,0,.21,1.13H11.15v2.08h4.12a3.22,3.22,0,0,0,0-6.43Z"/><path class="cls-3" d="M14,6.72H26.07A6.94,6.94,0,0,1,33,13.66v25a0,0,0,0,1,0,0H14.61A2.62,2.62,0,0,1,12,36.08V8.75A2,2,0,0,1,14,6.72Z"/><path class="cls-4" d="M21,38.7H9.53A6.53,6.53,0,0,1,3,32.17V19A12.25,12.25,0,0,1,15.25,6.72h0A5.75,5.75,0,0,1,21,12.48Z"/><path class="cls-5" d="M39.11,34.85a3,3,0,0,0-2.06.84A3,3,0,0,0,35,34.85a3.08,3.08,0,0,0-2.87,2.07l-.16.34a2.23,2.23,0,0,1-.46.61v.84H32a3.12,3.12,0,0,0,3,2.57h4.12a3.22,3.22,0,0,0,0-6.43Z"/><path class="cls-6" d="M30.94,34.85a3.15,3.15,0,0,0-3.08,3.21,3.31,3.31,0,0,0,.21,1.13H26.81v2.08h4.12a3.22,3.22,0,0,0,0-6.43Z"/><path class="cls-7" d="M38.65,28.42h-.33l-1.94-7.26A7.55,7.55,0,0,0,29,15.56h-.49A8.13,8.13,0,0,0,21,23.64v15a3.43,3.43,0,0,0,1.22-.08h0a2.38,2.38,0,0,0,1.53-1.26l.16-.33a3,3,0,0,1,5.68-.16h0l.23.48a2.47,2.47,0,0,0,1.64,1.32,5.94,5.94,0,0,0,1.41.17h8.16A3.93,3.93,0,0,0,45,34.77h0A6.35,6.35,0,0,0,38.65,28.42Z"/><path class="cls-8" d="M30.82,28.65a4.85,4.85,0,0,1-2.73-2.42l-2.7-5.1v-.05a3.7,3.7,0,0,0-2.56-2.58A8.21,8.21,0,0,0,21,23.64v15a3.44,3.44,0,0,0,1.22-.08h0a2.38,2.38,0,0,0,1.54-1.26l.16-.33a3,3,0,0,1,5.68-.16h0l.22.46a2.51,2.51,0,0,0,1.67,1.34,5.93,5.93,0,0,0,1.26.16A1.2,1.2,0,0,0,34,37.51V34.77C34,31.85,33.14,29.39,30.82,28.65Z"/><path class="cls-9" d="M45,34.77A6.4,6.4,0,0,0,45,34c0-.08,0-.15,0-.23s-.06-.33-.1-.5l-.06-.24c0-.16-.1-.32-.15-.48l-.08-.21a6.34,6.34,0,0,0-.67-1.23L43.73,31c-.1-.13-.2-.26-.31-.38l-.16-.18-.35-.34-.16-.15a5.82,5.82,0,0,0-1.16-.78l-.2-.1-.45-.2-.23-.09-.48-.14L40,28.57a6.32,6.32,0,0,0-.72-.12,6.43,6.43,0,0,0-.65,0h-.33l-1.94-7.26A7.56,7.56,0,0,0,36,20c-.08-.17-.18-.32-.27-.48s-.21-.41-.34-.6a7.5,7.5,0,0,0-.56-.69c-.07-.08-.13-.18-.21-.26a7.57,7.57,0,0,0-.86-.78l0,0a7.55,7.55,0,0,0-4.6-1.56c-.3,0-.59,0-.88,0h0c-.23,0-.45.05-.68.09l-.22,0-.4.1-.22.07a7.49,7.49,0,0,1,5,5.21l1.94,7.29h.33a6.35,6.35,0,0,1,6.35,6.35v2.73a1.2,1.2,0,0,1-1.2,1.2h2A3.93,3.93,0,0,0,45,34.77Z"/><path class="cls-10" d="M38.32,28.42l-1.69-6.32a1,1,0,0,0-1-.75H29.85l-.66,0c-4.4.38-4,7,.46,7Z"/><path class="cls-11" d="M36.63,22.09a1,1,0,0,0-1-.75H29.85a7.4,7.4,0,0,0-.84.06,3.16,3.16,0,0,0-2.53,1.77v0a3.61,3.61,0,0,0,3.18,5.25h.66a3.55,3.55,0,0,1-.43-.24,2.81,2.81,0,0,1-.68-4h0a3.92,3.92,0,0,1,3.2-1.65h3.78a1,1,0,0,1,.62.22Z"/><ellipse class="cls-12" cx="36.7" cy="34.24" rx="1.26" ry="1.69" transform="translate(-8.98 13.43) rotate(-18.52)"/><ellipse class="cls-13" cx="36.97" cy="34.32" rx="1.04" ry="1.39" transform="translate(-8.99 13.52) rotate(-18.52)"/><ellipse class="cls-14" cx="42.81" cy="34.24" rx="1.26" ry="1.69" transform="translate(-8.66 15.37) rotate(-18.52)"/><ellipse class="cls-15" cx="43.07" cy="34.32" rx="1.04" ry="1.39" transform="translate(-8.67 15.46) rotate(-18.52)"/><ellipse class="cls-16" cx="26.81" cy="38.06" rx="3.08" ry="3.21"/><ellipse class="cls-17" cx="26.81" cy="38.06" rx="1.12" ry="1.17"/><path class="cls-18" d="M31.4,38.51a2.37,2.37,0,0,1-1.53-1.26l-.25-.51.08,2h2.44Z"/><path class="cls-19" d="M22.25,38.51a2.37,2.37,0,0,0,1.53-1.26l.25-.51-.08,2-2.63-.09Z"/><ellipse class="cls-20" cx="11.15" cy="38.06" rx="3.08" ry="3.21"/><ellipse class="cls-21" cx="11.15" cy="38.06" rx="1.12" ry="1.17"/><path class="cls-22" d="M15.74,38.51a2.37,2.37,0,0,1-1.53-1.26L14,36.74l.08,2h2.44Z"/><path class="cls-23" d="M7.18,38.26a6.47,6.47,0,0,0,1.11.32l.08-1.84-.25.51A2.36,2.36,0,0,1,7.18,38.26Z"/><rect class="cls-24" x="23.21" y="29.22" width="2.9" height="1.06" rx="0.53" ry="0.53"/><path class="cls-25" d="M15.75,20.22a.75.75,0,0,0,0-1.5H3c0,.08,0,.16,0,.25v1.25Z"/><path class="cls-26" d="M3,24.72H15.75a.75.75,0,0,0,0-1.5H3Z"/><path class="cls-27" d="M3,29.22H15.75a.75.75,0,0,0,0-1.5H3Z"/></svg>