<svg id="Layer_1" data-name="Layer 1" xmlns="http://www.w3.org/2000/svg" xmlns:xlink="http://www.w3.org/1999/xlink" viewBox="0 0 48 48"><defs><style>.cls-1{fill:url(#linear-gradient);}.cls-2{fill:url(#linear-gradient-2);}.cls-3{fill:url(#linear-gradient-3);}.cls-4{fill:url(#linear-gradient-4);}.cls-5{fill:url(#linear-gradient-5);}.cls-6{fill:url(#linear-gradient-6);}.cls-7{fill:url(#linear-gradient-7);}.cls-8{fill:url(#linear-gradient-8);}.cls-9{fill:url(#linear-gradient-9);}.cls-10{fill:url(#linear-gradient-10);}</style><linearGradient id="linear-gradient" x1="-753.29" y1="55.42" x2="-722.79" y2="29.05" gradientTransform="matrix(-1, 0, 0, 1, -690, 0)" gradientUnits="userSpaceOnUse"><stop offset="0" stop-color="#fff"/><stop offset="0.52" stop-color="#cce2e6"/><stop offset="1" stop-color="#8fa1bb"/></linearGradient><linearGradient id="linear-gradient-2" x1="-727.5" y1="30.19" x2="-727.5" y2="46" xlink:href="#linear-gradient"/><linearGradient id="linear-gradient-3" x1="-729.57" y1="13.56" x2="-726.99" y2="24.69" xlink:href="#linear-gradient"/><linearGradient id="linear-gradient-4" x1="-747.13" y1="57.26" x2="-707.96" y2="23.39" gradientTransform="matrix(-1, 0, 0, 1, -690, 0)" gradientUnits="userSpaceOnUse"><stop offset="0" stop-color="#f3c57a"/><stop offset="0.49" stop-color="#f39369"/><stop offset="1" stop-color="#e94867"/></linearGradient><linearGradient id="linear-gradient-5" x1="-714" y1="30.19" x2="-714" y2="46" xlink:href="#linear-gradient-4"/><linearGradient id="linear-gradient-6" x1="-716.07" y1="4.56" x2="-713.49" y2="15.69" xlink:href="#linear-gradient-4"/><linearGradient id="linear-gradient-7" x1="-740.96" y1="59.11" x2="-693.13" y2="17.74" xlink:href="#linear-gradient-4"/><linearGradient id="linear-gradient-8" x1="-700.5" y1="30.19" x2="-700.5" y2="46" xlink:href="#linear-gradient-4"/><linearGradient id="linear-gradient-9" x1="-702.57" y1="-4.44" x2="-699.99" y2="6.69" xlink:href="#linear-gradient-4"/><linearGradient id="linear-gradient-10" x1="10.5" y1="-36.11" x2="10.5" y2="-55.48" gradientTransform="matrix(1, 0, 0, -1, 27, -27.97)" xlink:href="#linear-gradient-4"/></defs><title>graph, chart, bar, arrow, analytics</title><path class="cls-1" d="M42,22.45v21c0,.83-2,1.5-4.5,1.5S33,44.33,33,43.5v-21Z"/><ellipse class="cls-2" cx="37.5" cy="43.5" rx="4.5" ry="1.5"/><ellipse class="cls-3" cx="37.5" cy="22.5" rx="4.5" ry="1.5"/><path class="cls-4" d="M28.5,13.45v30c0,.83-2,1.5-4.5,1.5s-4.5-.67-4.5-1.5v-30Z"/><ellipse class="cls-5" cx="24" cy="43.5" rx="4.5" ry="1.5"/><ellipse class="cls-6" cx="24" cy="13.5" rx="4.5" ry="1.5"/><path class="cls-7" d="M15,4.45v39c0,.83-2,1.5-4.5,1.5S6,44.33,6,43.5v-39Z"/><ellipse class="cls-8" cx="10.5" cy="43.5" rx="4.5" ry="1.5"/><ellipse class="cls-9" cx="10.5" cy="4.5" rx="4.5" ry="1.5"/><path class="cls-10" d="M41.55,13l-3.3,4.13a1,1,0,0,1-1.5,0L33.45,13a.42.42,0,0,1,.33-.68h1a.42.42,0,0,0,.42-.42v-1a2.31,2.31,0,0,1,2.31-2.31h0a2.31,2.31,0,0,1,2.31,2.31v1a.42.42,0,0,0,.42.42h1A.42.42,0,0,1,41.55,13Z"/></svg>