<svg id="Layer_1" data-name="Layer 1" xmlns="http://www.w3.org/2000/svg" xmlns:xlink="http://www.w3.org/1999/xlink" viewBox="0 0 48 48"><defs><style>.cls-1{fill:url(#linear-gradient);}.cls-2{fill:none;}.cls-3{fill:url(#linear-gradient-2);}.cls-4{fill:url(#linear-gradient-3);}.cls-5{fill:url(#linear-gradient-4);}.cls-6{fill:url(#linear-gradient-5);}.cls-7{fill:url(#linear-gradient-6);}.cls-8{fill:url(#linear-gradient-7);}.cls-9{fill:url(#linear-gradient-8);}.cls-10{fill:url(#linear-gradient-9);}.cls-11{fill:url(#linear-gradient-10);}.cls-12{fill:url(#linear-gradient-11);}.cls-13{fill:url(#linear-gradient-12);}.cls-14{fill:url(#linear-gradient-13);}.cls-15{fill:url(#linear-gradient-14);}.cls-16{fill:url(#linear-gradient-15);}.cls-17{fill:url(#linear-gradient-16);}.cls-18{fill:url(#linear-gradient-17);}.cls-19{fill:url(#linear-gradient-20);}.cls-20{fill:url(#linear-gradient-21);}.cls-21{fill:url(#linear-gradient-22);}.cls-22{fill:url(#linear-gradient-23);}.cls-23{fill:url(#linear-gradient-25);}.cls-24{fill:url(#linear-gradient-27);}.cls-25{fill:url(#linear-gradient-29);}.cls-26{fill:url(#linear-gradient-31);}.cls-27{fill:url(#linear-gradient-32);}.cls-28{fill:url(#linear-gradient-33);}.cls-29{fill:url(#linear-gradient-34);}.cls-30{fill:url(#linear-gradient-35);}.cls-31{fill:url(#linear-gradient-36);}</style><linearGradient id="linear-gradient" x1="22.43" y1="52.45" x2="22.43" y2="-21.88" gradientUnits="userSpaceOnUse"><stop offset="0" stop-color="#273a9b"/><stop offset="0.56" stop-color="#202f65"/><stop offset="1" stop-color="#021e2f"/></linearGradient><linearGradient id="linear-gradient-2" x1="3.08" y1="63.13" x2="3.08" y2="-29.52" gradientUnits="userSpaceOnUse"><stop offset="0" stop-color="#27e9de"/><stop offset="0.52" stop-color="#03a4ec"/><stop offset="1" stop-color="#2547a8"/></linearGradient><linearGradient id="linear-gradient-3" x1="32.06" y1="59.95" x2="32.06" y2="3.19" xlink:href="#linear-gradient-2"/><linearGradient id="linear-gradient-4" x1="3.08" y1="63.13" x2="3.08" y2="-29.52" xlink:href="#linear-gradient-2"/><linearGradient id="linear-gradient-5" x1="41.78" y1="63.13" x2="41.78" y2="-29.52" xlink:href="#linear-gradient-2"/><linearGradient id="linear-gradient-6" x1="41.78" y1="63.13" x2="41.78" y2="-29.52" xlink:href="#linear-gradient-2"/><linearGradient id="linear-gradient-7" x1="12.79" y1="-18.98" x2="12.79" y2="39.39" xlink:href="#linear-gradient-2"/><linearGradient id="linear-gradient-8" x1="12.79" y1="59.95" x2="12.79" y2="3.19" xlink:href="#linear-gradient-2"/><linearGradient id="linear-gradient-9" x1="32.06" y1="-18.98" x2="32.06" y2="39.39" xlink:href="#linear-gradient-2"/><linearGradient id="linear-gradient-10" x1="22.43" y1="63.13" x2="22.43" y2="-29.52" xlink:href="#linear-gradient-2"/><linearGradient id="linear-gradient-11" x1="22.43" y1="63.13" x2="22.43" y2="-29.52" xlink:href="#linear-gradient-2"/><linearGradient id="linear-gradient-12" x1="22.43" y1="63.12" x2="22.43" y2="-29.52" xlink:href="#linear-gradient-2"/><linearGradient id="linear-gradient-13" x1="22.43" y1="-12.16" x2="22.43" y2="55.71" xlink:href="#linear-gradient-2"/><linearGradient id="linear-gradient-14" x1="22.43" y1="63.12" x2="22.43" y2="-29.52" xlink:href="#linear-gradient-2"/><linearGradient id="linear-gradient-15" x1="22.43" y1="74.96" x2="22.43" y2="1.38" xlink:href="#linear-gradient-2"/><linearGradient id="linear-gradient-16" x1="41.89" y1="63.12" x2="41.89" y2="-29.52" xlink:href="#linear-gradient-2"/><linearGradient id="linear-gradient-17" x1="2.97" y1="63.12" x2="2.97" y2="-29.52" xlink:href="#linear-gradient-2"/><linearGradient id="linear-gradient-20" x1="33.53" y1="42.58" x2="33.53" y2="8.51" xlink:href="#linear-gradient-2"/><linearGradient id="linear-gradient-21" x1="11.32" y1="42.58" x2="11.32" y2="8.51" xlink:href="#linear-gradient-2"/><linearGradient id="linear-gradient-22" x1="22.43" y1="42.58" x2="22.43" y2="8.51" xlink:href="#linear-gradient-2"/><linearGradient id="linear-gradient-23" x1="39" y1="63.12" x2="39" y2="-29.52" xlink:href="#linear-gradient-2"/><linearGradient id="linear-gradient-25" x1="5.85" y1="63.12" x2="5.85" y2="-29.52" xlink:href="#linear-gradient-2"/><linearGradient id="linear-gradient-27" x1="16.89" y1="63.12" x2="16.89" y2="-29.52" xlink:href="#linear-gradient-2"/><linearGradient id="linear-gradient-29" x1="27.96" y1="63.12" x2="27.96" y2="-29.52" xlink:href="#linear-gradient-2"/><linearGradient id="linear-gradient-31" x1="36.07" y1="33.92" x2="36.07" y2="15.04" gradientUnits="userSpaceOnUse"><stop offset="0" stop-color="#fff"/><stop offset="0.52" stop-color="#cce2e6"/><stop offset="1" stop-color="#8fa1bb"/></linearGradient><linearGradient id="linear-gradient-32" x1="36.07" y1="26.44" x2="36.07" y2="38.78" xlink:href="#linear-gradient-31"/><linearGradient id="linear-gradient-33" x1="36.07" y1="56.25" x2="36.07" y2="3.66" xlink:href="#linear-gradient"/><linearGradient id="linear-gradient-34" x1="36.07" y1="36.81" x2="36.07" y2="42.75" xlink:href="#linear-gradient"/><linearGradient id="linear-gradient-35" x1="36.07" y1="48.03" x2="36.07" y2="33.02" gradientUnits="userSpaceOnUse"><stop offset="0" stop-color="#f3c57a"/><stop offset="0.49" stop-color="#f39369"/><stop offset="1" stop-color="#e94867"/></linearGradient><linearGradient id="linear-gradient-36" x1="36.08" y1="41.5" x2="36.08" y2="34.55" xlink:href="#linear-gradient-35"/></defs><title>internet, lock, privacy, security, protection</title><circle class="cls-1" cx="22.43" cy="22.5" r="18.11"/><path class="cls-2" d="M8.78,25.29a14,14,0,0,0,6.89,9.38,39.27,39.27,0,0,1-1.53-9.38Z"/><path class="cls-2" d="M29.18,34.67a14,14,0,0,0,6.89-9.38H30.71A39.27,39.27,0,0,1,29.18,34.67Z"/><path class="cls-2" d="M22.43,8.82c-.9,1.14-2.35,4.85-2.71,10.89h5.41C24.78,13.67,23.32,10,22.43,8.82Z"/><path class="cls-2" d="M15.67,10.33a14,14,0,0,0-6.89,9.38h5.36A39.27,39.27,0,0,1,15.67,10.33Z"/><path class="cls-2" d="M22.43,36.18c.9-1.14,2.35-4.85,2.71-10.89H19.72C20.08,31.33,21.53,35,22.43,36.18Z"/><path class="cls-2" d="M29.18,10.33a39.27,39.27,0,0,1,1.53,9.38h5.36A14,14,0,0,0,29.18,10.33Z"/><path class="cls-3" d="M3.15,25.29C3.09,24.88,3,24.46,3,24,3,24.47,3.09,24.88,3.15,25.29Z"/><path class="cls-4" d="M29.18,34.67C27.84,39,25.62,42,22.43,42A19.51,19.51,0,0,0,41.7,25.29H36.07A14,14,0,0,1,29.18,34.67Z"/><path class="cls-5" d="M3,21c0-.42.09-.83.14-1.24C3.09,20.12,3,20.53,3,21Z"/><path class="cls-6" d="M41.7,19.71c.06.41.11.82.14,1.24C41.81,20.53,41.76,20.12,41.7,19.71Z"/><path class="cls-7" d="M41.85,24c0,.42-.09.83-.14,1.24C41.76,24.88,41.81,24.47,41.85,24Z"/><path class="cls-8" d="M15.67,10.33C17,6,19.23,3,22.43,3A19.51,19.51,0,0,0,3.15,19.71H8.78A14,14,0,0,1,15.67,10.33Z"/><path class="cls-9" d="M15.67,34.67a14,14,0,0,1-6.89-9.38H3.15A19.51,19.51,0,0,0,22.43,42C19.23,42,17,39,15.67,34.67Z"/><path class="cls-10" d="M29.18,10.33a14,14,0,0,1,6.89,9.38H41.7A19.51,19.51,0,0,0,22.43,3C25.62,3,27.84,6,29.18,10.33Z"/><path class="cls-11" d="M19.72,19.71c.35-6,1.81-9.75,2.71-10.89.9,1.14,2.35,4.85,2.71,10.89h5.58a39.27,39.27,0,0,0-1.53-9.38,13.86,13.86,0,0,0-13.51,0,39.27,39.27,0,0,0-1.53,9.38Z"/><path class="cls-12" d="M25.13,25.29c-.35,6-1.81,9.75-2.71,10.89-.9-1.14-2.35-4.85-2.71-10.89H14.14a39.27,39.27,0,0,0,1.53,9.38,13.86,13.86,0,0,0,13.51,0,39.27,39.27,0,0,0,1.53-9.38Z"/><path class="cls-13" d="M15.67,10.33a13.86,13.86,0,0,1,13.51,0C27.84,6,25.62,3,22.43,3S17,6,15.67,10.33Z"/><path class="cls-14" d="M15.67,10.33a13.86,13.86,0,0,1,13.51,0C27.84,6,25.62,3,22.43,3S17,6,15.67,10.33Z"/><path class="cls-15" d="M29.18,34.67a13.86,13.86,0,0,1-13.51,0C17,39,19.23,42,22.43,42S27.84,39,29.18,34.67Z"/><path class="cls-16" d="M29.18,34.67a13.86,13.86,0,0,1-13.51,0C17,39,19.23,42,22.43,42S27.84,39,29.18,34.67Z"/><path class="cls-17" d="M41.85,21c0,.51.08,1,.08,1.55C41.93,22,41.89,21.46,41.85,21Z"/><path class="cls-18" d="M3,24c0-.51-.08-1-.08-1.55C2.93,23,3,23.54,3,24Z"/><path class="cls-18" d="M2.93,22.5c0-.52,0-1,.08-1.55C3,21.46,2.93,22,2.93,22.5Z"/><path class="cls-17" d="M41.93,22.5c0,.52,0,1-.08,1.55C41.89,23.54,41.93,23,41.93,22.5Z"/><path class="cls-19" d="M30.78,22.5c0,.93,0,1.86-.07,2.79h5.36a14,14,0,0,0,0-5.57H30.71C30.76,20.64,30.78,21.57,30.78,22.5Z"/><path class="cls-20" d="M14.07,22.5c0-.93,0-1.86.07-2.79H8.78a14,14,0,0,0,0,5.57h5.36C14.09,24.36,14.07,23.43,14.07,22.5Z"/><path class="cls-21" d="M25.13,19.71H19.72c-.05.88-.08,1.81-.08,2.79s0,1.91.08,2.79h5.41c.05-.88.08-1.81.08-2.79S25.18,20.59,25.13,19.71Z"/><path class="cls-22" d="M41.85,24c0-.51.08-1,.08-1.55s0-1-.08-1.55-.09-.83-.14-1.24H36.07a14,14,0,0,1,0,5.57H41.7C41.76,24.88,41.81,24.46,41.85,24Z"/><path class="cls-22" d="M41.85,24c0-.51.08-1,.08-1.55s0-1-.08-1.55-.09-.83-.14-1.24H36.07a14,14,0,0,1,0,5.57H41.7C41.76,24.88,41.81,24.46,41.85,24Z"/><path class="cls-23" d="M8.5,22.5a13.94,13.94,0,0,1,.28-2.79H3.15C3.09,20.12,3,20.54,3,21s-.08,1-.08,1.55S3,23.54,3,24s.09.83.14,1.24H8.78A13.94,13.94,0,0,1,8.5,22.5Z"/><path class="cls-23" d="M8.5,22.5a13.94,13.94,0,0,1,.28-2.79H3.15C3.09,20.12,3,20.54,3,21s-.08,1-.08,1.55S3,23.54,3,24s.09.83.14,1.24H8.78A13.94,13.94,0,0,1,8.5,22.5Z"/><path class="cls-24" d="M19.72,19.71H14.14c0,.92-.07,1.85-.07,2.79s0,1.86.07,2.79h5.58c-.05-.88-.08-1.81-.08-2.79S19.67,20.59,19.72,19.71Z"/><path class="cls-24" d="M19.72,19.71H14.14c0,.92-.07,1.85-.07,2.79s0,1.86.07,2.79h5.58c-.05-.88-.08-1.81-.08-2.79S19.67,20.59,19.72,19.71Z"/><path class="cls-25" d="M25.21,22.5c0,1,0,1.91-.08,2.79h5.58c0-.92.07-1.85.07-2.79s0-1.86-.07-2.79H25.13C25.18,20.59,25.21,21.52,25.21,22.5Z"/><path class="cls-25" d="M25.21,22.5c0,1,0,1.91-.08,2.79h5.58c0-.92.07-1.85.07-2.79s0-1.86-.07-2.79H25.13C25.18,20.59,25.21,21.52,25.21,22.5Z"/><path class="cls-26" d="M43.57,39h-15V28.5a7.5,7.5,0,1,1,15,0Zm-12-3h9V28.5a4.5,4.5,0,1,0-9,0Z"/><path class="cls-27" d="M43.57,30.12a2.17,2.17,0,0,0-.69-.12H40.57v6h-9V30H29.26a2.17,2.17,0,0,0-.69.12V39h15Z"/><rect class="cls-28" x="27.07" y="31.5" width="18" height="13.5" rx="2.19" ry="2.19"/><path class="cls-29" d="M29.26,31.5A2.18,2.18,0,0,0,27.2,33H45a2.18,2.18,0,0,0-2.07-1.5Z"/><path class="cls-30" d="M38.23,38.16A2.16,2.16,0,0,0,34,37.64a2.14,2.14,0,0,0,.42,1.87,1.15,1.15,0,0,1,.24.73v.32A1.44,1.44,0,0,0,36.07,42h0a1.44,1.44,0,0,0,1.44-1.44v-.32a1.18,1.18,0,0,1,.25-.74A2.13,2.13,0,0,0,38.23,38.16Z"/><path class="cls-31" d="M38.09,38.92a2.16,2.16,0,0,0-2.59-1.35,2.13,2.13,0,0,0-1.44,1.34,2.16,2.16,0,0,0,.33.6,1.15,1.15,0,0,1,.24.73v.32a1.44,1.44,0,1,0,2.88,0v-.32a1.18,1.18,0,0,1,.25-.74A2.16,2.16,0,0,0,38.09,38.92Z"/></svg>