<svg id="Layer_1" data-name="Layer 1" xmlns="http://www.w3.org/2000/svg" xmlns:xlink="http://www.w3.org/1999/xlink" viewBox="0 0 48 48"><defs><style>.cls-1{fill:url(#linear-gradient);}.cls-2{fill:url(#linear-gradient-2);}.cls-3{fill:url(#linear-gradient-3);}.cls-4{fill:url(#linear-gradient-4);}.cls-5{fill:url(#linear-gradient-5);}.cls-6{fill:url(#linear-gradient-6);}.cls-7{fill:url(#linear-gradient-7);}.cls-8{fill:url(#linear-gradient-8);}.cls-9{fill:url(#linear-gradient-9);}.cls-10{fill:url(#linear-gradient-10);}.cls-11{fill:url(#linear-gradient-11);}.cls-12{fill:url(#linear-gradient-12);}.cls-13{fill:url(#linear-gradient-13);}.cls-14{fill:url(#linear-gradient-14);}.cls-15{fill:url(#linear-gradient-15);}.cls-16{fill:url(#linear-gradient-16);}.cls-17{fill:url(#linear-gradient-17);}.cls-18{fill:url(#linear-gradient-18);}.cls-19{fill:url(#linear-gradient-19);}.cls-20{fill:url(#linear-gradient-20);}.cls-21{fill:url(#linear-gradient-21);}.cls-22{fill:url(#linear-gradient-22);}.cls-23{fill:url(#linear-gradient-23);}.cls-24{fill:url(#linear-gradient-24);}.cls-25{fill:url(#linear-gradient-25);}.cls-26{fill:url(#linear-gradient-26);}.cls-27{fill:url(#linear-gradient-27);}.cls-28{fill:url(#linear-gradient-28);}.cls-29{fill:url(#linear-gradient-29);}.cls-30{fill:url(#linear-gradient-30);}.cls-31{fill:url(#linear-gradient-31);}.cls-32{fill:url(#linear-gradient-32);}.cls-33{fill:url(#linear-gradient-33);}.cls-34{fill:url(#linear-gradient-34);}.cls-35{fill:url(#linear-gradient-35);}.cls-36{fill:url(#linear-gradient-36);}</style><linearGradient id="linear-gradient" x1="24" y1="50.46" x2="24" y2="30.9" gradientUnits="userSpaceOnUse"><stop offset="0" stop-color="#f3c57a"/><stop offset="0.49" stop-color="#f39369"/><stop offset="1" stop-color="#e94867"/></linearGradient><linearGradient id="linear-gradient-2" y1="61.13" y2="24.95" xlink:href="#linear-gradient"/><linearGradient id="linear-gradient-3" x1="-1.13" y1="-1.59" x2="22.78" y2="24.58" xlink:href="#linear-gradient"/><linearGradient id="linear-gradient-4" x1="10.49" y1="1.93" x2="20.67" y2="31.3" xlink:href="#linear-gradient"/><linearGradient id="linear-gradient-5" x1="16.4" y1="38.79" x2="16.4" y2="5.92" xlink:href="#linear-gradient"/><linearGradient id="linear-gradient-6" x1="760.87" y1="-1.59" x2="784.78" y2="24.58" gradientTransform="matrix(-1, 0, 0, 1, 810, 0)" xlink:href="#linear-gradient"/><linearGradient id="linear-gradient-7" x1="772.49" y1="1.93" x2="782.67" y2="31.3" gradientTransform="matrix(-1, 0, 0, 1, 810, 0)" xlink:href="#linear-gradient"/><linearGradient id="linear-gradient-8" x1="778.4" y1="38.79" x2="778.4" y2="5.92" gradientTransform="matrix(-1, 0, 0, 1, 810, 0)" xlink:href="#linear-gradient"/><linearGradient id="linear-gradient-9" y1="67.79" y2="-3.91" xlink:href="#linear-gradient"/><linearGradient id="linear-gradient-10" x1="11.2" y1="41.96" x2="16.55" y2="21.28" xlink:href="#linear-gradient"/><linearGradient id="linear-gradient-11" x1="774.61" y1="41.96" x2="779.96" y2="21.28" gradientTransform="matrix(-1, 0, 0, 1, 811.52, 0)" xlink:href="#linear-gradient"/><linearGradient id="linear-gradient-12" y1="40.35" y2="32.91" xlink:href="#linear-gradient"/><linearGradient id="linear-gradient-13" x1="19.35" y1="33.58" x2="19.35" y2="41.66" gradientUnits="userSpaceOnUse"><stop offset="0" stop-color="#fff"/><stop offset="0.52" stop-color="#cce2e6"/><stop offset="1" stop-color="#8fa1bb"/></linearGradient><linearGradient id="linear-gradient-14" x1="769.16" y1="33.58" x2="769.16" y2="41.66" gradientTransform="matrix(-1, 0, 0, 1, 797.81, 0)" xlink:href="#linear-gradient-13"/><linearGradient id="linear-gradient-15" y1="42.3" y2="35.13" xlink:href="#linear-gradient"/><linearGradient id="linear-gradient-16" y1="37.79" y2="28.03" xlink:href="#linear-gradient"/><linearGradient id="linear-gradient-17" y1="38.71" y2="29.79" xlink:href="#linear-gradient"/><linearGradient id="linear-gradient-18" y1="30.06" y2="24.33" xlink:href="#linear-gradient"/><linearGradient id="linear-gradient-19" y1="34.69" y2="20.65" xlink:href="#linear-gradient"/><linearGradient id="linear-gradient-20" y1="38.05" y2="26.53" xlink:href="#linear-gradient"/><linearGradient id="linear-gradient-21" y1="45.5" y2="-9.08" xlink:href="#linear-gradient"/><linearGradient id="linear-gradient-22" x1="16.92" y1="38.35" x2="16.92" y2="31.51" gradientUnits="userSpaceOnUse"><stop offset="0" stop-color="#273a9b"/><stop offset="0.56" stop-color="#202f65"/><stop offset="1" stop-color="#021e2f"/></linearGradient><linearGradient id="linear-gradient-23" x1="16.33" y1="28.48" x2="16.33" y2="26.32" xlink:href="#linear-gradient-22"/><linearGradient id="linear-gradient-24" x1="31.08" y1="38.35" x2="31.08" y2="31.51" xlink:href="#linear-gradient-22"/><linearGradient id="linear-gradient-25" x1="30.49" y1="28.48" x2="30.49" y2="26.32" xlink:href="#linear-gradient-22"/><linearGradient id="linear-gradient-26" x1="24" y1="35.5" x2="24" y2="27.39" xlink:href="#linear-gradient-22"/><linearGradient id="linear-gradient-27" x1="23.99" y1="36.87" x2="23.99" y2="28.88" xlink:href="#linear-gradient-22"/><linearGradient id="linear-gradient-28" x1="16.92" y1="34.91" x2="16.92" y2="21.97" xlink:href="#linear-gradient"/><linearGradient id="linear-gradient-29" x1="784.64" y1="34.91" x2="784.64" y2="21.97" gradientTransform="matrix(-1, 0, 0, 1, 815.72, 0)" xlink:href="#linear-gradient"/><linearGradient id="linear-gradient-30" y1="29.25" y2="16.56" xlink:href="#linear-gradient"/><linearGradient id="linear-gradient-31" x1="19.7" y1="36.05" x2="19.7" y2="26.98" xlink:href="#linear-gradient"/><linearGradient id="linear-gradient-32" x1="21.17" y1="37.37" x2="21.17" y2="28.29" xlink:href="#linear-gradient"/><linearGradient id="linear-gradient-33" x1="19.39" y1="37.68" x2="19.39" y2="28.61" xlink:href="#linear-gradient"/><linearGradient id="linear-gradient-34" x1="765.68" y1="36.05" x2="765.68" y2="26.98" gradientTransform="matrix(-1, 0, 0, 1, 793.98, 0)" xlink:href="#linear-gradient"/><linearGradient id="linear-gradient-35" x1="767.15" y1="37.37" x2="767.15" y2="28.29" gradientTransform="matrix(-1, 0, 0, 1, 793.98, 0)" xlink:href="#linear-gradient"/><linearGradient id="linear-gradient-36" x1="765.37" y1="37.68" x2="765.37" y2="28.61" gradientTransform="matrix(-1, 0, 0, 1, 793.98, 0)" xlink:href="#linear-gradient"/></defs><title>lion, animal, wildlife, feline</title><path class="cls-1" d="M3,24.56v2.51A14.1,14.1,0,0,0,12,40.2l6.9,2.7a14.1,14.1,0,0,0,10.27,0L36,40.2a14.1,14.1,0,0,0,9-13.13V24.56A20.21,20.21,0,0,0,35.36,7.33h0a21.72,21.72,0,0,0-22.71,0h0A20.21,20.21,0,0,0,3,24.56Z"/><path class="cls-2" d="M40.32,25.32l-.68-3.87a12.89,12.89,0,0,0-6.25-8.94h0a18.78,18.78,0,0,0-18.78,0h0a12.89,12.89,0,0,0-6.25,8.94l-.68,3.87a9.47,9.47,0,0,0,5.23,10.16h0a25.62,25.62,0,0,0,22.19,0h0A9.47,9.47,0,0,0,40.32,25.32Z"/><path class="cls-3" d="M11.72,7.49a1.17,1.17,0,0,0-1,.49,11,11,0,0,0,8.87,17.4A11,11,0,0,0,11.72,7.49Z"/><path class="cls-4" d="M10.69,9.63a1.17,1.17,0,0,1,1-.49A11,11,0,0,1,21.95,19.27,11,11,0,0,0,11.72,7.49a1.17,1.17,0,0,0-1,.49,11.08,11.08,0,0,0-2,7.22A11.11,11.11,0,0,1,10.69,9.63Z"/><path class="cls-5" d="M21.14,27.53A11,11,0,0,0,12.21,11.3a1.16,1.16,0,0,0-.65.16,11,11,0,0,0,9.58,16.07Z"/><path class="cls-6" d="M36.28,7.49a1.17,1.17,0,0,1,1,.49,11,11,0,0,1-8.87,17.4A11,11,0,0,1,36.28,7.49Z"/><path class="cls-7" d="M37.31,9.63a1.17,1.17,0,0,0-1-.49A11,11,0,0,0,26.05,19.27,11,11,0,0,1,36.28,7.49a1.17,1.17,0,0,1,1,.49,11.08,11.08,0,0,1,2,7.22A11.1,11.1,0,0,0,37.31,9.63Z"/><path class="cls-8" d="M26.86,27.53A11,11,0,0,1,35.79,11.3a1.16,1.16,0,0,1,.65.16,11,11,0,0,1-9.58,16.07Z"/><path class="cls-9" d="M40.32,27.83,39.64,24A12.89,12.89,0,0,0,33.39,15h0a18.78,18.78,0,0,0-18.78,0h0A12.89,12.89,0,0,0,8.36,24l-.68,3.87A9.47,9.47,0,0,0,12.91,38h0a25.62,25.62,0,0,0,22.19,0h0A9.47,9.47,0,0,0,40.32,27.83Z"/><path class="cls-10" d="M13.73,24.95c1.07,0,4.48-1.56,4.48,2.47,0,1.37-3.41,2.47-4.48,2.47a2.25,2.25,0,0,1-1.93-2.47A2.25,2.25,0,0,1,13.73,24.95Z"/><path class="cls-11" d="M34.38,24.95c-1.07,0-4.48-1.56-4.48,2.47,0,1.37,3.41,2.47,4.48,2.47a2.25,2.25,0,0,0,1.93-2.47A2.25,2.25,0,0,0,34.38,24.95Z"/><path class="cls-12" d="M27.14,31.13A5.72,5.72,0,0,0,24,32a5.72,5.72,0,0,0-3.14-.86c-2.28,0-3.95,1.16-3.95,2.78s1.85,2.93,4.13,2.93a5.38,5.38,0,0,0,2.23-.46,1.76,1.76,0,0,1,1.45,0,5.38,5.38,0,0,0,2.23.46c2.28,0,4.13-1.31,4.13-2.93S29.42,31.13,27.14,31.13Z"/><path class="cls-13" d="M21,34.62,19.72,37A.42.42,0,0,1,19,37l-1.32-2.56,1.68-1.45Z"/><path class="cls-14" d="M27,34.62,28.28,37A.42.42,0,0,0,29,37l1.32-2.56-1.68-1.45Z"/><path class="cls-15" d="M27.54,35.39c0,1.5-1.59,4.11-3.54,4.11s-3.54-2.61-3.54-4.11S22,32.68,24,32.68,27.54,33.89,27.54,35.39Z"/><ellipse class="cls-16" cx="24" cy="35.55" rx="3.54" ry="2.61"/><path class="cls-17" d="M24,32.94l0,0,0,0c-1.93,0-3.49,1.18-3.49,2.6a2.09,2.09,0,0,0,.47,1.27H21a5.38,5.38,0,0,0,2.23-.46,1.76,1.76,0,0,1,1.45,0,5.38,5.38,0,0,0,2.23.46h.12a2.09,2.09,0,0,0,.47-1.27C27.54,34.12,26,33,24,32.94Z"/><path class="cls-18" d="M27.14,30.09A5.72,5.72,0,0,0,24,31a5.72,5.72,0,0,0-3.14-.86c-2.28,0-3.95,1.16-3.95,2.78s1.85,2.93,4.13,2.93a5.38,5.38,0,0,0,2.23-.46,1.76,1.76,0,0,1,1.45,0,5.38,5.38,0,0,0,2.23.46c2.28,0,4.13-1.31,4.13-2.93S29.42,30.09,27.14,30.09Z"/><path class="cls-19" d="M27.14,31.07a5.72,5.72,0,0,0-3.14.86,5.72,5.72,0,0,0-3.14-.86,5,5,0,0,0-2.68.68,1.91,1.91,0,0,0-.16,3.1,5,5,0,0,0,3,.94,5.38,5.38,0,0,0,2.23-.46,1.76,1.76,0,0,1,1.45,0,5.38,5.38,0,0,0,2.23.46,5,5,0,0,0,3-.94,1.91,1.91,0,0,0-.16-3.1A5,5,0,0,0,27.14,31.07Z"/><path class="cls-20" d="M26.06,30.51c0,.59-.92,3-2.06,3s-2.06-2.38-2.06-3,.92-1.06,2.06-1.06S26.06,29.92,26.06,30.51Z"/><path class="cls-21" d="M8.36,28.36a12.89,12.89,0,0,1,6.25-8.94,18.78,18.78,0,0,1,18.78,0,12.89,12.89,0,0,1,6.25,8.94l.57,3.25a9.44,9.44,0,0,0,.11-3.79L39.64,24A12.89,12.89,0,0,0,33.39,15a18.78,18.78,0,0,0-18.78,0A12.89,12.89,0,0,0,8.36,24l-.68,3.87a9.44,9.44,0,0,0,.11,3.79Z"/><circle class="cls-22" cx="16.92" cy="27.53" r="1.18"/><path class="cls-23" d="M16.92,26.35a1.18,1.18,0,0,0-1.18,1.18h1.18Z"/><circle class="cls-24" cx="31.08" cy="27.53" r="1.18"/><path class="cls-25" d="M31.08,26.35a1.18,1.18,0,0,0-1.18,1.18h1.18Z"/><path class="cls-26" d="M26.06,30.51A2.27,2.27,0,0,1,24,32.28a2.27,2.27,0,0,1-2.06-1.77c0-.59.92-1.06,2.06-1.06S26.06,29.92,26.06,30.51Z"/><path class="cls-27" d="M22.93,30.54a.71.71,0,0,0-.24,1.21,2,2,0,0,0,1.31.53,2,2,0,0,0,1.26-.49A.72.72,0,0,0,25,30.52a3.65,3.65,0,0,0-1-.13A3.6,3.6,0,0,0,22.93,30.54Z"/><path class="cls-28" d="M19.39,29.78c0,.59-1.11.41-2.47.41s-2.47.19-2.47-.41,1.11-1.07,2.47-1.07S19.39,29.19,19.39,29.78Z"/><path class="cls-29" d="M28.61,29.78c0,.59,1.11.41,2.47.41s2.47.19,2.47-.41-1.11-1.07-2.47-1.07S28.61,29.19,28.61,29.78Z"/><path class="cls-30" d="M20.36,12.67,23,19.45a1,1,0,0,0,1.91,0l2.68-6.78A18.79,18.79,0,0,0,20.36,12.67Z"/><circle class="cls-31" cx="19.7" cy="32.37" r="0.31"/><circle class="cls-32" cx="21.17" cy="33.68" r="0.31"/><circle class="cls-33" cx="19.39" cy="33.99" r="0.31"/><circle class="cls-34" cx="28.3" cy="32.37" r="0.31"/><circle class="cls-35" cx="26.83" cy="33.68" r="0.31"/><circle class="cls-36" cx="28.61" cy="33.99" r="0.31"/></svg>