<svg id="Layer_1" data-name="Layer 1" xmlns="http://www.w3.org/2000/svg" xmlns:xlink="http://www.w3.org/1999/xlink" viewBox="0 0 48 48"><defs><style>.cls-1{fill:url(#linear-gradient);}.cls-2{fill:url(#linear-gradient-2);}.cls-3{fill:url(#linear-gradient-3);}.cls-4{fill:url(#linear-gradient-4);}.cls-5{fill:url(#linear-gradient-5);}.cls-6{fill:url(#linear-gradient-6);}</style><linearGradient id="linear-gradient" x1="24" y1="46.85" x2="24" y2="38.43" gradientUnits="userSpaceOnUse"><stop offset="0" stop-color="#fff"/><stop offset="0.52" stop-color="#cce2e6"/><stop offset="1" stop-color="#8fa1bb"/></linearGradient><linearGradient id="linear-gradient-2" x1="24" y1="29.81" x2="24" y2="-25.04" gradientUnits="userSpaceOnUse"><stop offset="0" stop-color="#273a9b"/><stop offset="0.56" stop-color="#202f65"/><stop offset="1" stop-color="#021e2f"/></linearGradient><linearGradient id="linear-gradient-3" x1="28.25" y1="49.98" x2="28.25" y2="-7.92" xlink:href="#linear-gradient-2"/><linearGradient id="linear-gradient-4" x1="24" y1="39.03" x2="24" y2="3.55" gradientUnits="userSpaceOnUse"><stop offset="0" stop-color="#27e9de"/><stop offset="0.52" stop-color="#03a4ec"/><stop offset="1" stop-color="#2547a8"/></linearGradient><linearGradient id="linear-gradient-5" x1="24" y1="30.74" x2="24" y2="17.83" xlink:href="#linear-gradient-4"/><linearGradient id="linear-gradient-6" x1="24" y1="24.14" x2="24" y2="10.93" xlink:href="#linear-gradient"/></defs><title>location, settings, options, preferences, navigation</title><ellipse class="cls-1" cx="24" cy="43.48" rx="10.5" ry="1.5"/><path class="cls-2" d="M36.14,32.32,25.19,43.27a1.69,1.69,0,0,1-2.39,0L11.86,32.32a17.16,17.16,0,0,1,0-24.27h0a17.16,17.16,0,0,1,24.27,0h0A17.16,17.16,0,0,1,36.14,32.32Z"/><path class="cls-3" d="M15.45,5.32h0a14.27,14.27,0,0,1,8.61,13.1V43.76a1.68,1.68,0,0,0,1.13-.49L35.81,32.65c6.65-6.65,7.1-17.51.6-24.31A17.15,17.15,0,0,0,15.45,5.32Z"/><path class="cls-4" d="M30,21h0a2,2,0,0,1,.59-1.43l1.33-1.34A1,1,0,0,0,32.09,17l-.63-1.09a1,1,0,0,0-1.08-.45L28.53,16A2,2,0,0,1,27,15.76h0a2,2,0,0,1-.9-1.18l-.51-1.85a1,1,0,0,0-.93-.71H23.37a1,1,0,0,0-.93.71l-.51,1.85a2,2,0,0,1-.9,1.18h0a2,2,0,0,1-1.55.22l-1.85-.48a1,1,0,0,0-1.08.45L15.91,17a1,1,0,0,0,.15,1.16l1.39,1.41A1.91,1.91,0,0,1,18,21h0a1.9,1.9,0,0,1-.52,1.36l-1.39,1.41a1,1,0,0,0-.15,1.16L16.54,26a1,1,0,0,0,1.08.45L19.55,26a1.88,1.88,0,0,1,1.44.23l0,0a1.87,1.87,0,0,1,.87,1.11l.53,1.92a1,1,0,0,0,.93.71h1.26a1,1,0,0,0,.93-.71l.51-1.87A2,2,0,0,1,27,26.22l.1-.06a1.81,1.81,0,0,1,1.39-.2l1.93.51A1,1,0,0,0,31.46,26l.63-1.09a1,1,0,0,0-.15-1.16l-1.33-1.34A2,2,0,0,1,30,21Z"/><path class="cls-5" d="M21.81,27.14a1.68,1.68,0,0,1,.09.19l.53,1.92a1,1,0,0,0,.93.71h1.26a1,1,0,0,0,.93-.71l.51-1.87a1.88,1.88,0,0,1,.11-.22V21H21.81Z"/><circle class="cls-6" cx="24" cy="20.98" r="2.19"/></svg>