<svg id="Layer_1" data-name="Layer 1" xmlns="http://www.w3.org/2000/svg" xmlns:xlink="http://www.w3.org/1999/xlink" viewBox="0 0 48 48"><defs><style>.cls-1{fill:url(#linear-gradient);}.cls-2{fill:url(#linear-gradient-2);}.cls-3{fill:url(#linear-gradient-3);}.cls-4{fill:url(#linear-gradient-4);}.cls-5{fill:url(#linear-gradient-5);}.cls-6{fill:url(#linear-gradient-6);}.cls-7{fill:url(#linear-gradient-7);}.cls-8{fill:url(#linear-gradient-10);}.cls-9{fill:url(#linear-gradient-11);}.cls-10{fill:url(#linear-gradient-12);}.cls-11{fill:url(#linear-gradient-13);}.cls-12{fill:url(#linear-gradient-14);}.cls-13{fill:url(#linear-gradient-15);}.cls-14{fill:url(#linear-gradient-16);}.cls-15{fill:url(#linear-gradient-17);}.cls-16{fill:url(#linear-gradient-18);}.cls-17{fill:url(#linear-gradient-19);}.cls-18{fill:url(#linear-gradient-20);}.cls-19{fill:url(#linear-gradient-21);}.cls-20{fill:url(#linear-gradient-22);}.cls-21{fill:url(#linear-gradient-23);}.cls-22{fill:url(#linear-gradient-24);}.cls-23{fill:url(#linear-gradient-25);}.cls-24{fill:url(#linear-gradient-26);}.cls-25{fill:url(#linear-gradient-27);}.cls-26{fill:url(#linear-gradient-28);}.cls-27{fill:url(#linear-gradient-29);}.cls-28{fill:url(#linear-gradient-30);}.cls-29{fill:url(#linear-gradient-31);}.cls-30{fill:url(#linear-gradient-32);}.cls-31{fill:url(#linear-gradient-33);}.cls-32{fill:url(#linear-gradient-34);}.cls-33{fill:url(#linear-gradient-35);}.cls-34{fill:url(#linear-gradient-36);}.cls-35{fill:url(#linear-gradient-37);}.cls-36{fill:url(#linear-gradient-38);}.cls-37{fill:url(#linear-gradient-39);}.cls-38{fill:url(#linear-gradient-40);}.cls-39{fill:url(#linear-gradient-41);}.cls-40{fill:url(#linear-gradient-42);}.cls-41{fill:url(#linear-gradient-43);}.cls-42{fill:url(#linear-gradient-44);}.cls-43{fill:url(#linear-gradient-45);}.cls-44{fill:url(#linear-gradient-46);}.cls-45{fill:url(#linear-gradient-47);}</style><linearGradient id="linear-gradient" x1="21" y1="15.5" x2="21" y2="-2.1" gradientUnits="userSpaceOnUse"><stop offset="0" stop-color="#fff"/><stop offset="0.52" stop-color="#cce2e6"/><stop offset="1" stop-color="#8fa1bb"/></linearGradient><linearGradient id="linear-gradient-2" x1="24" y1="15.5" x2="24" y2="-2.1" xlink:href="#linear-gradient"/><linearGradient id="linear-gradient-3" x1="12.19" y1="15.5" x2="12.19" y2="-2.1" xlink:href="#linear-gradient"/><linearGradient id="linear-gradient-4" x1="21" y1="15.5" x2="21" y2="-2.1" xlink:href="#linear-gradient"/><linearGradient id="linear-gradient-5" x1="21.38" y1="15.5" x2="21.38" y2="-2.1" xlink:href="#linear-gradient"/><linearGradient id="linear-gradient-6" x1="9" y1="54.67" x2="9" y2="-28.71" gradientUnits="userSpaceOnUse"><stop offset="0" stop-color="#273a9b"/><stop offset="0.56" stop-color="#202f65"/><stop offset="1" stop-color="#021e2f"/></linearGradient><linearGradient id="linear-gradient-7" y1="13.25" x2="9" y2="2.67" xlink:href="#linear-gradient-6"/><linearGradient id="linear-gradient-10" x1="39.75" y1="35.99" x2="39.75" y2="16.67" xlink:href="#linear-gradient-6"/><linearGradient id="linear-gradient-11" x1="41" y1="38.49" x2="41" y2="28.97" gradientUnits="userSpaceOnUse"><stop offset="0" stop-color="#f3c57a"/><stop offset="0.49" stop-color="#f39369"/><stop offset="1" stop-color="#e94867"/></linearGradient><linearGradient id="linear-gradient-12" x1="38.5" y1="38.49" x2="38.5" y2="28.97" xlink:href="#linear-gradient-11"/><linearGradient id="linear-gradient-13" x1="41" y1="39.34" x2="41" y2="31.06" xlink:href="#linear-gradient-11"/><linearGradient id="linear-gradient-14" x1="38.5" y1="39.34" x2="38.5" y2="31.06" xlink:href="#linear-gradient-11"/><linearGradient id="linear-gradient-15" x1="38.5" y1="40.99" x2="38.5" y2="31.47" xlink:href="#linear-gradient-11"/><linearGradient id="linear-gradient-16" x1="41" y1="40.99" x2="41" y2="31.47" xlink:href="#linear-gradient-11"/><linearGradient id="linear-gradient-17" x1="39.75" y1="51.68" x2="39.75" y2="39.09" xlink:href="#linear-gradient-11"/><linearGradient id="linear-gradient-18" x1="39.75" y1="50.91" x2="39.75" y2="41.56" xlink:href="#linear-gradient-11"/><linearGradient id="linear-gradient-19" x1="29.25" y1="35.99" x2="29.25" y2="16.67" xlink:href="#linear-gradient-6"/><linearGradient id="linear-gradient-20" x1="30.5" y1="38.49" x2="30.5" y2="28.97" xlink:href="#linear-gradient-11"/><linearGradient id="linear-gradient-21" x1="28" y1="38.49" x2="28" y2="28.97" xlink:href="#linear-gradient-11"/><linearGradient id="linear-gradient-22" x1="30.5" y1="39.34" x2="30.5" y2="31.06" xlink:href="#linear-gradient-11"/><linearGradient id="linear-gradient-23" x1="28" y1="39.34" x2="28" y2="31.06" xlink:href="#linear-gradient-11"/><linearGradient id="linear-gradient-24" x1="28" y1="40.99" x2="28" y2="31.47" xlink:href="#linear-gradient-11"/><linearGradient id="linear-gradient-25" x1="30.5" y1="40.99" x2="30.5" y2="31.47" xlink:href="#linear-gradient-11"/><linearGradient id="linear-gradient-26" x1="29.25" y1="51.68" x2="29.25" y2="39.09" xlink:href="#linear-gradient-11"/><linearGradient id="linear-gradient-27" x1="29.25" y1="50.91" x2="29.25" y2="41.56" xlink:href="#linear-gradient-11"/><linearGradient id="linear-gradient-28" x1="18.75" y1="35.99" x2="18.75" y2="16.67" xlink:href="#linear-gradient-6"/><linearGradient id="linear-gradient-29" x1="20" y1="38.49" x2="20" y2="28.97" xlink:href="#linear-gradient-11"/><linearGradient id="linear-gradient-30" x1="17.5" y1="38.49" x2="17.5" y2="28.97" xlink:href="#linear-gradient-11"/><linearGradient id="linear-gradient-31" x1="20" y1="39.34" x2="20" y2="31.06" xlink:href="#linear-gradient-11"/><linearGradient id="linear-gradient-32" x1="17.5" y1="39.34" x2="17.5" y2="31.06" xlink:href="#linear-gradient-11"/><linearGradient id="linear-gradient-33" x1="17.5" y1="40.99" x2="17.5" y2="31.47" xlink:href="#linear-gradient-11"/><linearGradient id="linear-gradient-34" x1="20" y1="40.99" x2="20" y2="31.47" xlink:href="#linear-gradient-11"/><linearGradient id="linear-gradient-35" x1="18.75" y1="51.68" x2="18.75" y2="39.09" xlink:href="#linear-gradient-11"/><linearGradient id="linear-gradient-36" x1="18.75" y1="50.91" x2="18.75" y2="41.56" xlink:href="#linear-gradient-11"/><linearGradient id="linear-gradient-37" x1="9" y1="51.68" x2="9" y2="39.09" xlink:href="#linear-gradient-11"/><linearGradient id="linear-gradient-38" x1="9" y1="50.91" x2="9" y2="41.56" xlink:href="#linear-gradient-11"/><linearGradient id="linear-gradient-39" x1="9" y1="26.92" x2="9" y2="5.46" xlink:href="#linear-gradient-11"/><linearGradient id="linear-gradient-40" x1="33.02" y1="43.87" x2="33.02" y2="-4.63" xlink:href="#linear-gradient-11"/><linearGradient id="linear-gradient-41" x1="19.08" y1="4.65" x2="32.66" y2="9.36" xlink:href="#linear-gradient-11"/><linearGradient id="linear-gradient-42" x1="17.87" y1="8.13" x2="31.46" y2="12.84" xlink:href="#linear-gradient-11"/><linearGradient id="linear-gradient-43" x1="31.41" y1="40.5" x2="31.41" y2="17.99" xlink:href="#linear-gradient-11"/><linearGradient id="linear-gradient-44" x1="33.01" y1="10.34" x2="33.01" y2="-30.64" xlink:href="#linear-gradient"/><linearGradient id="linear-gradient-45" x1="33.02" y1="10.34" x2="33.02" y2="-30.64" xlink:href="#linear-gradient"/><linearGradient id="linear-gradient-46" x1="37.66" y1="10.34" x2="37.66" y2="-30.64" xlink:href="#linear-gradient"/><linearGradient id="linear-gradient-47" x1="28.38" y1="10.34" x2="28.38" y2="-30.64" xlink:href="#linear-gradient"/></defs><title>nuclear, danger, factory, industry</title><circle class="cls-1" cx="21" cy="9" r="1.75"/><circle class="cls-2" cx="24" cy="6" r="1.1"/><path class="cls-3" d="M17.36,4.88h-.13A2.67,2.67,0,0,0,14.68,3a2.64,2.64,0,0,0-1.74.65,1.35,1.35,0,0,1-1.73.11,3.62,3.62,0,1,0-.28,5.9,2.65,2.65,0,0,0,3.81-.56,2,2,0,0,0,3-1,1.64,1.64,0,0,0-.39-3.23Z"/><circle class="cls-4" cx="21" cy="3.75" r="0.75"/><circle class="cls-5" cx="21.38" cy="5.88" r="0.38"/><polygon class="cls-6" points="15 45 3 45 6 9 12 9 15 45"/><polygon class="cls-7" points="5 21 13 21 12.5 15 5.5 15 5 21"/><polygon class="cls-7" points="4.25 30 13.75 30 13.25 24 4.75 24 4.25 30"/><polygon class="cls-7" points="3.5 39 14.5 39 14 33 4 33 3.5 39"/><path class="cls-8" d="M45,45H34.5V29a.84.84,0,0,1,.42-.73l6.91-3.95A2.12,2.12,0,0,1,45,26.12Z"/><path class="cls-9" d="M40,34.95h2V34.2A1.22,1.22,0,0,0,40.76,33H40Z"/><path class="cls-10" d="M39.49,34.95V33h-.75a1.22,1.22,0,0,0-1.22,1.22v.75Z"/><path class="cls-11" d="M40.76,33H40v.88h.75a1.21,1.21,0,0,1,1.2,1.1h0V34.2A1.22,1.22,0,0,0,40.76,33Z"/><path class="cls-12" d="M38.74,33a1.22,1.22,0,0,0-1.22,1.22v.75h0a1.21,1.21,0,0,1,1.2-1.1h.75V33Z"/><path class="cls-13" d="M39.49,35.47h-2v.75a1.22,1.22,0,0,0,1.22,1.22h.75Z"/><path class="cls-14" d="M40,35.47v2h.75A1.22,1.22,0,0,0,42,36.22v-.75Z"/><rect class="cls-15" x="34.5" y="42" width="10.5" height="3"/><rect class="cls-16" x="34.5" y="42" width="10.5" height="1.5"/><path class="cls-17" d="M34.5,45H24V29a.84.84,0,0,1,.43-.73l6.91-3.95a2.12,2.12,0,0,1,3.17,1.84Z"/><path class="cls-18" d="M29.51,34.95h2V34.2A1.22,1.22,0,0,0,30.26,33h-.75Z"/><path class="cls-19" d="M29,34.95V33h-.75A1.22,1.22,0,0,0,27,34.2v.75Z"/><path class="cls-20" d="M30.26,33h-.75v.88h.75a1.21,1.21,0,0,1,1.2,1.1h0V34.2A1.22,1.22,0,0,0,30.26,33Z"/><path class="cls-21" d="M28.24,33A1.22,1.22,0,0,0,27,34.2v.75h0a1.21,1.21,0,0,1,1.2-1.1H29V33Z"/><path class="cls-22" d="M29,35.47H27v.75a1.22,1.22,0,0,0,1.22,1.22H29Z"/><path class="cls-23" d="M29.51,35.47v2h.75a1.22,1.22,0,0,0,1.22-1.22v-.75Z"/><rect class="cls-24" x="24" y="42" width="10.5" height="3"/><rect class="cls-25" x="24" y="42" width="10.5" height="1.5"/><path class="cls-26" d="M24,45H13.5V29a.84.84,0,0,1,.43-.73l6.91-3.95A2.12,2.12,0,0,1,24,26.12Z"/><path class="cls-27" d="M19,34.95h2V34.2A1.22,1.22,0,0,0,19.76,33H19Z"/><path class="cls-28" d="M18.49,34.95V33h-.75a1.22,1.22,0,0,0-1.22,1.22v.75Z"/><path class="cls-29" d="M19.76,33H19v.88h.75a1.21,1.21,0,0,1,1.2,1.1h0V34.2A1.22,1.22,0,0,0,19.76,33Z"/><path class="cls-30" d="M17.74,33a1.22,1.22,0,0,0-1.22,1.22v.75h0a1.21,1.21,0,0,1,1.2-1.1h.75V33Z"/><path class="cls-31" d="M18.49,35.47h-2v.75a1.22,1.22,0,0,0,1.22,1.22h.75Z"/><path class="cls-32" d="M19,35.47v2h.75A1.22,1.22,0,0,0,21,36.22v-.75Z"/><rect class="cls-33" x="13.5" y="42" width="10.5" height="3"/><rect class="cls-34" x="13.5" y="42" width="10.5" height="1.5"/><polygon class="cls-35" points="3.25 42 3 45 15 45 14.75 42 3.25 42"/><polygon class="cls-36" points="3.13 43.5 14.88 43.5 14.75 42 3.25 42 3.13 43.5"/><rect class="cls-37" x="4.5" y="9" width="9" height="3" rx="1.19" ry="1.19"/><circle class="cls-38" cx="33.02" cy="14.98" r="11.98"/><path class="cls-39" d="M24,7.09A1.09,1.09,0,0,0,25.09,6,12,12,0,0,0,24,7.09Z"/><path class="cls-40" d="M22.75,9s0-.09,0-.13a11.89,11.89,0,0,0-.81,1.61A1.74,1.74,0,0,0,22.75,9Z"/><path class="cls-41" d="M31.33,24.28l-3,1.72a11.73,11.73,0,0,0,6.17.86v-.74A2.12,2.12,0,0,0,31.33,24.28Z"/><circle class="cls-42" cx="33.01" cy="15.32" r="1.41"/><path class="cls-43" d="M31.72,12.48a.92.92,0,0,0,1,.52L33,13l.32,0a.92.92,0,0,0,1-.51l1.55-3.39a.91.91,0,0,0-.57-1.25,7.74,7.74,0,0,0-4.55,0,.91.91,0,0,0-.57,1.25Z"/><path class="cls-44" d="M39.84,16l-3.72-.36a.91.91,0,0,0-.94.59,2.24,2.24,0,0,1-.14.3,2.27,2.27,0,0,1-.17.26.92.92,0,0,0,0,1.1l2.16,3a.91.91,0,0,0,1.37.13,7.74,7.74,0,0,0,2.28-3.93A.91.91,0,0,0,39.84,16Z"/><path class="cls-45" d="M31,16.51a2.24,2.24,0,0,1-.14-.29.92.92,0,0,0-.93-.59L26.2,16a.91.91,0,0,0-.8,1.12A7.74,7.74,0,0,0,27.67,21,.91.91,0,0,0,29,20.91l2.17-3a.92.92,0,0,0,0-1.1A2.25,2.25,0,0,1,31,16.51Z"/></svg>