<svg id="Layer_1" data-name="Layer 1" xmlns="http://www.w3.org/2000/svg" xmlns:xlink="http://www.w3.org/1999/xlink" viewBox="0 0 48 48"><defs><style>.cls-1{fill:url(#linear-gradient);}.cls-2{fill:url(#linear-gradient-2);}.cls-3{fill:url(#linear-gradient-3);}.cls-4{fill:url(#linear-gradient-4);}.cls-5{fill:url(#linear-gradient-5);}.cls-6{fill:url(#linear-gradient-6);}.cls-7{fill:url(#linear-gradient-7);}.cls-8{fill:url(#linear-gradient-8);}.cls-9{fill:url(#linear-gradient-9);}.cls-10{fill:url(#linear-gradient-10);}.cls-11{fill:url(#linear-gradient-11);}.cls-12{fill:url(#linear-gradient-12);}.cls-13{fill:url(#linear-gradient-13);}.cls-14{fill:url(#linear-gradient-14);}</style><linearGradient id="linear-gradient" x1="2.06" y1="26.09" x2="14.24" y2="19.62" gradientUnits="userSpaceOnUse"><stop offset="0" stop-color="#27e9de"/><stop offset="0.52" stop-color="#03a4ec"/><stop offset="1" stop-color="#2547a8"/></linearGradient><linearGradient id="linear-gradient-2" x1="4.16" y1="48.76" x2="4.16" y2="15.82" gradientUnits="userSpaceOnUse"><stop offset="0" stop-color="#273a9b"/><stop offset="0.56" stop-color="#202f65"/><stop offset="1" stop-color="#021e2f"/></linearGradient><linearGradient id="linear-gradient-3" x1="24" y1="44.17" x2="24" y2="37.62" xlink:href="#linear-gradient-2"/><linearGradient id="linear-gradient-4" x1="24" y1="82.33" x2="24" y2="-28.31" xlink:href="#linear-gradient"/><linearGradient id="linear-gradient-5" x1="24" y1="61.38" x2="24" y2="8.33" xlink:href="#linear-gradient"/><linearGradient id="linear-gradient-6" x1="24" y1="47.25" x2="24" y2="-17.96" xlink:href="#linear-gradient"/><linearGradient id="linear-gradient-7" x1="13.5" y1="46.44" x2="13.5" y2="25.49" xlink:href="#linear-gradient-2"/><linearGradient id="linear-gradient-8" x1="13.5" y1="38.48" x2="13.5" y2="31.47" gradientUnits="userSpaceOnUse"><stop offset="0" stop-color="#fff"/><stop offset="0.52" stop-color="#cce2e6"/><stop offset="1" stop-color="#8fa1bb"/></linearGradient><linearGradient id="linear-gradient-9" x1="36.04" y1="46.44" x2="36.04" y2="25.49" xlink:href="#linear-gradient-2"/><linearGradient id="linear-gradient-10" x1="36.04" y1="38.48" x2="36.04" y2="31.47" xlink:href="#linear-gradient-8"/><linearGradient id="linear-gradient-11" x1="30.83" y1="37.94" x2="30.83" y2="1.06" xlink:href="#linear-gradient-2"/><linearGradient id="linear-gradient-12" x1="20.07" y1="37.94" x2="20.07" y2="1.06" xlink:href="#linear-gradient-2"/><linearGradient id="linear-gradient-13" x1="52.58" y1="27.75" x2="39.67" y2="27.75" xlink:href="#linear-gradient"/><linearGradient id="linear-gradient-14" x1="46.39" y1="27.75" x2="32.98" y2="27.75" xlink:href="#linear-gradient"/></defs><title>open, trunk, car, vehicle, transportation</title><path class="cls-1" d="M3.32,18.73l9.82,9.77,2.12-2.13L4.82,17.13a1.09,1.09,0,0,0-1.5,0h0A1.09,1.09,0,0,0,3.32,18.73Z"/><path class="cls-2" d="M3.07,28.08H5.25a0,0,0,0,1,0,0V33a0,0,0,0,1,0,0H4.11a1,1,0,0,1-1-1V28.08A0,0,0,0,1,3.07,28.08Z"/><path class="cls-3" d="M7,22.5a4,4,0,0,0-4,4v0a23,23,0,0,0,1.34,7.77A2.57,2.57,0,0,0,6.77,36H41.23a2.57,2.57,0,0,0,2.42-1.69,23,23,0,0,0,1.22-10.17A1.84,1.84,0,0,0,43,22.5Z"/><path class="cls-4" d="M44.87,24.13A1.84,1.84,0,0,0,43,22.5H36a1.64,1.64,0,0,1-1.53-1.05l-3.76-9.8A4.13,4.13,0,0,0,26.87,9H18.39a9.4,9.4,0,0,0-8.87,6.31L7.67,20.58a3.44,3.44,0,0,1-2,2.15A4,4,0,0,0,3,26.5v0a23,23,0,0,0,1.34,7.77A2.57,2.57,0,0,0,6.77,36H9V34.51h9v.79a.7.7,0,0,0,.7.7H30.85a.7.7,0,0,0,.7-.7v-.79h9v.79a.69.69,0,0,0,.67.7,2.57,2.57,0,0,0,2.46-1.69,23,23,0,0,0,1.22-10.17Z"/><path class="cls-5" d="M3.07,28.08a22.87,22.87,0,0,0,1.28,6.22A2.57,2.57,0,0,0,6.77,36H9V34.51h9v.79a.7.7,0,0,0,.7.7H30.85a.7.7,0,0,0,.7-.7v-.79h9v.79a.69.69,0,0,0,.67.7,2.57,2.57,0,0,0,2.46-1.69,22.87,22.87,0,0,0,1.28-6.22Z"/><path class="cls-6" d="M5.65,24.23a3.44,3.44,0,0,0,2-2.15l1.84-5.28a9.4,9.4,0,0,1,8.87-6.3h8.49a4.13,4.13,0,0,1,3.85,2.65l4.36,9.8c.24.63.25,1.05.93,1.05h7a1.84,1.84,0,0,1,1.83,1.63c.05.49.08,1,.1,1.48,0-.19,0-.38,0-.57a22.89,22.89,0,0,0-.13-2.41A1.84,1.84,0,0,0,43,22.5H36a1.64,1.64,0,0,1-1.53-1.05l-3.76-9.8A4.13,4.13,0,0,0,26.87,9H18.39a9.4,9.4,0,0,0-8.87,6.31L7.67,20.58a3.44,3.44,0,0,1-2,2.15A4,4,0,0,0,3,26.5v0c0,.32,0,.63,0,.95A4,4,0,0,1,5.65,24.23Z"/><circle class="cls-7" cx="13.5" cy="34.51" r="4.49"/><circle class="cls-8" cx="13.5" cy="34.49" r="1.5"/><circle class="cls-9" cx="36.04" cy="34.51" r="4.49"/><circle class="cls-10" cx="36.04" cy="34.49" r="1.5"/><path class="cls-11" d="M28.4,21.4A1.72,1.72,0,0,0,30,22.5h6a1.64,1.64,0,0,1-1.53-1.05L31.44,13.5H26.25a.6.6,0,0,0-.56.82Z"/><path class="cls-12" d="M23,13.5H17.19a3.69,3.69,0,0,0-3.69,3.69V21A1.54,1.54,0,0,0,15,22.5H26a.65.65,0,0,0,.61-.88l-3-7.7A.65.65,0,0,0,23,13.5Z"/><path class="cls-13" d="M44.25,30h.48A23.15,23.15,0,0,0,45,26.54c0-.35,0-.7,0-1h-.72A2.25,2.25,0,0,0,42,27.75h0A2.25,2.25,0,0,0,44.25,30Z"/><path class="cls-14" d="M44.5,29.25h.32A15.43,15.43,0,0,0,45,26.94c0-.23,0-.46,0-.69H44.5a1.5,1.5,0,0,0-1.5,1.5h0A1.5,1.5,0,0,0,44.5,29.25Z"/></svg>