<svg id="Layer_1" data-name="Layer 1" xmlns="http://www.w3.org/2000/svg" xmlns:xlink="http://www.w3.org/1999/xlink" viewBox="0 0 48 48"><defs><style>.cls-1{fill:url(#linear-gradient);}.cls-2{fill:url(#linear-gradient-2);}.cls-3{fill:url(#linear-gradient-3);}.cls-4{fill:url(#linear-gradient-4);}.cls-5{fill:url(#linear-gradient-5);}.cls-6{fill:url(#linear-gradient-6);}.cls-7{fill:url(#linear-gradient-7);}.cls-8{fill:url(#linear-gradient-8);}</style><linearGradient id="linear-gradient" x1="24" y1="64" x2="24" y2="-23.3" gradientUnits="userSpaceOnUse"><stop offset="0" stop-color="#f3c57a"/><stop offset="0.49" stop-color="#f39369"/><stop offset="1" stop-color="#e94867"/></linearGradient><linearGradient id="linear-gradient-2" y1="63.12" x2="24" y2="6.69" xlink:href="#linear-gradient"/><linearGradient id="linear-gradient-3" x1="24" y1="29.25" x2="24" y2="-16.52" gradientUnits="userSpaceOnUse"><stop offset="0" stop-color="#fff"/><stop offset="0.52" stop-color="#cce2e6"/><stop offset="1" stop-color="#8fa1bb"/></linearGradient><linearGradient id="linear-gradient-4" x1="24" y1="53.75" x2="24" y2="-20.15" xlink:href="#linear-gradient-3"/><linearGradient id="linear-gradient-5" x1="36" y1="48.82" x2="36" y2="20.31" gradientUnits="userSpaceOnUse"><stop offset="0" stop-color="#273a9b"/><stop offset="0.56" stop-color="#202f65"/><stop offset="1" stop-color="#021e2f"/></linearGradient><linearGradient id="linear-gradient-6" x1="36" y1="47.73" x2="36" y2="24.68" xlink:href="#linear-gradient"/><linearGradient id="linear-gradient-7" x1="36" y1="42.34" x2="36" y2="33.95" xlink:href="#linear-gradient"/><linearGradient id="linear-gradient-8" x1="36" y1="38.05" x2="36" y2="29.47" xlink:href="#linear-gradient-3"/></defs><title>person, account, profile, settings, options</title><circle class="cls-1" cx="24" cy="24" r="21"/><path class="cls-2" d="M12,17.83l1.47,24.32a20.88,20.88,0,0,0,21,0L36,17.83,24,20.25Z"/><path class="cls-3" d="M23.81,8a3.64,3.64,0,0,0-3.32,3.7v2.24A1.07,1.07,0,0,0,21.56,15h4.88a1.07,1.07,0,0,0,1.07-1.07V11.49A3.51,3.51,0,0,0,23.81,8Z"/><path class="cls-4" d="M34.67,16.5H13.33a1.33,1.33,0,0,0-.26,2.63l5.36,1.06a.94.94,0,0,1,.71.62l-2.35,9.51a1,1,0,0,0,.92,1.17h.79l-.39,5.8A1.56,1.56,0,0,0,19.38,39a1.49,1.49,0,0,0,1.69-1.25l.69-4.46a2.09,2.09,0,0,1,2.07-1.77h.34a2.09,2.09,0,0,1,2.07,1.77l.69,4.46A1.49,1.49,0,0,0,28.62,39a1.56,1.56,0,0,0,1.27-1.68l-.39-5.8h.81a1,1,0,0,0,.92-1.16L29,20.57a.94.94,0,0,1,.58-.38l5.36-1.06a1.33,1.33,0,0,0-.26-2.63Z"/><circle class="cls-5" cx="36" cy="36" r="9"/><path class="cls-6" d="M39.92,36h0a1.32,1.32,0,0,1,.38-.93l.86-.87a.63.63,0,0,0,.1-.76l-.41-.71a.63.63,0,0,0-.7-.29l-1.2.31a1.31,1.31,0,0,1-1-.14h0a1.29,1.29,0,0,1-.58-.77L37,30.63a.63.63,0,0,0-.61-.46h-.82a.63.63,0,0,0-.61.46l-.33,1.2a1.29,1.29,0,0,1-.58.77h0a1.31,1.31,0,0,1-1,.14l-1.2-.31a.63.63,0,0,0-.7.29l-.41.71a.63.63,0,0,0,.1.76l.9.91a1.24,1.24,0,0,1,.34.89h0a1.24,1.24,0,0,1-.34.89l-.9.91a.63.63,0,0,0-.1.76l.41.71a.63.63,0,0,0,.7.29l1.25-.33a1.22,1.22,0,0,1,.94.15l0,0a1.21,1.21,0,0,1,.56.72L35,41.37a.63.63,0,0,0,.61.46h.82a.63.63,0,0,0,.61-.46l.33-1.21a1.27,1.27,0,0,1,.58-.76l.06,0a1.18,1.18,0,0,1,.9-.13l1.25.33a.63.63,0,0,0,.7-.29l.41-.71a.63.63,0,0,0-.1-.76l-.86-.87a1.32,1.32,0,0,1-.38-.93Z"/><path class="cls-7" d="M34.58,40a1.13,1.13,0,0,1,.06.12L35,41.37a.63.63,0,0,0,.61.46h.82a.63.63,0,0,0,.61-.46l.33-1.21a1.24,1.24,0,0,1,.07-.15V36H34.58Z"/><circle class="cls-8" cx="36" cy="36" r="1.42"/></svg>