<svg id="Layer_1" data-name="Layer 1" xmlns="http://www.w3.org/2000/svg" xmlns:xlink="http://www.w3.org/1999/xlink" viewBox="0 0 48 48"><defs><style>.cls-1{fill:url(#linear-gradient);}.cls-2{fill:url(#linear-gradient-2);}.cls-3{fill:url(#linear-gradient-3);}.cls-4{fill:url(#linear-gradient-4);}.cls-5{fill:url(#linear-gradient-5);}.cls-6{fill:url(#linear-gradient-6);}.cls-7{fill:url(#linear-gradient-7);}.cls-8{fill:url(#linear-gradient-8);}.cls-9{fill:url(#linear-gradient-9);}.cls-10{fill:url(#linear-gradient-10);}.cls-11{fill:url(#linear-gradient-11);}.cls-12{fill:url(#linear-gradient-12);}.cls-13{fill:url(#linear-gradient-13);}</style><linearGradient id="linear-gradient" x1="8.58" y1="41.36" x2="15.77" y2="24.8" gradientUnits="userSpaceOnUse"><stop offset="0" stop-color="#f3c57a"/><stop offset="0.49" stop-color="#f39369"/><stop offset="1" stop-color="#e94867"/></linearGradient><linearGradient id="linear-gradient-2" x1="22.51" y1="64" x2="22.51" y2="-22.54" xlink:href="#linear-gradient"/><linearGradient id="linear-gradient-3" x1="13.51" y1="48.5" x2="13.51" y2="5.23" xlink:href="#linear-gradient"/><linearGradient id="linear-gradient-4" x1="22.51" y1="48.5" x2="22.51" y2="5.23" xlink:href="#linear-gradient"/><linearGradient id="linear-gradient-5" x1="31.51" y1="48.5" x2="31.51" y2="5.23" xlink:href="#linear-gradient"/><linearGradient id="linear-gradient-6" x1="13.51" y1="22.33" x2="13.51" y2="1.83" gradientUnits="userSpaceOnUse"><stop offset="0" stop-color="#fff"/><stop offset="0.52" stop-color="#cce2e6"/><stop offset="1" stop-color="#8fa1bb"/></linearGradient><linearGradient id="linear-gradient-7" x1="22.51" y1="22.33" x2="22.51" y2="1.83" xlink:href="#linear-gradient-6"/><linearGradient id="linear-gradient-8" x1="31.51" y1="22.33" x2="31.51" y2="1.83" xlink:href="#linear-gradient-6"/><linearGradient id="linear-gradient-9" x1="33.01" y1="36.84" x2="33.01" y2="12.24" xlink:href="#linear-gradient-6"/><linearGradient id="linear-gradient-10" x1="28.31" y1="49.77" x2="28.31" y2="17.06" gradientUnits="userSpaceOnUse"><stop offset="0" stop-color="#27e9de"/><stop offset="0.52" stop-color="#03a4ec"/><stop offset="1" stop-color="#2547a8"/></linearGradient><linearGradient id="linear-gradient-11" x1="33.26" y1="44.53" x2="33.26" y2="12.16" xlink:href="#linear-gradient-6"/><linearGradient id="linear-gradient-12" x1="37.71" y1="49.77" x2="37.71" y2="17.06" xlink:href="#linear-gradient-10"/><linearGradient id="linear-gradient-13" x1="33.01" y1="49.99" x2="33.01" y2="-4.86" gradientUnits="userSpaceOnUse"><stop offset="0" stop-color="#273a9b"/><stop offset="0.56" stop-color="#202f65"/><stop offset="1" stop-color="#021e2f"/></linearGradient></defs><title>protection, shield, message, text, chat, communication</title><path class="cls-1" d="M9,28.5v8a1,1,0,0,0,1.75.73l8.43-8.43"/><rect class="cls-2" x="3.01" y="3" width="39" height="30" rx="8.17" ry="8.17"/><rect class="cls-3" x="12.01" y="18" width="3" height="15"/><rect class="cls-4" x="21.01" y="18" width="3" height="15"/><rect class="cls-5" x="30.01" y="18" width="3" height="15"/><circle class="cls-6" cx="13.51" cy="18" r="1.5"/><circle class="cls-7" cx="22.51" cy="18" r="1.5"/><circle class="cls-8" cx="31.51" cy="18" r="1.5"/><path class="cls-9" d="M37.07,20a17.1,17.1,0,0,1-3.48-1.67,1.1,1.1,0,0,0-1.17,0A17.1,17.1,0,0,1,28.94,20a15.84,15.84,0,0,1-5.63.95,1.11,1.11,0,0,0-1.17,1.1V33.62a8.86,8.86,0,0,0,4.43,7.67l2.15,1.24a8.57,8.57,0,0,0,8.57,0l2.15-1.24a8.86,8.86,0,0,0,4.43-7.67V22.09A1.11,1.11,0,0,0,42.7,21,15.84,15.84,0,0,1,37.07,20Z"/><path class="cls-10" d="M23.61,30.94v7.56a8.85,8.85,0,0,0,3,2.8l2.15,1.24A8.57,8.57,0,0,0,33,43.68V30.94Z"/><path class="cls-11" d="M42.7,21h-.55a16.24,16.24,0,0,1-5.07-1,17.1,17.1,0,0,1-3.48-1.67,1,1,0,0,0-1.09,0A17.1,17.1,0,0,1,29,20,16.25,16.25,0,0,1,24,21h-.58a1.12,1.12,0,0,0-.72.25l6.39.41a4.23,4.23,0,0,1,4,4.22V43.68a8.57,8.57,0,0,0,4.28-1.15l2.15-1.24a8.86,8.86,0,0,0,4.43-7.67V22.09A1.11,1.11,0,0,0,42.7,21Z"/><path class="cls-12" d="M42.41,21A16,16,0,0,1,37.07,20a17.1,17.1,0,0,1-3.48-1.67A1.1,1.1,0,0,0,33,18.2h0V30.94h9.4Z"/><path class="cls-13" d="M43.8,20h-.51a17.8,17.8,0,0,1-5.8-1.05,18.87,18.87,0,0,1-3.84-1.84,1.21,1.21,0,0,0-1.3,0,18.87,18.87,0,0,1-3.84,1.84A17.8,17.8,0,0,1,22.72,20h-.45A1.23,1.23,0,0,0,21,21.17V33.9a9.78,9.78,0,0,0,4.89,8.47l2.37,1.37a9.46,9.46,0,0,0,9.46,0l2.37-1.37A9.78,9.78,0,0,0,45,33.9V21.17A1.22,1.22,0,0,0,43.8,20ZM41,33.9a5.77,5.77,0,0,1-2.88,5l-2.37,1.37a5.45,5.45,0,0,1-5.45,0l-2.37-1.37a5.77,5.77,0,0,1-2.88-5V25.14a1.52,1.52,0,0,1,1.25-1.5,23.52,23.52,0,0,0,3.57-.95,23.77,23.77,0,0,0,2.56-1.06,1.38,1.38,0,0,1,1.22,0,23.77,23.77,0,0,0,2.56,1.06,23.52,23.52,0,0,0,3.57.95A1.52,1.52,0,0,1,41,25.14Z"/></svg>