<svg id="Layer_1" data-name="Layer 1" xmlns="http://www.w3.org/2000/svg" xmlns:xlink="http://www.w3.org/1999/xlink" viewBox="0 0 48 48"><defs><style>.cls-1{fill:url(#linear-gradient);}.cls-2{fill:url(#linear-gradient-2);}.cls-3{fill:url(#linear-gradient-3);}.cls-4{fill:url(#linear-gradient-4);}.cls-5{fill:url(#linear-gradient-5);}.cls-6{fill:url(#linear-gradient-6);}.cls-7{fill:url(#linear-gradient-7);}.cls-8{fill:url(#linear-gradient-8);}.cls-9{fill:url(#linear-gradient-9);}.cls-10{fill:url(#linear-gradient-10);}.cls-11{fill:url(#linear-gradient-11);}.cls-12{fill:url(#linear-gradient-12);}</style><linearGradient id="linear-gradient" x1="21" y1="71.39" x2="21" y2="32.15" gradientUnits="userSpaceOnUse"><stop offset="0" stop-color="#fff"/><stop offset="0.52" stop-color="#cce2e6"/><stop offset="1" stop-color="#8fa1bb"/></linearGradient><linearGradient id="linear-gradient-2" y1="70.93" x2="21" y2="33.86" xlink:href="#linear-gradient"/><linearGradient id="linear-gradient-3" y1="-30.21" x2="21" y2="43.68" xlink:href="#linear-gradient"/><linearGradient id="linear-gradient-4" x1="31.5" y1="59.37" x2="31.5" y2="41.96" xlink:href="#linear-gradient"/><linearGradient id="linear-gradient-5" y1="-4.61" x2="21" y2="31.55" xlink:href="#linear-gradient"/><linearGradient id="linear-gradient-6" x1="34.5" y1="47.17" x2="34.5" y2="-0.37" gradientUnits="userSpaceOnUse"><stop offset="0" stop-color="#f3c57a"/><stop offset="0.49" stop-color="#f39369"/><stop offset="1" stop-color="#e94867"/></linearGradient><linearGradient id="linear-gradient-7" x1="21.33" y1="35.68" x2="36.45" y2="9.74" xlink:href="#linear-gradient-6"/><linearGradient id="linear-gradient-8" x1="25.74" y1="11.55" x2="30.09" y2="4.1" gradientUnits="userSpaceOnUse"><stop offset="0" stop-color="#273a9b"/><stop offset="0.56" stop-color="#202f65"/><stop offset="1" stop-color="#021e2f"/></linearGradient><linearGradient id="linear-gradient-9" x1="37.74" y1="11.55" x2="42.09" y2="4.1" xlink:href="#linear-gradient-8"/><linearGradient id="linear-gradient-10" x1="28.5" y1="15.13" x2="28.5" y2="3.35" xlink:href="#linear-gradient-6"/><linearGradient id="linear-gradient-11" y1="15.13" y2="3.35" xlink:href="#linear-gradient-6"/><linearGradient id="linear-gradient-12" x1="40.5" y1="15.13" x2="40.5" y2="3.35" xlink:href="#linear-gradient-6"/></defs><title>schedule, dentist, dental, healthcare, medical</title><path class="cls-1" d="M28.71,10.5a9.7,9.7,0,0,0-7.17,3.28.74.74,0,0,1-1.08,0,9.7,9.7,0,0,0-7.17-3.28C7.61,10.5,3,15.66,3,22a12.6,12.6,0,0,0,1.77,6.5,16,16,0,0,1,2.31,6.35A32.43,32.43,0,0,0,10,45.06a2.47,2.47,0,0,0,2,1.43,2.37,2.37,0,0,0,2.56-2.36V43.3a6.67,6.67,0,0,1,3.08-5.74,6.43,6.43,0,0,1,6.7,0,6.67,6.67,0,0,1,3.08,5.74v.59a2.5,2.5,0,0,0,1.84,2.55,2.37,2.37,0,0,0,2.66-1.28,32.42,32.42,0,0,0,3-10.4,13,13,0,0,1,2-5.77A12.54,12.54,0,0,0,39,22C39,15.66,34.39,10.5,28.71,10.5Z"/><path class="cls-2" d="M36.93,29a12.42,12.42,0,0,0,2-5.62l0-.3c0-.25-.06-.5-.11-.74-1-5.22-5.11-9.14-10.06-9.14a9.7,9.7,0,0,0-7.17,3.28.74.74,0,0,1-1.08,0,9.7,9.7,0,0,0-7.17-3.28c-4.95,0-9.08,3.92-10.06,9.14,0,.24-.08.49-.11.74l0,.3a12.48,12.48,0,0,0,1.7,5.16A16.46,16.46,0,0,1,7,34.22a11.79,11.79,0,0,0,8.23,3.4,11.61,11.61,0,0,0,3.22-.46,6.43,6.43,0,0,1,5.13,0,11.61,11.61,0,0,0,3.22.46A11.82,11.82,0,0,0,35,34.25,12.76,12.76,0,0,1,36.93,29Z"/><path class="cls-3" d="M38.94,20.79c0-.14,0-.28-.06-.41s-.06-.5-.11-.74c-1-5.22-5.11-9.14-10.06-9.14a9.7,9.7,0,0,0-7.17,3.28.74.74,0,0,1-1.08,0,9.7,9.7,0,0,0-7.17-3.28c-4.95,0-9.08,3.92-10.06,9.14,0,.24-.08.49-.11.74s0,.27-.06.41c0,.42-.06.84-.06,1.26,0,0,0,.07,0,.11,0,.32,0,.64,0,1s0,.4.06.6,0,.13,0,.2a12.43,12.43,0,0,0,1.63,4.61c.25.42.49.85.71,1.28a12,12,0,0,0,9.73,5.11A11.63,11.63,0,0,0,19,34.28a5.93,5.93,0,0,1,3.91,0,11.63,11.63,0,0,0,3.83.65,12,12,0,0,0,9.43-4.69A11.11,11.11,0,0,1,36.93,29a12.35,12.35,0,0,0,1.91-5l0-.2c0-.23.06-.46.08-.7s0-.63,0-.95c0,0,0-.09,0-.14C39,21.63,39,21.21,38.94,20.79Z"/><path class="cls-4" d="M24,34.59a11.63,11.63,0,0,0,2.79.34,12,12,0,0,0,9.43-4.69A11.12,11.12,0,0,1,36.93,29a12.35,12.35,0,0,0,1.91-5l0-.2c0-.23.06-.46.08-.7s0-.63,0-.95c0,0,0-.09,0-.14,0-.43,0-.85-.06-1.26,0-.14,0-.28-.06-.41s-.06-.5-.11-.74a12.53,12.53,0,0,0-.33-1.3H24Z"/><path class="cls-5" d="M38.94,20.79c0-.14,0-.28-.06-.41s-.06-.5-.11-.74c-1-5.22-5.11-9.14-10.06-9.14A9.61,9.61,0,0,0,22,13.34a1.37,1.37,0,0,1-1.94,0,9.61,9.61,0,0,0-6.74-2.84c-4.95,0-9.08,3.92-10.06,9.14,0,.24-.08.49-.11.74s0,.27-.06.41c0,.42-.06.84-.06,1.26,0,0,0,.07,0,.11,0,.32,0,.64,0,1s0,.37.06.55V23.6c0-.25.06-.5.11-.74a11.9,11.9,0,0,1,3.14-6.12,1.1,1.1,0,0,0,.76.31A1.09,1.09,0,0,0,8,16.53a1.88,1.88,0,0,0,2.68-1.6,1.29,1.29,0,0,0,1.56-1.16,9.27,9.27,0,0,1,1-.06A9.7,9.7,0,0,1,20.46,17a.74.74,0,0,0,1.08,0,9.7,9.7,0,0,1,7.17-3.28c4.95,0,9.08,3.92,10.06,9.14,0,.24.08.49.11.74v.06c0-.17,0-.34.06-.52s0-.63,0-.95c0,0,0-.09,0-.14C39,21.63,39,21.21,38.94,20.79Z"/><rect class="cls-6" x="24" y="6" width="21" height="19.5" rx="3.41" ry="3.41"/><path class="cls-7" d="M28.71,10.5A9.32,9.32,0,0,0,24,11.79V22.09a3.41,3.41,0,0,0,3.41,3.41H38.52A12.88,12.88,0,0,0,39,22C39,15.66,34.4,10.5,28.71,10.5Z"/><path class="cls-8" d="M28.5,9.13h0A1.5,1.5,0,0,1,27,7.63V6a1.5,1.5,0,0,1,1.5-1.5h0A1.5,1.5,0,0,1,30,6V7.63A1.5,1.5,0,0,1,28.5,9.13Z"/><path class="cls-9" d="M40.5,9.13h0A1.5,1.5,0,0,1,39,7.63V6a1.5,1.5,0,0,1,1.5-1.5h0A1.5,1.5,0,0,1,42,6V7.63A1.5,1.5,0,0,1,40.5,9.13Z"/><rect class="cls-10" x="27" y="12" width="3" height="3" rx="0.95" ry="0.95"/><rect class="cls-11" x="33" y="12" width="3" height="3" rx="0.95" ry="0.95"/><rect class="cls-12" x="39" y="12" width="3" height="3" rx="0.95" ry="0.95"/><rect class="cls-10" x="27" y="17.87" width="3" height="3" rx="0.95" ry="0.95"/><rect class="cls-11" x="33" y="17.87" width="3" height="3" rx="0.95" ry="0.95"/><rect class="cls-12" x="39" y="17.87" width="3" height="3" rx="0.95" ry="0.95"/></svg>