<svg id="Layer_1" data-name="Layer 1" xmlns="http://www.w3.org/2000/svg" xmlns:xlink="http://www.w3.org/1999/xlink" viewBox="0 0 48 48"><defs><style>.cls-1{fill:url(#linear-gradient);}.cls-2{fill:url(#linear-gradient-2);}.cls-3{fill:url(#linear-gradient-3);}.cls-4{fill:url(#linear-gradient-4);}.cls-5{fill:url(#linear-gradient-5);}.cls-6{fill:url(#linear-gradient-6);}.cls-7{fill:url(#linear-gradient-7);}.cls-8{fill:url(#linear-gradient-8);}.cls-9{fill:url(#linear-gradient-9);}.cls-10{fill:url(#linear-gradient-10);}</style><linearGradient id="linear-gradient" x1="21" y1="70" x2="21" y2="-39.76" gradientUnits="userSpaceOnUse"><stop offset="0" stop-color="#27e9de"/><stop offset="0.52" stop-color="#03a4ec"/><stop offset="1" stop-color="#2547a8"/></linearGradient><linearGradient id="linear-gradient-2" x1="25.16" y1="68.5" x2="25.16" y2="-15.85" xlink:href="#linear-gradient"/><linearGradient id="linear-gradient-3" x1="18.35" y1="47.58" x2="18.35" y2="16.77" xlink:href="#linear-gradient"/><linearGradient id="linear-gradient-4" x1="21" y1="44.28" x2="21" y2="-16.57" gradientUnits="userSpaceOnUse"><stop offset="0" stop-color="#fff"/><stop offset="0.52" stop-color="#cce2e6"/><stop offset="1" stop-color="#8fa1bb"/></linearGradient><linearGradient id="linear-gradient-5" x1="31.22" y1="39.12" x2="31.22" y2="-9.15" xlink:href="#linear-gradient"/><linearGradient id="linear-gradient-6" x1="46.25" y1="38" x2="7.95" y2="20.14" xlink:href="#linear-gradient"/><linearGradient id="linear-gradient-7" x1="45.83" y1="38.89" x2="7.54" y2="21.03" xlink:href="#linear-gradient"/><linearGradient id="linear-gradient-8" x1="47.59" y1="47.57" x2="-38.5" y2="-38.52" gradientUnits="userSpaceOnUse"><stop offset="0" stop-color="#273a9b"/><stop offset="0.56" stop-color="#202f65"/><stop offset="1" stop-color="#021e2f"/></linearGradient><linearGradient id="linear-gradient-9" x1="56.3" y1="56.28" x2="24.88" y2="24.86" xlink:href="#linear-gradient"/><linearGradient id="linear-gradient-10" x1="45.83" y1="45.81" x2="41.29" y2="41.28" xlink:href="#linear-gradient"/></defs><title>search, find, music, audio, sound</title><circle class="cls-1" cx="21" cy="21" r="18"/><path class="cls-2" d="M38.9,19A18,18,0,0,0,11.32,5.84l3.14,1.51A11.55,11.55,0,0,1,21,17.76V39A18,18,0,0,0,38.9,19Z"/><path class="cls-3" d="M13.45,37.32a17.49,17.49,0,0,0,9.8,1.52V26.79h-9.8Z"/><path class="cls-4" d="M27.84,12.61l-6.57.87A2.51,2.51,0,0,0,19.09,16h0v6.35a1.88,1.88,0,0,1-1.62,1.86l-1.72.25a2.61,2.61,0,0,0-2.3,2.36,2.49,2.49,0,0,0,2.83,2.58l3.91-.56a2.43,2.43,0,0,0,2.09-2.41V23.5l-.38.05.38-.16V19.66a1.9,1.9,0,0,1,1.65-1.88l2.69-.36a2.23,2.23,0,0,0,1.94-2.21v-2A.64.64,0,0,0,27.84,12.61Z"/><circle class="cls-5" cx="31.22" cy="31.26" r="8.93"/><path class="cls-6" d="M33.06,22.52,22.48,33.1A8.91,8.91,0,0,0,25,37.7L37.66,25.08A8.91,8.91,0,0,0,33.06,22.52Z"/><path class="cls-7" d="M27.82,39.51,39.47,27.85a8.88,8.88,0,0,0-.66-1.27L26.54,38.85A8.88,8.88,0,0,0,27.82,39.51Z"/><path class="cls-8" d="M44.4,41.75l-1.88-1.88a3.11,3.11,0,0,1-.6-3.56,12,12,0,0,0,1.12-7A12.14,12.14,0,1,0,29.35,43a12,12,0,0,0,7-1.12,3.11,3.11,0,0,1,3.56.6l2,2a1.87,1.87,0,0,0,2.74-.1A1.93,1.93,0,0,0,44.4,41.75ZM22.68,32.09a8.4,8.4,0,1,1,7.24,7.24A8.41,8.41,0,0,1,22.68,32.09Z"/><path class="cls-9" d="M43.77,41.12a18.11,18.11,0,0,1-2.64,2.64l.7.7a1.87,1.87,0,0,0,2.74-.1,1.93,1.93,0,0,0-.17-2.61Z"/><path class="cls-10" d="M44.58,42a2,2,0,0,0-.18-.22l-.63-.63a18.11,18.11,0,0,1-2.64,2.64l.7.7.14.12A18.11,18.11,0,0,0,44.58,42Z"/></svg>