<svg id="Layer_1" data-name="Layer 1" xmlns="http://www.w3.org/2000/svg" xmlns:xlink="http://www.w3.org/1999/xlink" viewBox="0 0 48 48"><defs><style>.cls-1{fill:url(#linear-gradient);}.cls-2{fill:url(#linear-gradient-2);}.cls-3{fill:url(#linear-gradient-3);}.cls-4{fill:url(#linear-gradient-4);}.cls-5{fill:url(#linear-gradient-5);}.cls-6{fill:url(#linear-gradient-6);}.cls-7{fill:url(#linear-gradient-7);}.cls-8{fill:url(#linear-gradient-8);}.cls-9{fill:url(#linear-gradient-9);}.cls-10{fill:url(#linear-gradient-10);}.cls-11{fill:url(#linear-gradient-11);}.cls-12{fill:url(#linear-gradient-12);}.cls-13{fill:url(#linear-gradient-13);}</style><linearGradient id="linear-gradient" x1="16.5" y1="83" x2="16.5" y2="-8.33" gradientUnits="userSpaceOnUse"><stop offset="0" stop-color="#27e9de"/><stop offset="0.52" stop-color="#03a4ec"/><stop offset="1" stop-color="#2547a8"/></linearGradient><linearGradient id="linear-gradient-2" x1="16.5" y1="50" x2="16.5" y2="-8" gradientUnits="userSpaceOnUse"><stop offset="0" stop-color="#273a9b"/><stop offset="0.56" stop-color="#202f65"/><stop offset="1" stop-color="#021e2f"/></linearGradient><linearGradient id="linear-gradient-3" y1="42.74" x2="16.5" y2="24.65" xlink:href="#linear-gradient-2"/><linearGradient id="linear-gradient-4" y1="18.71" x2="16.5" y2="5.6" xlink:href="#linear-gradient-2"/><linearGradient id="linear-gradient-5" x1="22.17" y1="24" x2="72.32" y2="24" xlink:href="#linear-gradient"/><linearGradient id="linear-gradient-6" x1="22.17" y1="24" x2="72.32" y2="24" xlink:href="#linear-gradient"/><linearGradient id="linear-gradient-7" x1="22.17" y1="24" x2="72.32" y2="24" xlink:href="#linear-gradient"/><linearGradient id="linear-gradient-8" y1="32.55" x2="16.5" y2="3.81" xlink:href="#linear-gradient-2"/><linearGradient id="linear-gradient-9" y1="33.37" x2="16.5" y2="24.19" xlink:href="#linear-gradient-2"/><linearGradient id="linear-gradient-10" x1="16.55" y1="23.42" x2="16.55" y2="12.52" xlink:href="#linear-gradient"/><linearGradient id="linear-gradient-11" x1="607.23" y1="1118.13" x2="607.23" y2="1107.23" gradientTransform="translate(1289.06 57.66) rotate(120)" xlink:href="#linear-gradient"/><linearGradient id="linear-gradient-12" x1="1247.9" y1="52.87" x2="1247.9" y2="41.97" gradientTransform="translate(594.12 1131.56) rotate(-120)" xlink:href="#linear-gradient"/><linearGradient id="linear-gradient-13" y1="29.2" x2="16.5" y2="18.27" xlink:href="#linear-gradient"/></defs><title>smart, house, smartphone, mobile, wireless, ac</title><rect class="cls-1" x="3" y="3" width="27" height="42" rx="5.26" ry="5.26"/><path class="cls-2" d="M24.89,6H21.62a1.29,1.29,0,0,0-1.21.83l-.1.25a1.29,1.29,0,0,1-1.21.83H13.89a1.29,1.29,0,0,1-1.21-.83l-.1-.25A1.29,1.29,0,0,0,11.38,6H8.11A2.11,2.11,0,0,0,6,8.11V39.89A2.11,2.11,0,0,0,8.11,42H24.89A2.11,2.11,0,0,0,27,39.89V8.11A2.11,2.11,0,0,0,24.89,6Z"/><rect class="cls-3" x="9" y="25.28" width="15" height="16.72"/><path class="cls-4" d="M24.89,6H21.62a1.29,1.29,0,0,0-1.21.83l-.1.25a1.29,1.29,0,0,1-1.21.83H13.89a1.29,1.29,0,0,1-1.21-.83l-.1-.25A1.29,1.29,0,0,0,11.38,6H8.11A2.11,2.11,0,0,0,6,8.11V9.23A2.11,2.11,0,0,1,8.11,7.13h3.27A1.29,1.29,0,0,1,12.59,8l.1.25A1.29,1.29,0,0,0,13.89,9h5.22a1.29,1.29,0,0,0,1.21-.83l.1-.25a1.29,1.29,0,0,1,1.21-.83h3.27A2.11,2.11,0,0,1,27,9.23V8.11A2.11,2.11,0,0,0,24.89,6Z"/><path class="cls-5" d="M34.35,20.11a1.5,1.5,0,0,0-2.12,2.12,2.5,2.5,0,0,1,0,3.54,1.5,1.5,0,0,0,2.12,2.12A5.51,5.51,0,0,0,34.35,20.11Z"/><path class="cls-6" d="M37.52,16.94a1.5,1.5,0,0,0-2.12,2.12,7,7,0,0,1,0,9.88,1.5,1.5,0,0,0,2.12,2.12A10,10,0,0,0,37.52,16.94Z"/><path class="cls-7" d="M40.74,13.72a1.5,1.5,0,0,0-2.12,2.12,11.54,11.54,0,0,1,0,16.32,1.5,1.5,0,0,0,2.12,2.12,14.53,14.53,0,0,0,0-20.56Z"/><circle class="cls-8" cx="16.5" cy="24" r="9"/><path class="cls-9" d="M23.32,25.92H20l-2.35-1.42-2.57,1.42H9.68v3.94a9,9,0,0,0,13.64,0Z"/><path class="cls-10" d="M18.84,20.18h0a1,1,0,0,0,.92-1.43,3.42,3.42,0,1,0-3.36,4.84.24.24,0,0,0,.25-.24v-1A2.18,2.18,0,0,1,18.84,20.18Z"/><path class="cls-11" d="M18.81,28.05h0a1,1,0,0,0,.78,1.52,3.42,3.42,0,1,0-2.51-5.33.24.24,0,0,0,.08.34l.85.49A2.18,2.18,0,0,1,18.81,28.05Z"/><path class="cls-12" d="M12,24.09h0a1,1,0,0,0-1.7-.08,3.42,3.42,0,1,0,5.87.49.24.24,0,0,0-.34-.1l-.85.49A2.18,2.18,0,0,1,12,24.09Z"/><circle class="cls-13" cx="16.5" cy="24" r="1.28"/></svg>