<svg id="Layer_1" data-name="Layer 1" xmlns="http://www.w3.org/2000/svg" xmlns:xlink="http://www.w3.org/1999/xlink" viewBox="0 0 48 48"><defs><style>.cls-1{fill:url(#linear-gradient);}.cls-2{fill:url(#linear-gradient-3);}.cls-3{fill:url(#linear-gradient-4);}.cls-4{fill:url(#linear-gradient-5);}.cls-5{fill:url(#linear-gradient-6);}.cls-6{fill:url(#linear-gradient-7);}.cls-7{fill:url(#linear-gradient-8);}.cls-8{fill:url(#linear-gradient-9);}.cls-9{fill:url(#linear-gradient-10);}.cls-10{fill:url(#linear-gradient-11);}.cls-11{fill:url(#linear-gradient-12);}.cls-12{fill:url(#linear-gradient-13);}.cls-13{fill:url(#linear-gradient-14);}.cls-14{fill:url(#linear-gradient-15);}</style><linearGradient id="linear-gradient" x1="53.92" y1="34.28" x2="15.18" y2="34.28" gradientUnits="userSpaceOnUse"><stop offset="0" stop-color="#fff"/><stop offset="0.52" stop-color="#cce2e6"/><stop offset="1" stop-color="#8fa1bb"/></linearGradient><linearGradient id="linear-gradient-3" x1="53.92" y1="34.28" x2="15.18" y2="34.28" xlink:href="#linear-gradient"/><linearGradient id="linear-gradient-4" x1="18" y1="57.37" x2="18" y2="1.77" gradientUnits="userSpaceOnUse"><stop offset="0" stop-color="#273a9b"/><stop offset="0.56" stop-color="#202f65"/><stop offset="1" stop-color="#021e2f"/></linearGradient><linearGradient id="linear-gradient-5" x1="13.67" y1="34.2" x2="21.89" y2="34.2" xlink:href="#linear-gradient"/><linearGradient id="linear-gradient-6" y1="53.08" x2="18" y2="25.11" xlink:href="#linear-gradient-4"/><linearGradient id="linear-gradient-7" x1="40.31" y1="19.5" x2="31.04" y2="19.5" xlink:href="#linear-gradient"/><linearGradient id="linear-gradient-8" x1="18" y1="-1.88" x2="18" y2="14" gradientUnits="userSpaceOnUse"><stop offset="0" stop-color="#f3c57a"/><stop offset="0.49" stop-color="#f39369"/><stop offset="1" stop-color="#e94867"/></linearGradient><linearGradient id="linear-gradient-9" y1="54.75" y2="33.97" xlink:href="#linear-gradient-8"/><linearGradient id="linear-gradient-10" y1="54.81" y2="40.18" xlink:href="#linear-gradient-8"/><linearGradient id="linear-gradient-11" y1="17.75" y2="-0.26" xlink:href="#linear-gradient-8"/><linearGradient id="linear-gradient-12" x1="46.58" y1="19.5" x2="30.38" y2="19.5" xlink:href="#linear-gradient"/><linearGradient id="linear-gradient-13" x1="22.76" y1="36.3" x2="22.76" y2="18.7" xlink:href="#linear-gradient-8"/><linearGradient id="linear-gradient-14" y1="41.09" y2="16.3" xlink:href="#linear-gradient-8"/><linearGradient id="linear-gradient-15" y1="53.08" x2="18" y2="25.11" xlink:href="#linear-gradient-4"/></defs><title>smart, house, smartwatch, wireless, home</title><path class="cls-1" d="M34.35,30.39a1.5,1.5,0,0,0-2.12,2.12,2.5,2.5,0,0,1,0,3.54,1.5,1.5,0,0,0,2.12,2.12A5.51,5.51,0,0,0,34.35,30.39Z"/><path class="cls-1" d="M37.52,27.22a1.5,1.5,0,0,0-2.12,2.12,7,7,0,0,1,0,9.88,1.5,1.5,0,0,0,2.12,2.12A10,10,0,0,0,37.52,27.22Z"/><path class="cls-2" d="M40.74,24a1.5,1.5,0,0,0-2.12,2.12,11.54,11.54,0,0,1,0,16.32,1.5,1.5,0,0,0,2.12,2.12,14.53,14.53,0,0,0,0-20.56Z"/><rect class="cls-3" x="3" y="9" width="30" height="33" rx="5.79" ry="5.79"/><path class="cls-4" d="M32.23,30.39a1.5,1.5,0,0,0,0,2.12,2.5,2.5,0,0,1,0,3.54,1.5,1.5,0,0,0,0,2.12,1.45,1.45,0,0,0,.34.23A5.77,5.77,0,0,0,33,36.21V30A1.46,1.46,0,0,0,32.23,30.39Z"/><rect class="cls-5" x="11.97" y="25.5" width="12.06" height="16.5"/><path class="cls-6" d="M33,15h1.7A1.3,1.3,0,0,1,36,16.3v6.4A1.3,1.3,0,0,1,34.7,24H33a0,0,0,0,1,0,0V15A0,0,0,0,1,33,15Z"/><path class="cls-7" d="M25.5,4h0a1,1,0,0,0-1-1H11.47a1,1,0,0,0-1,1h0a8.58,8.58,0,0,1-.91,3.84L9,9H27l-.59-1.19A8.58,8.58,0,0,1,25.5,4Z"/><path class="cls-8" d="M12.38,45H23.62a3.13,3.13,0,0,0,2.78-1.79v0L27,42H9l.59,1.19v0A3.13,3.13,0,0,0,12.38,45Z"/><path class="cls-9" d="M10.5,42H9l.59,1.19v0c.05.1.11.2.17.29H26.23c.06-.1.12-.19.17-.29v0L27,42H10.5Z"/><path class="cls-10" d="M9.59,7.81,9,9H27l-.59-1.19A8.58,8.58,0,0,1,25.75,6H10.25A8.58,8.58,0,0,1,9.59,7.81Z"/><rect class="cls-11" x="33" y="15" width="1.04" height="9"/><path class="cls-12" d="M21.73,19.57h2a.38.38,0,0,1,.38.38v6.68a0,0,0,0,1,0,0h-2.8a0,0,0,0,1,0,0V19.94A.38.38,0,0,1,21.73,19.57Z"/><path class="cls-13" d="M12.87,33H23.13a1.06,1.06,0,0,0,1.06-1.06V25.86a.28.28,0,0,1,.28-.28h.39a.65.65,0,0,0,.42-1.15L18.42,18.6a.65.65,0,0,0-.84,0l-6.86,5.82a.65.65,0,0,0,.42,1.15h.39a.28.28,0,0,1,.28.28v6.08A1.06,1.06,0,0,0,12.87,33Z"/><path class="cls-14" d="M20.23,33.75H15.77V29.23A2.23,2.23,0,0,1,18,27h0a2.23,2.23,0,0,1,2.23,2.23Z"/></svg>