<svg id="Layer_1" data-name="Layer 1" xmlns="http://www.w3.org/2000/svg" xmlns:xlink="http://www.w3.org/1999/xlink" viewBox="0 0 48 48"><defs><style>.cls-1{fill:url(#linear-gradient);}.cls-2{fill:url(#linear-gradient-2);}.cls-3{fill:url(#linear-gradient-3);}.cls-4{fill:url(#linear-gradient-4);}.cls-5{fill:url(#linear-gradient-5);}.cls-6{fill:url(#linear-gradient-6);}.cls-7{fill:url(#linear-gradient-7);}.cls-8{fill:url(#linear-gradient-8);}.cls-9{fill:url(#linear-gradient-9);}.cls-10{fill:url(#linear-gradient-10);}.cls-11{fill:url(#linear-gradient-11);}.cls-12{fill:url(#linear-gradient-12);}.cls-13{fill:url(#linear-gradient-13);}.cls-14{fill:url(#linear-gradient-14);}</style><linearGradient id="linear-gradient" x1="24.01" y1="36.75" x2="24.01" y2="5.37" gradientUnits="userSpaceOnUse"><stop offset="0" stop-color="#273a9b"/><stop offset="0.56" stop-color="#202f65"/><stop offset="1" stop-color="#021e2f"/></linearGradient><linearGradient id="linear-gradient-2" x1="29.27" y1="42" x2="29.27" y2="25.44" xlink:href="#linear-gradient"/><linearGradient id="linear-gradient-3" x1="24" y1="31.58" x2="24" y2="8.54" gradientUnits="userSpaceOnUse"><stop offset="0" stop-color="#27e9de"/><stop offset="0.52" stop-color="#03a4ec"/><stop offset="1" stop-color="#2547a8"/></linearGradient><linearGradient id="linear-gradient-4" x1="25.88" y1="31.92" x2="25.88" y2="12.83" xlink:href="#linear-gradient-3"/><linearGradient id="linear-gradient-5" y1="-4.13" y2="15.85" xlink:href="#linear-gradient-3"/><linearGradient id="linear-gradient-6" y1="56.06" y2="13.03" xlink:href="#linear-gradient-3"/><linearGradient id="linear-gradient-7" x1="11.26" y1="7.13" x2="11.26" y2="-5.26" gradientUnits="userSpaceOnUse"><stop offset="0" stop-color="#fff"/><stop offset="0.52" stop-color="#cce2e6"/><stop offset="1" stop-color="#8fa1bb"/></linearGradient><linearGradient id="linear-gradient-8" x1="15.76" y1="7.13" x2="15.76" y2="-5.26" xlink:href="#linear-gradient-7"/><linearGradient id="linear-gradient-9" x1="20.26" y1="7.13" x2="20.26" y2="-5.26" xlink:href="#linear-gradient-7"/><linearGradient id="linear-gradient-10" x1="15.76" y1="50.37" x2="15.76" y2="16.53" gradientUnits="userSpaceOnUse"><stop offset="0" stop-color="#f3c57a"/><stop offset="0.49" stop-color="#f39369"/><stop offset="1" stop-color="#e94867"/></linearGradient><linearGradient id="linear-gradient-11" x1="15.74" y1="40.69" x2="15.74" y2="35.66" xlink:href="#linear-gradient-10"/><linearGradient id="linear-gradient-12" x1="29.26" y1="48" x2="29.26" y2="17.95" xlink:href="#linear-gradient-3"/><linearGradient id="linear-gradient-13" x1="29.26" y1="40" x2="29.26" y2="26.55" xlink:href="#linear-gradient-3"/><linearGradient id="linear-gradient-14" x1="24.01" y1="34.33" x2="24.01" y2="18.97" xlink:href="#linear-gradient"/></defs><title>store, shop, building, ecommerce</title><rect class="cls-1" x="6.01" y="22.5" width="36" height="16.5"/><rect class="cls-2" x="22.53" y="31.7" width="13.48" height="7.3"/><path class="cls-3" d="M41.25,15H6.75L3.29,20.52a2,2,0,0,0-.3,1v1.71a.74.74,0,0,0,.74.74H44.27a.74.74,0,0,0,.74-.74V21.55a2,2,0,0,0-.3-1Z"/><path class="cls-4" d="M24,24H44.27a.74.74,0,0,0,.74-.74V21.55a2,2,0,0,0-.3-1L41.25,15H6.75l15.41,2.69A2.23,2.23,0,0,1,24,19.87Z"/><path class="cls-5" d="M8.66,9H39.34a1.91,1.91,0,0,1,1.91,1.91V15a0,0,0,0,1,0,0H6.75a0,0,0,0,1,0,0V10.91A1.91,1.91,0,0,1,8.66,9Z"/><path class="cls-6" d="M3,21.55v1.71a.74.74,0,0,0,.74.74H44.27a.74.74,0,0,0,.74-.74V21.55a1.94,1.94,0,0,0-.08-.56H3.07A2,2,0,0,0,3,21.55Z"/><circle class="cls-7" cx="11.26" cy="11.99" r="0.75"/><circle class="cls-8" cx="15.76" cy="11.99" r="0.75"/><circle class="cls-9" cx="20.26" cy="11.99" r="0.75"/><path class="cls-10" d="M14,28.5h3.44a2,2,0,0,1,2,2V39a0,0,0,0,1,0,0H12a0,0,0,0,1,0,0V30.53A2,2,0,0,1,14,28.5Z"/><rect class="cls-11" x="11.98" y="37.44" width="7.53" height="1.56"/><path class="cls-12" d="M33,34.5h-7.5a3,3,0,0,1-3-3h0a3,3,0,0,1,3-3H33a3,3,0,0,1,3,3h0A3,3,0,0,1,33,34.5Z"/><path class="cls-13" d="M25.51,30.31H33a3,3,0,0,1,2.85,2.09A3,3,0,0,0,36,31.5a3,3,0,0,0-3-3h-7.5a3,3,0,0,0-3,3,3,3,0,0,0,.15.91A3,3,0,0,1,25.51,30.31Z"/><rect class="cls-14" x="6.01" y="24" width="36" height="2.08"/></svg>