<svg id="Layer_1" data-name="Layer 1" xmlns="http://www.w3.org/2000/svg" xmlns:xlink="http://www.w3.org/1999/xlink" viewBox="0 0 48 48"><defs><style>.cls-1{fill:url(#linear-gradient);}.cls-2{fill:url(#linear-gradient-2);}.cls-3{fill:url(#linear-gradient-3);}.cls-4{fill:url(#linear-gradient-4);}.cls-5{fill:url(#linear-gradient-5);}.cls-6{fill:url(#linear-gradient-6);}.cls-7{fill:url(#linear-gradient-7);}.cls-8{fill:url(#linear-gradient-8);}.cls-9{fill:url(#linear-gradient-9);}.cls-10{fill:url(#linear-gradient-10);}.cls-11{fill:url(#linear-gradient-11);}.cls-12{fill:url(#linear-gradient-12);}.cls-13{fill:url(#linear-gradient-13);}.cls-14{fill:url(#linear-gradient-14);}.cls-15{fill:url(#linear-gradient-15);}.cls-16{fill:url(#linear-gradient-16);}.cls-17{fill:url(#linear-gradient-17);}.cls-18{fill:url(#linear-gradient-18);}.cls-19{fill:url(#linear-gradient-19);}.cls-20{fill:url(#linear-gradient-20);}.cls-21{fill:url(#linear-gradient-21);}.cls-22{fill:url(#linear-gradient-22);}.cls-23{fill:url(#linear-gradient-23);}.cls-24{fill:url(#linear-gradient-24);}</style><linearGradient id="linear-gradient" x1="31.29" y1="78.27" x2="31.29" y2="9.53" gradientUnits="userSpaceOnUse"><stop offset="0" stop-color="#27e9de"/><stop offset="0.52" stop-color="#03a4ec"/><stop offset="1" stop-color="#2547a8"/></linearGradient><linearGradient id="linear-gradient-2" x1="20.57" y1="55.37" x2="20.57" y2="24.97" xlink:href="#linear-gradient"/><linearGradient id="linear-gradient-3" x1="11.55" y1="68.29" x2="44.46" y2="20.93" xlink:href="#linear-gradient"/><linearGradient id="linear-gradient-4" x1="39.11" y1="78.27" x2="39.11" y2="9.53" xlink:href="#linear-gradient"/><linearGradient id="linear-gradient-5" x1="27.53" y1="32.03" x2="47.05" y2="40.38" xlink:href="#linear-gradient"/><linearGradient id="linear-gradient-6" x1="17.76" y1="20.26" x2="34.87" y2="37.21" xlink:href="#linear-gradient"/><linearGradient id="linear-gradient-7" x1="28.68" y1="29.34" x2="48.2" y2="37.69" xlink:href="#linear-gradient"/><linearGradient id="linear-gradient-8" x1="12.15" y1="27.84" x2="28.59" y2="44.28" xlink:href="#linear-gradient"/><linearGradient id="linear-gradient-9" x1="9.84" y1="22.77" x2="34.9" y2="47.83" xlink:href="#linear-gradient"/><linearGradient id="linear-gradient-10" x1="16.5" y1="42.61" x2="16.5" y2="-4.2" gradientUnits="userSpaceOnUse"><stop offset="0" stop-color="#f3c57a"/><stop offset="0.49" stop-color="#f39369"/><stop offset="1" stop-color="#e94867"/></linearGradient><linearGradient id="linear-gradient-11" x1="16.5" y1="6.55" x2="16.5" y2="1.87" xlink:href="#linear-gradient-10"/><linearGradient id="linear-gradient-12" x1="-862.5" y1="677.98" x2="-862.5" y2="673.3" gradientTransform="translate(-846 704.33) rotate(180)" xlink:href="#linear-gradient-10"/><linearGradient id="linear-gradient-13" x1="115.97" y1="269" x2="115.97" y2="264.32" gradientTransform="translate(-223.39 -167.09) rotate(-30)" xlink:href="#linear-gradient-10"/><linearGradient id="linear-gradient-14" x1="-961.84" y1="416.1" x2="-961.84" y2="411.42" gradientTransform="translate(-603.45 866.29) rotate(150)" xlink:href="#linear-gradient-10"/><linearGradient id="linear-gradient-15" x1="71.18" y1="545.53" x2="71.18" y2="540.85" gradientTransform="translate(-500.09 -199.61) rotate(-60)" xlink:href="#linear-gradient-10"/><linearGradient id="linear-gradient-16" x1="-916.62" y1="139.17" x2="-916.62" y2="134.49" gradientTransform="translate(-312.71 884.78) rotate(120)" xlink:href="#linear-gradient-10"/><linearGradient id="linear-gradient-17" x1="-106.45" y1="762.6" x2="-106.45" y2="757.92" gradientTransform="translate(-756 -90) rotate(-90)" xlink:href="#linear-gradient-10"/><linearGradient id="linear-gradient-18" x1="-739.55" y1="-78.07" x2="-739.55" y2="-82.75" gradientTransform="translate(-51.67 756) rotate(90)" xlink:href="#linear-gradient-10"/><linearGradient id="linear-gradient-19" x1="-368.55" y1="862.29" x2="-368.55" y2="857.61" gradientTransform="translate(-923.09 133.39) rotate(-120)" xlink:href="#linear-gradient-10"/><linearGradient id="linear-gradient-20" x1="-477.31" y1="-177.18" x2="-477.31" y2="-181.86" gradientTransform="translate(110.29 513.45) rotate(60)" xlink:href="#linear-gradient-10"/><linearGradient id="linear-gradient-21" x1="-645.06" y1="817.08" x2="-645.06" y2="812.4" gradientTransform="translate(-955.61 410.09) rotate(-150)" xlink:href="#linear-gradient-10"/><linearGradient id="linear-gradient-22" x1="-200.37" y1="-132.38" x2="-200.37" y2="-137.06" gradientTransform="translate(128.78 222.71) rotate(30)" xlink:href="#linear-gradient-10"/><linearGradient id="linear-gradient-23" x1="-4.46" y1="8.38" x2="46.59" y2="27.75" xlink:href="#linear-gradient-10"/><linearGradient id="linear-gradient-24" x1="10.03" y1="9.99" x2="31.43" y2="17.32" xlink:href="#linear-gradient-10"/></defs><title>sun, sunny, cloudy, cloud, weather, forecast</title><path class="cls-1" d="M39.07,32.34a7.84,7.84,0,0,0-15.56,0A6.35,6.35,0,0,0,24,45H38.63a6.35,6.35,0,0,0,.45-12.69Z"/><path class="cls-2" d="M23.44,32.51l.07-.17a6.35,6.35,0,0,0-5.87,5.74A6.38,6.38,0,0,1,21,34.87,4.26,4.26,0,0,0,23.44,32.51Z"/><path class="cls-3" d="M44.93,37.89a6.75,6.75,0,0,0-.12-.68,6.35,6.35,0,0,0-5.73-4.87,7.8,7.8,0,0,0-1-2.87h0a7.89,7.89,0,0,0-.55-.84v0l-.28-.35-.09-.1a8.09,8.09,0,0,0-.95-.92l-.15-.12-.28-.21-.23-.15-.27-.17-.48-.27-.23-.11-.35-.16L34,26l-.44-.15-.15,0-.61-.14-.19,0-.48-.07-.19,0c-.22,0-.44,0-.66,0s-.5,0-.74,0l-.29,0-.43.06-.41.1-.29.07-.4.14-.27.09-.43.19-.21.09-.49.27-.13.07c-.18.11-.34.22-.51.34l-.07,0c-.18.13-.35.27-.51.42l0,0a7.84,7.84,0,0,0-2.58,4.87,7.84,7.84,0,0,1,7.21-4.76h.07a3.51,3.51,0,0,1,3.08,5.06,5.82,5.82,0,0,0-.62,2.62v2.94A5.86,5.86,0,0,1,38,32.43a7.81,7.81,0,0,1,.53,2,6.35,6.35,0,0,1,5.91,6.33c0,.2,0,.4,0,.59h0a6.49,6.49,0,0,0,.25-.62h0c.07-.2.12-.4.17-.61l0-.07c0-.19.07-.38.1-.57,0,0,0-.08,0-.12a6.28,6.28,0,0,0,0-.69,6,6,0,0,0,0-.73Z"/><path class="cls-4" d="M38.63,45a6.35,6.35,0,0,0,.45-12.69v0a5.86,5.86,0,0,0-5.82,5.86V45Z"/><path class="cls-5" d="M35.84,38.18h0a1,1,0,0,1-.93-1.28A4.41,4.41,0,0,1,37.78,34a1,1,0,0,1,1.29.92h0a1,1,0,0,1-.7.94,2.44,2.44,0,0,0-1.6,1.61A1,1,0,0,1,35.84,38.18Z"/><path class="cls-6" d="M26.41,32.05h0a1,1,0,0,1-.93-1.28,4.41,4.41,0,0,1,2.88-2.9,1,1,0,0,1,1.29.92h0a1,1,0,0,1-.7.94,2.44,2.44,0,0,0-1.6,1.61A1,1,0,0,1,26.41,32.05Z"/><circle class="cls-7" cx="40.49" cy="34.39" r="0.58"/><circle class="cls-8" cx="20.54" cy="36.23" r="0.58"/><circle class="cls-9" cx="22.62" cy="35.56" r="0.89"/><circle class="cls-10" cx="16.5" cy="16.45" r="9.63"/><path class="cls-11" d="M16.16,3.21l-.43,1.21a.36.36,0,0,0,.34.48h.85a.36.36,0,0,0,.34-.48l-.43-1.21A.36.36,0,0,0,16.16,3.21Z"/><path class="cls-12" d="M16.84,29.7l.43-1.21a.36.36,0,0,0-.34-.48h-.85a.36.36,0,0,0-.34.48l.43,1.21A.36.36,0,0,0,16.84,29.7Z"/><path class="cls-13" d="M9.59,5.16l.23,1.26a.36.36,0,0,0,.53.25l.74-.43a.36.36,0,0,0,.05-.58l-1-.83A.36.36,0,0,0,9.59,5.16Z"/><path class="cls-14" d="M23.41,27.75l-.23-1.26a.36.36,0,0,0-.53-.25l-.74.43a.36.36,0,0,0-.05.58l1,.83A.36.36,0,0,0,23.41,27.75Z"/><path class="cls-15" d="M4.86,10.13l.83,1A.36.36,0,0,0,6.28,11l.43-.74a.36.36,0,0,0-.25-.53L5.2,9.54A.36.36,0,0,0,4.86,10.13Z"/><path class="cls-16" d="M28.14,22.78l-.83-1a.36.36,0,0,0-.58.05l-.43.74a.36.36,0,0,0,.25.53l1.26.23A.36.36,0,0,0,28.14,22.78Z"/><path class="cls-17" d="M3.26,16.79l1.21.43a.36.36,0,0,0,.48-.34V16a.36.36,0,0,0-.48-.34l-1.21.43A.36.36,0,0,0,3.26,16.79Z"/><path class="cls-18" d="M29.74,16.12l-1.21-.43a.36.36,0,0,0-.48.34v.85a.36.36,0,0,0,.48.34l1.21-.43A.36.36,0,0,0,29.74,16.12Z"/><path class="cls-19" d="M5.2,23.37l1.26-.23a.36.36,0,0,0,.25-.53l-.43-.74a.36.36,0,0,0-.58-.05l-.83,1A.36.36,0,0,0,5.2,23.37Z"/><path class="cls-20" d="M27.8,9.54l-1.26.23a.36.36,0,0,0-.25.53l.43.74a.36.36,0,0,0,.58.05l.83-1A.36.36,0,0,0,27.8,9.54Z"/><path class="cls-21" d="M10.17,28.09l1-.83a.36.36,0,0,0-.05-.58l-.74-.43a.36.36,0,0,0-.53.25l-.23,1.26A.36.36,0,0,0,10.17,28.09Z"/><path class="cls-22" d="M22.83,4.82l-1,.83a.36.36,0,0,0,.05.58l.74.43a.36.36,0,0,0,.53-.25l.23-1.26A.36.36,0,0,0,22.83,4.82Z"/><path class="cls-23" d="M15.28,11.63a.86.86,0,0,1,.44-1.18,9.6,9.6,0,0,1,8.88.81,9.62,9.62,0,1,0-13.3,13.3,9.57,9.57,0,0,1-.85-8.75l.28,0A1.8,1.8,0,0,0,12,15.24a.93.93,0,0,1,.82-.29,2.35,2.35,0,0,0,.87,0,2.29,2.29,0,0,0,1.53-3.3Z"/><circle class="cls-24" cx="19" cy="13.07" r="0.95"/></svg>