<svg id="Layer_1" data-name="Layer 1" xmlns="http://www.w3.org/2000/svg" xmlns:xlink="http://www.w3.org/1999/xlink" viewBox="0 0 48 48"><defs><style>.cls-1{fill:url(#linear-gradient);}.cls-2{fill:url(#linear-gradient-2);}.cls-3{fill:url(#linear-gradient-3);}.cls-4{fill:url(#linear-gradient-5);}.cls-5{fill:url(#linear-gradient-6);}.cls-6{fill:url(#linear-gradient-7);}.cls-7{fill:url(#linear-gradient-8);}.cls-8{fill:url(#linear-gradient-9);}.cls-9{fill:url(#linear-gradient-10);}.cls-10{fill:url(#linear-gradient-11);}</style><linearGradient id="linear-gradient" x1="24" y1="58.17" x2="24" y2="-22.01" gradientUnits="userSpaceOnUse"><stop offset="0" stop-color="#fff"/><stop offset="0.52" stop-color="#cce2e6"/><stop offset="1" stop-color="#8fa1bb"/></linearGradient><linearGradient id="linear-gradient-2" y1="49.59" x2="24" y2="-3.66" xlink:href="#linear-gradient"/><linearGradient id="linear-gradient-3" x1="24" y1="55.5" x2="24" y2="-61.14" gradientUnits="userSpaceOnUse"><stop offset="0" stop-color="#273a9b"/><stop offset="0.56" stop-color="#202f65"/><stop offset="1" stop-color="#021e2f"/></linearGradient><linearGradient id="linear-gradient-5" x1="24" y1="86.79" x2="24" y2="-31.78" gradientUnits="userSpaceOnUse"><stop offset="0" stop-color="#f3c57a"/><stop offset="0.49" stop-color="#f39369"/><stop offset="1" stop-color="#e94867"/></linearGradient><linearGradient id="linear-gradient-6" y1="63.5" x2="24" y2="15.97" xlink:href="#linear-gradient-5"/><linearGradient id="linear-gradient-7" y1="50.75" x2="24" y2="33.85" xlink:href="#linear-gradient-5"/><linearGradient id="linear-gradient-8" x1="22.98" y1="13.5" x2="22.98" y2="25.22" xlink:href="#linear-gradient-5"/><linearGradient id="linear-gradient-9" x1="25.98" y1="34.46" x2="25.98" y2="46.17" xlink:href="#linear-gradient-5"/><linearGradient id="linear-gradient-10" x1="28.98" y1="13.5" x2="28.98" y2="25.22" xlink:href="#linear-gradient-5"/><linearGradient id="linear-gradient-11" x1="19.94" y1="34.46" x2="19.94" y2="46.17" xlink:href="#linear-gradient-5"/></defs><title>timer, hourglass, time, clock</title><path class="cls-1" d="M34,15.91A9.34,9.34,0,0,0,37.5,8.62V5.33h-27V8.62A9.34,9.34,0,0,0,14,15.91a16.2,16.2,0,0,1,4.91,6.58h0a3.17,3.17,0,0,1,0,2.35h0A16.2,16.2,0,0,1,14,31.42a9.34,9.34,0,0,0-3.49,7.29V42h27V38.71A9.34,9.34,0,0,0,34,31.42a16.2,16.2,0,0,1-4.9-6.58h0a3.17,3.17,0,0,1,0-2.35h0A16.2,16.2,0,0,1,34,15.91Z"/><path class="cls-2" d="M10.5,8.62l.38.38H19a5,5,0,0,1,5,5V25.5h5.39c-.1-.22-.2-.43-.29-.66h0a3.17,3.17,0,0,1,0-2.35A16.21,16.21,0,0,1,34,15.91,9.34,9.34,0,0,0,37.5,8.62V5.33h-27Z"/><path class="cls-3" d="M39,6H9A1.5,1.5,0,0,1,7.5,4.5h0A1.5,1.5,0,0,1,9,3H39a1.5,1.5,0,0,1,1.5,1.5h0A1.5,1.5,0,0,1,39,6Z"/><path class="cls-3" d="M39,45H9a1.5,1.5,0,0,1-1.5-1.5h0A1.5,1.5,0,0,1,9,42H39a1.5,1.5,0,0,1,1.5,1.5h0A1.5,1.5,0,0,1,39,45Z"/><path class="cls-4" d="M37.33,37a1.19,1.19,0,0,0-1.17-1H33.43a8.14,8.14,0,0,1-8-6.84l-.64-4a1,1,0,0,1,1-1.19H27a2.15,2.15,0,0,0,2-1.36l.06-.15A15.55,15.55,0,0,1,33.92,16a9.28,9.28,0,0,0,1.49-1.48.62.62,0,0,0-.49-1H13.08a.62.62,0,0,0-.49,1A9.28,9.28,0,0,0,14.08,16,15.59,15.59,0,0,1,18.9,22.5l0,.12A2.16,2.16,0,0,0,21,24h1.28a1,1,0,0,1,1,1.19l-.64,4a8.14,8.14,0,0,1-8,6.84H11.84a1.19,1.19,0,0,0-1.17,1,9,9,0,0,0-.17,1.76V42h27V38.71A9,9,0,0,0,37.33,37Z"/><path class="cls-5" d="M36.16,36H33.43a8.14,8.14,0,0,1-8-6.84l-.64-4a1,1,0,0,1,1-1.19H22.24a1,1,0,0,1,1,1.19l-.64,4a8.14,8.14,0,0,1-8,6.84H11.84a1.19,1.19,0,0,0-1.17,1,9,9,0,0,0-.17,1.76V42h27V38.71A9,9,0,0,0,37.33,37,1.19,1.19,0,0,0,36.16,36Z"/><rect class="cls-6" x="10.5" y="39" width="27" height="3"/><path class="cls-7" d="M26.27,16.5H19.69a.73.73,0,0,1-.73-.73h0a.73.73,0,0,1,.73-.73h6.58a.73.73,0,0,1,.73.73h0A.73.73,0,0,1,26.27,16.5Z"/><path class="cls-8" d="M29.27,37.46H22.69a.73.73,0,0,1-.73-.73h0a.73.73,0,0,1,.73-.73h6.58a.73.73,0,0,1,.73.73h0A.73.73,0,0,1,29.27,37.46Z"/><path class="cls-9" d="M29.27,16.5h-.58a.73.73,0,0,1-.73-.73h0a.73.73,0,0,1,.73-.73h.58a.73.73,0,0,1,.73.73h0A.73.73,0,0,1,29.27,16.5Z"/><path class="cls-10" d="M20.23,37.46h-.58a.73.73,0,0,1-.73-.73h0a.73.73,0,0,1,.73-.73h.58a.73.73,0,0,1,.73.73h0A.73.73,0,0,1,20.23,37.46Z"/></svg>