<svg id="Layer_1" data-name="Layer 1" xmlns="http://www.w3.org/2000/svg" xmlns:xlink="http://www.w3.org/1999/xlink" viewBox="0 0 48 48"><defs><style>.cls-1{fill:url(#linear-gradient);}.cls-2{fill:url(#linear-gradient-2);}.cls-3{fill:url(#linear-gradient-3);}.cls-4{fill:url(#linear-gradient-4);}.cls-5{fill:url(#linear-gradient-5);}.cls-6{fill:url(#linear-gradient-6);}.cls-7{fill:url(#linear-gradient-7);}.cls-8{fill:url(#linear-gradient-8);}.cls-9{fill:url(#linear-gradient-9);}.cls-10{fill:url(#linear-gradient-10);}.cls-11{fill:url(#linear-gradient-11);}.cls-12{fill:url(#linear-gradient-12);}.cls-13{fill:url(#linear-gradient-13);}.cls-14{fill:url(#linear-gradient-14);}</style><linearGradient id="linear-gradient" x1="23" y1="41.07" x2="23" y2="-2.86" gradientTransform="translate(0.99 2.43)" gradientUnits="userSpaceOnUse"><stop offset="0" stop-color="#fff"/><stop offset="0.52" stop-color="#cce2e6"/><stop offset="1" stop-color="#8fa1bb"/></linearGradient><linearGradient id="linear-gradient-2" x1="31.4" y1="41.77" x2="31.4" y2="2.8" xlink:href="#linear-gradient"/><linearGradient id="linear-gradient-3" x1="21.73" y1="36.76" x2="68.6" y2="34.89" gradientUnits="userSpaceOnUse"><stop offset="0" stop-color="#273a9b"/><stop offset="0.56" stop-color="#202f65"/><stop offset="1" stop-color="#021e2f"/></linearGradient><linearGradient id="linear-gradient-4" x1="75.48" y1="39.45" x2="-80.52" y2="26.7" xlink:href="#linear-gradient-3"/><linearGradient id="linear-gradient-5" x1="25.59" y1="9.31" x2="-1.29" y2="15.31" xlink:href="#linear-gradient-3"/><linearGradient id="linear-gradient-6" x1="77.31" y1="17.11" x2="-78.69" y2="4.36" xlink:href="#linear-gradient-3"/><linearGradient id="linear-gradient-7" x1="37.5" y1="5.5" x2="37.5" y2="-6.93" xlink:href="#linear-gradient-3"/><linearGradient id="linear-gradient-8" x1="37.5" y1="35.63" x2="37.5" y2="-17.65" gradientUnits="userSpaceOnUse"><stop offset="0" stop-color="#27e9de"/><stop offset="0.52" stop-color="#03a4ec"/><stop offset="1" stop-color="#2547a8"/></linearGradient><linearGradient id="linear-gradient-9" x1="2.21" y1="19.15" x2="76.63" y2="7.9" xlink:href="#linear-gradient-8"/><linearGradient id="linear-gradient-10" y1="18.63" y2="-3.18" xlink:href="#linear-gradient-8"/><linearGradient id="linear-gradient-11" x1="10.5" y1="23.5" x2="10.5" y2="11.07" xlink:href="#linear-gradient-3"/><linearGradient id="linear-gradient-12" x1="10.5" y1="53.63" x2="10.5" y2="0.35" xlink:href="#linear-gradient-8"/><linearGradient id="linear-gradient-13" x1="56.94" y1="32.04" x2="-24.06" y2="35.54" xlink:href="#linear-gradient-8"/><linearGradient id="linear-gradient-14" x1="10.5" y1="36.63" x2="10.5" y2="14.82" xlink:href="#linear-gradient-8"/></defs><title>transfer, arrow, smartphone, share</title><circle class="cls-1" cx="23.99" cy="24" r="16.81"/><path class="cls-2" d="M24,7.19a16.81,16.81,0,0,1,0,33.61"/><path class="cls-3" d="M35.72,40l5.79-5.79a.5.5,0,0,0-.32-.86l-10.62-.65a.87.87,0,0,0-.66,1.48Z"/><path class="cls-4" d="M41.52,33.3,36,33a14.9,14.9,0,0,1-23.08,1.1,14.7,14.7,0,0,1-3.62-7.51,3,3,0,0,0-3-2.59h0a3,3,0,0,0-3,3.45A21,21,0,0,0,35.54,41.54a20.77,20.77,0,0,0,6.63-7A.8.8,0,0,0,41.52,33.3Z"/><path class="cls-5" d="M12.28,8,6.49,13.83a.5.5,0,0,0,.32.86l10.62.65a.87.87,0,0,0,.66-1.48Z"/><path class="cls-6" d="M6.48,14.7,12,15a14.9,14.9,0,0,1,23.08-1.1,14.7,14.7,0,0,1,3.62,7.51,3,3,0,0,0,3,2.59h0a3,3,0,0,0,3-3.45A21,21,0,0,0,12.46,6.46a20.77,20.77,0,0,0-6.63,7A.8.8,0,0,0,6.48,14.7Z"/><rect class="cls-7" x="30" y="3" width="15" height="24" rx="2.37" ry="2.37"/><path class="cls-8" d="M42.63,3h0a1.18,1.18,0,0,0-1,.53l-.3.45a1.18,1.18,0,0,1-1,.52H34.63a1.18,1.18,0,0,1-1-.52l-.3-.45a1.18,1.18,0,0,0-1-.53h0A2.37,2.37,0,0,0,30,5.37V24.63A2.37,2.37,0,0,0,32.37,27H42.63A2.37,2.37,0,0,0,45,24.63V5.37A2.37,2.37,0,0,0,42.63,3Z"/><path class="cls-9" d="M44.71,20.55A20.88,20.88,0,0,0,37.6,8a20.65,20.65,0,0,0-7.18-4A2.35,2.35,0,0,0,30,5.37v4.88a15,15,0,0,1,5.1,3.66,14.7,14.7,0,0,1,3.62,7.51,3,3,0,0,0,3,2.59A3,3,0,0,0,44.71,20.55Z"/><path class="cls-10" d="M42.63,3a1.18,1.18,0,0,0-1,.53l-.3.45a1.18,1.18,0,0,1-1,.52H34.63a1.18,1.18,0,0,1-1-.52l-.3-.45a1.18,1.18,0,0,0-1-.53A2.37,2.37,0,0,0,30,5.37v.79a2.37,2.37,0,0,1,2.37-2.37,1.18,1.18,0,0,1,1,.53l.3.45a1.18,1.18,0,0,0,1,.52h5.74a1.18,1.18,0,0,0,1-.52l.3-.45a1.18,1.18,0,0,1,1-.53A2.37,2.37,0,0,1,45,6.16V5.37A2.37,2.37,0,0,0,42.63,3Z"/><rect class="cls-11" x="3" y="21" width="15" height="24" rx="2.37" ry="2.37"/><path class="cls-12" d="M15.63,21h0a1.18,1.18,0,0,0-1,.53l-.3.45a1.18,1.18,0,0,1-1,.52H7.63a1.18,1.18,0,0,1-1-.52l-.3-.45a1.18,1.18,0,0,0-1-.53h0A2.37,2.37,0,0,0,3,23.37V42.63A2.37,2.37,0,0,0,5.37,45H15.63A2.37,2.37,0,0,0,18,42.63V23.37A2.37,2.37,0,0,0,15.63,21Z"/><path class="cls-13" d="M18,42.63V37.75a15,15,0,0,1-5.1-3.66,14.7,14.7,0,0,1-3.62-7.51,3,3,0,0,0-3-2.59,3,3,0,0,0-3,3.45A20.88,20.88,0,0,0,10.4,40a20.65,20.65,0,0,0,7.18,4A2.35,2.35,0,0,0,18,42.63Z"/><path class="cls-14" d="M15.63,21a1.18,1.18,0,0,0-1,.53l-.3.45a1.18,1.18,0,0,1-1,.52H7.63a1.18,1.18,0,0,1-1-.52l-.3-.45a1.18,1.18,0,0,0-1-.53A2.37,2.37,0,0,0,3,23.37v.79a2.37,2.37,0,0,1,2.37-2.37,1.18,1.18,0,0,1,1,.53l.3.45a1.18,1.18,0,0,0,1,.52h5.74a1.18,1.18,0,0,0,1-.52l.3-.45a1.18,1.18,0,0,1,1-.53A2.37,2.37,0,0,1,18,24.16v-.79A2.37,2.37,0,0,0,15.63,21Z"/></svg>