<svg id="Layer_1" data-name="Layer 1" xmlns="http://www.w3.org/2000/svg" xmlns:xlink="http://www.w3.org/1999/xlink" viewBox="0 0 48 48"><defs><style>.cls-1{fill:url(#linear-gradient);}.cls-2{fill:url(#linear-gradient-2);}.cls-3{fill:url(#linear-gradient-3);}.cls-4{fill:url(#linear-gradient-4);}.cls-5{fill:url(#linear-gradient-5);}.cls-6{fill:url(#linear-gradient-6);}.cls-7{fill:url(#linear-gradient-7);}.cls-8{fill:url(#linear-gradient-8);}.cls-9{fill:url(#linear-gradient-9);}.cls-10{fill:url(#linear-gradient-10);}.cls-11{fill:url(#linear-gradient-11);}</style><linearGradient id="linear-gradient" x1="24" y1="44.13" x2="24" y2="-5.63" gradientUnits="userSpaceOnUse"><stop offset="0" stop-color="#fff"/><stop offset="0.52" stop-color="#cce2e6"/><stop offset="1" stop-color="#8fa1bb"/></linearGradient><linearGradient id="linear-gradient-2" x1="24" y1="50.17" x2="24" y2="-0.33" gradientUnits="userSpaceOnUse"><stop offset="0" stop-color="#f3c57a"/><stop offset="0.49" stop-color="#f39369"/><stop offset="1" stop-color="#e94867"/></linearGradient><linearGradient id="linear-gradient-3" x1="19.5" y1="54.68" x2="19.5" y2="8.38" xlink:href="#linear-gradient-2"/><linearGradient id="linear-gradient-4" x1="22.45" y1="57" x2="22.45" y2="15.34" gradientUnits="userSpaceOnUse"><stop offset="0" stop-color="#273a9b"/><stop offset="0.56" stop-color="#202f65"/><stop offset="1" stop-color="#021e2f"/></linearGradient><linearGradient id="linear-gradient-5" x1="24" y1="49.25" x2="24" y2="30.55" xlink:href="#linear-gradient-4"/><linearGradient id="linear-gradient-6" x1="26.58" y1="10.88" x2="26.58" y2="3.01" xlink:href="#linear-gradient-2"/><linearGradient id="linear-gradient-7" x1="30.74" y1="10.88" x2="30.74" y2="3.01" xlink:href="#linear-gradient-2"/><linearGradient id="linear-gradient-8" x1="35.75" y1="10.88" x2="35.75" y2="3.01" xlink:href="#linear-gradient-2"/><linearGradient id="linear-gradient-9" x1="26.26" y1="10.88" x2="26.26" y2="3.01" xlink:href="#linear-gradient-2"/><linearGradient id="linear-gradient-10" x1="30.74" y1="10.88" x2="30.74" y2="3.01" xlink:href="#linear-gradient-2"/><linearGradient id="linear-gradient-11" x1="34.5" y1="10.87" x2="34.5" y2="3.01" xlink:href="#linear-gradient-2"/></defs><title>windshield, wipers, car, vehicle, transportation</title><path class="cls-1" d="M10.67,33.37a3,3,0,0,0,3.86,1.54,24.12,24.12,0,0,1,18.94,0,3,3,0,0,0,3.86-1.55l7.34-13.83a2.85,2.85,0,0,0-.25-3A25.81,25.81,0,0,0,24,6,25.82,25.82,0,0,0,3.55,16.56a2.84,2.84,0,0,0-.23,3Z"/><path class="cls-2" d="M10.67,30.36a3.2,3.2,0,0,0,3.86,1.37,26.88,26.88,0,0,1,18.94,0,3.2,3.2,0,0,0,3.86-1.38L44.68,18a2.31,2.31,0,0,0-.25-2.69,27,27,0,0,0-40.88.06,2.3,2.3,0,0,0-.23,2.68Z"/><path class="cls-3" d="M16.5,31.08a26.76,26.76,0,0,1,6-1V27l-6-13Z"/><path class="cls-4" d="M24.54,30,17.33,13.82a.48.48,0,0,0-.92.28L19.24,31A20.2,20.2,0,0,1,19.54,37,4.36,4.36,0,0,0,19.78,39,4.49,4.49,0,0,0,28.5,37.5a4.42,4.42,0,0,0-.94-2.73A23.34,23.34,0,0,1,24.54,30Z"/><circle class="cls-5" cx="24" cy="37.5" r="2.25"/><path class="cls-6" d="M27.14,13.91a2.32,2.32,0,0,0,0-1.91,2.32,2.32,0,0,0-1.27,1.42v0a.68.68,0,0,0,1.26.48Z"/><path class="cls-7" d="M31.29,17.94a2.32,2.32,0,0,0,0-1.91A2.32,2.32,0,0,0,30,17.45v0a.68.68,0,0,0,1.26.48Z"/><path class="cls-8" d="M36.31,15.41a2.32,2.32,0,0,0,0-1.91A2.32,2.32,0,0,0,35,14.92v0a.68.68,0,0,0,1.26.48Z"/><path class="cls-9" d="M26.82,22.91a2.32,2.32,0,0,0,0-1.91,2.32,2.32,0,0,0-1.27,1.42v0a.68.68,0,0,0,1.26.48Z"/><path class="cls-10" d="M31.29,26.24a2.32,2.32,0,0,0,0-1.91A2.32,2.32,0,0,0,30,25.75v0a.68.68,0,0,0,1.26.48Z"/><path class="cls-11" d="M35.06,22.1a2.32,2.32,0,0,0,0-1.91,2.32,2.32,0,0,0-1.27,1.42v0a.68.68,0,0,0,1.26.48Z"/></svg>