<svg id="Layer_1" data-name="Layer 1" xmlns="http://www.w3.org/2000/svg" xmlns:xlink="http://www.w3.org/1999/xlink" viewBox="0 0 48 48"><defs><style>.cls-1{fill:url(#linear-gradient);}.cls-2{fill:url(#linear-gradient-2);}.cls-3{fill:url(#linear-gradient-3);}.cls-4{fill:url(#linear-gradient-4);}.cls-5{fill:url(#linear-gradient-5);}</style><linearGradient id="linear-gradient" x1="24" y1="83.45" x2="24" y2="-0.23" gradientUnits="userSpaceOnUse"><stop offset="0" stop-color="#f3c57a"/><stop offset="0.49" stop-color="#f39369"/><stop offset="1" stop-color="#e94867"/></linearGradient><linearGradient id="linear-gradient-2" y1="67.08" x2="24" y2="18.46" xlink:href="#linear-gradient"/><linearGradient id="linear-gradient-3" y1="55.46" x2="24" y2="24.57" xlink:href="#linear-gradient"/><linearGradient id="linear-gradient-4" x1="24" y1="27.35" x2="24" y2="3.52" gradientUnits="userSpaceOnUse"><stop offset="0" stop-color="#fff"/><stop offset="0.52" stop-color="#cce2e6"/><stop offset="1" stop-color="#8fa1bb"/></linearGradient><linearGradient id="linear-gradient-5" x1="24" y1="27.35" x2="24" y2="3.52" xlink:href="#linear-gradient-4"/></defs><title>alert, danger, warning, notification</title><path class="cls-1" d="M24,42.8H8a4.9,4.9,0,0,1-4.25-7.36l8-13.89,8-13.89a4.9,4.9,0,0,1,8.49,0l8,13.89,8,13.89A4.9,4.9,0,0,1,40,42.8Z"/><path class="cls-2" d="M24,35.2H15.68a2.54,2.54,0,0,1-2.2-3.82l4.16-7.21L21.8,17a2.54,2.54,0,0,1,4.41,0l4.16,7.21,4.16,7.21a2.54,2.54,0,0,1-2.2,3.82Z"/><polygon class="cls-3" points="22.34 35.2 24 35.2 25.66 35.2 25.66 22.81 22.34 22.81 22.34 35.2"/><path class="cls-4" d="M24.33,28.49h-.67a.8.8,0,0,1-.79-.71l-.53-5a.8.8,0,0,1,.79-.88h1.73a.8.8,0,0,1,.79.88l-.53,5A.8.8,0,0,1,24.33,28.49Z"/><rect class="cls-5" x="22.69" y="29.81" width="2.62" height="2.63" rx="0.95" ry="0.95"/></svg>