<svg id="Layer_1" data-name="Layer 1" xmlns="http://www.w3.org/2000/svg" xmlns:xlink="http://www.w3.org/1999/xlink" viewBox="0 0 48 48"><defs><style>.cls-1{fill:url(#linear-gradient);}.cls-2{fill:url(#linear-gradient-2);}.cls-3{fill:url(#linear-gradient-3);}</style><linearGradient id="linear-gradient" x1="-7.68" y1="24" x2="22.8" y2="24" gradientUnits="userSpaceOnUse"><stop offset="0" stop-color="#27e9de"/><stop offset="0.52" stop-color="#03a4ec"/><stop offset="1" stop-color="#2547a8"/></linearGradient><linearGradient id="linear-gradient-2" x1="-7.68" x2="22.8" xlink:href="#linear-gradient"/><linearGradient id="linear-gradient-3" x1="53.99" y1="24" x2="-20.26" y2="24" gradientUnits="userSpaceOnUse"><stop offset="0" stop-color="#273a9b"/><stop offset="0.56" stop-color="#202f65"/><stop offset="1" stop-color="#021e2f"/></linearGradient></defs><title>arrow, right, next, forward</title><rect class="cls-1" x="9.32" y="16.5" width="3" height="15" rx="0.94" ry="0.94"/><path class="cls-2" d="M6.88,16.5H4.49a1.17,1.17,0,0,0-1.17,1.17V30.33A1.17,1.17,0,0,0,4.49,31.5H6.88a.94.94,0,0,0,.94-.94V17.44A.94.94,0,0,0,6.88,16.5Z"/><path class="cls-3" d="M44.27,23.11l-15-12.93a1.17,1.17,0,0,0-1.94.89V16.5H14.76a.94.94,0,0,0-.94.94V30.56a.94.94,0,0,0,.94.94H27.32v5.43a1.17,1.17,0,0,0,1.94.89l15-12.93A1.17,1.17,0,0,0,44.27,23.11Z"/></svg>