<svg id="Layer_1" data-name="Layer 1" xmlns="http://www.w3.org/2000/svg" xmlns:xlink="http://www.w3.org/1999/xlink" viewBox="0 0 48 48"><defs><style>.cls-1{fill:url(#linear-gradient);}.cls-2{fill:url(#linear-gradient-2);}</style><linearGradient id="linear-gradient" x1="-487.5" y1="-304.75" x2="-487.5" y2="-380.95" gradientTransform="translate(370.5 -463.5) rotate(-90)" gradientUnits="userSpaceOnUse"><stop offset="0" stop-color="#27e9de"/><stop offset="0.52" stop-color="#03a4ec"/><stop offset="1" stop-color="#2547a8"/></linearGradient><linearGradient id="linear-gradient-2" x1="-487.5" y1="-322.12" x2="-487.5" y2="-373.07" xlink:href="#linear-gradient"/></defs><title>arrow, upward, upload, up</title><path class="cls-1" d="M23.11,3.73l-12.93,15a1.17,1.17,0,0,0,.89,1.94H16.5V43.51a1.17,1.17,0,0,0,1.17,1.17H30.33a1.17,1.17,0,0,0,1.17-1.17V20.68h5.43a1.17,1.17,0,0,0,.89-1.94l-12.93-15A1.17,1.17,0,0,0,23.11,3.73Z"/><path class="cls-2" d="M30.33,44.68a1.17,1.17,0,0,0,1.17-1.17V20.68h5.43a1.17,1.17,0,0,0,.89-1.94l-12.93-15A1.17,1.17,0,0,0,24,3.32V44.68Z"/></svg>