<svg id="Layer_1" data-name="Layer 1" xmlns="http://www.w3.org/2000/svg" xmlns:xlink="http://www.w3.org/1999/xlink" viewBox="0 0 48 48"><defs><style>.cls-1{fill:url(#linear-gradient);}.cls-2{fill:url(#linear-gradient-2);}.cls-3{fill:url(#linear-gradient-3);}</style><linearGradient id="linear-gradient" x1="24" y1="61" x2="24" y2="1.8" gradientUnits="userSpaceOnUse"><stop offset="0" stop-color="#273a9b"/><stop offset="0.56" stop-color="#202f65"/><stop offset="1" stop-color="#021e2f"/></linearGradient><linearGradient id="linear-gradient-2" x1="24.64" y1="75" x2="24.64" y2="16.23" xlink:href="#linear-gradient"/><linearGradient id="linear-gradient-3" x1="24.64" y1="43.83" x2="24.64" y2="-19.17" gradientUnits="userSpaceOnUse"><stop offset="0" stop-color="#27e9de"/><stop offset="0.52" stop-color="#03a4ec"/><stop offset="1" stop-color="#2547a8"/></linearGradient></defs><title>arrow, pointer, right, direction, forward</title><circle class="cls-1" cx="24" cy="24" r="21"/><path class="cls-2" d="M17.39,43.92a20.86,20.86,0,0,0,14.51-.47V24L17.39,16.88Z"/><path class="cls-3" d="M20.13,34.43l-2.35-2.35a1.34,1.34,0,0,1,0-1.89L24,24l-6.19-6.19a1.34,1.34,0,0,1,0-1.89l2.35-2.35a1.34,1.34,0,0,1,1.89,0l9.48,9.48a1.34,1.34,0,0,1,0,1.89L22,34.43A1.34,1.34,0,0,1,20.13,34.43Z"/></svg>