<svg id="Layer_1" data-name="Layer 1" xmlns="http://www.w3.org/2000/svg" xmlns:xlink="http://www.w3.org/1999/xlink" viewBox="0 0 48 48"><defs><style>.cls-1{fill:url(#linear-gradient);}.cls-2{fill:url(#linear-gradient-2);}</style><linearGradient id="linear-gradient" x1="-1068.79" y1="24" x2="-946.49" y2="24" gradientTransform="matrix(-1, 0, 0, 1, -1008, 0)" gradientUnits="userSpaceOnUse"><stop offset="0" stop-color="#f3c57a"/><stop offset="0.49" stop-color="#f39369"/><stop offset="1" stop-color="#e94867"/></linearGradient><linearGradient id="linear-gradient-2" x1="-1081.7" x2="-952.53" xlink:href="#linear-gradient"/></defs><title>arrow, left, direction, pointer, rewind</title><path class="cls-1" d="M27.32,7.6h0a2.11,2.11,0,0,1,0,3L13.9,24,27.32,37.42a2.11,2.11,0,0,1,0,3h0a2.11,2.11,0,0,1-3,0L9.75,25.81a2.57,2.57,0,0,1,0-3.63L24.34,7.6A2.11,2.11,0,0,1,27.32,7.6Z"/><path class="cls-2" d="M38.38,7.6h0a2.11,2.11,0,0,1,0,3L25,24,38.38,37.42a2.11,2.11,0,0,1,0,3h0a2.11,2.11,0,0,1-3,0L19,24,35.4,7.6A2.11,2.11,0,0,1,38.38,7.6Z"/></svg>