<svg id="Layer_1" data-name="Layer 1" xmlns="http://www.w3.org/2000/svg" xmlns:xlink="http://www.w3.org/1999/xlink" viewBox="0 0 48 48"><defs><style>.cls-1{fill:url(#linear-gradient);}.cls-2{fill:url(#linear-gradient-2);}.cls-3{fill:url(#linear-gradient-3);}.cls-4{fill:url(#linear-gradient-4);}.cls-5{fill:url(#linear-gradient-5);}.cls-6{fill:url(#linear-gradient-6);}.cls-7{fill:url(#linear-gradient-7);}.cls-8{fill:url(#linear-gradient-8);}.cls-9{fill:url(#linear-gradient-9);}.cls-10{fill:url(#linear-gradient-10);}.cls-11{fill:url(#linear-gradient-11);}.cls-12{fill:url(#linear-gradient-12);}.cls-13{fill:url(#linear-gradient-13);}.cls-14{fill:url(#linear-gradient-14);}.cls-15{fill:url(#linear-gradient-15);}.cls-16{fill:url(#linear-gradient-16);}.cls-17{fill:url(#linear-gradient-17);}.cls-18{fill:url(#linear-gradient-18);}.cls-19{fill:url(#linear-gradient-19);}.cls-20{fill:url(#linear-gradient-20);}.cls-21{fill:url(#linear-gradient-21);}.cls-22{fill:url(#linear-gradient-22);}.cls-23{fill:url(#linear-gradient-23);}.cls-24{fill:url(#linear-gradient-24);}.cls-25{fill:url(#linear-gradient-25);}.cls-26{fill:url(#linear-gradient-26);}.cls-27{fill:url(#linear-gradient-27);}.cls-28{fill:url(#linear-gradient-28);}</style><linearGradient id="linear-gradient" x1="21.06" y1="57" x2="21.06" y2="-22.28" gradientUnits="userSpaceOnUse"><stop offset="0" stop-color="#f3c57a"/><stop offset="0.49" stop-color="#f39369"/><stop offset="1" stop-color="#e94867"/></linearGradient><linearGradient id="linear-gradient-2" x1="21.06" y1="39.07" x2="21.06" y2="-18.25" xlink:href="#linear-gradient"/><linearGradient id="linear-gradient-3" x1="21.06" y1="31.81" x2="21.06" y2="-25.05" xlink:href="#linear-gradient"/><linearGradient id="linear-gradient-4" x1="20.41" y1="41.28" x2="20.41" y2="-0.49" xlink:href="#linear-gradient"/><linearGradient id="linear-gradient-5" x1="21.06" y1="18.32" x2="21.06" y2="-28.62" xlink:href="#linear-gradient"/><linearGradient id="linear-gradient-6" x1="21.06" y1="18.32" x2="21.06" y2="-28.61" xlink:href="#linear-gradient"/><linearGradient id="linear-gradient-7" x1="14.6" y1="18.32" x2="14.6" y2="-28.62" gradientTransform="translate(6.89 -5.98) rotate(30)" xlink:href="#linear-gradient"/><linearGradient id="linear-gradient-8" x1="27.52" y1="18.32" x2="27.52" y2="-28.62" gradientTransform="translate(19.8 -9.44) rotate(30)" xlink:href="#linear-gradient"/><linearGradient id="linear-gradient-9" x1="9.87" y1="18.32" x2="9.87" y2="-28.62" gradientTransform="translate(17.57 -1.26) rotate(60)" xlink:href="#linear-gradient"/><linearGradient id="linear-gradient-10" x1="32.24" y1="18.32" x2="32.24" y2="-28.62" gradientTransform="translate(39.94 -14.17) rotate(60)" xlink:href="#linear-gradient"/><linearGradient id="linear-gradient-11" x1="8.14" y1="18.32" x2="8.14" y2="-28.62" xlink:href="#linear-gradient"/><linearGradient id="linear-gradient-12" x1="33.98" y1="18.32" x2="33.98" y2="-28.62" xlink:href="#linear-gradient"/><linearGradient id="linear-gradient-13" x1="9.87" y1="18.32" x2="9.87" y2="-28.62" gradientTransform="translate(15.07 -1.25) rotate(30)" xlink:href="#linear-gradient"/><linearGradient id="linear-gradient-14" x1="32.24" y1="18.32" x2="32.24" y2="-28.62" gradientTransform="translate(11.61 -14.17) rotate(30)" xlink:href="#linear-gradient"/><linearGradient id="linear-gradient-15" x1="14.6" y1="18.32" x2="14.6" y2="-28.62" gradientTransform="translate(35.21 3.47) rotate(60)" xlink:href="#linear-gradient"/><linearGradient id="linear-gradient-16" x1="27.52" y1="18.32" x2="27.52" y2="-28.62" gradientTransform="translate(22.29 -18.9) rotate(60)" xlink:href="#linear-gradient"/><linearGradient id="linear-gradient-17" x1="20.41" y1="22.34" x2="20.41" y2="-12.23" gradientUnits="userSpaceOnUse"><stop offset="0" stop-color="#fff"/><stop offset="0.52" stop-color="#cce2e6"/><stop offset="1" stop-color="#8fa1bb"/></linearGradient><linearGradient id="linear-gradient-18" x1="23.94" y1="46.81" x2="23.94" y2="23.56" gradientUnits="userSpaceOnUse"><stop offset="0" stop-color="#273a9b"/><stop offset="0.56" stop-color="#202f65"/><stop offset="1" stop-color="#021e2f"/></linearGradient><linearGradient id="linear-gradient-19" x1="23.94" y1="39.65" x2="23.94" y2="26.89" xlink:href="#linear-gradient-18"/><linearGradient id="linear-gradient-20" x1="23.94" y1="48.44" x2="23.94" y2="34.72" xlink:href="#linear-gradient-18"/><linearGradient id="linear-gradient-21" x1="23.94" y1="33.12" x2="23.94" y2="43.44" xlink:href="#linear-gradient-18"/><linearGradient id="linear-gradient-22" x1="326.11" y1="52.11" x2="347" y2="34.05" gradientTransform="translate(-310.8)" xlink:href="#linear-gradient"/><linearGradient id="linear-gradient-23" x1="20.16" y1="41.82" x2="33.92" y2="29.93" xlink:href="#linear-gradient"/><linearGradient id="linear-gradient-24" x1="343.78" y1="35.12" x2="343.78" y2="45.71" gradientTransform="translate(-310.8)" xlink:href="#linear-gradient"/><linearGradient id="linear-gradient-25" x1="342.39" y1="23.51" x2="344.12" y2="30.96" gradientTransform="translate(-310.8)" xlink:href="#linear-gradient"/><linearGradient id="linear-gradient-26" x1="330.24" y1="53.35" x2="356.93" y2="30.27" gradientTransform="translate(-310.8)" xlink:href="#linear-gradient"/><linearGradient id="linear-gradient-27" x1="352.81" y1="35.12" x2="352.81" y2="45.71" gradientTransform="translate(-310.8)" xlink:href="#linear-gradient"/><linearGradient id="linear-gradient-28" x1="351.42" y1="17.48" x2="353.15" y2="24.93" gradientTransform="translate(-310.8)" xlink:href="#linear-gradient"/></defs><title>bitcoin, currency, finance, chart, graph</title><circle class="cls-1" cx="21.06" cy="21.04" r="18.08"/><circle class="cls-2" cx="21.06" cy="21.04" r="14.21"/><circle class="cls-3" cx="21.06" cy="21.06" r="12.9"/><path class="cls-4" d="M13.31,14.62V32.93a0,0,0,0,0,0,0,14.14,14.14,0,0,0,14.18.74,0,0,0,0,0,0,0V18a0,0,0,0,0,0,0l-5.15-2.94h0l-9-.48A0,0,0,0,0,13.31,14.62Z"/><circle class="cls-5" cx="21.06" cy="8.13" r="0.65"/><circle class="cls-6" cx="21.06" cy="33.96" r="0.65"/><circle class="cls-7" cx="14.6" cy="9.86" r="0.65" transform="translate(-2.97 8.62) rotate(-30)"/><circle class="cls-8" cx="27.52" cy="32.23" r="0.65" transform="translate(-12.43 18.08) rotate(-30)"/><circle class="cls-9" cx="9.87" cy="14.59" r="0.65" transform="translate(-7.7 15.84) rotate(-60)"/><circle class="cls-10" cx="32.24" cy="27.5" r="0.65" transform="translate(-7.7 41.68) rotate(-60)"/><circle class="cls-11" cx="8.14" cy="21.04" r="0.65"/><circle class="cls-12" cx="33.98" cy="21.04" r="0.65"/><circle class="cls-13" cx="9.87" cy="27.5" r="0.65" transform="translate(-12.43 8.62) rotate(-30)"/><circle class="cls-14" cx="32.24" cy="14.59" r="0.65" transform="translate(-2.97 18.08) rotate(-30)"/><circle class="cls-15" cx="14.6" cy="32.23" r="0.65" transform="translate(-20.61 28.76) rotate(-60)"/><circle class="cls-16" cx="27.52" cy="9.86" r="0.65" transform="translate(5.22 28.76) rotate(-60)"/><path class="cls-17" d="M27.51,18a4.68,4.68,0,0,0-4.77-4.75h-.36a0,0,0,0,1,0,0V12a1.29,1.29,0,1,0-2.58,0v1.29H18.48V12a1.29,1.29,0,1,0-2.58,0v1.26a0,0,0,0,1,0,0H14.6a1.29,1.29,0,1,0,0,2.58,1.34,1.34,0,0,1,1.28,1.37v8.94a0,0,0,0,1,0,0H14.6a1.29,1.29,0,1,0,0,2.58,1.29,1.29,0,0,1,1.29,1.29,1.29,1.29,0,1,0,2.58,0V28.79h1.29v1.29a1.29,1.29,0,1,0,2.58,0V28.82a0,0,0,0,1,0,0h.36A4.68,4.68,0,0,0,27.51,24a4.5,4.5,0,0,0-1.34-3,0,0,0,0,1,0,0A4.5,4.5,0,0,0,27.51,18Zm-4.65,8.16H19.23a.75.75,0,0,1-.75-.75V22.69a.35.35,0,0,1,.35-.35H23a1.94,1.94,0,0,1,1.93,2.12A2,2,0,0,1,22.86,26.21Zm0-6.46H19.23a.75.75,0,0,1-.75-.75V16.23a.35.35,0,0,1,.35-.35H23A1.94,1.94,0,0,1,24.93,18,2,2,0,0,1,22.86,19.75Z"/><path class="cls-18" d="M20.93,35.48V44c0,.55,1.35,1,3,1s3-.45,3-1V35.48Z"/><path class="cls-19" d="M20.93,39.12h.13a18,18,0,0,0,5.89-1V35.48h-6Z"/><ellipse class="cls-20" cx="23.94" cy="44.03" rx="3.01" ry="1"/><ellipse class="cls-21" cx="23.94" cy="35.52" rx="3.01" ry="1"/><path class="cls-22" d="M30,29.46V44c0,.55,1.35,1,3,1s3-.45,3-1V29.46Z"/><path class="cls-23" d="M30,36.77a18.16,18.16,0,0,0,6-5.53V29.46H30Z"/><ellipse class="cls-24" cx="32.98" cy="44.03" rx="3.01" ry="1"/><ellipse class="cls-25" cx="32.98" cy="29.49" rx="3.01" ry="1"/><path class="cls-26" d="M39,23.43V44c0,.55,1.35,1,3,1s3-.45,3-1V23.43Z"/><ellipse class="cls-27" cx="42.01" cy="44.03" rx="3.01" ry="1"/><ellipse class="cls-28" cx="42.01" cy="23.47" rx="3.01" ry="1"/></svg>