<svg id="Layer_1" data-name="Layer 1" xmlns="http://www.w3.org/2000/svg" xmlns:xlink="http://www.w3.org/1999/xlink" viewBox="0 0 48 48"><defs><style>.cls-1{fill:url(#linear-gradient);}.cls-2{fill:url(#linear-gradient-2);}.cls-3{fill:url(#linear-gradient-3);}.cls-4{fill:url(#linear-gradient-4);}.cls-5{fill:url(#linear-gradient-5);}.cls-6{fill:url(#linear-gradient-6);}.cls-7{fill:url(#linear-gradient-7);}.cls-8{fill:url(#linear-gradient-8);}.cls-9{fill:url(#linear-gradient-9);}.cls-10{fill:url(#linear-gradient-10);}.cls-11{fill:url(#linear-gradient-11);}.cls-12{fill:url(#linear-gradient-12);}.cls-13{fill:url(#linear-gradient-13);}.cls-14{fill:url(#linear-gradient-14);}.cls-15{fill:url(#linear-gradient-15);}</style><linearGradient id="linear-gradient" x1="25.56" y1="21.24" x2="25.56" y2="-14.69" gradientUnits="userSpaceOnUse"><stop offset="0" stop-color="#27e9de"/><stop offset="0.52" stop-color="#03a4ec"/><stop offset="1" stop-color="#2547a8"/></linearGradient><linearGradient id="linear-gradient-2" x1="25.56" y1="52.62" x2="25.56" y2="-36.53" xlink:href="#linear-gradient"/><linearGradient id="linear-gradient-3" x1="13.03" y1="36.71" x2="13.03" y2="-32.57" gradientUnits="userSpaceOnUse"><stop offset="0" stop-color="#273a9b"/><stop offset="0.56" stop-color="#202f65"/><stop offset="1" stop-color="#021e2f"/></linearGradient><linearGradient id="linear-gradient-4" x1="14.42" y1="53.42" x2="14.42" y2="-3.99" xlink:href="#linear-gradient-3"/><linearGradient id="linear-gradient-5" x1="19.72" y1="42.56" x2="19.72" y2="15.65" xlink:href="#linear-gradient-3"/><linearGradient id="linear-gradient-6" x1="37.43" y1="36.71" x2="37.43" y2="-32.57" xlink:href="#linear-gradient-3"/><linearGradient id="linear-gradient-7" x1="36.04" y1="53.42" x2="36.04" y2="-3.99" xlink:href="#linear-gradient-3"/><linearGradient id="linear-gradient-8" x1="25.56" y1="44.21" x2="25.56" y2="14.8" xlink:href="#linear-gradient-3"/><linearGradient id="linear-gradient-9" x1="29.81" y1="57.39" x2="29.81" y2="13.21" xlink:href="#linear-gradient-3"/><linearGradient id="linear-gradient-10" x1="14.93" y1="38.76" x2="14.93" y2="-13.8" xlink:href="#linear-gradient"/><linearGradient id="linear-gradient-11" x1="35.48" y1="35.47" x2="10.07" y2="10.06" xlink:href="#linear-gradient"/><linearGradient id="linear-gradient-12" x1="14.93" y1="26.88" x2="14.93" y2="-11.13" xlink:href="#linear-gradient"/><linearGradient id="linear-gradient-13" x1="14.93" y1="22.06" x2="14.93" y2="-15.64" xlink:href="#linear-gradient"/><linearGradient id="linear-gradient-14" x1="25.12" y1="30.68" x2="8.74" y2="5.36" xlink:href="#linear-gradient"/><linearGradient id="linear-gradient-15" x1="14.51" y1="15.78" x2="14.51" y2="-7.14" gradientUnits="userSpaceOnUse"><stop offset="0" stop-color="#fff"/><stop offset="0.52" stop-color="#cce2e6"/><stop offset="1" stop-color="#8fa1bb"/></linearGradient></defs><title>bitcoin, international, globe, global</title><circle class="cls-1" cx="25.56" cy="25.57" r="19.5"/><circle class="cls-2" cx="25.56" cy="25.57" r="16.71"/><path class="cls-3" d="M20,19.25V6.89A19.48,19.48,0,0,0,9.28,36.28L12,33.6A3.63,3.63,0,0,0,13,31V29.18a2,2,0,0,1,.59-1.42l4.86-4.86A5.17,5.17,0,0,0,20,19.25Z"/><path class="cls-4" d="M8.85,25.57a16.61,16.61,0,0,0,2.45,8.69L12,33.6A3.63,3.63,0,0,0,13,31V29.18a2,2,0,0,1,.59-1.42l4.86-4.86A5.17,5.17,0,0,0,20,19.25V9.83A16.7,16.7,0,0,0,8.85,25.57Z"/><path class="cls-5" d="M21.69,28.63a2.79,2.79,0,0,0-3.94,0h0a2.79,2.79,0,0,0,0,3.94h0a2.79,2.79,0,0,0,3.94,0h0a2.79,2.79,0,0,0,0-3.94Z"/><path class="cls-6" d="M40.88,31.84V30.5a1.82,1.82,0,0,1,.53-1.29l3.64-3.64a19.45,19.45,0,0,0-7.18-15.1L33,15.34a1.64,1.64,0,0,0-.48,1.16v7A1.64,1.64,0,0,0,33,24.66l1.79,1.79a2.28,2.28,0,0,1,.67,1.61v3.53a2.28,2.28,0,0,1-.67,1.61l-4,4a3.46,3.46,0,0,0-1,2.45v5a19.51,19.51,0,0,0,13-9.9L41.34,33A1.82,1.82,0,0,1,40.88,31.84Z"/><path class="cls-7" d="M35.89,12.45,33,15.34a1.64,1.64,0,0,0-.48,1.16v7A1.64,1.64,0,0,0,33,24.66l1.79,1.79a2.28,2.28,0,0,1,.67,1.61v3.53a2.28,2.28,0,0,1-.67,1.61l-4,4a3.46,3.46,0,0,0-1,2.45v2.1a16.73,16.73,0,0,0,11.09-9.54,1.83,1.83,0,0,1,0-.33V30.5a1.82,1.82,0,0,1,.53-1.29l.56-.56a16.6,16.6,0,0,0-6.08-16.2Z"/><circle class="cls-8" cx="25.56" cy="25.57" r="1.04"/><circle class="cls-9" cx="29.81" cy="29.38" r="1.57"/><circle class="cls-10" cx="14.93" cy="14.92" r="11.99"/><path class="cls-11" d="M23.18,6.23A19.48,19.48,0,0,0,6.23,23.15,12,12,0,1,0,23.18,6.23Z"/><circle class="cls-12" cx="14.93" cy="14.92" r="9.42"/><circle class="cls-13" cx="14.93" cy="14.94" r="8.55"/><path class="cls-14" d="M7.3,18.78A8.55,8.55,0,1,0,18.78,7.31,19.52,19.52,0,0,0,7.3,18.78Z"/><path class="cls-15" d="M19.21,12.94a3.1,3.1,0,0,0-3.16-3.15h-.24a0,0,0,0,1,0,0V8.93a.86.86,0,1,0-1.71,0v.86h-.86V8.93a.86.86,0,1,0-1.71,0v.84a0,0,0,0,1,0,0h-.84a.86.86,0,1,0,0,1.71.89.89,0,0,1,.85.91v5.93a0,0,0,0,1,0,0h-.84a.86.86,0,1,0,0,1.71.86.86,0,0,1,.86.86.86.86,0,1,0,1.71,0v-.86h.86v.86a.86.86,0,1,0,1.71,0v-.84a0,0,0,0,1,0,0h.24a3.1,3.1,0,0,0,3.16-3.15,3,3,0,0,0-.89-2,0,0,0,0,1,0,0A3,3,0,0,0,19.21,12.94Zm-3.09,5.41H13.72a.5.5,0,0,1-.5-.5V16a.23.23,0,0,1,.23-.23h2.76a1.29,1.29,0,0,1,1.28,1.4A1.35,1.35,0,0,1,16.13,18.35Zm0-4.28H13.72a.5.5,0,0,1-.5-.5V11.73a.23.23,0,0,1,.23-.23h2.76a1.29,1.29,0,0,1,1.28,1.4A1.35,1.35,0,0,1,16.13,14.07Z"/></svg>