<svg id="Layer_1" data-name="Layer 1" xmlns="http://www.w3.org/2000/svg" xmlns:xlink="http://www.w3.org/1999/xlink" viewBox="0 0 48 48"><defs><style>.cls-1{fill:url(#linear-gradient);}.cls-2{fill:url(#linear-gradient-2);}.cls-3{fill:url(#linear-gradient-3);}.cls-4{fill:url(#linear-gradient-5);}.cls-5{fill:url(#linear-gradient-6);}.cls-6{fill:url(#linear-gradient-7);}.cls-7{fill:url(#linear-gradient-8);}.cls-8{fill:url(#linear-gradient-9);}.cls-9{fill:url(#linear-gradient-10);}</style><linearGradient id="linear-gradient" x1="24" y1="-10.54" x2="24" y2="45.96" gradientUnits="userSpaceOnUse"><stop offset="0" stop-color="#f3c57a"/><stop offset="0.49" stop-color="#f39369"/><stop offset="1" stop-color="#e94867"/></linearGradient><linearGradient id="linear-gradient-2" x1="24.02" y1="52.92" x2="24.02" y2="17.49" xlink:href="#linear-gradient"/><linearGradient id="linear-gradient-3" x1="24.02" y1="26.18" x2="24.02" y2="1.66" gradientUnits="userSpaceOnUse"><stop offset="0" stop-color="#fff"/><stop offset="0.52" stop-color="#cce2e6"/><stop offset="1" stop-color="#8fa1bb"/></linearGradient><linearGradient id="linear-gradient-5" x1="24.02" y1="33.62" x2="24.02" y2="9.49" xlink:href="#linear-gradient-3"/><linearGradient id="linear-gradient-6" x1="24.02" y1="18" x2="24.02" y2="13.28" gradientUnits="userSpaceOnUse"><stop offset="0" stop-color="#273a9b"/><stop offset="0.56" stop-color="#202f65"/><stop offset="1" stop-color="#021e2f"/></linearGradient><linearGradient id="linear-gradient-7" x1="24.02" y1="35.17" x2="24.02" y2="4" xlink:href="#linear-gradient-6"/><linearGradient id="linear-gradient-8" x1="24.02" y1="32.54" x2="24.02" y2="17.54" xlink:href="#linear-gradient-6"/><linearGradient id="linear-gradient-9" x1="22.3" y1="24.14" x2="22.3" y2="18.79" xlink:href="#linear-gradient-6"/><linearGradient id="linear-gradient-10" x1="25.7" y1="24.14" x2="25.7" y2="18.79" xlink:href="#linear-gradient-6"/></defs><title>braces, dental, mouth, dentist, healthcare</title><path class="cls-1" d="M44.29,21.1a24.17,24.17,0,0,0-9.78-7.84,8.43,8.43,0,0,0-6.72,0,9.92,9.92,0,0,1-7.6,0,8.41,8.41,0,0,0-6.73,0,24,24,0,0,0-9.82,7.95,3.53,3.53,0,0,0,0,4.07,25,25,0,0,0,20,10.21,24.88,24.88,0,0,0,20.66-10A3.71,3.71,0,0,0,44.29,21.1Z"/><path class="cls-2" d="M7.72,29.64a25.44,25.44,0,0,0,15.89,5.83A25.33,25.33,0,0,0,40.33,29.7V23.19H7.72Z"/><path class="cls-3" d="M24,18.61c-7.14,0-13.24,1.45-15.76,3.5a1.48,1.48,0,0,0,0,2.29c2.53,2.05,8.63,3.5,15.76,3.5s13.24-1.45,15.76-3.5a1.48,1.48,0,0,0,0-2.29C37.26,20.06,31.16,18.61,24,18.61Z"/><path class="cls-3" d="M24,18.61c-7.14,0-13.24,1.45-15.76,3.5a1.48,1.48,0,0,0,0,2.29c2.53,2.05,8.63,3.5,15.76,3.5s13.24-1.45,15.76-3.5a1.48,1.48,0,0,0,0-2.29C37.26,20.06,31.16,18.61,24,18.61Z"/><path class="cls-4" d="M22.1,18.65l-1,0-.53,0-.87.07-.52,0-.85.09L17.9,19l-.92.13-.35.05-1.21.21-.24,0-.91.2-.38.09-.71.18-.39.11-.63.19-.37.12-.6.22-.31.12L10.2,21l-.14.06c-.26.12-.5.25-.73.38l-.19.11-.45.29L8.48,22l-.28.22A1.47,1.47,0,0,0,7.92,24c2.26-2.22,8.6-3.82,16.11-3.82S37.86,21.76,40.13,24a1.47,1.47,0,0,0-.28-1.81L39.56,22l-.21-.15-.45-.29-.19-.11c-.23-.13-.47-.26-.73-.38L37.84,21l-.68-.29-.31-.12-.6-.22-.37-.12L35.25,20l-.39-.11-.71-.18-.38-.09-.91-.2-.24,0-1.21-.21-.35-.05L30.14,19l-.48-.06-.85-.09-.52,0-.87-.07-.53,0-1,0-.46,0-1.45,0-1.45,0Z"/><path class="cls-5" d="M39.36,24.48l-.45-.29-.19-.11c-.23-.13-.47-.26-.73-.38l-.14-.06-.68-.29-.31-.12-.6-.22-.37-.12-.63-.19-.39-.11-.71-.18-.38-.09-.91-.2-.24,0-1.21-.21-.35-.05-.92-.13-.48-.06-.85-.09-.52,0-.87-.07-.53,0-1,0-.46,0L24,21.3l-1.45,0-.46,0-1,0-.53,0-.87.07-.52,0-.85.09-.48.06L17,21.8l-.35.05-1.21.21-.24,0-.91.2-.38.09-.71.18-.39.11-.63.19L11.8,23l-.6.22-.31.12-.68.29-.14.06c-.26.12-.5.25-.73.38l-.19.11-.45.29-.16.11.47.32.14-.09.19-.11c.23-.13.47-.26.73-.38l.14-.06.68-.29.31-.12.6-.22.37-.12.63-.19.39-.11.71-.18.38-.09.91-.2.24,0,1.21-.21.35-.05.92-.13.48-.06.85-.09.52,0,.87-.07.53,0,1,0,.46,0,1.45,0,1.45,0,.46,0,1,0,.53,0,.87.07.52,0,.85.09.48.06.92.13.35.05,1.21.21.24,0,.91.2.38.09.71.18.39.11.63.19.37.12.6.22.31.12.68.29.14.06c.26.12.5.25.73.38l.19.11.14.09.47-.32Z"/><path class="cls-6" d="M27.93,23.41A1,1,0,0,0,27,24a1.43,1.43,0,0,1-1.28.8h-.22a1.44,1.44,0,0,1-1.24-.71.24.24,0,0,0-.4,0,1.46,1.46,0,0,1-1.25.71h-.22a1.43,1.43,0,0,1-1.28-.8,1,1,0,0,0-1-.57,30.73,30.73,0,0,0-9.85,2.16C13.34,27,18.35,27.9,24,27.9S34.7,27,37.79,25.58A30.75,30.75,0,0,0,27.93,23.41Z"/><path class="cls-7" d="M20.1,25a1,1,0,0,1,1,.57,1.43,1.43,0,0,0,1.28.8h.22a1.46,1.46,0,0,0,1.25-.71.24.24,0,0,1,.4,0,1.44,1.44,0,0,0,1.24.71h.22a1.43,1.43,0,0,0,1.28-.8,1,1,0,0,1,1-.57,36.11,36.11,0,0,1,7.78,1.38,18.48,18.48,0,0,0,2.08-.77,30.74,30.74,0,0,0-9.86-2.16A1,1,0,0,0,27,24a1.43,1.43,0,0,1-1.28.8h-.22a1.44,1.44,0,0,1-1.24-.71.24.24,0,0,0-.4,0,1.46,1.46,0,0,1-1.25.71h-.22a1.43,1.43,0,0,1-1.28-.8,1,1,0,0,0-1-.57,30.73,30.73,0,0,0-9.85,2.16,18.48,18.48,0,0,0,2.08.77A36.1,36.1,0,0,1,20.1,25Z"/><rect class="cls-8" x="21.31" y="20.94" width="1.98" height="1.47" rx="0.57" ry="0.57"/><rect class="cls-9" x="24.7" y="20.94" width="1.98" height="1.47" rx="0.57" ry="0.57"/></svg>