<svg id="Layer_1" data-name="Layer 1" xmlns="http://www.w3.org/2000/svg" xmlns:xlink="http://www.w3.org/1999/xlink" viewBox="0 0 48 48"><defs><style>.cls-1{fill:url(#linear-gradient);}.cls-2{fill:url(#linear-gradient-2);}.cls-3{fill:url(#linear-gradient-3);}.cls-4{fill:url(#linear-gradient-4);}.cls-5{fill:url(#linear-gradient-5);}.cls-6{fill:url(#linear-gradient-6);}.cls-7{fill:url(#linear-gradient-7);}.cls-8{fill:url(#linear-gradient-8);}</style><linearGradient id="linear-gradient" x1="17.25" y1="29.88" x2="17.25" y2="6.5" gradientUnits="userSpaceOnUse"><stop offset="0" stop-color="#fff"/><stop offset="0.52" stop-color="#cce2e6"/><stop offset="1" stop-color="#8fa1bb"/></linearGradient><linearGradient id="linear-gradient-2" x1="17.25" y1="59.14" x2="17.25" y2="-7.76" gradientUnits="userSpaceOnUse"><stop offset="0" stop-color="#27e9de"/><stop offset="0.52" stop-color="#03a4ec"/><stop offset="1" stop-color="#2547a8"/></linearGradient><linearGradient id="linear-gradient-3" x1="9.94" y1="7.97" x2="9.94" y2="-16.24" xlink:href="#linear-gradient"/><linearGradient id="linear-gradient-4" x1="17.15" y1="7.97" x2="17.15" y2="-16.24" xlink:href="#linear-gradient"/><linearGradient id="linear-gradient-5" x1="24.32" y1="7.97" x2="24.32" y2="-16.24" xlink:href="#linear-gradient"/><linearGradient id="linear-gradient-6" x1="73" y1="22.39" x2="-60.67" y2="34.72" gradientUnits="userSpaceOnUse"><stop offset="0" stop-color="#f3c57a"/><stop offset="0.49" stop-color="#f39369"/><stop offset="1" stop-color="#e94867"/></linearGradient><linearGradient id="linear-gradient-7" x1="35.48" y1="17.59" x2="22.55" y2="9.4" xlink:href="#linear-gradient-6"/><linearGradient id="linear-gradient-8" x1="37.5" y1="42.67" x2="37.5" y2="28.5" gradientUnits="userSpaceOnUse"><stop offset="0" stop-color="#273a9b"/><stop offset="0.56" stop-color="#202f65"/><stop offset="1" stop-color="#021e2f"/></linearGradient></defs><title>buy, click, button, hand, gesture</title><rect class="cls-1" x="3" y="5.93" width="28.5" height="18.14" rx="6.14" ry="6.14"/><rect class="cls-2" x="3" y="3" width="28.5" height="18.14" rx="6.14" ry="6.14"/><path class="cls-3" d="M12.52,13.45a2.12,2.12,0,0,1-.1.69,1.89,1.89,0,0,1-.29.55,1.94,1.94,0,0,1-.44.41,2.62,2.62,0,0,1-.57.28,3.37,3.37,0,0,1-.66.17,5.6,5.6,0,0,1-.78.05H7.79a.46.46,0,0,1-.31-.11.46.46,0,0,1-.12-.35V8.91a.45.45,0,0,1,.12-.35.46.46,0,0,1,.31-.11H9.58a4.76,4.76,0,0,1,1.11.11,2.16,2.16,0,0,1,.77.33,1.47,1.47,0,0,1,.48.56,1.84,1.84,0,0,1,.17.81,1.74,1.74,0,0,1-.07.48,1.41,1.41,0,0,1-.5.75,1.57,1.57,0,0,1-.42.23,1.91,1.91,0,0,1,.56.19,1.54,1.54,0,0,1,.44.36,1.67,1.67,0,0,1,.3.51A1.87,1.87,0,0,1,12.52,13.45Zm-1.87-3a1.08,1.08,0,0,0-.07-.39.73.73,0,0,0-.2-.28A.94.94,0,0,0,10,9.6a1.93,1.93,0,0,0-.54-.06H8.78v1.85h.81a1.34,1.34,0,0,0,.5-.08.8.8,0,0,0,.31-.2.81.81,0,0,0,.19-.3A1.1,1.1,0,0,0,10.65,10.45Zm.37,3a1.13,1.13,0,0,0-.08-.44.84.84,0,0,0-.24-.33,1.12,1.12,0,0,0-.41-.2,2.39,2.39,0,0,0-.64-.07H8.78v2h1a1.68,1.68,0,0,0,.51-.07,1,1,0,0,0,.36-.19.84.84,0,0,0,.23-.31A1,1,0,0,0,11,13.49Z"/><path class="cls-4" d="M20.06,12.93a3.36,3.36,0,0,1-.19,1.17,2.3,2.3,0,0,1-.57.87,2.46,2.46,0,0,1-.92.54,3.93,3.93,0,0,1-1.27.19,4.07,4.07,0,0,1-1.21-.17A2.32,2.32,0,0,1,15,15a2.22,2.22,0,0,1-.57-.85A3.32,3.32,0,0,1,14.24,13V8.66a.16.16,0,0,1,0-.1.21.21,0,0,1,.12-.07.82.82,0,0,1,.22,0l.35,0,.35,0a.77.77,0,0,1,.22,0,.23.23,0,0,1,.12.07.16.16,0,0,1,0,.1v4.21a2.3,2.3,0,0,0,.1.73,1.29,1.29,0,0,0,.3.51,1.18,1.18,0,0,0,.47.31,1.78,1.78,0,0,0,.61.1,1.68,1.68,0,0,0,.61-.11,1.24,1.24,0,0,0,.46-.3,1.4,1.4,0,0,0,.29-.5,2.1,2.1,0,0,0,.1-.67V8.66a.16.16,0,0,1,0-.1.21.21,0,0,1,.12-.07.77.77,0,0,1,.22,0l.35,0,.34,0a.77.77,0,0,1,.22,0,.21.21,0,0,1,.12.07.16.16,0,0,1,0,.1Z"/><path class="cls-5" d="M25,12.88v2.51a.15.15,0,0,1,0,.1.28.28,0,0,1-.12.07l-.22,0H24l-.22,0a.26.26,0,0,1-.12-.07.16.16,0,0,1,0-.1V12.88L21.65,9a1.73,1.73,0,0,1-.14-.32.16.16,0,0,1,0-.17.44.44,0,0,1,.23-.07h.88l.24,0a.32.32,0,0,1,.13.08l.08.13.79,1.75c.08.17.15.35.23.54l.23.59h0c.07-.2.14-.39.21-.58l.21-.53.78-1.74a.43.43,0,0,1,.07-.14.29.29,0,0,1,.12-.08.79.79,0,0,1,.23,0h.87a.45.45,0,0,1,.24.07.17.17,0,0,1,0,.18A2.12,2.12,0,0,1,27,9Z"/><path class="cls-6" d="M22.78,24.23a3,3,0,0,1,1.25.25l4.18,1.79a.58.58,0,0,0,.8-.53V11a2.38,2.38,0,0,1,2.17-2.42A2.29,2.29,0,0,1,33.6,10.9v3a3.61,3.61,0,0,0,2.79,3.52l4.23,1a4.09,4.09,0,0,1,3.28,4V42.71H31.31V37.35A3.18,3.18,0,0,0,30.21,35l-8.57-7.44A1.87,1.87,0,0,1,22.78,24.23Z"/><path class="cls-7" d="M31.5,9.14c0-.17,0-.34,0-.51a2.28,2.28,0,0,0-.29,0A2.38,2.38,0,0,0,29,11v8.89A6.13,6.13,0,0,0,31.5,15Z"/><path class="cls-8" d="M30.86,42H44.14a.86.86,0,0,1,.86.86V45a0,0,0,0,1,0,0H30a0,0,0,0,1,0,0V42.86A.86.86,0,0,1,30.86,42Z"/></svg>