<svg id="Layer_1" data-name="Layer 1" xmlns="http://www.w3.org/2000/svg" xmlns:xlink="http://www.w3.org/1999/xlink" viewBox="0 0 48 48"><defs><style>.cls-1{fill:url(#linear-gradient);}.cls-2{fill:url(#linear-gradient-2);}.cls-3{fill:url(#linear-gradient-3);}.cls-4{fill:url(#linear-gradient-4);}.cls-5{fill:url(#linear-gradient-5);}.cls-6{fill:url(#linear-gradient-6);}.cls-7{fill:url(#linear-gradient-7);}.cls-8{fill:url(#linear-gradient-8);}.cls-9{fill:url(#linear-gradient-9);}</style><linearGradient id="linear-gradient" x1="25.5" y1="86.67" x2="25.5" y2="-80.41" gradientUnits="userSpaceOnUse"><stop offset="0" stop-color="#27e9de"/><stop offset="0.52" stop-color="#03a4ec"/><stop offset="1" stop-color="#2547a8"/></linearGradient><linearGradient id="linear-gradient-2" y1="59" x2="25.5" y2="14.8" xlink:href="#linear-gradient"/><linearGradient id="linear-gradient-3" x1="39.83" y1="26.6" x2="-7.54" y2="10.1" xlink:href="#linear-gradient"/><linearGradient id="linear-gradient-4" x1="8.25" y1="20.96" x2="8.25" y2="3.06" gradientUnits="userSpaceOnUse"><stop offset="0" stop-color="#273a9b"/><stop offset="0.56" stop-color="#202f65"/><stop offset="1" stop-color="#021e2f"/></linearGradient><linearGradient id="linear-gradient-5" x1="36.78" y1="35.35" x2="-10.59" y2="18.85" xlink:href="#linear-gradient"/><linearGradient id="linear-gradient-6" y1="30.78" x2="8.25" y2="12.88" xlink:href="#linear-gradient-4"/><linearGradient id="linear-gradient-7" x1="33.74" y1="44.1" x2="-13.64" y2="27.6" xlink:href="#linear-gradient"/><linearGradient id="linear-gradient-8" y1="40.59" x2="8.25" y2="22.69" xlink:href="#linear-gradient-4"/><linearGradient id="linear-gradient-9" x1="25.5" y1="46.27" x2="25.5" y2="-32.99" gradientUnits="userSpaceOnUse"><stop offset="0" stop-color="#fff"/><stop offset="0.52" stop-color="#cce2e6"/><stop offset="1" stop-color="#8fa1bb"/></linearGradient></defs><title>contact, book, contacts, notebook</title><rect class="cls-1" x="7.5" y="3" width="36" height="42" rx="4.01" ry="4.01"/><polygon class="cls-2" points="15.46 19.66 15.46 45 35.54 45 35.54 29.08 26.43 30.5 15.46 19.66"/><path class="cls-3" d="M7.5,14.25H12a0,0,0,0,1,0,0v2A1.71,1.71,0,0,1,10.29,18H7.5a0,0,0,0,1,0,0V14.25A0,0,0,0,1,7.5,14.25Z"/><path class="cls-4" d="M9.75,16.5h-3A2.25,2.25,0,0,1,4.5,14.25h0A2.25,2.25,0,0,1,6.75,12h3A2.25,2.25,0,0,1,12,14.25h0A2.25,2.25,0,0,1,9.75,16.5Z"/><path class="cls-5" d="M7.5,24.06H12a0,0,0,0,1,0,0v2a1.71,1.71,0,0,1-1.71,1.71H7.5a0,0,0,0,1,0,0V24.06A0,0,0,0,1,7.5,24.06Z"/><path class="cls-6" d="M9.75,26.31h-3A2.25,2.25,0,0,1,4.5,24.06h0a2.25,2.25,0,0,1,2.25-2.25h3A2.25,2.25,0,0,1,12,24.06h0A2.25,2.25,0,0,1,9.75,26.31Z"/><path class="cls-7" d="M7.5,33.88H12a0,0,0,0,1,0,0v2a1.71,1.71,0,0,1-1.71,1.71H7.5a0,0,0,0,1,0,0V33.88A0,0,0,0,1,7.5,33.88Z"/><path class="cls-8" d="M9.75,36.13h-3A2.25,2.25,0,0,1,4.5,33.88h0a2.25,2.25,0,0,1,2.25-2.25h3A2.25,2.25,0,0,1,12,33.88h0A2.25,2.25,0,0,1,9.75,36.13Z"/><path class="cls-9" d="M35.37,27.66a2,2,0,0,0-.93-.68l-.24-.11S31.51,25.54,31,25.35a1.43,1.43,0,0,0-1.87.5L28,27.16a.68.68,0,0,1-.8.19h0a11.12,11.12,0,0,1-3.2-2,12.48,12.48,0,0,1-2.12-2.5A.67.67,0,0,1,22,22l.24-.28.22-.26a3.21,3.21,0,0,0,.5-.78l.06-.13a1.52,1.52,0,0,0,0-1.44c-.08-.15-.59-1.4-.93-2.22l-.46-1.11c-.36-.85-1.2-1.27-2.5-1.24H19a2.82,2.82,0,0,0-1.7.75,5.69,5.69,0,0,0-1.84,4.32,9.4,9.4,0,0,0,2,5.13l0,.07c1.12,1.56,4.18,5.35,8.33,7,2.93,1.18,4.43,1.54,5.42,1.54a3.75,3.75,0,0,0,1.29-.23,4.91,4.91,0,0,0,2.6-2.75h0A4.08,4.08,0,0,0,35.37,27.66Z"/></svg>