<svg id="Layer_1" data-name="Layer 1" xmlns="http://www.w3.org/2000/svg" xmlns:xlink="http://www.w3.org/1999/xlink" viewBox="0 0 48 48"><defs><style>.cls-1{fill:url(#linear-gradient);}.cls-2{fill:url(#linear-gradient-2);}.cls-3{fill:url(#linear-gradient-3);}.cls-4{fill:url(#linear-gradient-4);}.cls-5{fill:url(#linear-gradient-5);}.cls-6{fill:url(#linear-gradient-6);}.cls-7{fill:url(#linear-gradient-7);}.cls-8{fill:url(#linear-gradient-8);}</style><linearGradient id="linear-gradient" x1="27" y1="45.17" x2="27" y2="-5.25" gradientUnits="userSpaceOnUse"><stop offset="0" stop-color="#273a9b"/><stop offset="0.56" stop-color="#202f65"/><stop offset="1" stop-color="#021e2f"/></linearGradient><linearGradient id="linear-gradient-2" x1="25.5" y1="61.3" x2="25.5" y2="8.21" xlink:href="#linear-gradient"/><linearGradient id="linear-gradient-3" x1="21" y1="46.5" x2="21" y2="-2.99" gradientUnits="userSpaceOnUse"><stop offset="0" stop-color="#f3c57a"/><stop offset="0.49" stop-color="#f39369"/><stop offset="1" stop-color="#e94867"/></linearGradient><linearGradient id="linear-gradient-4" x1="24" y1="46.75" x2="24" y2="14.23" xlink:href="#linear-gradient-3"/><linearGradient id="linear-gradient-5" x1="15" y1="31.85" x2="15" y2="-6.98" xlink:href="#linear-gradient"/><linearGradient id="linear-gradient-6" x1="21" y1="31.85" x2="21" y2="-6.98" xlink:href="#linear-gradient"/><linearGradient id="linear-gradient-7" x1="27.1" y1="18.93" x2="-3.23" y2="1.26" gradientUnits="userSpaceOnUse"><stop offset="0" stop-color="#fff"/><stop offset="0.52" stop-color="#cce2e6"/><stop offset="1" stop-color="#8fa1bb"/></linearGradient><linearGradient id="linear-gradient-8" x1="37.44" y1="24.46" x2="9.13" y2="13.34" xlink:href="#linear-gradient-7"/></defs><title>credit, card, payment, finance, credit card</title><rect class="cls-1" x="9" y="18" width="36" height="24" rx="3.13" ry="3.13"/><path class="cls-2" d="M41.87,18H12.13A3.13,3.13,0,0,0,9,21.13V38.87A3.13,3.13,0,0,0,12.13,42H39V34.81a2.44,2.44,0,0,1,1.31-2.17A3.11,3.11,0,0,0,42,29.87V18.13Z"/><rect class="cls-3" x="3" y="6" width="36" height="24" rx="3.13" ry="3.13"/><path class="cls-4" d="M12.13,18A3.13,3.13,0,0,0,9,21.13V30H35.87A3.13,3.13,0,0,0,39,26.87V18Z"/><path class="cls-5" d="M18,18a7.48,7.48,0,0,1,3-6,7.5,7.5,0,1,0,0,12A7.48,7.48,0,0,1,18,18Z"/><path class="cls-6" d="M24,18a7.48,7.48,0,0,0-3-6,7.48,7.48,0,0,0,0,12A7.48,7.48,0,0,0,24,18Z"/><path class="cls-7" d="M25.5,10.5A7.46,7.46,0,0,0,21,12a7.48,7.48,0,0,1,0,12A7.5,7.5,0,1,0,25.5,10.5Z"/><path class="cls-8" d="M24,18a7.48,7.48,0,0,0-3-6,7.48,7.48,0,0,0,0,12A7.48,7.48,0,0,0,24,18Z"/></svg>