<svg id="Layer_1" data-name="Layer 1" xmlns="http://www.w3.org/2000/svg" xmlns:xlink="http://www.w3.org/1999/xlink" viewBox="0 0 48 48"><defs><style>.cls-1{fill:url(#linear-gradient);}.cls-2{fill:url(#linear-gradient-2);}.cls-3{fill:url(#linear-gradient-3);}.cls-4{fill:url(#linear-gradient-4);}.cls-5{fill:url(#linear-gradient-5);}.cls-6{fill:url(#linear-gradient-6);}.cls-7{fill:url(#linear-gradient-8);}.cls-8{fill:url(#linear-gradient-9);}.cls-9{fill:url(#linear-gradient-10);}.cls-10{fill:url(#linear-gradient-11);}.cls-11{fill:url(#linear-gradient-12);}.cls-12{fill:url(#linear-gradient-13);}.cls-13{fill:url(#linear-gradient-15);}.cls-14{fill:url(#linear-gradient-16);}.cls-15{fill:url(#linear-gradient-17);}.cls-16{fill:url(#linear-gradient-18);}</style><linearGradient id="linear-gradient" x1="24" y1="69.89" x2="24" y2="30.65" gradientUnits="userSpaceOnUse"><stop offset="0" stop-color="#fff"/><stop offset="0.52" stop-color="#cce2e6"/><stop offset="1" stop-color="#8fa1bb"/></linearGradient><linearGradient id="linear-gradient-2" y1="69.43" x2="24" y2="32.36" xlink:href="#linear-gradient"/><linearGradient id="linear-gradient-3" y1="-31.71" x2="24" y2="42.18" xlink:href="#linear-gradient"/><linearGradient id="linear-gradient-4" y1="40.38" x2="24" y2="14.11" xlink:href="#linear-gradient"/><linearGradient id="linear-gradient-5" y1="-6.11" x2="24" y2="30.05" xlink:href="#linear-gradient"/><linearGradient id="linear-gradient-6" x1="24" y1="31.08" x2="24" y2="2.9" gradientUnits="userSpaceOnUse"><stop offset="0" stop-color="#f3c57a"/><stop offset="0.49" stop-color="#f39369"/><stop offset="1" stop-color="#e94867"/></linearGradient><linearGradient id="linear-gradient-8" x1="14.41" y1="42.25" x2="14.41" y2="-5.79" xlink:href="#linear-gradient-6"/><linearGradient id="linear-gradient-9" x1="33.59" y1="42.25" x2="33.59" y2="-5.79" xlink:href="#linear-gradient-6"/><linearGradient id="linear-gradient-10" x1="14.41" y1="-1.12" x2="14.41" y2="17.79" xlink:href="#linear-gradient-6"/><linearGradient id="linear-gradient-11" x1="33.59" y1="-1.12" x2="33.59" y2="17.79" xlink:href="#linear-gradient-6"/><linearGradient id="linear-gradient-12" y1="31.08" y2="2.9" xlink:href="#linear-gradient-6"/><linearGradient id="linear-gradient-13" y1="75.2" y2="-49.34" xlink:href="#linear-gradient-6"/><linearGradient id="linear-gradient-15" y1="-9" y2="43.87" xlink:href="#linear-gradient-6"/><linearGradient id="linear-gradient-16" y1="23.83" y2="7.61" xlink:href="#linear-gradient-6"/><linearGradient id="linear-gradient-17" x1="24" y1="23.33" x2="24" y2="3.38" gradientUnits="userSpaceOnUse"><stop offset="0" stop-color="#273a9b"/><stop offset="0.56" stop-color="#202f65"/><stop offset="1" stop-color="#021e2f"/></linearGradient><linearGradient id="linear-gradient-18" x1="23.27" y1="10.27" x2="22.92" y2="8.93" gradientTransform="translate(24.39 -14.75) rotate(65.95)" xlink:href="#linear-gradient-17"/></defs><title>crown, dental, dentist, healthcare, medical</title><path class="cls-1" d="M31.71,9a9.7,9.7,0,0,0-7.17,3.28.74.74,0,0,1-1.08,0A9.7,9.7,0,0,0,16.29,9C10.61,9,6,14.16,6,20.53A12.6,12.6,0,0,0,7.77,27a16,16,0,0,1,2.31,6.35A32.43,32.43,0,0,0,13,43.56,2.47,2.47,0,0,0,15,45a2.37,2.37,0,0,0,2.56-2.36V41.8a6.67,6.67,0,0,1,3.08-5.74,6.43,6.43,0,0,1,6.7,0,6.67,6.67,0,0,1,3.08,5.74v.59a2.5,2.5,0,0,0,1.84,2.55,2.37,2.37,0,0,0,2.66-1.28,32.42,32.42,0,0,0,3-10.4,13,13,0,0,1,2-5.77,12.54,12.54,0,0,0,2.06-7C42,14.16,37.39,9,31.71,9Z"/><path class="cls-2" d="M39.93,27.49a12.42,12.42,0,0,0,2-5.62l0-.3c0-.25-.06-.5-.11-.74-1-5.22-5.11-9.14-10.06-9.14A9.7,9.7,0,0,0,24.54,15a.74.74,0,0,1-1.08,0,9.7,9.7,0,0,0-7.17-3.28c-4.95,0-9.08,3.92-10.06,9.14,0,.24-.08.49-.11.74l0,.3A12.48,12.48,0,0,0,7.77,27,16.46,16.46,0,0,1,10,32.72a11.79,11.79,0,0,0,8.23,3.4,11.61,11.61,0,0,0,3.22-.46,6.43,6.43,0,0,1,5.13,0,11.61,11.61,0,0,0,3.22.46A11.82,11.82,0,0,0,38,32.75,12.76,12.76,0,0,1,39.93,27.49Z"/><path class="cls-3" d="M41.94,19.29c0-.14,0-.28-.06-.41s-.06-.5-.11-.74C40.79,12.92,36.66,9,31.71,9a9.7,9.7,0,0,0-7.17,3.28.74.74,0,0,1-1.08,0A9.7,9.7,0,0,0,16.29,9c-4.95,0-9.08,3.92-10.06,9.14,0,.24-.08.49-.11.74s0,.27-.06.41c0,.42-.06.84-.06,1.26,0,0,0,.07,0,.11,0,.32,0,.64,0,1s0,.4.06.6,0,.13,0,.2A12.43,12.43,0,0,0,7.77,27c.25.42.49.85.71,1.28a12,12,0,0,0,9.73,5.11A11.63,11.63,0,0,0,22,32.78a5.93,5.93,0,0,1,3.91,0,11.63,11.63,0,0,0,3.83.65,12,12,0,0,0,9.43-4.69,11.11,11.11,0,0,1,.71-1.24,12.35,12.35,0,0,0,1.91-5l0-.2c0-.23.06-.46.08-.7s0-.63,0-.95c0,0,0-.09,0-.14C42,20.13,42,19.71,41.94,19.29Z"/><path class="cls-4" d="M35,8.34l-5.31,3.73-2.13,1.49H20.46l-2.13-1.49L13,8.34A1.6,1.6,0,0,0,10.5,9.65v7.43c0,.59,2,1.12,5,1.46A78.53,78.53,0,0,0,24,19a78.53,78.53,0,0,0,8.47-.42c3.07-.34,5-.87,5-1.46V9.65A1.6,1.6,0,0,0,35,8.34Z"/><path class="cls-5" d="M41.94,19.29c0-.14,0-.28-.06-.41s-.06-.5-.11-.74C40.79,12.92,36.66,9,31.71,9A9.61,9.61,0,0,0,25,11.84a1.37,1.37,0,0,1-1.94,0A9.61,9.61,0,0,0,16.29,9c-4.95,0-9.08,3.92-10.06,9.14,0,.24-.08.49-.11.74s0,.27-.06.41c0,.42-.06.84-.06,1.26,0,0,0,.07,0,.11,0,.32,0,.64,0,1s0,.37.06.55V22.1c0-.25.06-.5.11-.74a11.9,11.9,0,0,1,3.14-6.12,1.1,1.1,0,0,0,.76.31A1.09,1.09,0,0,0,11,15a1.88,1.88,0,0,0,2.68-1.6,1.29,1.29,0,0,0,1.56-1.16,9.27,9.27,0,0,1,1-.06,9.7,9.7,0,0,1,7.17,3.28.74.74,0,0,0,1.08,0,9.7,9.7,0,0,1,7.17-3.28c4.95,0,9.08,3.92,10.06,9.14,0,.24.08.49.11.74v.06c0-.17,0-.34.06-.52s0-.63,0-.95c0,0,0-.09,0-.14C42,20.13,42,19.71,41.94,19.29Z"/><path class="cls-6" d="M35,6.26l-7.44,5.22.52,1.72c-1.28-.06-2.65-.09-4.07-.09s-2.78,0-4.07.09l.52-1.72L13,6.26A1.6,1.6,0,0,0,10.5,7.57V15c0,1,6,1.88,13.5,1.88S37.5,16,37.5,15V7.57A1.6,1.6,0,0,0,35,6.26Z"/><path class="cls-6" d="M35,6.26l-7.44,5.22.52,1.72c-1.28-.06-2.65-.09-4.07-.09s-2.78,0-4.07.09l.52-1.72L13,6.26A1.6,1.6,0,0,0,10.5,7.57V15c0,1,6,1.88,13.5,1.88S37.5,16,37.5,15V7.57A1.6,1.6,0,0,0,35,6.26Z"/><path class="cls-7" d="M13,6.26A1.6,1.6,0,0,0,10.5,7.57V15c0,.59,2,1.12,5,1.46L18.33,10Z"/><path class="cls-8" d="M35,6.26,29.67,10l2.79,6.47c3.07-.34,5-.87,5-1.46V7.57A1.6,1.6,0,0,0,35,6.26Z"/><path class="cls-9" d="M13,7.79l4.81,3.37L18.33,10,13,6.26A1.6,1.6,0,0,0,10.5,7.57V9.1A1.6,1.6,0,0,1,13,7.79Z"/><path class="cls-10" d="M35,6.26,29.67,10l.51,1.17L35,7.79A1.6,1.6,0,0,1,37.5,9.1V7.57A1.6,1.6,0,0,0,35,6.26Z"/><path class="cls-11" d="M27.54,11.49l.52,1.72c-1.28-.06-2.65-.09-4.07-.09s-2.78,0-4.07.09l.52-1.72L18.33,10l-2.79,6.47a78.53,78.53,0,0,0,8.47.42,78.53,78.53,0,0,0,8.47-.42L29.67,10Z"/><path class="cls-12" d="M29.67,10,27.93,6c-1.71-4-6.16-4-7.86,0l-1.74,4-2.79,6.47a78.53,78.53,0,0,0,8.47.42,78.53,78.53,0,0,0,8.47-.42Z"/><path class="cls-12" d="M29.67,10,27.93,6c-1.71-4-6.16-4-7.86,0l-1.74,4-2.79,6.47a78.53,78.53,0,0,0,8.47.42,78.53,78.53,0,0,0,8.47-.42Z"/><path class="cls-13" d="M18.33,12.62,21,6.36a3.23,3.23,0,0,1,5.94,0l2.7,6.26,1.71,4,1.09-.11L29.67,10,27.93,6c-1.71-4-6.16-4-7.86,0l-1.74,4-2.79,6.47,1.09.11Z"/><path class="cls-14" d="M22.5,16.86h3V12h-3Z"/><ellipse class="cls-15" cx="24" cy="12.02" rx="1.5" ry="2.03"/><ellipse class="cls-16" cx="23.56" cy="11.42" rx="0.56" ry="0.41" transform="translate(3.53 28.28) rotate(-65.95)"/></svg>