<svg id="Layer_1" data-name="Layer 1" xmlns="http://www.w3.org/2000/svg" xmlns:xlink="http://www.w3.org/1999/xlink" viewBox="0 0 48 48"><defs><style>.cls-1{fill:url(#linear-gradient);}.cls-2{fill:url(#linear-gradient-2);}.cls-3{fill:url(#linear-gradient-3);}.cls-4{fill:url(#linear-gradient-4);}.cls-5{fill:url(#linear-gradient-5);}.cls-6{fill:url(#linear-gradient-6);}.cls-7{fill:url(#linear-gradient-7);}.cls-8{fill:url(#linear-gradient-8);}</style><linearGradient id="linear-gradient" x1="24" y1="-23.5" x2="24" y2="71.08" gradientUnits="userSpaceOnUse"><stop offset="0" stop-color="#f3c57a"/><stop offset="0.49" stop-color="#f39369"/><stop offset="1" stop-color="#e94867"/></linearGradient><linearGradient id="linear-gradient-2" x1="24" y1="54.83" x2="24" y2="-63.37" gradientUnits="userSpaceOnUse"><stop offset="0" stop-color="#273a9b"/><stop offset="0.56" stop-color="#202f65"/><stop offset="1" stop-color="#021e2f"/></linearGradient><linearGradient id="linear-gradient-3" y1="24" x2="24" y2="4.66" xlink:href="#linear-gradient"/><linearGradient id="linear-gradient-4" x1="8.31" y1="12.81" x2="8.31" y2="-5.26" xlink:href="#linear-gradient"/><linearGradient id="linear-gradient-5" x1="12" y1="12.81" x2="12" y2="-5.26" gradientUnits="userSpaceOnUse"><stop offset="0" stop-color="#27e9de"/><stop offset="0.52" stop-color="#03a4ec"/><stop offset="1" stop-color="#2547a8"/></linearGradient><linearGradient id="linear-gradient-6" x1="15.69" y1="12.81" x2="15.69" y2="-5.26" gradientUnits="userSpaceOnUse"><stop offset="0" stop-color="#fff"/><stop offset="0.52" stop-color="#cce2e6"/><stop offset="1" stop-color="#8fa1bb"/></linearGradient><linearGradient id="linear-gradient-7" y1="110.67" x2="24" y2="19" xlink:href="#linear-gradient"/><linearGradient id="linear-gradient-8" x1="24" y1="28.5" x2="24" y2="-5.48" xlink:href="#linear-gradient-6"/></defs><title>download, down, arrow, browser, webpage</title><rect class="cls-1" x="3" y="4.5" width="42" height="39" rx="3.07" ry="3.07"/><path class="cls-2" d="M41.93,4.5H6.07A3.07,3.07,0,0,0,3,7.57V10.5H45V7.57A3.07,3.07,0,0,0,41.93,4.5Z"/><rect class="cls-3" x="3" y="10.5" width="42" height="3"/><circle class="cls-4" cx="8.31" cy="7.5" r="0.73"/><circle class="cls-5" cx="12" cy="7.5" r="0.73"/><circle class="cls-6" cx="15.69" cy="7.5" r="0.73"/><rect class="cls-7" x="14.99" y="26.02" width="18.01" height="17.44"/><path class="cls-8" d="M15.19,26.56l8.1,10.14a.91.91,0,0,0,1.42,0l8.1-10.14a.91.91,0,0,0-.71-1.47H29.88a.91.91,0,0,1-.91-.91V22a5,5,0,0,0-5-5h0a5,5,0,0,0-5,5v2.21a.91.91,0,0,1-.91.91H15.9A.91.91,0,0,0,15.19,26.56Z"/></svg>