<svg id="Layer_1" data-name="Layer 1" xmlns="http://www.w3.org/2000/svg" xmlns:xlink="http://www.w3.org/1999/xlink" viewBox="0 0 48 48"><defs><style>.cls-1{fill:url(#linear-gradient);}.cls-2{fill:url(#linear-gradient-2);}.cls-3{fill:url(#linear-gradient-3);}.cls-4{fill:url(#linear-gradient-4);}.cls-5{fill:url(#linear-gradient-5);}.cls-6{fill:url(#linear-gradient-6);}.cls-7{fill:url(#linear-gradient-7);}.cls-8{fill:url(#linear-gradient-8);}.cls-9{fill:url(#linear-gradient-9);}.cls-10{fill:url(#linear-gradient-10);}.cls-11{fill:url(#linear-gradient-11);}.cls-12{fill:url(#linear-gradient-12);}.cls-13{fill:url(#linear-gradient-13);}.cls-14{fill:url(#linear-gradient-14);}.cls-15{fill:url(#linear-gradient-15);}.cls-16{fill:url(#linear-gradient-16);}.cls-17{fill:url(#linear-gradient-17);}.cls-18{fill:url(#linear-gradient-18);}.cls-19{fill:url(#linear-gradient-19);}.cls-20{fill:url(#linear-gradient-20);}.cls-21{fill:url(#linear-gradient-21);}.cls-22{fill:url(#linear-gradient-22);}.cls-23{fill:url(#linear-gradient-23);}.cls-24{fill:url(#linear-gradient-24);}.cls-25{fill:url(#linear-gradient-25);}.cls-26{fill:url(#linear-gradient-26);}.cls-27{fill:url(#linear-gradient-27);}.cls-28{fill:url(#linear-gradient-28);}.cls-29{fill:url(#linear-gradient-29);}.cls-30{fill:url(#linear-gradient-30);}.cls-31{fill:url(#linear-gradient-31);}.cls-32{fill:url(#linear-gradient-32);}.cls-33{fill:url(#linear-gradient-33);}.cls-34{fill:url(#linear-gradient-34);}.cls-35{fill:url(#linear-gradient-35);}.cls-36{fill:url(#linear-gradient-36);}.cls-37{fill:url(#linear-gradient-37);}</style><linearGradient id="linear-gradient" x1="27.01" y1="-1.41" x2="27.01" y2="24.24" gradientUnits="userSpaceOnUse"><stop offset="0" stop-color="#fff"/><stop offset="0.16" stop-color="#fcfefe"/><stop offset="0.58" stop-color="#cce2e6"/><stop offset="1" stop-color="#8fa1bb"/></linearGradient><linearGradient id="linear-gradient-2" x1="28.29" y1="1" x2="28.29" y2="14.13" gradientUnits="userSpaceOnUse"><stop offset="0" stop-color="#fff"/><stop offset="0.26" stop-color="#fcfefe"/><stop offset="0.58" stop-color="#cce2e6"/><stop offset="1" stop-color="#8fa1bb"/></linearGradient><linearGradient id="linear-gradient-3" x1="24" y1="49.37" x2="24" y2="19.62" gradientUnits="userSpaceOnUse"><stop offset="0" stop-color="#273a9b"/><stop offset="0.56" stop-color="#202f65"/><stop offset="1" stop-color="#021e2f"/></linearGradient><linearGradient id="linear-gradient-4" x1="24" y1="62.45" x2="24" y2="-15.79" gradientUnits="userSpaceOnUse"><stop offset="0" stop-color="#27e9de"/><stop offset="0.52" stop-color="#03a4ec"/><stop offset="1" stop-color="#2547a8"/></linearGradient><linearGradient id="linear-gradient-5" x1="18.61" y1="36.82" x2="18.61" y2="-16.34" xlink:href="#linear-gradient-4"/><linearGradient id="linear-gradient-6" x1="24" y1="53.45" x2="24" y2="32.93" xlink:href="#linear-gradient-4"/><linearGradient id="linear-gradient-7" x1="24" y1="36.82" x2="24" y2="-24.36" xlink:href="#linear-gradient-4"/><linearGradient id="linear-gradient-8" x1="24" y1="36.82" x2="24" y2="-24.36" xlink:href="#linear-gradient-4"/><linearGradient id="linear-gradient-9" x1="24" y1="36.82" x2="24" y2="-24.36" xlink:href="#linear-gradient-4"/><linearGradient id="linear-gradient-10" x1="5.52" y1="25" x2="5.52" y2="21.32" xlink:href="#linear-gradient-3"/><linearGradient id="linear-gradient-11" x1="6.8" y1="25" x2="6.8" y2="21.32" xlink:href="#linear-gradient-3"/><linearGradient id="linear-gradient-12" x1="5.52" y1="26.5" x2="5.52" y2="22.82" xlink:href="#linear-gradient-3"/><linearGradient id="linear-gradient-13" x1="6.8" y1="26.5" x2="6.8" y2="22.82" xlink:href="#linear-gradient-3"/><linearGradient id="linear-gradient-14" x1="5.52" y1="28" x2="5.52" y2="24.32" xlink:href="#linear-gradient-3"/><linearGradient id="linear-gradient-15" x1="6.8" y1="28" x2="6.8" y2="24.32" xlink:href="#linear-gradient-3"/><linearGradient id="linear-gradient-16" x1="5.52" y1="29.5" x2="5.52" y2="25.82" xlink:href="#linear-gradient-3"/><linearGradient id="linear-gradient-17" x1="6.8" y1="29.5" x2="6.8" y2="25.82" xlink:href="#linear-gradient-3"/><linearGradient id="linear-gradient-18" x1="5.52" y1="31" x2="5.52" y2="27.32" xlink:href="#linear-gradient-3"/><linearGradient id="linear-gradient-19" x1="6.8" y1="31" x2="6.8" y2="27.32" xlink:href="#linear-gradient-3"/><linearGradient id="linear-gradient-20" x1="5.52" y1="32.5" x2="5.52" y2="28.82" xlink:href="#linear-gradient-3"/><linearGradient id="linear-gradient-21" x1="6.8" y1="32.5" x2="6.8" y2="28.82" xlink:href="#linear-gradient-3"/><linearGradient id="linear-gradient-22" x1="5.52" y1="34" x2="5.52" y2="30.32" xlink:href="#linear-gradient-3"/><linearGradient id="linear-gradient-23" x1="6.8" y1="34" x2="6.8" y2="30.32" xlink:href="#linear-gradient-3"/><linearGradient id="linear-gradient-24" x1="5.52" y1="35.5" x2="5.52" y2="31.82" xlink:href="#linear-gradient-3"/><linearGradient id="linear-gradient-25" x1="6.8" y1="35.5" x2="6.8" y2="31.82" xlink:href="#linear-gradient-3"/><linearGradient id="linear-gradient-26" x1="5.52" y1="37" x2="5.52" y2="33.32" xlink:href="#linear-gradient-3"/><linearGradient id="linear-gradient-27" x1="6.8" y1="37" x2="6.8" y2="33.32" xlink:href="#linear-gradient-3"/><linearGradient id="linear-gradient-28" x1="43.09" y1="22.77" x2="43.09" y2="18.79" xlink:href="#linear-gradient-3"/><linearGradient id="linear-gradient-29" x1="43.09" y1="24.82" x2="43.09" y2="20.83" xlink:href="#linear-gradient-3"/><linearGradient id="linear-gradient-30" x1="43.09" y1="26.86" x2="43.09" y2="22.88" xlink:href="#linear-gradient-3"/><linearGradient id="linear-gradient-31" x1="43.09" y1="28.91" x2="43.09" y2="24.93" xlink:href="#linear-gradient-3"/><linearGradient id="linear-gradient-32" x1="43.09" y1="30.96" x2="43.09" y2="26.98" xlink:href="#linear-gradient-3"/><linearGradient id="linear-gradient-33" x1="43.09" y1="33.01" x2="43.09" y2="29.02" xlink:href="#linear-gradient-3"/><linearGradient id="linear-gradient-34" x1="43.09" y1="35.05" x2="43.09" y2="31.07" xlink:href="#linear-gradient-3"/><linearGradient id="linear-gradient-35" y1="43.22" x2="24" y2="13.46" xlink:href="#linear-gradient-3"/><linearGradient id="linear-gradient-36" x1="24.01" y1="39.08" x2="24.01" y2="29.15" xlink:href="#linear-gradient-3"/><linearGradient id="linear-gradient-37" x1="24" y1="45.91" x2="24" y2="19.01" xlink:href="#linear-gradient-4"/></defs><title>electric, power, plant, energy, ecology</title><path class="cls-1" d="M17.95,3A2.25,2.25,0,0,0,20,4.33l.21,0a2.75,2.75,0,0,0,.58.87,2.74,2.74,0,1,0,3.35,4.31A3.69,3.69,0,0,0,28,8.77a2,2,0,0,1,1.57-.56,3.61,3.61,0,0,0,.48,0,3.74,3.74,0,0,0,3.08-1.61,2,2,0,0,0,1.93-.35,2.31,2.31,0,0,0,1-1.79v0A1.56,1.56,0,0,0,34.48,3Z"/><path class="cls-2" d="M36.07,4.46A1.56,1.56,0,0,0,34.48,3H30.37A1.56,1.56,0,0,1,32,4.46v0a2.31,2.31,0,0,1-1,1.79A2,2,0,0,1,29,6.64,3.74,3.74,0,0,1,26,8.25a3.61,3.61,0,0,1-.48,0,2,2,0,0,0-1.57.56,3.71,3.71,0,0,1-2.51,1,3.57,3.57,0,0,1-.87-.12,2.69,2.69,0,0,0,1.17.56,2.74,2.74,0,0,0,2.46-.71A3.69,3.69,0,0,0,28,8.77a2,2,0,0,1,1.57-.56,3.61,3.61,0,0,0,.48,0,3.74,3.74,0,0,0,3.08-1.61,2,2,0,0,0,1.93-.35,2.31,2.31,0,0,0,1-1.79Z"/><path class="cls-3" d="M36.75,31.5h0a2.25,2.25,0,0,1-2.25-2.25V23.56a1.06,1.06,0,0,0-1.06-1.06H14.56a1.06,1.06,0,0,0-1.06,1.06v8.82H12v-.9A1.48,1.48,0,0,0,10.52,30H9V24.94A3.94,3.94,0,0,0,5.06,21H3.63a.63.63,0,0,0-.63.63v18.5A2.18,2.18,0,0,0,4.88,42.3,147.33,147.33,0,0,0,24,43.5a147.33,147.33,0,0,0,19.12-1.2A2.18,2.18,0,0,0,45,40.13V19a1,1,0,0,0-1-1H42.09A3.09,3.09,0,0,0,39,21.09v8.16A2.25,2.25,0,0,1,36.75,31.5Z"/><path class="cls-4" d="M30.39,13.84q-.19-1.59-.31-3.15a1.7,1.7,0,0,0-1.6-1.58Q26.27,9,24,9t-4.48.11a1.7,1.7,0,0,0-1.6,1.58q-.12,1.56-.31,3.15C16.2,25.45,12.31,35.67,7.27,42.55a.57.57,0,0,0,.34.91A85,85,0,0,0,24,45a85,85,0,0,0,16.38-1.54.57.57,0,0,0,.34-.91C35.69,35.67,31.8,25.45,30.39,13.84Z"/><path class="cls-5" d="M18.79,15.27c.16-1.35.29-2.68.38-4a.73.73,0,0,1,.69-.69q2.62-.15,5.33-.16,2.27,0,4.48.11a1.61,1.61,0,0,1,.4.1,1.69,1.69,0,0,0-1.59-1.53Q26.27,9,24,9t-4.48.11a1.7,1.7,0,0,0-1.6,1.58q-.12,1.56-.31,3.15C16.2,25.45,12.31,35.67,7.27,42.55a.57.57,0,0,0,.34.91l1.08.18C13.61,36.76,17.4,26.69,18.79,15.27Z"/><path class="cls-6" d="M41.1,40.47a1.56,1.56,0,0,0-1.57-.7A94.33,94.33,0,0,1,24,41,94.34,94.34,0,0,1,8.46,39.78a1.56,1.56,0,0,0-1.57.7q-.34.52-.69,1a1.29,1.29,0,0,0,.84,2A94.07,94.07,0,0,0,24,45a94.08,94.08,0,0,0,17-1.49,1.29,1.29,0,0,0,.84-2Q41.44,41,41.1,40.47Z"/><path class="cls-7" d="M12.61,33q-1.06,2.5-2.28,4.73A121.67,121.67,0,0,0,24,38.45a121.69,121.69,0,0,0,13.68-.76Q36.46,35.46,35.39,33c-3.68.35-7.47.56-11.39.56S16.29,33.31,12.61,33Z"/><path class="cls-8" d="M15.38,25c-.47,1.67-1,3.28-1.54,4.84,3.29.27,6.69.42,10.16.42s6.87-.15,10.16-.42c-.56-1.55-1.08-3.17-1.54-4.84-2.81.2-5.68.33-8.62.33S18.19,25.21,15.38,25Z"/><path class="cls-9" d="M17.16,16.94q-.41,2.5-1,4.9c2.55.16,5.15.25,7.8.25s5.25-.09,7.8-.25q-.55-2.39-1-4.9c-2.25.13-4.52.22-6.84.22S19.4,17.07,17.16,16.94Z"/><rect class="cls-10" x="5.14" y="24" width="0.75" height="0.75" rx="0.28" ry="0.28"/><rect class="cls-11" x="6.42" y="24" width="0.75" height="0.75" rx="0.28" ry="0.28"/><rect class="cls-12" x="5.14" y="25.5" width="0.75" height="0.75" rx="0.28" ry="0.28"/><rect class="cls-13" x="6.42" y="25.5" width="0.75" height="0.75" rx="0.28" ry="0.28"/><rect class="cls-14" x="5.14" y="27" width="0.75" height="0.75" rx="0.28" ry="0.28"/><rect class="cls-15" x="6.42" y="27" width="0.75" height="0.75" rx="0.28" ry="0.28"/><rect class="cls-16" x="5.14" y="28.5" width="0.75" height="0.75" rx="0.28" ry="0.28"/><rect class="cls-17" x="6.42" y="28.5" width="0.75" height="0.75" rx="0.28" ry="0.28"/><rect class="cls-18" x="5.14" y="30" width="0.75" height="0.75" rx="0.28" ry="0.28"/><rect class="cls-19" x="6.42" y="30" width="0.75" height="0.75" rx="0.28" ry="0.28"/><rect class="cls-20" x="5.14" y="31.5" width="0.75" height="0.75" rx="0.28" ry="0.28"/><rect class="cls-21" x="6.42" y="31.5" width="0.75" height="0.75" rx="0.28" ry="0.28"/><rect class="cls-22" x="5.14" y="33" width="0.75" height="0.75" rx="0.28" ry="0.28"/><rect class="cls-23" x="6.42" y="33" width="0.75" height="0.75" rx="0.28" ry="0.28"/><rect class="cls-24" x="5.14" y="34.5" width="0.75" height="0.75" rx="0.28" ry="0.28"/><rect class="cls-25" x="6.42" y="34.5" width="0.75" height="0.75" rx="0.28" ry="0.28"/><rect class="cls-26" x="5.14" y="36" width="0.75" height="0.75" rx="0.28" ry="0.28"/><rect class="cls-27" x="6.42" y="36" width="0.75" height="0.75" rx="0.28" ry="0.28"/><path class="cls-28" d="M41.59,21.69H45a0,0,0,0,1,0,0v.81a0,0,0,0,1,0,0H41.59a.41.41,0,0,1-.41-.41v0A.41.41,0,0,1,41.59,21.69Z"/><path class="cls-29" d="M45,24.55H41.59a.41.41,0,0,1-.41-.41h0a.41.41,0,0,1,.41-.41H45Z"/><path class="cls-30" d="M45,26.59H41.59a.41.41,0,0,1-.41-.41h0a.41.41,0,0,1,.41-.41H45Z"/><path class="cls-31" d="M45,28.64H41.59a.41.41,0,0,1-.41-.41h0a.41.41,0,0,1,.41-.41H45Z"/><path class="cls-32" d="M41.59,29.88H45a0,0,0,0,1,0,0v.81a0,0,0,0,1,0,0H41.59a.41.41,0,0,1-.41-.41v0A.41.41,0,0,1,41.59,29.88Z"/><path class="cls-33" d="M45,32.73H41.59a.41.41,0,0,1-.41-.41h0a.41.41,0,0,1,.41-.41H45Z"/><path class="cls-34" d="M45,34.78H41.59a.41.41,0,0,1-.41-.41h0a.41.41,0,0,1,.41-.41H45Z"/><circle class="cls-35" cx="24" cy="31.5" r="6.83"/><path class="cls-36" d="M21.31,37.77a6.82,6.82,0,0,0,5.4,0V30.71l-5.4,1.77Z"/><path class="cls-37" d="M25.07,30l.72-1.84a.48.48,0,0,0-.44-.65H23.48a.48.48,0,0,0-.45.3l-1.71,4.35a.48.48,0,0,0,.44.65h1a.12.12,0,0,1,.11.17l-.72,1.84a.48.48,0,0,0,.44.65h1.86a.48.48,0,0,0,.45-.3l1.71-4.35a.48.48,0,0,0-.44-.65h-1A.12.12,0,0,1,25.07,30Z"/></svg>