<svg id="Layer_1" data-name="Layer 1" xmlns="http://www.w3.org/2000/svg" xmlns:xlink="http://www.w3.org/1999/xlink" viewBox="0 0 48 48"><defs><style>.cls-1{fill:url(#linear-gradient);}.cls-2{fill:url(#linear-gradient-2);}.cls-3{fill:url(#linear-gradient-3);}.cls-4{fill:url(#linear-gradient-4);}.cls-5{fill:url(#linear-gradient-5);}.cls-6{fill:url(#linear-gradient-6);}.cls-7{fill:url(#linear-gradient-7);}</style><linearGradient id="linear-gradient" x1="24" y1="46.85" x2="24" y2="38.43" gradientUnits="userSpaceOnUse"><stop offset="0" stop-color="#fff"/><stop offset="0.52" stop-color="#cce2e6"/><stop offset="1" stop-color="#8fa1bb"/></linearGradient><linearGradient id="linear-gradient-2" x1="24" y1="29.81" x2="24" y2="-25.04" gradientUnits="userSpaceOnUse"><stop offset="0" stop-color="#273a9b"/><stop offset="0.56" stop-color="#202f65"/><stop offset="1" stop-color="#021e2f"/></linearGradient><linearGradient id="linear-gradient-3" x1="28.25" y1="49.98" x2="28.25" y2="-7.92" xlink:href="#linear-gradient-2"/><linearGradient id="linear-gradient-4" x1="24.02" y1="27.07" x2="24.02" y2="-6.99" gradientUnits="userSpaceOnUse"><stop offset="0" stop-color="#f3c57a"/><stop offset="0.49" stop-color="#f39369"/><stop offset="1" stop-color="#e94867"/></linearGradient><linearGradient id="linear-gradient-5" x1="25.15" y1="37.78" x2="25.15" y2="-17.49" xlink:href="#linear-gradient-4"/><linearGradient id="linear-gradient-6" x1="16.65" y1="20.75" x2="16.65" y2="-9.09" xlink:href="#linear-gradient-4"/><linearGradient id="linear-gradient-7" x1="17.22" y1="20.75" x2="17.22" y2="-9.09" xlink:href="#linear-gradient-4"/></defs><title>favourite, favorite, location, heart, navigation</title><ellipse class="cls-1" cx="24" cy="43.48" rx="10.5" ry="1.5"/><path class="cls-2" d="M36.14,32.32,25.19,43.27a1.69,1.69,0,0,1-2.39,0L11.86,32.32a17.16,17.16,0,0,1,0-24.27h0a17.16,17.16,0,0,1,24.27,0h0A17.16,17.16,0,0,1,36.14,32.32Z"/><path class="cls-3" d="M15.45,5.32h0a14.27,14.27,0,0,1,8.61,13.1V43.76a1.68,1.68,0,0,0,1.13-.49L35.81,32.65c6.65-6.65,7.1-17.51.6-24.31A17.15,17.15,0,0,0,15.45,5.32Z"/><path class="cls-4" d="M23.74,17.64,22.14,16a4.42,4.42,0,0,0-6.25,0h0a4.42,4.42,0,0,0,0,6.25l7.34,7.34a1.11,1.11,0,0,0,1.57,0l7.34-7.34a4.42,4.42,0,0,0,0-6.25h0a4.42,4.42,0,0,0-6.25,0l-1.6,1.6A.39.39,0,0,1,23.74,17.64Z"/><path class="cls-5" d="M32.14,16a4.42,4.42,0,0,0-6.25,0l-1.6,1.6a.39.39,0,0,1-.56,0L22.14,16a4.41,4.41,0,0,0-5.29-.71l.84.25A8.8,8.8,0,0,1,24,24V30a1.11,1.11,0,0,0,.79-.33l7.34-7.34a4.42,4.42,0,0,0,0-6.25Z"/><circle class="cls-6" cx="16.65" cy="18.74" r="0.94"/><circle class="cls-7" cx="17.22" cy="16.92" r="0.36"/></svg>