<svg id="Layer_1" data-name="Layer 1" xmlns="http://www.w3.org/2000/svg" xmlns:xlink="http://www.w3.org/1999/xlink" viewBox="0 0 48 48"><defs><style>.cls-1{fill:url(#linear-gradient);}.cls-2{fill:url(#linear-gradient-2);}.cls-3{fill:url(#linear-gradient-3);}.cls-4{fill:url(#linear-gradient-4);}.cls-5{fill:url(#linear-gradient-5);}.cls-6{fill:url(#linear-gradient-6);}.cls-7{fill:url(#linear-gradient-7);}.cls-8{fill:url(#linear-gradient-8);}.cls-9{fill:url(#linear-gradient-9);}.cls-10{fill:url(#linear-gradient-10);}.cls-11{fill:url(#linear-gradient-11);}.cls-12{fill:url(#linear-gradient-12);}.cls-13{fill:url(#linear-gradient-13);}.cls-14{fill:url(#linear-gradient-14);}.cls-15{fill:url(#linear-gradient-15);}.cls-16{fill:url(#linear-gradient-16);}.cls-17{fill:url(#linear-gradient-17);}.cls-18{fill:url(#linear-gradient-18);}.cls-19{font-size:14px;fill:#fff;font-family:Calibri-Bold, Calibri;font-weight:700;letter-spacing:-0.03em;}.cls-20{font-size:13px;letter-spacing:-0.03em;}</style><linearGradient id="linear-gradient" x1="36.75" y1="50.38" x2="36.75" y2="31.11" gradientUnits="userSpaceOnUse"><stop offset="0" stop-color="#f3c57a"/><stop offset="0.49" stop-color="#f39369"/><stop offset="1" stop-color="#e94867"/></linearGradient><linearGradient id="linear-gradient-2" x1="21" y1="69.25" x2="21" y2="-27.66" gradientUnits="userSpaceOnUse"><stop offset="0" stop-color="#273a9b"/><stop offset="0.56" stop-color="#202f65"/><stop offset="1" stop-color="#021e2f"/></linearGradient><linearGradient id="linear-gradient-3" x1="12" y1="79.71" x2="12" y2="-24.57" xlink:href="#linear-gradient-2"/><linearGradient id="linear-gradient-4" x1="-8.25" y1="-9.75" x2="14.13" y2="12.63" xlink:href="#linear-gradient"/><linearGradient id="linear-gradient-5" x1="13.5" y1="65.25" x2="13.5" y2="-1.3" xlink:href="#linear-gradient-2"/><linearGradient id="linear-gradient-6" x1="24.75" y1="65.25" x2="24.75" y2="-1.3" xlink:href="#linear-gradient-2"/><linearGradient id="linear-gradient-7" x1="29.25" y1="65.25" x2="29.25" y2="-1.3" xlink:href="#linear-gradient-2"/><linearGradient id="linear-gradient-8" x1="18" y1="65.25" x2="18" y2="-1.3" xlink:href="#linear-gradient-2"/><linearGradient id="linear-gradient-9" x1="15.75" y1="65.25" x2="15.75" y2="-1.3" xlink:href="#linear-gradient-2"/><linearGradient id="linear-gradient-10" x1="27" y1="65.25" x2="27" y2="-1.3" xlink:href="#linear-gradient-2"/><linearGradient id="linear-gradient-11" x1="13.5" y1="61.88" x2="13.5" y2="77.88" xlink:href="#linear-gradient-2"/><linearGradient id="linear-gradient-12" x1="24.75" y1="61.88" x2="24.75" y2="77.88" xlink:href="#linear-gradient-2"/><linearGradient id="linear-gradient-13" x1="29.25" y1="61.88" x2="29.25" y2="77.88" xlink:href="#linear-gradient-2"/><linearGradient id="linear-gradient-14" x1="18" y1="61.88" x2="18" y2="77.88" xlink:href="#linear-gradient-2"/><linearGradient id="linear-gradient-15" x1="15.75" y1="61.88" x2="15.75" y2="77.88" xlink:href="#linear-gradient-2"/><linearGradient id="linear-gradient-16" x1="27" y1="61.88" x2="27" y2="77.88" xlink:href="#linear-gradient-2"/><linearGradient id="linear-gradient-17" x1="28.5" y1="46.37" x2="28.5" y2="-1.29" xlink:href="#linear-gradient"/><linearGradient id="linear-gradient-18" x1="19.94" y1="54.53" x2="30.69" y2="5.4" xlink:href="#linear-gradient"/></defs><title>format, extension, png, page, file</title><path class="cls-1" d="M30,33.46H43.5a0,0,0,0,1,0,0v7.47A4.08,4.08,0,0,1,39.42,45H30a0,0,0,0,1,0,0V33.46A0,0,0,0,1,30,33.46Z"/><path class="cls-2" d="M32.85,3H17.46a2.31,2.31,0,0,0-1.64.68L5.18,14.33A2.31,2.31,0,0,0,4.5,16V40.35A4.65,4.65,0,0,0,9.15,45h23.7a4.65,4.65,0,0,0,4.65-4.65V7.65A4.65,4.65,0,0,0,32.85,3Z"/><path class="cls-3" d="M19.5,3h-2a2.31,2.31,0,0,0-1.64.68L11,8.5,5.18,14.33A2.31,2.31,0,0,0,4.5,16V40.35A4.65,4.65,0,0,0,9.15,45H16.5V16.74a5,5,0,0,1,1-2.94,10.2,10.2,0,0,0,2-6.05Z"/><path class="cls-4" d="M10.15,15A6.35,6.35,0,0,0,16.5,8.65V3.22a2.31,2.31,0,0,0-.68.46L5.18,14.33a2.31,2.31,0,0,0-.46.68Z"/><path class="cls-5" d="M16.5,22.5a.75.75,0,0,0-.75-.75h-4.5a.75.75,0,0,0,0,1.5h4.5a.75.75,0,0,0,.75-.75Z"/><path class="cls-6" d="M30.75,21.75h-12a.75.75,0,0,0-.75.75h0a.75.75,0,0,0,.75.75h12a.75.75,0,0,0,0-1.5Z"/><path class="cls-7" d="M30.75,27.75h-3a.75.75,0,0,0-.75.75h0a.75.75,0,0,0,.75.75h3a.75.75,0,0,0,0-1.5Z"/><path class="cls-8" d="M25.5,28.5a.75.75,0,0,0-.75-.75H11.25a.75.75,0,0,0,0,1.5h13.5a.75.75,0,0,0,.75-.75Z"/><path class="cls-9" d="M21,34.5a.75.75,0,0,0-.75-.75h-9a.75.75,0,0,0,0,1.5h9A.75.75,0,0,0,21,34.5Z"/><path class="cls-10" d="M30.75,33.75h-7.5a.75.75,0,0,0-.75.75h0a.75.75,0,0,0,.75.75h7.5a.75.75,0,0,0,0-1.5Z"/><path class="cls-11" d="M16.5,21.75a.75.75,0,0,0-.75-.75h-4.5a.75.75,0,0,0,0,1.5h4.5a.75.75,0,0,0,.75-.75Z"/><path class="cls-12" d="M30.75,21h-12a.75.75,0,0,0-.75.75h0a.75.75,0,0,0,.75.75h12a.75.75,0,0,0,0-1.5Z"/><path class="cls-13" d="M30.75,27h-3a.75.75,0,0,0-.75.75h0a.75.75,0,0,0,.75.75h3a.75.75,0,0,0,0-1.5Z"/><path class="cls-14" d="M25.5,27.75a.75.75,0,0,0-.75-.75H11.25a.75.75,0,0,0,0,1.5h13.5a.75.75,0,0,0,.75-.75Z"/><path class="cls-15" d="M21,33.75a.75.75,0,0,0-.75-.75h-9a.75.75,0,0,0,0,1.5h9a.75.75,0,0,0,.75-.75Z"/><path class="cls-16" d="M30.75,33h-7.5a.75.75,0,0,0-.75.75h0a.75.75,0,0,0,.75.75h7.5a.75.75,0,0,0,0-1.5Z"/><path class="cls-17" d="M39.42,18H16.55a3.05,3.05,0,0,0-3.05,3.05v13.4a3.05,3.05,0,0,0,3.05,3.05H39.42a4.26,4.26,0,0,1,4.08,3h0V22.08A4.08,4.08,0,0,0,39.42,18Z"/><path class="cls-18" d="M37.5,18H16.55a3.05,3.05,0,0,0-3.05,3.05v13.4a3.05,3.05,0,0,0,3.05,3.05H37.5Z"/><text class="cls-19" transform="translate(28.5 27.49)"><tspan xml:space="preserve">     </tspan><tspan class="cls-20"><tspan x="-11.56" y="4">PNG</tspan></tspan></text></svg>