<svg id="Layer_1" data-name="Layer 1" xmlns="http://www.w3.org/2000/svg" xmlns:xlink="http://www.w3.org/1999/xlink" viewBox="0 0 48 48"><defs><style>.cls-1{fill:url(#linear-gradient);}.cls-2{fill:url(#linear-gradient-2);}.cls-3{fill:url(#linear-gradient-3);}.cls-4{fill:url(#linear-gradient-4);}.cls-5{fill:url(#linear-gradient-5);}.cls-6{fill:url(#linear-gradient-6);}.cls-7{fill:url(#linear-gradient-7);}</style><linearGradient id="linear-gradient" x1="9.26" y1="58.83" x2="9.26" y2="-24.2" gradientUnits="userSpaceOnUse"><stop offset="0" stop-color="#273a9b"/><stop offset="0.56" stop-color="#202f65"/><stop offset="1" stop-color="#021e2f"/></linearGradient><linearGradient id="linear-gradient-2" x1="24.72" y1="105.75" x2="24.72" y2="8.52" gradientUnits="userSpaceOnUse"><stop offset="0" stop-color="#27e9de"/><stop offset="0.52" stop-color="#03a4ec"/><stop offset="1" stop-color="#2547a8"/></linearGradient><linearGradient id="linear-gradient-3" x1="20.97" y1="73" x2="20.97" y2="23.21" xlink:href="#linear-gradient-2"/><linearGradient id="linear-gradient-4" x1="24.72" y1="54.58" x2="24.72" y2="37.98" xlink:href="#linear-gradient-2"/><linearGradient id="linear-gradient-5" x1="20.97" y1="43.25" x2="20.97" y2="-3.13" xlink:href="#linear-gradient"/><linearGradient id="linear-gradient-6" x1="6.72" y1="86" x2="6.72" y2="19.54" xlink:href="#linear-gradient-2"/><linearGradient id="linear-gradient-7" x1="42" y1="35.5" x2="42" y2="4.94" xlink:href="#linear-gradient"/></defs><title>gas, fuel, pointer, arrow, right</title><path class="cls-1" d="M14.8,42H7.54a3.82,3.82,0,0,1-3.82-3.82v-13A4.2,4.2,0,0,1,7.92,21h1.8a1.5,1.5,0,0,1,1.5,1.5h0A1.5,1.5,0,0,1,9.72,24H7.92a1.2,1.2,0,0,0-1.2,1.2v13a.82.82,0,0,0,.82.82H14.8Z"/><path class="cls-2" d="M17.08,3h9.47A10.17,10.17,0,0,1,36.72,13.17V42a0,0,0,0,1,0,0h-24a0,0,0,0,1,0,0V7.36A4.36,4.36,0,0,1,17.08,3Z"/><rect class="cls-3" x="12.72" y="19" width="16.5" height="23"/><rect class="cls-4" x="11.22" y="42" width="27" height="3" rx="1.36" ry="1.36"/><path class="cls-5" d="M12.72,12h13.5a3,3,0,0,1,3,3v4.57A1.43,1.43,0,0,1,27.79,21H12.72a0,0,0,0,1,0,0V12A0,0,0,0,1,12.72,12Z"/><path class="cls-6" d="M3.72,27H6.63a3.08,3.08,0,0,1,3.08,3.08V34.8A1.2,1.2,0,0,1,8.52,36H3.72a0,0,0,0,1,0,0V27A0,0,0,0,1,3.72,27Z"/><path class="cls-7" d="M39.72,22.28v6.33a.7.7,0,0,0,1.19.49l3.17-3.17a.7.7,0,0,0,0-1l-3.17-3.17A.7.7,0,0,0,39.72,22.28Z"/></svg>