<svg id="Layer_1" data-name="Layer 1" xmlns="http://www.w3.org/2000/svg" xmlns:xlink="http://www.w3.org/1999/xlink" viewBox="0 0 48 48"><defs><style>.cls-1{fill:url(#linear-gradient);}.cls-2{fill:url(#linear-gradient-2);}.cls-3{fill:url(#linear-gradient-3);}.cls-4{fill:url(#linear-gradient-4);}.cls-5{fill:url(#linear-gradient-5);}.cls-6{fill:url(#linear-gradient-6);}.cls-7{fill:url(#linear-gradient-7);}.cls-8{fill:url(#linear-gradient-8);}.cls-9{fill:url(#linear-gradient-9);}.cls-10{fill:url(#linear-gradient-10);}.cls-11{fill:url(#linear-gradient-11);}</style><linearGradient id="linear-gradient" x1="24" y1="82.71" x2="24" y2="-22.71" gradientUnits="userSpaceOnUse"><stop offset="0" stop-color="#27e9de"/><stop offset="0.52" stop-color="#03a4ec"/><stop offset="1" stop-color="#2547a8"/></linearGradient><linearGradient id="linear-gradient-2" x1="24.43" y1="88.96" x2="24.43" y2="0.6" xlink:href="#linear-gradient"/><linearGradient id="linear-gradient-3" y1="59.63" x2="24" y2="20.97" xlink:href="#linear-gradient"/><linearGradient id="linear-gradient-4" x1="24" y1="23.36" x2="24" y2="53.83" gradientUnits="userSpaceOnUse"><stop offset="0" stop-color="#fff"/><stop offset="0.52" stop-color="#cce2e6"/><stop offset="1" stop-color="#8fa1bb"/></linearGradient><linearGradient id="linear-gradient-5" x1="24" y1="38.28" x2="24" y2="-6.3" xlink:href="#linear-gradient-4"/><linearGradient id="linear-gradient-6" x1="17.73" y1="30.32" x2="17.73" y2="-4.33" xlink:href="#linear-gradient"/><linearGradient id="linear-gradient-7" x1="18.43" y1="38.68" x2="18.43" y2="9.97" xlink:href="#linear-gradient"/><linearGradient id="linear-gradient-8" x1="21.79" y1="33.73" x2="21.79" y2="19.8" gradientTransform="translate(25.85 -7.34) rotate(45)" xlink:href="#linear-gradient"/><linearGradient id="linear-gradient-9" x1="29.94" y1="30.32" x2="29.94" y2="-4.33" xlink:href="#linear-gradient"/><linearGradient id="linear-gradient-10" x1="29.24" y1="38.68" x2="29.24" y2="9.97" xlink:href="#linear-gradient"/><linearGradient id="linear-gradient-11" y1="34.07" x2="24" y2="19.37" xlink:href="#linear-gradient"/></defs><title>global, globe, earth, protection, shield</title><path class="cls-1" d="M30.72,6A28.23,28.23,0,0,1,25,3.24a1.81,1.81,0,0,0-1.94,0A28.23,28.23,0,0,1,17.28,6,26.16,26.16,0,0,1,8,7.57,1.84,1.84,0,0,0,6.06,9.39v19a14.63,14.63,0,0,0,7.31,12.67l3.55,2a14.15,14.15,0,0,0,14.15,0l3.55-2a14.63,14.63,0,0,0,7.31-12.67v-19A1.84,1.84,0,0,0,40,7.57,26.16,26.16,0,0,1,30.72,6Z"/><path class="cls-2" d="M40,7.57H39.1A26.83,26.83,0,0,1,30.72,6,28.24,28.24,0,0,1,25,3.24a1.61,1.61,0,0,0-1.8,0A28.25,28.25,0,0,1,17.43,6,26.84,26.84,0,0,1,9.06,7.57h-1A1.84,1.84,0,0,0,6.92,8l10.56.68a7,7,0,0,1,6.53,7V45a14.14,14.14,0,0,0,7.07-1.9l3.55-2a14.63,14.63,0,0,0,7.31-12.67v-19A1.84,1.84,0,0,0,40,7.57Z"/><circle class="cls-3" cx="24" cy="26.25" r="9.75"/><circle class="cls-4" cx="24" cy="24.75" r="9.75"/><circle class="cls-5" cx="24" cy="24.75" r="8.36"/><path class="cls-6" d="M21.21,21.59V15.41a9.74,9.74,0,0,0-5.36,14.7l1.34-1.34a1.82,1.82,0,0,0,.53-1.28v-.92a1,1,0,0,1,.29-.71l2.43-2.43A2.59,2.59,0,0,0,21.21,21.59Z"/><path class="cls-7" d="M15.64,24.75a8.31,8.31,0,0,0,1.23,4.34l.33-.33a1.82,1.82,0,0,0,.53-1.28v-.92a1,1,0,0,1,.29-.71l2.43-2.43a2.59,2.59,0,0,0,.76-1.83V16.88A8.35,8.35,0,0,0,15.64,24.75Z"/><rect class="cls-8" x="20.4" y="26.14" width="2.79" height="2.79" rx="1.27" ry="1.27" transform="translate(-13.09 23.47) rotate(-45)"/><path class="cls-9" d="M31.66,27.89v-.67a.91.91,0,0,1,.27-.64l1.82-1.82a9.73,9.73,0,0,0-3.59-7.55l-2.44,2.44a.82.82,0,0,0-.24.58v3.5a.82.82,0,0,0,.24.58l.9.9A1.14,1.14,0,0,1,29,26v1.76a1.14,1.14,0,0,1-.33.81l-2,2a1.73,1.73,0,0,0-.51,1.22v2.49a9.76,9.76,0,0,0,6.49-5l-.73-.82A.91.91,0,0,1,31.66,27.89Z"/><path class="cls-10" d="M29.17,18.19l-1.44,1.45a.82.82,0,0,0-.24.58v3.5a.82.82,0,0,0,.24.58l.9.9A1.14,1.14,0,0,1,29,26v1.76a1.14,1.14,0,0,1-.33.81l-2,2a1.73,1.73,0,0,0-.51,1.22v1.05a8.37,8.37,0,0,0,5.55-4.77.91.91,0,0,1,0-.17v-.67a.91.91,0,0,1,.27-.64l.28-.28a8.3,8.3,0,0,0-3-8.1Z"/><circle class="cls-11" cx="24" cy="24.75" r="0.52"/></svg>