<svg id="Layer_1" data-name="Layer 1" xmlns="http://www.w3.org/2000/svg" xmlns:xlink="http://www.w3.org/1999/xlink" viewBox="0 0 48 48"><defs><style>.cls-1{fill:url(#linear-gradient);}.cls-2{fill:url(#linear-gradient-2);}.cls-3{fill:url(#linear-gradient-3);}.cls-4{fill:url(#linear-gradient-4);}.cls-5{fill:url(#linear-gradient-5);}.cls-6{fill:url(#linear-gradient-6);}.cls-7{fill:url(#linear-gradient-7);}.cls-8{fill:url(#linear-gradient-8);}.cls-9{fill:url(#linear-gradient-9);}.cls-10{fill:url(#linear-gradient-10);}.cls-11{fill:url(#linear-gradient-11);}.cls-12{fill:url(#linear-gradient-12);}.cls-13{fill:url(#linear-gradient-13);}.cls-14{fill:url(#linear-gradient-14);}.cls-15{fill:url(#linear-gradient-15);}.cls-16{fill:url(#linear-gradient-16);}.cls-17{fill:url(#linear-gradient-17);}.cls-18{fill:url(#linear-gradient-18);}.cls-19{fill:url(#linear-gradient-19);}</style><linearGradient id="linear-gradient" x1="35.96" y1="41" x2="11.34" y2="33.49" gradientUnits="userSpaceOnUse"><stop offset="0" stop-color="#273a9b"/><stop offset="0.56" stop-color="#202f65"/><stop offset="1" stop-color="#021e2f"/></linearGradient><linearGradient id="linear-gradient-2" x1="13.19" y1="49.52" x2="11.57" y2="45.08" xlink:href="#linear-gradient"/><linearGradient id="linear-gradient-3" x1="-630.76" y1="34.99" x2="-630.76" y2="112.33" gradientTransform="matrix(-1, 0, 0, 1, -622.51, 0)" xlink:href="#linear-gradient"/><linearGradient id="linear-gradient-4" x1="-26.41" y1="14.39" x2="20.33" y2="40.89" xlink:href="#linear-gradient"/><linearGradient id="linear-gradient-5" x1="5.36" y1="49.85" x2="9.65" y2="40.43" xlink:href="#linear-gradient"/><linearGradient id="linear-gradient-6" x1="-3.94" y1="35.33" x2="9.12" y2="24.83" xlink:href="#linear-gradient"/><linearGradient id="linear-gradient-7" x1="55.59" y1="38.38" x2="24.6" y2="28.92" gradientUnits="userSpaceOnUse"><stop offset="0" stop-color="#27e9de"/><stop offset="0.52" stop-color="#03a4ec"/><stop offset="1" stop-color="#2547a8"/></linearGradient><linearGradient id="linear-gradient-8" x1="26.69" y1="49.52" x2="25.07" y2="45.08" xlink:href="#linear-gradient-7"/><linearGradient id="linear-gradient-9" x1="-644.26" y1="34.99" x2="-644.26" y2="112.33" gradientTransform="matrix(-1, 0, 0, 1, -622.51, 0)" xlink:href="#linear-gradient"/><linearGradient id="linear-gradient-10" x1="-23.64" y1="3.81" x2="37.52" y2="38.48" xlink:href="#linear-gradient-7"/><linearGradient id="linear-gradient-11" x1="18.86" y1="49.85" x2="23.15" y2="40.43" xlink:href="#linear-gradient-7"/><linearGradient id="linear-gradient-12" x1="9.56" y1="26.33" x2="22.63" y2="15.83" xlink:href="#linear-gradient-7"/><linearGradient id="linear-gradient-13" x1="75.17" y1="35.78" x2="37.87" y2="24.39" xlink:href="#linear-gradient-7"/><linearGradient id="linear-gradient-14" x1="40.19" y1="49.52" x2="38.57" y2="45.08" xlink:href="#linear-gradient-7"/><linearGradient id="linear-gradient-15" x1="-657.76" y1="34.99" x2="-657.76" y2="112.33" gradientTransform="matrix(-1, 0, 0, 1, -622.51, 0)" xlink:href="#linear-gradient"/><linearGradient id="linear-gradient-16" x1="-20.77" y1="-6.67" x2="54.68" y2="36.09" xlink:href="#linear-gradient-7"/><linearGradient id="linear-gradient-17" x1="32.36" y1="49.85" x2="36.65" y2="40.43" xlink:href="#linear-gradient-7"/><linearGradient id="linear-gradient-18" x1="23.06" y1="17.41" x2="36.13" y2="6.91" xlink:href="#linear-gradient-7"/><linearGradient id="linear-gradient-19" x1="10.5" y1="17.89" x2="10.5" y2="-1.48" xlink:href="#linear-gradient-7"/></defs><title>graph, chart, bar, arrow, up</title><polygon class="cls-1" points="15 42.2 9.51 43.83 9.51 25.46 15 23.71 15 42.2"/><path class="cls-2" d="M6.35,42.77l3.45,2a1.41,1.41,0,0,0,1.42,0l3.45-2a.66.66,0,0,0,0-1.15l-3.45-2a1.41,1.41,0,0,0-1.42,0l-3.45,2A.66.66,0,0,0,6.35,42.77Z"/><path class="cls-3" d="M9.8,39.63l-3.45,2a.66.66,0,0,0,0,1.15l3.45,2a1.41,1.41,0,0,0,.68.19V39.44A1.41,1.41,0,0,0,9.8,39.63Z"/><path class="cls-4" d="M6,23.71V42.2H6a.66.66,0,0,0,.33.57l3.45,2a1.41,1.41,0,0,0,.68.19V25.46Z"/><path class="cls-5" d="M10.49,45V39.44h0a1.41,1.41,0,0,0-.68.19l-3.45,2a.66.66,0,0,0,0,1.15l3.45,2a1.41,1.41,0,0,0,.33.14A1.44,1.44,0,0,0,10.49,45Z"/><path class="cls-6" d="M6.35,24.29l3.45,2a1.41,1.41,0,0,0,1.42,0l3.45-2a.66.66,0,0,0,0-1.15l-3.45-2a1.41,1.41,0,0,0-1.42,0l-3.45,2A.66.66,0,0,0,6.35,24.29Z"/><polygon class="cls-7" points="28.5 42.2 23.01 43.83 23.01 16.46 28.5 14.71 28.5 42.2"/><path class="cls-8" d="M19.85,42.77l3.45,2a1.41,1.41,0,0,0,1.41,0l3.45-2a.66.66,0,0,0,0-1.15l-3.45-2a1.41,1.41,0,0,0-1.41,0l-3.45,2A.66.66,0,0,0,19.85,42.77Z"/><path class="cls-9" d="M23.3,39.63l-3.45,2a.66.66,0,0,0,0,1.15l3.45,2A1.41,1.41,0,0,0,24,45V39.44A1.41,1.41,0,0,0,23.3,39.63Z"/><path class="cls-10" d="M19.49,14.71V42.2h0a.66.66,0,0,0,.33.57l3.45,2A1.41,1.41,0,0,0,24,45V16.46Z"/><path class="cls-11" d="M24,45V39.44h0a1.41,1.41,0,0,0-.68.19l-3.45,2a.66.66,0,0,0,0,1.15l3.45,2a1.41,1.41,0,0,0,.33.14A1.44,1.44,0,0,0,24,45Z"/><path class="cls-12" d="M19.85,15.29l3.45,2a1.41,1.41,0,0,0,1.41,0l3.45-2a.66.66,0,0,0,0-1.15l-3.45-2a1.41,1.41,0,0,0-1.41,0l-3.45,2A.66.66,0,0,0,19.85,15.29Z"/><polygon class="cls-13" points="42.01 42.2 36.51 43.83 36.51 7.54 42.01 5.8 42.01 42.2"/><path class="cls-14" d="M33.35,42.77l3.45,2a1.41,1.41,0,0,0,1.41,0l3.45-2a.66.66,0,0,0,0-1.15l-3.45-2a1.41,1.41,0,0,0-1.41,0l-3.45,2A.66.66,0,0,0,33.35,42.77Z"/><path class="cls-15" d="M36.81,39.63l-3.45,2a.66.66,0,0,0,0,1.15l3.45,2a1.41,1.41,0,0,0,.68.19V39.44A1.41,1.41,0,0,0,36.81,39.63Z"/><path class="cls-16" d="M33,5.8V42.2h0a.66.66,0,0,0,.33.57l3.45,2a1.41,1.41,0,0,0,.68.19V7.54Z"/><path class="cls-17" d="M37.49,45V39.44h0a1.41,1.41,0,0,0-.68.19l-3.45,2a.66.66,0,0,0,0,1.15l3.45,2a1.41,1.41,0,0,0,.33.14A1.44,1.44,0,0,0,37.49,45Z"/><path class="cls-18" d="M33.35,6.37l3.45,2a1.41,1.41,0,0,0,1.41,0l3.45-2a.66.66,0,0,0,0-1.15l-3.45-2a1.41,1.41,0,0,0-1.41,0l-3.45,2A.66.66,0,0,0,33.35,6.37Z"/><path class="cls-19" d="M14.55,13.05l-3.3-4.13a1,1,0,0,0-1.5,0l-3.3,4.13a.42.42,0,0,0,.33.68h1a.42.42,0,0,1,.42.42v1a2.31,2.31,0,0,0,2.31,2.31h0a2.31,2.31,0,0,0,2.31-2.31v-1a.42.42,0,0,1,.42-.42h1A.42.42,0,0,0,14.55,13.05Z"/></svg>