<svg id="Layer_1" data-name="Layer 1" xmlns="http://www.w3.org/2000/svg" xmlns:xlink="http://www.w3.org/1999/xlink" viewBox="0 0 48 48"><defs><style>.cls-1{fill:url(#linear-gradient);}.cls-2{fill:url(#linear-gradient-2);}.cls-3{fill:url(#linear-gradient-3);}.cls-4{fill:url(#linear-gradient-4);}.cls-5{fill:url(#linear-gradient-5);}.cls-6{fill:url(#linear-gradient-6);}.cls-7{fill:url(#linear-gradient-7);}.cls-8{fill:url(#linear-gradient-8);}.cls-9{fill:url(#linear-gradient-9);}.cls-10{fill:url(#linear-gradient-10);}.cls-11{fill:url(#linear-gradient-11);}</style><linearGradient id="linear-gradient" x1="38.99" y1="30.92" x2="1.58" y2="11.76" gradientUnits="userSpaceOnUse"><stop offset="0" stop-color="#27e9de"/><stop offset="0.52" stop-color="#03a4ec"/><stop offset="1" stop-color="#2547a8"/></linearGradient><linearGradient id="linear-gradient-2" x1="24" y1="70.95" x2="24" y2="-1.93" xlink:href="#linear-gradient"/><linearGradient id="linear-gradient-3" x1="24.01" y1="48.72" x2="24.01" y2="34.79" xlink:href="#linear-gradient"/><linearGradient id="linear-gradient-4" x1="24" y1="23.96" x2="24" y2="46.34" gradientUnits="userSpaceOnUse"><stop offset="0" stop-color="#fff"/><stop offset="0.52" stop-color="#cce2e6"/><stop offset="1" stop-color="#8fa1bb"/></linearGradient><linearGradient id="linear-gradient-5" x1="24" y1="28.44" x2="24" y2="34.39" xlink:href="#linear-gradient-4"/><linearGradient id="linear-gradient-6" x1="24.66" y1="34.7" x2="24.66" y2="8.9" gradientTransform="translate(-4.79)" xlink:href="#linear-gradient-4"/><linearGradient id="linear-gradient-7" x1="19.86" y1="33.92" x2="19.86" y2="17.25" xlink:href="#linear-gradient-4"/><linearGradient id="linear-gradient-8" x1="-28.14" y1="34.7" x2="-28.14" y2="8.9" gradientTransform="matrix(1, 0, 0, -1, 56.27, 51.17)" xlink:href="#linear-gradient-4"/><linearGradient id="linear-gradient-9" x1="-28.14" y1="33.92" x2="-28.14" y2="17.25" gradientTransform="matrix(-1, 0, 0, 1, 0, 0)" xlink:href="#linear-gradient-4"/><linearGradient id="linear-gradient-10" x1="21.1" y1="32.28" x2="21.1" y2="42.54" xlink:href="#linear-gradient-4"/><linearGradient id="linear-gradient-11" x1="26.9" y1="32.28" x2="26.9" y2="42.54" xlink:href="#linear-gradient-4"/></defs><title>green, house, ecology, plant</title><path class="cls-1" d="M7.09,9.05h5.32a1.09,1.09,0,0,1,1.09,1.09V22.41a0,0,0,0,1,0,0H6a0,0,0,0,1,0,0V10.14A1.09,1.09,0,0,1,7.09,9.05Z"/><path class="cls-2" d="M9.16,43.55H38.84a3.07,3.07,0,0,0,3.07-3.07V25.62a.81.81,0,0,1,.81-.81h0a2.31,2.31,0,0,0,1.49-4.06L25.78,5.1a2.75,2.75,0,0,0-3.56,0L3.79,20.74a2.31,2.31,0,0,0,1.49,4.06h0a.81.81,0,0,1,.81.81V40.49A3.07,3.07,0,0,0,9.16,43.55Z"/><rect class="cls-3" x="19.31" y="36.17" width="9.39" height="7.38"/><path class="cls-4" d="M31.67,20.86H30.43A6.43,6.43,0,0,0,24,27.29a6.43,6.43,0,0,0-6.43-6.43H16.33a.6.6,0,0,0-.6.6v2.42a6.43,6.43,0,0,0,6.43,6.43h.63a.53.53,0,0,1,.53.58l-.4,3.91a.34.34,0,0,1-.31.3,8,8,0,0,0-3.11.85.4.4,0,0,0,0,.69,9.64,9.64,0,0,0,4.52.92,9.64,9.64,0,0,0,4.52-.92.4.4,0,0,0,0-.69,8,8,0,0,0-3.11-.85.34.34,0,0,1-.31-.3l-.4-3.91a.53.53,0,0,1,.53-.58h.63a6.43,6.43,0,0,0,6.43-6.43V21.46A.6.6,0,0,0,31.67,20.86Z"/><path class="cls-5" d="M24,27.65c-2.44,0-4.45.87-4.7,2a6.39,6.39,0,0,0,2.86.68h.63a.53.53,0,0,1,.53.58l-.12,1.15c.26,0,.53,0,.81,0s.55,0,.81,0l-.12-1.15a.53.53,0,0,1,.53-.58h.63a6.39,6.39,0,0,0,2.86-.68C28.45,28.52,26.44,27.65,24,27.65Z"/><path class="cls-6" d="M16.33,20.86h1.24A6.43,6.43,0,0,1,24,27.29v3a0,0,0,0,1,0,0H22.15a6.43,6.43,0,0,1-6.43-6.43V21.46A.6.6,0,0,1,16.33,20.86Z"/><path class="cls-7" d="M20.41,26.16c-1.57-1.73-3.14-3.35-4.67-4.84a.6.6,0,0,0,0,.14v2.42a6.43,6.43,0,0,0,6.43,6.43H24C22.88,28.95,21.68,27.56,20.41,26.16Z"/><path class="cls-8" d="M30.43,20.86h1.85a0,0,0,0,1,0,0v3a6.43,6.43,0,0,1-6.43,6.43H24.6a.6.6,0,0,1-.6-.6V27.29A6.43,6.43,0,0,1,30.43,20.86Z" transform="translate(56.27 51.17) rotate(180)"/><path class="cls-9" d="M27.59,26.16c1.57-1.73,3.14-3.35,4.67-4.84a.6.6,0,0,1,0,.14v2.42a6.43,6.43,0,0,1-6.43,6.43H24C25.12,28.95,26.32,27.56,27.59,26.16Z"/><path class="cls-10" d="M22.89,34.86a.34.34,0,0,1-.3.25,8,8,0,0,0-3.11.85.39.39,0,0,0-.17.21,2.5,2.5,0,0,0,1.34.38A2.17,2.17,0,0,0,22.89,34.86Z"/><path class="cls-11" d="M28.52,36a8,8,0,0,0-3.11-.85.34.34,0,0,1-.3-.25,2.17,2.17,0,0,0,2.24,1.69,2.5,2.5,0,0,0,1.34-.38A.39.39,0,0,0,28.52,36Z"/></svg>