<svg id="Layer_1" data-name="Layer 1" xmlns="http://www.w3.org/2000/svg" xmlns:xlink="http://www.w3.org/1999/xlink" viewBox="0 0 48 48"><defs><style>.cls-1{fill:url(#linear-gradient);}.cls-2{fill:url(#linear-gradient-2);}.cls-3{fill:url(#linear-gradient-3);}.cls-4{fill:url(#linear-gradient-4);}.cls-5{fill:url(#linear-gradient-5);}.cls-6{fill:url(#linear-gradient-6);}.cls-7{fill:url(#linear-gradient-7);}.cls-8{fill:url(#linear-gradient-8);}.cls-9{fill:url(#linear-gradient-9);}.cls-10{fill:url(#linear-gradient-10);}.cls-11{fill:url(#linear-gradient-11);}.cls-12{fill:url(#linear-gradient-12);}.cls-13{fill:url(#linear-gradient-13);}.cls-14{fill:url(#linear-gradient-14);}.cls-15{fill:url(#linear-gradient-15);}.cls-16{fill:url(#linear-gradient-16);}</style><linearGradient id="linear-gradient" x1="24" y1="-23.5" x2="24" y2="71.08" gradientUnits="userSpaceOnUse"><stop offset="0" stop-color="#27e9de"/><stop offset="0.52" stop-color="#03a4ec"/><stop offset="1" stop-color="#2547a8"/></linearGradient><linearGradient id="linear-gradient-2" x1="24.06" y1="75" x2="24.06" y2="24.06" xlink:href="#linear-gradient"/><linearGradient id="linear-gradient-3" x1="24" y1="54.83" x2="24" y2="-63.37" gradientUnits="userSpaceOnUse"><stop offset="0" stop-color="#273a9b"/><stop offset="0.56" stop-color="#202f65"/><stop offset="1" stop-color="#021e2f"/></linearGradient><linearGradient id="linear-gradient-4" y1="24" x2="24" y2="4.66" xlink:href="#linear-gradient"/><linearGradient id="linear-gradient-5" x1="8.31" y1="12.81" x2="8.31" y2="-5.26" gradientUnits="userSpaceOnUse"><stop offset="0" stop-color="#f3c57a"/><stop offset="0.49" stop-color="#f39369"/><stop offset="1" stop-color="#e94867"/></linearGradient><linearGradient id="linear-gradient-6" x1="12" y1="12.81" x2="12" y2="-5.26" xlink:href="#linear-gradient"/><linearGradient id="linear-gradient-7" x1="15.69" y1="12.81" x2="15.69" y2="-5.26" gradientUnits="userSpaceOnUse"><stop offset="0" stop-color="#fff"/><stop offset="0.52" stop-color="#cce2e6"/><stop offset="1" stop-color="#8fa1bb"/></linearGradient><linearGradient id="linear-gradient-8" y1="14.61" x2="24" y2="32.08" xlink:href="#linear-gradient-3"/><linearGradient id="linear-gradient-9" y1="34.96" x2="24" y2="10.67" xlink:href="#linear-gradient-3"/><linearGradient id="linear-gradient-10" y1="32.28" x2="24" y2="22.64" xlink:href="#linear-gradient-3"/><linearGradient id="linear-gradient-11" x1="20.31" y1="30.07" x2="20.31" y2="20.86" xlink:href="#linear-gradient-5"/><linearGradient id="linear-gradient-12" x1="27.69" y1="30.07" x2="27.69" y2="20.86" xlink:href="#linear-gradient-5"/><linearGradient id="linear-gradient-13" x1="20.31" y1="26.9" x2="20.31" y2="18.23" xlink:href="#linear-gradient-5"/><linearGradient id="linear-gradient-14" x1="27.69" y1="26.9" x2="27.69" y2="18.23" xlink:href="#linear-gradient-5"/><linearGradient id="linear-gradient-15" x1="24" y1="28.65" x2="24" y2="22.4" xlink:href="#linear-gradient-5"/><linearGradient id="linear-gradient-16" x1="24" y1="31.78" x2="24" y2="22.22" xlink:href="#linear-gradient-5"/></defs><title>lethal, virus, browser, website, webpage</title><rect class="cls-1" x="3" y="4.5" width="42" height="39" rx="3.07" ry="3.07"/><rect class="cls-2" x="15.12" y="22.98" width="17.88" height="20.52"/><path class="cls-3" d="M41.93,4.5H6.07A3.07,3.07,0,0,0,3,7.57V10.5H45V7.57A3.07,3.07,0,0,0,41.93,4.5Z"/><rect class="cls-4" x="3" y="10.5" width="42" height="3"/><circle class="cls-5" cx="8.31" cy="7.5" r="0.73"/><circle class="cls-6" cx="12" cy="7.5" r="0.73"/><circle class="cls-7" cx="15.69" cy="7.5" r="0.73"/><path class="cls-8" d="M26.79,16.65H21.85C18,16.65,15.25,19,15,22.2a6,6,0,0,0,3.63,6,1.43,1.43,0,0,1,.85,1.32v1.24c0,.59.34.92.75.92h.47a.75.75,0,0,0,.75-.75h0a.75.75,0,1,1,1.5,0h0a.75.75,0,0,0,.75.75h.56A.75.75,0,0,0,25,30.9h0a.75.75,0,1,1,1.5,0h0a.75.75,0,0,0,.75.75h.47a.75.75,0,0,0,.75-.75V29.49a1.43,1.43,0,0,1,.85-1.32,6,6,0,0,0,3.63-6A6.14,6.14,0,0,0,26.79,16.65Z"/><path class="cls-9" d="M29.4,28.15a6,6,0,0,0,3.49-4.44,6.18,6.18,0,0,0-6.09-4.87h-.27a7.54,7.54,0,0,0-3.19.59,2.34,2.34,0,0,1-1,.22h-.15a2.38,2.38,0,0,1-3.86,1,2.3,2.3,0,0,1-1.55.1,5.59,5.59,0,0,0-1.66,3.06,6,6,0,0,0,3.48,4.38,1.47,1.47,0,0,1,.9,1.34v1.24c0,.59.34.92.75.92h.47a.75.75,0,0,0,.75-.75.75.75,0,1,1,1.5,0,.75.75,0,0,0,.75.75h.56A.75.75,0,0,0,25,30.9a.75.75,0,1,1,1.5,0,.75.75,0,0,0,.75.75h.47a.75.75,0,0,0,.75-.75V29.49A1.47,1.47,0,0,1,29.4,28.15Z"/><path class="cls-10" d="M22.94,30.77a.71.71,0,0,1,0,.14.75.75,0,0,0,.75.75h.56A.75.75,0,0,0,25,30.9a.71.71,0,0,1,0-.14V27.15H22.94Z"/><circle class="cls-11" cx="20.31" cy="24.93" r="1.41"/><circle class="cls-12" cx="27.69" cy="24.93" r="1.41"/><path class="cls-13" d="M20.31,24.24A1.41,1.41,0,0,0,19,25.29a1.4,1.4,0,0,0,2.72,0A1.41,1.41,0,0,0,20.31,24.24Z"/><path class="cls-14" d="M27.69,24.24a1.41,1.41,0,0,0-1.36,1.05,1.4,1.4,0,0,0,2.72,0A1.41,1.41,0,0,0,27.69,24.24Z"/><path class="cls-15" d="M24.56,27.52l-.14,0a2.24,2.24,0,0,0-.85,0l-.14,0a.42.42,0,0,1-.42-.66l.64-.88a.42.42,0,0,1,.68,0l.64.88A.42.42,0,0,1,24.56,27.52Z"/><path class="cls-16" d="M23,27.37l.61-.85a.42.42,0,0,1,.68,0l.61.85a.4.4,0,0,0,0-.5L24.34,26a.42.42,0,0,0-.68,0l-.64.88A.4.4,0,0,0,23,27.37Z"/></svg>