<svg id="Layer_1" data-name="Layer 1" xmlns="http://www.w3.org/2000/svg" xmlns:xlink="http://www.w3.org/1999/xlink" viewBox="0 0 48 48"><defs><style>.cls-1{fill:url(#linear-gradient);}.cls-2{fill:url(#linear-gradient-2);}.cls-3{fill:url(#linear-gradient-3);}.cls-4{fill:url(#linear-gradient-4);}.cls-5{fill:url(#linear-gradient-5);}.cls-6{fill:url(#linear-gradient-6);}.cls-7{fill:url(#linear-gradient-7);}</style><linearGradient id="linear-gradient" x1="36.64" y1="23.25" x2="55.08" y2="23.25" gradientUnits="userSpaceOnUse"><stop offset="0" stop-color="#fff"/><stop offset="0.52" stop-color="#cce2e6"/><stop offset="1" stop-color="#8fa1bb"/></linearGradient><linearGradient id="linear-gradient-2" x1="12.53" y1="50.75" x2="12.53" y2="6.74" gradientUnits="userSpaceOnUse"><stop offset="0" stop-color="#273a9b"/><stop offset="0.56" stop-color="#202f65"/><stop offset="1" stop-color="#021e2f"/></linearGradient><linearGradient id="linear-gradient-3" x1="9.93" y1="46.63" x2="12.59" y2="29.96" xlink:href="#linear-gradient-2"/><linearGradient id="linear-gradient-4" x1="19.47" y1="45.62" x2="19.47" y2="-2.75" gradientUnits="userSpaceOnUse"><stop offset="0" stop-color="#f3c57a"/><stop offset="0.49" stop-color="#f39369"/><stop offset="1" stop-color="#e94867"/></linearGradient><linearGradient id="linear-gradient-5" x1="37.47" y1="39.88" x2="37.47" y2="-9.26" xlink:href="#linear-gradient-2"/><linearGradient id="linear-gradient-6" x1="56.89" y1="23.25" x2="28.88" y2="23.25" xlink:href="#linear-gradient"/><linearGradient id="linear-gradient-7" x1="19.47" y1="87" x2="19.47" y2="-13.36" xlink:href="#linear-gradient-4"/></defs><title>megaphone, notification, announcement, ad, advertisement</title><circle class="cls-1" cx="37.5" cy="23.25" r="7.53"/><path class="cls-2" d="M7.47,29.25l2.8,12.59a1.17,1.17,0,0,0,1.14.91h1.29a.78.78,0,0,0,.78-.78V36.62a3.13,3.13,0,0,1,1-2.3l3.12-2.88"/><path class="cls-3" d="M13.94,35a3.11,3.11,0,0,1,.53-.67l3.12-2.88L7.47,29.25l.92,4.14a10,10,0,0,1,2.11.45Z"/><path class="cls-4" d="M7.35,15.75H5.07A2.1,2.1,0,0,0,3,17.85v10.8a2.1,2.1,0,0,0,2.1,2.1H7.35a10,10,0,0,1,3.15.51L36,39.75v-33L10.5,15.24A10,10,0,0,1,7.35,15.75Z"/><rect class="cls-5" x="35.97" y="5.25" width="3" height="36" rx="1.38" ry="1.38"/><path class="cls-6" d="M39,30.64a7.48,7.48,0,0,0,3-1.33V17.2a7.48,7.48,0,0,0-3-1.33Z"/><path class="cls-7" d="M36,6.75l-.1,0L26.9,21a4.85,4.85,0,0,1-4.1,2.26H3v5.4a2.1,2.1,0,0,0,2.1,2.1H7.35a10,10,0,0,1,3.15.51L36,39.75Z"/></svg>