<svg id="Layer_1" data-name="Layer 1" xmlns="http://www.w3.org/2000/svg" xmlns:xlink="http://www.w3.org/1999/xlink" viewBox="0 0 48 48"><defs><style>.cls-1{fill:url(#linear-gradient);}.cls-2{fill:url(#linear-gradient-2);}.cls-3{fill:url(#linear-gradient-3);}.cls-4{fill:url(#linear-gradient-4);}.cls-5{fill:url(#linear-gradient-5);}.cls-6{fill:url(#linear-gradient-6);}.cls-7{fill:url(#linear-gradient-7);}.cls-8{fill:url(#linear-gradient-8);}.cls-9{fill:url(#linear-gradient-9);}.cls-10{fill:url(#linear-gradient-10);}.cls-11{fill:url(#linear-gradient-11);}.cls-12{fill:url(#linear-gradient-12);}.cls-13{fill:url(#linear-gradient-13);}</style><linearGradient id="linear-gradient" x1="29.92" y1="62.17" x2="29.92" y2="-18.56" gradientUnits="userSpaceOnUse"><stop offset="0" stop-color="#273a9b"/><stop offset="0.56" stop-color="#202f65"/><stop offset="1" stop-color="#021e2f"/></linearGradient><linearGradient id="linear-gradient-2" x1="35.64" y1="83.82" x2="35.64" y2="-11.12" xlink:href="#linear-gradient"/><linearGradient id="linear-gradient-3" x1="-831.71" y1="-174" x2="-925.9" y2="-174" gradientTransform="translate(-867.05 -150) rotate(180)" gradientUnits="userSpaceOnUse"><stop offset="0" stop-color="#fff"/><stop offset="0.52" stop-color="#cce2e6"/><stop offset="1" stop-color="#8fa1bb"/></linearGradient><linearGradient id="linear-gradient-4" x1="-810.55" y1="-174" x2="-917.76" y2="-174" xlink:href="#linear-gradient-3"/><linearGradient id="linear-gradient-5" x1="-899.46" y1="-111" x2="-899.46" y2="-231.3" xlink:href="#linear-gradient-3"/><linearGradient id="linear-gradient-6" x1="-898.17" y1="-112.5" x2="-898.17" y2="-232.8" xlink:href="#linear-gradient-3"/><linearGradient id="linear-gradient-7" x1="-897.17" y1="-112.5" x2="-897.17" y2="-232.8" xlink:href="#linear-gradient-3"/><linearGradient id="linear-gradient-8" x1="-887.75" y1="-112.5" x2="-887.75" y2="-232.8" xlink:href="#linear-gradient-3"/><linearGradient id="linear-gradient-9" x1="-883.55" y1="-116.37" x2="-883.55" y2="-236.68" xlink:href="#linear-gradient-3"/><linearGradient id="linear-gradient-10" x1="-896" y1="-112.5" x2="-896" y2="-232.8" xlink:href="#linear-gradient-3"/><linearGradient id="linear-gradient-11" x1="-891.8" y1="-112.5" x2="-891.8" y2="-232.8" xlink:href="#linear-gradient-3"/><linearGradient id="linear-gradient-12" x1="-893.38" y1="-116.08" x2="-893.38" y2="-236.39" xlink:href="#linear-gradient-3"/><linearGradient id="linear-gradient-13" x1="-898.84" y1="-112.5" x2="-898.84" y2="-232.8" xlink:href="#linear-gradient-3"/></defs><title>moon, phase, weather, forecast, night</title><path class="cls-1" d="M24,3a20.88,20.88,0,0,0-9.17,2.13,13.37,13.37,0,0,1,11.65,0,21,21,0,0,1,0,37.72,13.37,13.37,0,0,1-11.65,0A21,21,0,1,0,24,3Z"/><path class="cls-2" d="M29.28,6.79a20.94,20.94,0,0,1,0,34.42,18,18,0,0,0,0-34.42Z"/><path class="cls-3" d="M14.81,42.86a13.37,13.37,0,0,0,11.67,0,21,21,0,0,0,0-37.72,13.37,13.37,0,0,0-11.67,0,21,21,0,0,0,0,37.72Z"/><path class="cls-4" d="M6,24A18,18,0,0,0,29.28,41.21a20.94,20.94,0,0,0,0-34.42A18,18,0,0,0,6,24Z"/><circle class="cls-5" cx="32.42" cy="26.33" r="1.5"/><circle class="cls-6" cx="31.13" cy="20.38" r="0.88"/><circle class="cls-7" cx="30.13" cy="14.88" r="0.13"/><circle class="cls-8" cx="20.71" cy="10.38" r="1.37"/><circle class="cls-9" cx="16.5" cy="16.13" r="0.83"/><circle class="cls-10" cx="28.96" cy="11.79" r="1.29"/><circle class="cls-11" cx="24.75" cy="17.25" r="0.75"/><circle class="cls-12" cx="26.33" cy="23.65" r="0.35"/><circle class="cls-13" cx="31.79" cy="32.13" r="0.62"/></svg>