<svg id="Layer_1" data-name="Layer 1" xmlns="http://www.w3.org/2000/svg" xmlns:xlink="http://www.w3.org/1999/xlink" viewBox="0 0 48 48"><defs><style>.cls-1{fill:url(#linear-gradient);}.cls-2{fill:url(#linear-gradient-2);}.cls-3{fill:url(#linear-gradient-3);}.cls-4{fill:url(#linear-gradient-4);}.cls-5{fill:url(#linear-gradient-5);}.cls-6{fill:url(#linear-gradient-6);}.cls-7{fill:url(#linear-gradient-7);}.cls-8{fill:url(#linear-gradient-8);}.cls-9{fill:url(#linear-gradient-9);}.cls-10{fill:url(#linear-gradient-10);}.cls-11{fill:url(#linear-gradient-11);}.cls-12{fill:url(#linear-gradient-12);}.cls-13{fill:url(#linear-gradient-13);}.cls-14{fill:url(#linear-gradient-14);}.cls-15{fill:url(#linear-gradient-15);}.cls-16{fill:url(#linear-gradient-16);}.cls-17{fill:url(#linear-gradient-17);}.cls-18{fill:url(#linear-gradient-18);}.cls-19{fill:url(#linear-gradient-19);}.cls-20{fill:url(#linear-gradient-20);}</style><linearGradient id="linear-gradient" x1="16.56" y1="40.87" x2="16.56" y2="-10.8" gradientUnits="userSpaceOnUse"><stop offset="0" stop-color="#fff"/><stop offset="0.52" stop-color="#cce2e6"/><stop offset="1" stop-color="#8fa1bb"/></linearGradient><linearGradient id="linear-gradient-2" x1="16.56" y1="56.49" x2="16.56" y2="-7.07" xlink:href="#linear-gradient"/><linearGradient id="linear-gradient-3" x1="8.88" y1="55.81" x2="8.88" y2="-21.2" xlink:href="#linear-gradient"/><linearGradient id="linear-gradient-4" x1="12" y1="55.81" x2="12" y2="-21.2" xlink:href="#linear-gradient"/><linearGradient id="linear-gradient-5" x1="12.64" y1="55.8" x2="12.64" y2="-21.19" xlink:href="#linear-gradient"/><linearGradient id="linear-gradient-6" x1="18.67" y1="55.81" x2="18.67" y2="-21.2" xlink:href="#linear-gradient"/><linearGradient id="linear-gradient-7" x1="24.67" y1="55.81" x2="24.67" y2="-21.2" xlink:href="#linear-gradient"/><linearGradient id="linear-gradient-8" x1="13.38" y1="55.81" x2="13.38" y2="-21.2" xlink:href="#linear-gradient"/><linearGradient id="linear-gradient-9" x1="16.08" y1="55.81" x2="16.08" y2="-21.19" xlink:href="#linear-gradient"/><linearGradient id="linear-gradient-10" x1="7.18" y1="55.8" x2="7.18" y2="-21.19" xlink:href="#linear-gradient"/><linearGradient id="linear-gradient-11" x1="11.57" y1="55.81" x2="11.57" y2="-21.2" xlink:href="#linear-gradient"/><linearGradient id="linear-gradient-12" x1="24" y1="96" x2="24" y2="-9.46" gradientUnits="userSpaceOnUse"><stop offset="0" stop-color="#27e9de"/><stop offset="0.52" stop-color="#03a4ec"/><stop offset="1" stop-color="#2547a8"/></linearGradient><linearGradient id="linear-gradient-13" x1="7.55" y1="60.88" x2="7.55" y2="14.23" xlink:href="#linear-gradient-12"/><linearGradient id="linear-gradient-14" x1="-6.29" y1="80.69" x2="44.21" y2="8.03" xlink:href="#linear-gradient-12"/><linearGradient id="linear-gradient-15" x1="-6.48" y1="-3.77" x2="27.37" y2="30.09" xlink:href="#linear-gradient-12"/><linearGradient id="linear-gradient-16" x1="36" x2="36" y2="-9.46" xlink:href="#linear-gradient-12"/><linearGradient id="linear-gradient-17" x1="18.23" y1="25.07" x2="48.17" y2="37.88" xlink:href="#linear-gradient-12"/><linearGradient id="linear-gradient-18" x1="20" y1="20.94" x2="49.93" y2="33.75" xlink:href="#linear-gradient-12"/><linearGradient id="linear-gradient-19" x1="-5.38" y1="18.62" x2="19.86" y2="43.86" xlink:href="#linear-gradient-12"/><linearGradient id="linear-gradient-20" x1="-8.91" y1="10.86" x2="29.53" y2="49.3" xlink:href="#linear-gradient-12"/></defs><title>moon, cloud, night, cloudy, weather, forecast</title><circle class="cls-1" cx="16.56" cy="16.44" r="13.44"/><circle class="cls-2" cx="16.56" cy="16.44" r="11.52"/><circle class="cls-3" cx="8.88" cy="13.99" r="0.96"/><circle class="cls-4" cx="12" cy="18.76" r="0.56"/><circle class="cls-5" cx="12.64" cy="22.28" r="0.08"/><circle class="cls-6" cx="18.67" cy="25.16" r="0.88"/><circle class="cls-7" cx="24.67" cy="23.96" r="0.53"/><circle class="cls-8" cx="13.38" cy="24.26" r="0.83"/><circle class="cls-9" cx="16.08" cy="20.76" r="0.48"/><circle class="cls-10" cx="7.18" cy="18.96" r="0.23"/><circle class="cls-11" cx="11.57" cy="11.24" r="0.4"/><path class="cls-12" d="M35.94,25.53a12,12,0,0,0-23.87,0A9.74,9.74,0,0,0,12.75,45h22.5a9.74,9.74,0,0,0,.69-19.47Z"/><path class="cls-13" d="M11.94,25.8l.11-.27a9.74,9.74,0,0,0-9,8.81,9.79,9.79,0,0,1,5.2-4.93A6.53,6.53,0,0,0,11.94,25.8Z"/><path class="cls-14" d="M44.92,34a10.38,10.38,0,0,0-.19-1,9.74,9.74,0,0,0-8.79-7.47,12,12,0,0,0-1.46-4.4h0a12.1,12.1,0,0,0-.84-1.29l0,0c-.14-.18-.28-.36-.43-.53l-.13-.16a12.43,12.43,0,0,0-1.46-1.41l-.23-.19-.44-.32L30.58,17l-.41-.26q-.36-.22-.74-.41l-.35-.16-.54-.24-.36-.14-.68-.23-.23-.07c-.31-.09-.62-.16-.93-.22l-.29,0-.74-.1L25,15c-.34,0-.68,0-1,0s-.76,0-1.14.05l-.44.06c-.22,0-.45.05-.66.09s-.42.1-.63.15l-.44.1c-.21.06-.41.14-.62.21l-.42.14c-.22.09-.44.19-.66.29l-.33.15c-.25.13-.5.27-.74.41l-.19.11c-.27.17-.53.34-.78.53l-.1.07c-.27.2-.53.42-.79.64l0,0a12,12,0,0,0-4,7.47,12,12,0,0,1,11.06-7.3h.1A5.39,5.39,0,0,1,28,26a8.93,8.93,0,0,0-1,4v4.5a9,9,0,0,1,7.25-8.82,12,12,0,0,1,.81,3.06,9.74,9.74,0,0,1,9.06,9.72c0,.31,0,.61,0,.91h0a10,10,0,0,0,.38-.95v0c.1-.3.19-.61.27-.93l0-.1c.06-.29.11-.58.15-.88,0-.06,0-.12,0-.18A9.59,9.59,0,0,0,45,35.25a9.24,9.24,0,0,0-.07-1.12Z"/><path class="cls-15" d="M16.56,29.88A13.44,13.44,0,0,0,30,16.61a12,12,0,0,0-17.93,8.93A9.7,9.7,0,0,0,8,26.77,13.38,13.38,0,0,0,16.56,29.88Z"/><path class="cls-16" d="M35.25,45a9.74,9.74,0,0,0,.69-19.47v0a9,9,0,0,0-8.93,9V45Z"/><path class="cls-17" d="M31,34.5h0a1.51,1.51,0,0,1-1.43-2A6.77,6.77,0,0,1,34,28.09a1.51,1.51,0,0,1,2,1.42h0a1.5,1.5,0,0,1-1.07,1.44,3.75,3.75,0,0,0-2.46,2.47A1.5,1.5,0,0,1,31,34.5Z"/><circle class="cls-18" cx="38.1" cy="28.69" r="0.9"/><circle class="cls-19" cx="7.5" cy="31.5" r="0.9"/><circle class="cls-20" cx="10.7" cy="30.47" r="1.36"/></svg>