<svg id="Layer_1" data-name="Layer 1" xmlns="http://www.w3.org/2000/svg" xmlns:xlink="http://www.w3.org/1999/xlink" viewBox="0 0 48 48"><defs><style>.cls-1{fill:url(#linear-gradient);}.cls-2{fill:url(#linear-gradient-2);}.cls-3{fill:url(#linear-gradient-3);}.cls-4{fill:url(#linear-gradient-4);}.cls-5{fill:url(#linear-gradient-5);}.cls-6{fill:url(#linear-gradient-6);}.cls-7{fill:url(#linear-gradient-7);}.cls-8{fill:url(#linear-gradient-8);}.cls-9{fill:url(#linear-gradient-9);}.cls-10{fill:url(#linear-gradient-10);}.cls-11{fill:url(#linear-gradient-11);}.cls-12{fill:url(#linear-gradient-12);}.cls-13{fill:url(#linear-gradient-13);}</style><linearGradient id="linear-gradient" x1="24" y1="39.58" x2="24" y2="21.78" gradientUnits="userSpaceOnUse"><stop offset="0" stop-color="#273a9b"/><stop offset="0.56" stop-color="#202f65"/><stop offset="1" stop-color="#021e2f"/></linearGradient><linearGradient id="linear-gradient-2" x1="28.54" y1="25.37" x2="28.54" y2="-5.61" gradientUnits="userSpaceOnUse"><stop offset="0" stop-color="#fff"/><stop offset="0.52" stop-color="#cce2e6"/><stop offset="1" stop-color="#8fa1bb"/></linearGradient><linearGradient id="linear-gradient-3" x1="35.54" y1="22.5" x2="35.54" y2="6.55" xlink:href="#linear-gradient-2"/><linearGradient id="linear-gradient-4" x1="38.27" y1="3.77" x2="25.63" y2="16.42" gradientUnits="userSpaceOnUse"><stop offset="0" stop-color="#27e9de"/><stop offset="0.52" stop-color="#03a4ec"/><stop offset="1" stop-color="#2547a8"/></linearGradient><linearGradient id="linear-gradient-5" x1="28.54" y1="15.19" x2="28.54" y2="0.17" xlink:href="#linear-gradient-2"/><linearGradient id="linear-gradient-6" x1="24.76" y1="15.19" x2="24.76" y2="0.17" xlink:href="#linear-gradient-2"/><linearGradient id="linear-gradient-7" x1="35.28" y1="15.19" x2="35.28" y2="0.17" xlink:href="#linear-gradient-2"/><linearGradient id="linear-gradient-8" x1="31.53" y1="15.19" x2="31.53" y2="0.17" xlink:href="#linear-gradient-2"/><linearGradient id="linear-gradient-9" x1="24" y1="53.83" x2="24" y2="4.61" xlink:href="#linear-gradient"/><linearGradient id="linear-gradient-10" x1="24" y1="53.68" x2="24" y2="29.63" xlink:href="#linear-gradient"/><linearGradient id="linear-gradient-11" x1="24" y1="44.29" x2="24" y2="11.44" xlink:href="#linear-gradient-4"/><linearGradient id="linear-gradient-12" x1="24" y1="41.19" x2="24" y2="6.89" xlink:href="#linear-gradient-2"/><linearGradient id="linear-gradient-13" x1="24" y1="39.09" x2="24" y2="32.56" xlink:href="#linear-gradient-2"/></defs><title>person, account, file, folder, document</title><path class="cls-1" d="M10.6,15H36.91A2.09,2.09,0,0,1,39,17.09V32.25a0,0,0,0,1,0,0H9a0,0,0,0,1,0,0V16.6A1.6,1.6,0,0,1,10.6,15Z"/><path class="cls-2" d="M20.63,3A2.59,2.59,0,0,0,18,5.59V28.41A2.59,2.59,0,0,0,20.63,31H36.45A2.59,2.59,0,0,0,39,28.41V10.75a1.82,1.82,0,0,0-.53-1.29L32.59,3.53A1.83,1.83,0,0,0,31.3,3Z"/><path class="cls-3" d="M32,31h4.41A2.59,2.59,0,0,0,39,28.41V10.75a1.82,1.82,0,0,0-.53-1.29L35.63,6.58H32Z"/><path class="cls-4" d="M32.05,7.4A2.59,2.59,0,0,0,34.64,10h4.23a1.82,1.82,0,0,0-.36-.53L32.59,3.53a1.82,1.82,0,0,0-.53-.36Z"/><path class="cls-5" d="M35.31,13.5H21.78a.75.75,0,0,1-.75-.75h0a.75.75,0,0,1,.75-.75H35.31a.75.75,0,0,1,.75.75h0A.75.75,0,0,1,35.31,13.5Z"/><path class="cls-6" d="M27.74,18h-6a.75.75,0,0,1-.75-.75h0a.75.75,0,0,1,.75-.75h6a.75.75,0,0,1,.75.75h0A.75.75,0,0,1,27.74,18Z"/><path class="cls-7" d="M35.28,18h0a.75.75,0,0,1-.75-.75h0a.75.75,0,0,1,.75-.75h0a.75.75,0,0,1,.75.75h0A.75.75,0,0,1,35.28,18Z"/><path class="cls-8" d="M31.53,18h0a.75.75,0,0,1-.75-.75h0a.75.75,0,0,1,.75-.75h0a.75.75,0,0,1,.75.75h0A.75.75,0,0,1,31.53,18Z"/><path class="cls-9" d="M13.62,22.14,13.42,21a1.82,1.82,0,0,0-1.79-1.5H7.32A3.47,3.47,0,0,0,3.9,23.57L7.42,43.5A1.82,1.82,0,0,0,9.21,45h30a1.82,1.82,0,0,0,1.79-1.5l3.16-17.92a2.63,2.63,0,0,0-2.59-3.08H14.05A.44.44,0,0,1,13.62,22.14Z"/><rect class="cls-10" x="18" y="33.99" width="12" height="11.01"/><circle class="cls-11" cx="24" cy="33.99" r="6"/><path class="cls-12" d="M24,35.72a6,6,0,0,0-4.58,2.13,6,6,0,0,0,9.17,0A6,6,0,0,0,24,35.72Z"/><path class="cls-13" d="M24,35.72a6,6,0,0,0-2.2.43,2.4,2.4,0,0,0,4.41,0A6,6,0,0,0,24,35.72Z"/><circle class="cls-12" cx="24" cy="32.8" r="2.4"/></svg>