<svg id="Layer_1" data-name="Layer 1" xmlns="http://www.w3.org/2000/svg" xmlns:xlink="http://www.w3.org/1999/xlink" viewBox="0 0 48 48"><defs><style>.cls-1{fill:#d0e0ef;}.cls-2{fill:url(#linear-gradient);}.cls-3{fill:url(#linear-gradient-2);}.cls-4{fill:url(#linear-gradient-3);}.cls-5{fill:url(#linear-gradient-4);}.cls-6{fill:url(#linear-gradient-5);}.cls-7{fill:url(#linear-gradient-6);}.cls-8{fill:url(#linear-gradient-7);}.cls-9{fill:url(#linear-gradient-8);}.cls-10{fill:url(#linear-gradient-9);}.cls-11{fill:url(#linear-gradient-10);}.cls-12{fill:url(#linear-gradient-11);}.cls-13{fill:url(#linear-gradient-12);}.cls-14{fill:url(#linear-gradient-13);}.cls-15{fill:url(#linear-gradient-14);}.cls-16{fill:url(#linear-gradient-15);}.cls-17{fill:url(#linear-gradient-16);}.cls-18{fill:url(#linear-gradient-17);}.cls-19{fill:url(#linear-gradient-18);}.cls-20{fill:url(#linear-gradient-19);}.cls-21{fill:url(#linear-gradient-20);}.cls-22{fill:url(#linear-gradient-21);}</style><linearGradient id="linear-gradient" x1="18.75" y1="59.81" x2="18.75" y2="19.65" gradientUnits="userSpaceOnUse"><stop offset="0" stop-color="#27e9de"/><stop offset="0.52" stop-color="#03a4ec"/><stop offset="1" stop-color="#2547a8"/></linearGradient><linearGradient id="linear-gradient-2" x1="18.75" y1="83" x2="18.75" y2="16.6" xlink:href="#linear-gradient"/><linearGradient id="linear-gradient-3" x1="18.75" y1="41.72" x2="18.75" y2="7.22" gradientUnits="userSpaceOnUse"><stop offset="0" stop-color="#f3c57a"/><stop offset="0.49" stop-color="#f39369"/><stop offset="1" stop-color="#e94867"/></linearGradient><linearGradient id="linear-gradient-4" x1="21.56" y1="38.81" x2="21.56" y2="12" xlink:href="#linear-gradient-3"/><linearGradient id="linear-gradient-5" x1="18.75" y1="6.09" x2="18.75" y2="17.36" xlink:href="#linear-gradient-3"/><linearGradient id="linear-gradient-6" x1="18.75" y1="2" x2="18.75" y2="17.43" xlink:href="#linear-gradient-3"/><linearGradient id="linear-gradient-7" x1="18.75" y1="78.38" x2="18.75" y2="13.94" xlink:href="#linear-gradient-3"/><linearGradient id="linear-gradient-8" x1="14.25" y1="51.81" x2="14.25" y2="30.62" gradientUnits="userSpaceOnUse"><stop offset="0" stop-color="#273a9b"/><stop offset="0.56" stop-color="#202f65"/><stop offset="1" stop-color="#021e2f"/></linearGradient><linearGradient id="linear-gradient-9" x1="14.25" y1="54.09" x2="14.25" y2="35.31" xlink:href="#linear-gradient-8"/><linearGradient id="linear-gradient-10" x1="24.37" y1="51.19" x2="24.37" y2="28.81" xlink:href="#linear-gradient-8"/><linearGradient id="linear-gradient-11" x1="24.37" y1="42.47" x2="24.37" y2="31.28" xlink:href="#linear-gradient-8"/><linearGradient id="linear-gradient-12" x1="26.06" y1="46.75" x2="26.06" y2="29.44" xlink:href="#linear-gradient-8"/><linearGradient id="linear-gradient-13" x1="26.06" y1="46.13" x2="26.06" y2="32.97" xlink:href="#linear-gradient-8"/><linearGradient id="linear-gradient-14" x1="34.5" y1="35.25" x2="34.5" y2="-16.76" xlink:href="#linear-gradient-8"/><linearGradient id="linear-gradient-15" x1="28.64" y1="29.51" x2="28.64" y2="3.69" xlink:href="#linear-gradient-8"/><linearGradient id="linear-gradient-16" x1="34.5" y1="24.08" x2="34.5" y2="-0.05" xlink:href="#linear-gradient"/><linearGradient id="linear-gradient-17" x1="36.4" y1="26.51" x2="36.4" y2="5.77" xlink:href="#linear-gradient"/><linearGradient id="linear-gradient-18" x1="30.35" y1="17.63" x2="30.35" y2="-3.91" xlink:href="#linear-gradient-3"/><linearGradient id="linear-gradient-19" x1="38.65" y1="21.51" x2="38.65" y2="4.86" xlink:href="#linear-gradient-3"/><linearGradient id="linear-gradient-20" x1="34.5" y1="17.63" x2="34.5" y2="-3.91" xlink:href="#linear-gradient-3"/><linearGradient id="linear-gradient-21" x1="34.78" y1="19.62" x2="34.78" y2="1.81" xlink:href="#linear-gradient-3"/></defs><title>pet, store, shop, building, animal</title><path class="cls-1" d="M5.25,27h27a0,0,0,0,1,0,0V43.71A1.29,1.29,0,0,1,31,45H6.54a1.29,1.29,0,0,1-1.29-1.29V27A0,0,0,0,1,5.25,27Z"/><rect class="cls-2" x="5.25" y="27" width="27" height="18"/><path class="cls-3" d="M18.75,27.56H5.25v4.5h8.22a5.28,5.28,0,0,1,5.28,5.28h0A7.66,7.66,0,0,0,26.41,45H31a1.29,1.29,0,0,0,1.29-1.29V27H18.75Z"/><path class="cls-4" d="M28.87,16.88H8.63L3.44,25.17A2.91,2.91,0,0,0,3,26.71v2.56a1.1,1.1,0,0,0,1.1,1.1H33.4a1.1,1.1,0,0,0,1.1-1.1V26.71a2.91,2.91,0,0,0-.44-1.54Z"/><path class="cls-5" d="M18.75,30.38H33.4a1.1,1.1,0,0,0,1.1-1.1V26.71a2.91,2.91,0,0,0-.44-1.54l-5.18-8.29H8.63c.21,0,4.88,1.06,7.81,1.72a3,3,0,0,1,2.32,2.91Z"/><path class="cls-6" d="M9.69,13.5H27.81a1.06,1.06,0,0,1,1.06,1.06v2.31a0,0,0,0,1,0,0H8.63a0,0,0,0,1,0,0V14.56A1.06,1.06,0,0,1,9.69,13.5Z"/><rect class="cls-7" x="8.63" y="15.75" width="20.25" height="1.13"/><path class="cls-8" d="M3,26.71v2.56a1.1,1.1,0,0,0,1.1,1.1H33.4a1.1,1.1,0,0,0,1.1-1.1V26.71a2.91,2.91,0,0,0-.12-.84H3.12A2.91,2.91,0,0,0,3,26.71Z"/><path class="cls-9" d="M10.88,45h6.75V37.13a3.37,3.37,0,0,0-3.37-3.37h0a3.37,3.37,0,0,0-3.37,3.38Z"/><rect class="cls-10" x="10.88" y="42.75" width="6.75" height="2.25"/><circle class="cls-11" cx="24.37" cy="37.13" r="3.37"/><path class="cls-12" d="M21,37.13a3.37,3.37,0,1,1,6.75,0"/><path class="cls-13" d="M24.37,33.75a3.38,3.38,0,0,1,0,6.75"/><path class="cls-14" d="M27.75,37.13a3.37,3.37,0,0,0-3.37-3.37v3.38Z"/><circle class="cls-15" cx="34.5" cy="13.5" r="10.5"/><path class="cls-16" d="M28.59,22.17a10.43,10.43,0,0,0,4.69,1.75l-4.41-7V14.56a1.06,1.06,0,0,0-1.06-1.06H24a10.41,10.41,0,0,0,1.84,5.91A1.39,1.39,0,0,1,26,20.73l-.43,1a.52.52,0,0,0,.68.68l1-.42A1.41,1.41,0,0,1,28.59,22.17Z"/><path class="cls-17" d="M38.26,16.76c0,2.08-1.69,3-3.76,3s-3.76-.88-3.76-3a3.76,3.76,0,1,1,7.53,0Z"/><path class="cls-18" d="M34.54,13v6.72c2.06,0,3.73-.89,3.73-3A3.76,3.76,0,0,0,34.54,13Z"/><path class="cls-19" d="M31.91,12c0,.86-.7,1.15-1.56,1.15s-1.56-.29-1.56-1.15.7-2,1.56-2S31.91,11.1,31.91,12Z"/><path class="cls-20" d="M40.21,12c0,.86-.7,1.15-1.56,1.15s-1.56-.29-1.56-1.15.7-2,1.56-2S40.21,11.1,40.21,12Z"/><path class="cls-21" d="M36.23,9.6c0,1-.78,1.35-1.73,1.35s-1.73-.34-1.73-1.35.78-2.31,1.73-2.31S36.23,8.59,36.23,9.6Z"/><path class="cls-22" d="M34.5,7.29A1.54,1.54,0,0,0,33.32,8a8.88,8.88,0,0,1,1.08,2.94h.1c1,0,1.73-.34,1.73-1.35S35.46,7.29,34.5,7.29Z"/></svg>