<svg id="Layer_1" data-name="Layer 1" xmlns="http://www.w3.org/2000/svg" xmlns:xlink="http://www.w3.org/1999/xlink" viewBox="0 0 48 48"><defs><style>.cls-1{fill:url(#linear-gradient);}.cls-2{fill:url(#linear-gradient-2);}.cls-3{fill:url(#linear-gradient-3);}.cls-4{fill:url(#linear-gradient-4);}.cls-5{fill:url(#linear-gradient-5);}.cls-6{fill:url(#linear-gradient-6);}.cls-7{fill:url(#linear-gradient-7);}.cls-8{fill:url(#linear-gradient-8);}.cls-9{fill:url(#linear-gradient-9);}.cls-10{fill:url(#linear-gradient-10);}</style><linearGradient id="linear-gradient" x1="24" y1="47.69" x2="24" y2="-12.36" gradientUnits="userSpaceOnUse"><stop offset="0" stop-color="#27e9de"/><stop offset="0.52" stop-color="#03a4ec"/><stop offset="1" stop-color="#2547a8"/></linearGradient><linearGradient id="linear-gradient-2" x1="21.14" y1="57.73" x2="21.14" y2="-32.81" xlink:href="#linear-gradient"/><linearGradient id="linear-gradient-3" x1="24" y1="75.83" x2="24" y2="17" xlink:href="#linear-gradient"/><linearGradient id="linear-gradient-4" x1="14.52" y1="49.36" x2="4.65" y2="13.11" xlink:href="#linear-gradient"/><linearGradient id="linear-gradient-5" x1="20.61" y1="33.04" x2="20.61" y2="24.35" xlink:href="#linear-gradient"/><linearGradient id="linear-gradient-6" x1="23.61" y1="33.04" x2="23.61" y2="24.35" xlink:href="#linear-gradient"/><linearGradient id="linear-gradient-7" x1="-76.8" y1="36.01" x2="-76.8" y2="27.32" gradientTransform="matrix(-1, 0, 0, 1, -43.42, 0)" xlink:href="#linear-gradient"/><linearGradient id="linear-gradient-8" x1="-73.8" y1="36.01" x2="-73.8" y2="27.32" gradientTransform="matrix(-1, 0, 0, 1, -43.42, 0)" xlink:href="#linear-gradient"/><linearGradient id="linear-gradient-9" x1="-61.8" y1="40.76" x2="-61.8" y2="32.07" gradientTransform="matrix(-1, 0, 0, 1, -43.42, 0)" xlink:href="#linear-gradient"/><linearGradient id="linear-gradient-10" x1="-58.8" y1="40.76" x2="-58.8" y2="32.07" gradientTransform="matrix(-1, 0, 0, 1, -43.42, 0)" xlink:href="#linear-gradient"/></defs><title>pet, aquarium, fishbowl, fish</title><path class="cls-1" d="M36.72,5.72,37,4.85A1.45,1.45,0,0,0,35.58,3H12.42A1.45,1.45,0,0,0,11,4.85l.25.87A9.55,9.55,0,0,1,9.49,14.4,18.74,18.74,0,1,0,42.75,26.25a18.61,18.61,0,0,0-4.27-11.89A9.48,9.48,0,0,1,36.72,5.72Z"/><path class="cls-2" d="M9.09,31.14A18.64,18.64,0,0,1,13.24,17.4,9.55,9.55,0,0,0,15,8.72l-.25-.87A1.45,1.45,0,0,1,16.17,6H36.66c0-.09,0-.19.06-.28L37,4.85A1.45,1.45,0,0,0,35.58,3H12.42A1.45,1.45,0,0,0,11,4.85l.25.87A9.55,9.55,0,0,1,9.49,14.4,18.71,18.71,0,0,0,14.31,42.3,18.66,18.66,0,0,1,9.09,31.14Z"/><path class="cls-3" d="M42,22.5a9.19,9.19,0,0,1-3.6-.69,2.25,2.25,0,0,0-1.8,0,9.73,9.73,0,0,1-7.2,0,2.25,2.25,0,0,0-1.8,0,9.73,9.73,0,0,1-7.2,0,2.25,2.25,0,0,0-1.8,0,9.19,9.19,0,0,1-3.6.69,9.19,9.19,0,0,1-3.6-.69,2.25,2.25,0,0,0-1.8,0A9.19,9.19,0,0,1,6,22.5H5.63A18.74,18.74,0,0,0,21.88,44.88,18.7,18.7,0,0,0,42.36,22.49Z"/><path class="cls-4" d="M9.09,31.14a18.67,18.67,0,0,1,1.54-9.5,2.25,2.25,0,0,0-1,.17A9.19,9.19,0,0,1,6,22.5H5.63c-.11.55-.2,1.11-.26,1.67,0,.19,0,.39,0,.58,0,.39-.06.78-.06,1.18,0,.22,0,.44,0,.66q0,.58.06,1.16c0,.27,0,.55.07.82s0,.28.05.42c.05.37.12.74.2,1.1s.11.47.17.71.13.5.2.75.15.49.23.73l.16.45a18.66,18.66,0,0,0,1.18,2.58l.11.19A18.93,18.93,0,0,0,9.41,38l.1.12q.32.39.65.76l.06.06c.43.47.88.91,1.36,1.33l.17.16.67.55.35.27q.49.37,1,.71l.53.34A18.66,18.66,0,0,1,9.09,31.14Z"/><path class="cls-5" d="M20.61,27A3,3,0,0,0,18,28.53a3,3,0,0,0,5.23,0A3,3,0,0,0,20.61,27Z"/><path class="cls-6" d="M23.23,28.53A6.17,6.17,0,0,0,24,29.58V27.48A6.17,6.17,0,0,0,23.23,28.53Z"/><path class="cls-7" d="M33.39,30A3,3,0,0,1,36,31.5a3,3,0,0,1-5.23,0A3,3,0,0,1,33.39,30Z"/><path class="cls-8" d="M30.77,31.5A6.17,6.17,0,0,1,30,32.55V30.45A6.17,6.17,0,0,1,30.77,31.5Z"/><path class="cls-9" d="M18.39,34.72A3,3,0,0,1,21,36.25a3,3,0,0,1-5.23,0A3,3,0,0,1,18.39,34.72Z"/><path class="cls-10" d="M15.77,36.25A6.17,6.17,0,0,1,15,37.3V35.2A6.17,6.17,0,0,1,15.77,36.25Z"/></svg>