<svg id="Layer_1" data-name="Layer 1" xmlns="http://www.w3.org/2000/svg" xmlns:xlink="http://www.w3.org/1999/xlink" viewBox="0 0 48 48"><defs><style>.cls-1{fill:url(#linear-gradient);}.cls-2{fill:url(#linear-gradient-2);}.cls-3{fill:url(#linear-gradient-3);}.cls-4{fill:url(#linear-gradient-4);}.cls-5{fill:url(#linear-gradient-5);}.cls-6{fill:url(#linear-gradient-6);}.cls-7{fill:url(#linear-gradient-7);}.cls-8{fill:url(#linear-gradient-8);}.cls-9{fill:url(#linear-gradient-9);}.cls-10{fill:url(#linear-gradient-10);}</style><linearGradient id="linear-gradient" x1="20.98" y1="43.5" x2="20.98" y2="-38.01" gradientUnits="userSpaceOnUse"><stop offset="0" stop-color="#273a9b"/><stop offset="0.56" stop-color="#202f65"/><stop offset="1" stop-color="#021e2f"/></linearGradient><linearGradient id="linear-gradient-2" x1="27.02" y1="43.25" x2="27.02" y2="-40.37" gradientUnits="userSpaceOnUse"><stop offset="0" stop-color="#f3c57a"/><stop offset="0.49" stop-color="#f39369"/><stop offset="1" stop-color="#e94867"/></linearGradient><linearGradient id="linear-gradient-3" x1="24" y1="47.75" x2="24" y2="-11" xlink:href="#linear-gradient-2"/><linearGradient id="linear-gradient-4" x1="26.98" y1="53.43" x2="26.98" y2="7.55" xlink:href="#linear-gradient-2"/><linearGradient id="linear-gradient-5" x1="22.48" y1="53.43" x2="22.48" y2="7.55" xlink:href="#linear-gradient-2"/><linearGradient id="linear-gradient-6" x1="32.23" y1="53.43" x2="32.23" y2="7.55" xlink:href="#linear-gradient-2"/><linearGradient id="linear-gradient-7" x1="30" y1="28.06" x2="30" y2="-2.03" gradientUnits="userSpaceOnUse"><stop offset="0" stop-color="#fff"/><stop offset="0.52" stop-color="#cce2e6"/><stop offset="1" stop-color="#8fa1bb"/></linearGradient><linearGradient id="linear-gradient-8" x1="25.71" y1="18.95" x2="25.71" y2="3.91" xlink:href="#linear-gradient-7"/><linearGradient id="linear-gradient-9" x1="30.04" y1="17.34" x2="30.04" y2="2.3" xlink:href="#linear-gradient-7"/><linearGradient id="linear-gradient-10" x1="166.71" y1="18.95" x2="166.71" y2="3.91" gradientTransform="matrix(-1, 0, 0, 1, 201, 0)" xlink:href="#linear-gradient-7"/></defs><title>pet, animal, document, history, paper</title><path class="cls-1" d="M27.88,13.5A5.14,5.14,0,0,1,33,18.64v19a5.9,5.9,0,0,0,5.9,5.9h-30A5.9,5.9,0,0,1,3,37.6v-19A5.14,5.14,0,0,1,8.17,13.5Z"/><path class="cls-2" d="M20.12,4.5A5.14,5.14,0,0,0,15,9.64v28a5.9,5.9,0,0,1-5.9,5.9h30A5.9,5.9,0,0,0,45,37.6v-28A5.14,5.14,0,0,0,39.83,4.5Z"/><path class="cls-3" d="M33,37.6v-19a5.14,5.14,0,0,0-5.14-5.14H15V37.6a5.9,5.9,0,0,1-5.9,5.9H38.93A5.9,5.9,0,0,1,33,37.6Z"/><path class="cls-4" d="M32.23,37.5H21.73a.75.75,0,0,1-.75-.75h0a.75.75,0,0,1,.75-.75h10.5a.75.75,0,0,1,.75.75h0A.75.75,0,0,1,32.23,37.5Z"/><path class="cls-5" d="M24,30.75a.75.75,0,0,0-.75-.75h-1.5a.75.75,0,0,0,0,1.5h1.5a.75.75,0,0,0,.75-.75Z"/><path class="cls-6" d="M38.24,30h-12a.75.75,0,0,0-.75.75h0a.75.75,0,0,0,.75.75h12a.75.75,0,0,0,0-1.5Z"/><path class="cls-7" d="M34.37,20.17l-.15-.07A2.9,2.9,0,0,1,33,19a3.56,3.56,0,0,0-6,0,2.9,2.9,0,0,1-1.21,1.06l-.15.07c-2.43,1.17-2.29,3.51-1.46,5.22s2,2.15,4.46,1h0a3.11,3.11,0,0,1,2.71,0h0c2.43,1.17,3.63.74,4.46-1S36.8,21.34,34.37,20.17Z"/><path class="cls-8" d="M27.32,16.29c0,1.48-.72,2.15-1.61,2.15s-1.61-.67-1.61-2.15.72-2.68,1.61-2.68S27.32,14.81,27.32,16.29Z"/><path class="cls-9" d="M31.66,14.68c0,1.48-.72,2.15-1.61,2.15s-1.61-.67-1.61-2.15S29.15,12,30,12,31.66,13.2,31.66,14.68Z"/><path class="cls-10" d="M32.68,16.29c0,1.48.72,2.15,1.61,2.15s1.61-.67,1.61-2.15-.72-2.68-1.61-2.68S32.68,14.81,32.68,16.29Z"/></svg>