<svg id="Layer_1" data-name="Layer 1" xmlns="http://www.w3.org/2000/svg" xmlns:xlink="http://www.w3.org/1999/xlink" viewBox="0 0 48 48"><defs><style>.cls-1{fill:url(#linear-gradient);}.cls-2{fill:url(#linear-gradient-2);}.cls-3{fill:url(#linear-gradient-3);}.cls-4{fill:url(#linear-gradient-4);}.cls-5{fill:url(#linear-gradient-5);}.cls-6{fill:url(#linear-gradient-6);}.cls-7{fill:url(#linear-gradient-7);}.cls-8{fill:url(#linear-gradient-8);}.cls-9{fill:url(#linear-gradient-9);}.cls-10{fill:url(#linear-gradient-10);}.cls-11{fill:url(#linear-gradient-11);}.cls-12{fill:url(#linear-gradient-12);}.cls-13{fill:url(#linear-gradient-13);}.cls-14{fill:url(#linear-gradient-14);}.cls-15{fill:url(#linear-gradient-15);}.cls-16{fill:url(#linear-gradient-16);}</style><linearGradient id="linear-gradient" x1="23.26" y1="31.5" x2="23.26" y2="-5.79" gradientUnits="userSpaceOnUse"><stop offset="0" stop-color="#fff"/><stop offset="0.52" stop-color="#cce2e6"/><stop offset="1" stop-color="#8fa1bb"/></linearGradient><linearGradient id="linear-gradient-2" x1="23.26" y1="21.86" x2="23.26" y2="-5.91" xlink:href="#linear-gradient"/><linearGradient id="linear-gradient-3" x1="18.97" y1="36.11" x2="18.97" y2="0.28" xlink:href="#linear-gradient"/><linearGradient id="linear-gradient-4" x1="27.54" y1="36.11" x2="27.54" y2="0.28" xlink:href="#linear-gradient"/><linearGradient id="linear-gradient-5" x1="10.37" y1="23" x2="10.37" y2="-1.41" gradientUnits="userSpaceOnUse"><stop offset="0" stop-color="#273a9b"/><stop offset="0.56" stop-color="#202f65"/><stop offset="1" stop-color="#021e2f"/></linearGradient><linearGradient id="linear-gradient-6" x1="23.26" y1="7.67" x2="23.26" y2="-34.63" xlink:href="#linear-gradient-5"/><linearGradient id="linear-gradient-7" x1="18.97" y1="48.71" x2="18.97" y2="3.66" gradientUnits="userSpaceOnUse"><stop offset="0" stop-color="#f3c57a"/><stop offset="0.49" stop-color="#f39369"/><stop offset="1" stop-color="#e94867"/></linearGradient><linearGradient id="linear-gradient-8" x1="27.54" y1="48.71" x2="27.54" y2="3.66" xlink:href="#linear-gradient-7"/><linearGradient id="linear-gradient-9" x1="32.24" y1="52.53" x2="32.24" y2="-4.97" xlink:href="#linear-gradient-7"/><linearGradient id="linear-gradient-10" x1="32.29" y1="48.92" x2="32.29" y2="29.48" xlink:href="#linear-gradient-7"/><linearGradient id="linear-gradient-11" x1="30.89" y1="44.17" x2="30.89" y2="4.64" xlink:href="#linear-gradient-7"/><linearGradient id="linear-gradient-12" x1="32.24" y1="39.63" x2="32.24" y2="21.56" xlink:href="#linear-gradient"/><linearGradient id="linear-gradient-13" x1="30.95" y1="33.2" x2="30.95" y2="24.16" xlink:href="#linear-gradient"/><linearGradient id="linear-gradient-14" x1="28.7" y1="34.81" x2="28.7" y2="25.77" xlink:href="#linear-gradient"/><linearGradient id="linear-gradient-15" x1="-552.54" y1="33.2" x2="-552.54" y2="24.16" gradientTransform="matrix(-1, 0, 0, 1, -519, 0)" xlink:href="#linear-gradient"/><linearGradient id="linear-gradient-16" x1="-554.79" y1="34.81" x2="-554.79" y2="25.77" gradientTransform="matrix(-1, 0, 0, 1, -519, 0)" xlink:href="#linear-gradient"/></defs><title>pet, full time, time, clock, hour, vet</title><circle class="cls-1" cx="23.26" cy="21" r="18"/><circle class="cls-2" cx="23.26" cy="21" r="10.29"/><polygon class="cls-3" points="15.54 35.89 22.4 35.89 22.4 19.98 15.54 22.98 15.54 35.89"/><polygon class="cls-4" points="24.11 35.89 30.97 35.89 30.97 24.27 24.11 19.29 24.11 35.89"/><path class="cls-5" d="M6.47,18.44v7a.43.43,0,0,0,.72.32l6.83-6a.74.74,0,0,0-.49-1.3Z"/><path class="cls-6" d="M21.93,3A18.09,18.09,0,0,0,5.62,17.41a17.8,17.8,0,0,0,.26,8.24A.69.69,0,0,0,7,26l3.55-3.18A12.86,12.86,0,1,1,13,28.7a1.31,1.31,0,0,0-1.93-.21l-1.9,1.7A1.32,1.32,0,0,0,9,32,18,18,0,1,0,21.93,3Z"/><path class="cls-7" d="M15.54,16.69v.91a.83.83,0,0,0,.83.83H19a.83.83,0,0,1,.83.83v.45H17.17a.83.83,0,0,0-.59.24l-.8.8a.83.83,0,0,0-.24.59v3.17a.83.83,0,0,0,.24.59l.8.8a.83.83,0,0,0,.59.24h4.39a.83.83,0,0,0,.83-.83V24.4a.83.83,0,0,0-.83-.83H18.95a.83.83,0,0,1-.83-.83v-.45h2.65a.83.83,0,0,0,.59-.24l.8-.8a.83.83,0,0,0,.24-.59V17.49a.83.83,0,0,0-.24-.59l-.8-.8a.83.83,0,0,0-.59-.24H16.37A.83.83,0,0,0,15.54,16.69Z"/><path class="cls-8" d="M28.4,16.69v2.19a.83.83,0,0,1-.83.83h0a.83.83,0,0,1-.83-.83V16.69a.83.83,0,0,0-.83-.83h-.91a.83.83,0,0,0-.83.83v4.76a.83.83,0,0,0,.83.83h2.62a.83.83,0,0,1,.83.83v2.19a.83.83,0,0,0,.83.83h.9a.83.83,0,0,0,.83-.83V16.69a.83.83,0,0,0-.83-.83h-.9A.83.83,0,0,0,28.4,16.69Z"/><circle class="cls-9" cx="32.24" cy="34.5" r="10.5"/><path class="cls-10" d="M28.5,44.3a10.38,10.38,0,0,0,7.57,0V36.92H28.5Z"/><path class="cls-11" d="M25.12,38.91A18.07,18.07,0,0,0,40,27.47a10.49,10.49,0,0,0-4.42-2.91,12.81,12.81,0,0,1-13.82,9.21c0,.24,0,.48,0,.73a10.44,10.44,0,0,0,1,4.49A18.55,18.55,0,0,0,25.12,38.91Z"/><path class="cls-12" d="M34.87,34.89l-.09,0a1.74,1.74,0,0,1-.73-.64,2.14,2.14,0,0,0-3.62,0,1.74,1.74,0,0,1-.73.64l-.09,0A2.16,2.16,0,0,0,28.74,38c.5,1,1.22,1.29,2.68.59h0a1.87,1.87,0,0,1,1.63,0h0c1.46.7,2.18.44,2.68-.59A2.16,2.16,0,0,0,34.87,34.89Z"/><path class="cls-13" d="M31.92,31.6c0,.89-.43,1.29-1,1.29s-1-.4-1-1.29S30.42,30,31,30,31.92,30.71,31.92,31.6Z"/><path class="cls-14" d="M29.67,33.21c0,.89-.43,1.29-1,1.29s-1-.4-1-1.29.43-1.61,1-1.61S29.67,32.32,29.67,33.21Z"/><path class="cls-15" d="M32.57,31.6c0,.89.43,1.29,1,1.29s1-.4,1-1.29-.43-1.61-1-1.61S32.57,30.71,32.57,31.6Z"/><path class="cls-16" d="M34.82,33.21c0,.89.43,1.29,1,1.29s1-.4,1-1.29-.43-1.61-1-1.61S34.82,32.32,34.82,33.21Z"/></svg>