<svg id="Layer_1" data-name="Layer 1" xmlns="http://www.w3.org/2000/svg" xmlns:xlink="http://www.w3.org/1999/xlink" viewBox="0 0 48 48"><defs><style>.cls-1{fill:url(#linear-gradient);}.cls-2{fill:url(#linear-gradient-2);}</style><linearGradient id="linear-gradient" x1="907.38" y1="73.75" x2="907.38" y2="-13" gradientTransform="matrix(-1, 0, 0, 1, 936, 0)" gradientUnits="userSpaceOnUse"><stop offset="0" stop-color="#f3c57a"/><stop offset="0.49" stop-color="#f39369"/><stop offset="1" stop-color="#e94867"/></linearGradient><linearGradient id="linear-gradient-2" x1="920.88" y1="73.75" x2="920.88" y2="-13" xlink:href="#linear-gradient"/></defs><title>previous, arrow, pointer, left</title><path class="cls-1" d="M31.24,13.57a1.34,1.34,0,0,1,1.89,0l2.35,2.35a1.34,1.34,0,0,1,0,1.89L29.3,24l6.19,6.19a1.34,1.34,0,0,1,0,1.89l-2.35,2.35a1.34,1.34,0,0,1-1.89,0l-9.48-9.48a1.34,1.34,0,0,1,0-1.89Z"/><rect class="cls-2" x="12.12" y="13.18" width="6" height="21.32" rx="1.78" ry="1.78"/></svg>