<svg id="Layer_1" data-name="Layer 1" xmlns="http://www.w3.org/2000/svg" xmlns:xlink="http://www.w3.org/1999/xlink" viewBox="0 0 48 48"><defs><style>.cls-1{fill:url(#linear-gradient);}.cls-2{fill:url(#linear-gradient-2);}.cls-3{fill:url(#linear-gradient-3);}.cls-4{fill:url(#linear-gradient-4);}.cls-5{fill:url(#linear-gradient-5);}.cls-6{fill:url(#linear-gradient-6);}.cls-7{fill:url(#linear-gradient-7);}.cls-8{fill:url(#linear-gradient-8);}.cls-9{fill:url(#linear-gradient-9);}.cls-10{fill:url(#linear-gradient-10);}.cls-11{fill:url(#linear-gradient-11);}.cls-12{fill:url(#linear-gradient-12);}.cls-13{fill:url(#linear-gradient-13);}.cls-14{fill:url(#linear-gradient-14);}.cls-15{fill:url(#linear-gradient-15);}.cls-16{fill:url(#linear-gradient-16);}.cls-17{fill:url(#linear-gradient-17);}.cls-18{fill:url(#linear-gradient-18);}.cls-19{fill:url(#linear-gradient-19);}.cls-20{fill:url(#linear-gradient-20);}.cls-21{fill:url(#linear-gradient-21);}.cls-22{fill:url(#linear-gradient-22);}.cls-23{fill:url(#linear-gradient-23);}.cls-24{fill:url(#linear-gradient-24);}.cls-25{fill:url(#linear-gradient-25);}.cls-26{fill:url(#linear-gradient-26);}.cls-27{fill:url(#linear-gradient-27);}.cls-28{fill:url(#linear-gradient-28);}.cls-29{fill:url(#linear-gradient-29);}.cls-30{fill:url(#linear-gradient-30);}.cls-31{fill:url(#linear-gradient-31);}.cls-32{fill:url(#linear-gradient-32);}.cls-33{fill:url(#linear-gradient-33);}.cls-34{fill:url(#linear-gradient-34);}</style><linearGradient id="linear-gradient" x1="24" y1="46.19" x2="24" y2="32.75" gradientUnits="userSpaceOnUse"><stop offset="0" stop-color="#273a9b"/><stop offset="0.56" stop-color="#202f65"/><stop offset="1" stop-color="#021e2f"/></linearGradient><linearGradient id="linear-gradient-2" y1="44.92" y2="37.96" xlink:href="#linear-gradient"/><linearGradient id="linear-gradient-3" x1="24" y1="40.17" x2="24" y2="6.92" gradientUnits="userSpaceOnUse"><stop offset="0" stop-color="#f3c57a"/><stop offset="0.49" stop-color="#f39369"/><stop offset="1" stop-color="#e94867"/></linearGradient><linearGradient id="linear-gradient-4" y1="38.45" x2="24" y2="17.6" xlink:href="#linear-gradient-3"/><linearGradient id="linear-gradient-5" y1="38.08" y2="19.28" xlink:href="#linear-gradient"/><linearGradient id="linear-gradient-6" x1="24" y1="34.98" x2="24" y2="28.95" gradientUnits="userSpaceOnUse"><stop offset="0" stop-color="#fff"/><stop offset="0.52" stop-color="#cce2e6"/><stop offset="1" stop-color="#8fa1bb"/></linearGradient><linearGradient id="linear-gradient-7" x1="18.88" y1="37.41" x2="18.88" y2="1.52" xlink:href="#linear-gradient"/><linearGradient id="linear-gradient-8" x1="-431.89" y1="37.41" x2="-431.89" y2="1.52" gradientTransform="matrix(-1, 0, 0, 1, -402.77, 0)" xlink:href="#linear-gradient"/><linearGradient id="linear-gradient-9" x1="24" y1="42.35" x2="24" y2="-14.68" gradientUnits="userSpaceOnUse"><stop offset="0" stop-color="#27e9de"/><stop offset="0.52" stop-color="#03a4ec"/><stop offset="1" stop-color="#2547a8"/></linearGradient><linearGradient id="linear-gradient-10" x1="24" y1="36.87" x2="24" y2="8.41" xlink:href="#linear-gradient-9"/><linearGradient id="linear-gradient-11" x1="24" y1="18.21" x2="24" y2="4.35" xlink:href="#linear-gradient-6"/><linearGradient id="linear-gradient-12" x1="24" y1="11.72" x2="24" y2="8.77" xlink:href="#linear-gradient-6"/><linearGradient id="linear-gradient-13" x1="13.79" y1="8.08" x2="38.51" y2="9.88" xlink:href="#linear-gradient-9"/><linearGradient id="linear-gradient-14" x1="13.88" y1="6.8" x2="38.6" y2="8.6" xlink:href="#linear-gradient-9"/><linearGradient id="linear-gradient-15" x1="13.69" y1="9.43" x2="38.41" y2="11.23" xlink:href="#linear-gradient-9"/><linearGradient id="linear-gradient-16" y1="39.67" y2="-1.14" xlink:href="#linear-gradient"/><linearGradient id="linear-gradient-17" x1="6.19" y1="34.8" x2="6.19" y2="23.64" xlink:href="#linear-gradient-6"/><linearGradient id="linear-gradient-18" x1="10.18" y1="34.03" x2="10.18" y2="27.64" xlink:href="#linear-gradient-6"/><linearGradient id="linear-gradient-19" x1="13.4" y1="34.05" x2="13.4" y2="27.51" xlink:href="#linear-gradient-6"/><linearGradient id="linear-gradient-20" x1="13.7" y1="33.67" x2="13.7" y2="29.53" xlink:href="#linear-gradient-6"/><linearGradient id="linear-gradient-21" x1="19.28" y1="33.91" x2="19.28" y2="28.25" xlink:href="#linear-gradient-6"/><linearGradient id="linear-gradient-22" x1="10.08" y1="28.46" x2="10.08" y2="16.05" xlink:href="#linear-gradient-6"/><linearGradient id="linear-gradient-23" x1="12.54" y1="29.11" x2="12.54" y2="22.91" xlink:href="#linear-gradient-6"/><linearGradient id="linear-gradient-24" x1="8.65" y1="28.21" x2="8.65" y2="24.16" xlink:href="#linear-gradient-6"/><linearGradient id="linear-gradient-25" x1="13.25" y1="24.19" x2="13.25" y2="21.93" xlink:href="#linear-gradient-6"/><linearGradient id="linear-gradient-26" x1="639.19" y1="34.8" x2="639.19" y2="23.64" gradientTransform="matrix(-1, 0, 0, 1, 681, 0)" xlink:href="#linear-gradient-6"/><linearGradient id="linear-gradient-27" x1="643.18" y1="34.03" x2="643.18" y2="27.64" gradientTransform="matrix(-1, 0, 0, 1, 681, 0)" xlink:href="#linear-gradient-6"/><linearGradient id="linear-gradient-28" x1="646.4" y1="34.05" x2="646.4" y2="27.51" gradientTransform="matrix(-1, 0, 0, 1, 681, 0)" xlink:href="#linear-gradient-6"/><linearGradient id="linear-gradient-29" x1="646.7" y1="33.67" x2="646.7" y2="29.53" gradientTransform="matrix(-1, 0, 0, 1, 681, 0)" xlink:href="#linear-gradient-6"/><linearGradient id="linear-gradient-30" x1="652.28" y1="33.91" x2="652.28" y2="28.25" gradientTransform="matrix(-1, 0, 0, 1, 681, 0)" xlink:href="#linear-gradient-6"/><linearGradient id="linear-gradient-31" x1="643.08" y1="28.46" x2="643.08" y2="16.05" gradientTransform="matrix(-1, 0, 0, 1, 681, 0)" xlink:href="#linear-gradient-6"/><linearGradient id="linear-gradient-32" x1="645.54" y1="29.11" x2="645.54" y2="22.91" gradientTransform="matrix(-1, 0, 0, 1, 681, 0)" xlink:href="#linear-gradient-6"/><linearGradient id="linear-gradient-33" x1="641.65" y1="28.21" x2="641.65" y2="24.16" gradientTransform="matrix(-1, 0, 0, 1, 681, 0)" xlink:href="#linear-gradient-6"/><linearGradient id="linear-gradient-34" x1="646.25" y1="24.19" x2="646.25" y2="21.93" gradientTransform="matrix(-1, 0, 0, 1, 681, 0)" xlink:href="#linear-gradient-6"/></defs><title>rocket, startup, monitor, screen, computer</title><path class="cls-1" d="M30,42h0a1.5,1.5,0,0,1-1.5-1.5V35.38h-9V40.5A1.5,1.5,0,0,1,18,42h0a1.5,1.5,0,0,0,0,3H30a1.5,1.5,0,0,0,0-3Z"/><rect class="cls-2" x="19.5" y="36.5" width="9" height="4"/><path class="cls-3" d="M5.4,9H42.6A2.4,2.4,0,0,1,45,11.4V36.6A1.4,1.4,0,0,1,43.6,38H5.4A2.4,2.4,0,0,1,3,35.6V11.4A2.4,2.4,0,0,1,5.4,9Z"/><rect class="cls-4" x="17.62" y="16.83" width="12.76" height="16.17"/><path class="cls-5" d="M3,33v3.6A2.4,2.4,0,0,0,5.4,39H42.6A2.4,2.4,0,0,0,45,36.6V33Z"/><path class="cls-6" d="M26.36,30.64h-.19a1,1,0,0,1-1.09-1V28H22.92v1.65a1,1,0,0,1-1.09,1h-.19A2.36,2.36,0,0,0,19.28,33h9.45A2.36,2.36,0,0,0,26.36,30.64Z"/><path class="cls-7" d="M20.24,23.29,17.45,24.8a4,4,0,0,0-2,2.51l-.09.34a.83.83,0,0,0,1.27.9l.88-.59a2.11,2.11,0,0,1,1.17-.35H22.4"/><path class="cls-8" d="M27.76,23.29l2.79,1.51a4,4,0,0,1,2,2.51l.09.34a.83.83,0,0,1-1.27.9L30.45,28a2.11,2.11,0,0,0-1.17-.35H25.6"/><path class="cls-9" d="M24.52,3.18a.85.85,0,0,0-1,0C20,5.91,17.62,10.91,17.62,16.64a18,18,0,0,0,4,11.72.88.88,0,0,0,.64.3l1.69,0,1.69,0a.88.88,0,0,0,.64-.3,18,18,0,0,0,4-11.72C30.38,10.91,28,5.91,24.52,3.18Z"/><path class="cls-10" d="M26.7,14.13H21.3V27.89c.12.15.24.32.36.47a.88.88,0,0,0,.64.3l1.69,0,1.69,0a.88.88,0,0,0,.64-.3c.13-.15.24-.31.36-.47Z"/><circle class="cls-11" cx="24" cy="14.13" r="2.7"/><circle class="cls-12" cx="24" cy="14.12" r="1.62"/><circle class="cls-13" cx="20.99" cy="8.61" r="0.66"/><circle class="cls-14" cx="21.68" cy="7.37" r="0.38"/><circle class="cls-15" cx="20.33" cy="9.91" r="0.1"/><path class="cls-16" d="M24,29.76h0a1.21,1.21,0,0,1-1.2-1.07l-.4-3.4a1.5,1.5,0,0,1,1.49-1.68h.22A1.5,1.5,0,0,1,25.6,25.3l-.4,3.4A1.21,1.21,0,0,1,24,29.76Z"/><path class="cls-17" d="M3,33H9.37A6.37,6.37,0,0,0,3,26.63Z"/><path class="cls-18" d="M6.54,33a3.65,3.65,0,1,1,7.3,0"/><path class="cls-19" d="M9.67,33a3.74,3.74,0,1,1,7.47,0"/><path class="cls-20" d="M11.34,33a2.36,2.36,0,0,1,4.72,0"/><path class="cls-21" d="M16,33a3.24,3.24,0,1,1,6.47,0"/><circle class="cls-22" cx="10.08" cy="24.37" r="1.08"/><circle class="cls-23" cx="12.54" cy="27.07" r="0.54"/><circle class="cls-24" cx="8.65" cy="26.88" r="0.35"/><circle class="cls-25" cx="13.25" cy="23.45" r="0.2"/><path class="cls-26" d="M45,33H38.63A6.37,6.37,0,0,1,45,26.63Z"/><path class="cls-27" d="M41.46,33a3.65,3.65,0,1,0-7.3,0"/><path class="cls-28" d="M38.33,33a3.74,3.74,0,1,0-7.47,0"/><path class="cls-29" d="M36.66,33a2.36,2.36,0,0,0-4.72,0"/><path class="cls-30" d="M32,33a3.24,3.24,0,1,0-6.47,0"/><circle class="cls-31" cx="37.92" cy="24.37" r="1.08"/><circle class="cls-32" cx="35.46" cy="27.07" r="0.54"/><circle class="cls-33" cx="39.35" cy="26.88" r="0.35"/><circle class="cls-34" cx="34.75" cy="23.45" r="0.2"/></svg>