<svg id="Layer_1" data-name="Layer 1" xmlns="http://www.w3.org/2000/svg" xmlns:xlink="http://www.w3.org/1999/xlink" viewBox="0 0 48 48"><defs><style>.cls-1{fill:url(#linear-gradient);}.cls-2{fill:url(#linear-gradient-2);}.cls-3{fill:url(#linear-gradient-3);}.cls-4{fill:url(#linear-gradient-4);}.cls-5{fill:url(#linear-gradient-5);}.cls-6{fill:url(#linear-gradient-6);}.cls-7{fill:url(#linear-gradient-7);}.cls-8{fill:url(#linear-gradient-8);}.cls-9{fill:url(#linear-gradient-9);}</style><linearGradient id="linear-gradient" x1="16.71" y1="60.16" x2="16.71" y2="0.89" gradientUnits="userSpaceOnUse"><stop offset="0" stop-color="#273a9b"/><stop offset="0.56" stop-color="#202f65"/><stop offset="1" stop-color="#021e2f"/></linearGradient><linearGradient id="linear-gradient-2" x1="16.71" y1="46.31" x2="16.71" y2="24.74" xlink:href="#linear-gradient"/><linearGradient id="linear-gradient-3" x1="16.71" y1="36.43" x2="16.71" y2="10.7" gradientUnits="userSpaceOnUse"><stop offset="0" stop-color="#f3c57a"/><stop offset="0.49" stop-color="#f39369"/><stop offset="1" stop-color="#e94867"/></linearGradient><linearGradient id="linear-gradient-4" x1="-364.09" y1="424.65" x2="-364.09" y2="386.97" gradientTransform="translate(6.34 -531.74) rotate(-45)" gradientUnits="userSpaceOnUse"><stop offset="0" stop-color="#27e9de"/><stop offset="0.52" stop-color="#03a4ec"/><stop offset="1" stop-color="#2547a8"/></linearGradient><linearGradient id="linear-gradient-5" x1="-364.09" y1="415.85" x2="-364.09" y2="402.13" xlink:href="#linear-gradient-4"/><linearGradient id="linear-gradient-6" x1="-364.09" y1="409.56" x2="-364.09" y2="393.21" gradientTransform="translate(399.69 -393.05)" gradientUnits="userSpaceOnUse"><stop offset="0" stop-color="#fff"/><stop offset="0.52" stop-color="#cce2e6"/><stop offset="1" stop-color="#8fa1bb"/></linearGradient><linearGradient id="linear-gradient-7" x1="37.23" y1="-528.69" x2="37.23" y2="-552.87" gradientTransform="translate(-371.82 386.31) rotate(45)" xlink:href="#linear-gradient-3"/><linearGradient id="linear-gradient-8" x1="37.23" y1="-534.34" x2="37.23" y2="-543.14" gradientTransform="translate(-371.82 386.31) rotate(45)" xlink:href="#linear-gradient-3"/><linearGradient id="linear-gradient-9" x1="37.23" y1="-538.37" x2="37.23" y2="-548.87" gradientTransform="translate(-503.95 -7.13) rotate(90)" xlink:href="#linear-gradient-6"/></defs><title>settings, options, preferences, gears</title><path class="cls-1" d="M26.78,30h0a3.39,3.39,0,0,1,1-2.39L30,25.36a1.62,1.62,0,0,0,.25-1.94l-1.05-1.82a1.62,1.62,0,0,0-1.81-.76l-3.08.81a3.38,3.38,0,0,1-2.59-.37h0a3.32,3.32,0,0,1-1.5-2l-.85-3.1A1.62,1.62,0,0,0,17.76,15H15.65a1.62,1.62,0,0,0-1.56,1.19l-.85,3.1a3.32,3.32,0,0,1-1.5,2h0a3.38,3.38,0,0,1-2.59.37l-3.08-.81a1.62,1.62,0,0,0-1.81.76L3.19,23.41a1.62,1.62,0,0,0,.25,1.94l2.33,2.35A3.18,3.18,0,0,1,6.64,30h0a3.18,3.18,0,0,1-.87,2.28L3.44,34.64a1.62,1.62,0,0,0-.25,1.94l1.05,1.82a1.62,1.62,0,0,0,1.81.76l3.23-.85a3.14,3.14,0,0,1,2.41.39l.07,0a3.12,3.12,0,0,1,1.45,1.85l.88,3.21A1.62,1.62,0,0,0,15.65,45h2.11a1.62,1.62,0,0,0,1.56-1.19l.85-3.12a3.27,3.27,0,0,1,1.48-1.95l.17-.1a3,3,0,0,1,2.32-.33l3.23.85a1.62,1.62,0,0,0,1.81-.76l1.05-1.82A1.62,1.62,0,0,0,30,34.64L27.75,32.4a3.39,3.39,0,0,1-1-2.39Z"/><path class="cls-2" d="M13.06,40.29a2.79,2.79,0,0,1,.16.31l.88,3.21A1.62,1.62,0,0,0,15.65,45h2.11a1.62,1.62,0,0,0,1.56-1.19l.85-3.12a3.18,3.18,0,0,1,.19-.37V30h-7.3Z"/><circle class="cls-3" cx="16.71" cy="30" r="3.67"/><path class="cls-4" d="M40.13,7.89h0a2.15,2.15,0,0,1-.63-1.51v-2a1,1,0,0,0-.76-1L37.43,3a1,1,0,0,0-1.15.47l-1,1.75a2.15,2.15,0,0,1-1.33,1h0A2.11,2.11,0,0,1,32.35,6L30.57,5a1,1,0,0,0-1.24.17l-.95.95a1,1,0,0,0-.17,1.24l1,1.77a2.11,2.11,0,0,1,.21,1.56v0a2.15,2.15,0,0,1-1,1.33l-1.75,1a1,1,0,0,0-.47,1.15l.35,1.29a1,1,0,0,0,1,.76h2.1a2,2,0,0,1,1.42.63h0a2,2,0,0,1,.63,1.42v2.1a1,1,0,0,0,.76,1l1.29.35a1,1,0,0,0,1.15-.47L36,19.5a2,2,0,0,1,1.26-.91h.05a2,2,0,0,1,1.48.18l1.84,1a1,1,0,0,0,1.24-.17l.95-.95A1,1,0,0,0,43,17.45l-1-1.78a2.08,2.08,0,0,1-.21-1.54l0-.12a1.92,1.92,0,0,1,.89-1.19l1.83-1.07A1,1,0,0,0,45,10.6L44.65,9.3a1,1,0,0,0-1-.76h-2a2.15,2.15,0,0,1-1.51-.63Z"/><path class="cls-5" d="M38.59,18.68a1.78,1.78,0,0,1,.21.07l1.84,1a1,1,0,0,0,1.24-.17l.95-.95A1,1,0,0,0,43,17.45l-1-1.78a2,2,0,0,1-.09-.25l-4.64-4.64L34,14.06Z"/><circle class="cls-6" cx="35.61" cy="12.42" r="2.34" transform="translate(1.65 28.82) rotate(-45)"/><path class="cls-7" d="M39.95,33h0a1.38,1.38,0,0,1,1-.41h1.29a.66.66,0,0,0,.63-.49l.22-.83a.66.66,0,0,0-.3-.74l-1.12-.66A1.38,1.38,0,0,1,41,29h0a1.35,1.35,0,0,1,.14-1l.65-1.14a.66.66,0,0,0-.11-.79l-.61-.61a.66.66,0,0,0-.79-.11L39.13,26a1.35,1.35,0,0,1-1,.14h0a1.38,1.38,0,0,1-.85-.64l-.66-1.12a.66.66,0,0,0-.74-.3L35,24.3a.66.66,0,0,0-.49.63v1.35a1.3,1.3,0,0,1-.41.91h0a1.3,1.3,0,0,1-.91.41H31.87a.66.66,0,0,0-.63.49l-.22.83a.66.66,0,0,0,.3.74l1.17.69a1.28,1.28,0,0,1,.59.81v0a1.27,1.27,0,0,1-.11,1l-.67,1.18a.66.66,0,0,0,.11.79l.61.61a.66.66,0,0,0,.79.11L35,34.19a1.34,1.34,0,0,1,1-.13l.08,0a1.24,1.24,0,0,1,.76.57l.69,1.18a.66.66,0,0,0,.74.3L39,35.9a.66.66,0,0,0,.49-.63V34a1.38,1.38,0,0,1,.41-1Z"/><path class="cls-8" d="M33,32a1.14,1.14,0,0,1,0,.14l-.67,1.18a.66.66,0,0,0,.11.79l.61.61a.66.66,0,0,0,.79.11L35,34.19a1.3,1.3,0,0,1,.16-.05l3-3L36,29Z"/><circle class="cls-9" cx="37.04" cy="30.1" r="1.5" transform="translate(-10.44 35.01) rotate(-45)"/></svg>