<svg id="Layer_1" data-name="Layer 1" xmlns="http://www.w3.org/2000/svg" xmlns:xlink="http://www.w3.org/1999/xlink" viewBox="0 0 48 48"><defs><style>.cls-1{fill:url(#linear-gradient);}.cls-2{fill:url(#linear-gradient-2);}.cls-3{fill:url(#linear-gradient-3);}.cls-4{fill:url(#linear-gradient-4);}.cls-5{fill:url(#linear-gradient-5);}.cls-6{fill:url(#linear-gradient-6);}.cls-7{fill:url(#linear-gradient-7);}</style><linearGradient id="linear-gradient" x1="31.88" y1="24" x2="-21.16" y2="24" gradientUnits="userSpaceOnUse"><stop offset="0" stop-color="#273a9b"/><stop offset="0.56" stop-color="#202f65"/><stop offset="1" stop-color="#021e2f"/></linearGradient><linearGradient id="linear-gradient-2" x1="-24.36" y1="8.51" x2="56.64" y2="38.84" gradientUnits="userSpaceOnUse"><stop offset="0" stop-color="#f3c57a"/><stop offset="0.49" stop-color="#f39369"/><stop offset="1" stop-color="#e94867"/></linearGradient><linearGradient id="linear-gradient-3" x1="-27.24" y1="16.19" x2="53.76" y2="46.52" xlink:href="#linear-gradient-2"/><linearGradient id="linear-gradient-4" x1="-18.04" y1="-8.36" x2="62.96" y2="21.97" xlink:href="#linear-gradient-2"/><linearGradient id="linear-gradient-5" x1="-8.22" y1="18.73" x2="101.03" y2="40.6" xlink:href="#linear-gradient-2"/><linearGradient id="linear-gradient-6" x1="-10.37" y1="29.49" x2="98.88" y2="51.37" xlink:href="#linear-gradient-2"/><linearGradient id="linear-gradient-7" x1="-4.98" y1="2.57" x2="104.27" y2="24.45" xlink:href="#linear-gradient-2"/></defs><title>share, send, transfer, receive</title><polygon class="cls-1" points="27.97 38.93 13.04 24 27.97 9.07 31.93 13.03 20.96 24 31.93 34.97 27.97 38.93"/><circle class="cls-2" cx="17" cy="24" r="7"/><circle class="cls-3" cx="31" cy="38" r="7"/><circle class="cls-4" cx="31" cy="10" r="7"/><path class="cls-5" d="M12.29,26.29a7,7,0,0,1,10.66-6A7,7,0,1,0,13.34,30,7,7,0,0,1,12.29,26.29Z"/><path class="cls-6" d="M26.29,40.29a7,7,0,0,1,10.66-6A7,7,0,1,0,27.34,44,7,7,0,0,1,26.29,40.29Z"/><path class="cls-7" d="M26.29,12.29A7,7,0,0,1,37,6.34,7,7,0,1,0,27.34,16,7,7,0,0,1,26.29,12.29Z"/></svg>