<svg id="Layer_1" data-name="Layer 1" xmlns="http://www.w3.org/2000/svg" xmlns:xlink="http://www.w3.org/1999/xlink" viewBox="0 0 48 48"><defs><style>.cls-1{fill:url(#linear-gradient);}.cls-2{fill:url(#linear-gradient-2);}.cls-3{fill:url(#linear-gradient-3);}.cls-4{fill:url(#linear-gradient-4);}.cls-5{fill:url(#linear-gradient-5);}.cls-6{fill:url(#linear-gradient-6);}.cls-7{fill:url(#linear-gradient-7);}.cls-8{fill:url(#linear-gradient-8);}.cls-9{fill:url(#linear-gradient-9);}.cls-10{fill:url(#linear-gradient-10);}.cls-11{fill:url(#linear-gradient-11);}.cls-12{fill:url(#linear-gradient-12);}.cls-13{fill:url(#linear-gradient-13);}.cls-14{fill:url(#linear-gradient-14);}.cls-15{fill:url(#linear-gradient-15);}.cls-16{fill:url(#linear-gradient-16);}.cls-17{fill:url(#linear-gradient-17);}.cls-18{fill:url(#linear-gradient-18);}</style><linearGradient id="linear-gradient" x1="16.5" y1="83" x2="16.5" y2="-8.33" gradientUnits="userSpaceOnUse"><stop offset="0" stop-color="#27e9de"/><stop offset="0.52" stop-color="#03a4ec"/><stop offset="1" stop-color="#2547a8"/></linearGradient><linearGradient id="linear-gradient-2" x1="16.5" y1="50" x2="16.5" y2="-8" gradientUnits="userSpaceOnUse"><stop offset="0" stop-color="#273a9b"/><stop offset="0.56" stop-color="#202f65"/><stop offset="1" stop-color="#021e2f"/></linearGradient><linearGradient id="linear-gradient-3" x1="16.51" y1="45.14" x2="16.51" y2="31.64" xlink:href="#linear-gradient-2"/><linearGradient id="linear-gradient-4" y1="18.71" x2="16.5" y2="5.6" xlink:href="#linear-gradient-2"/><linearGradient id="linear-gradient-5" x1="22.17" y1="24" x2="72.32" y2="24" xlink:href="#linear-gradient"/><linearGradient id="linear-gradient-6" x1="22.17" y1="24" x2="72.32" y2="24" xlink:href="#linear-gradient"/><linearGradient id="linear-gradient-7" x1="22.17" y1="24" x2="72.32" y2="24" xlink:href="#linear-gradient"/><linearGradient id="linear-gradient-8" x1="16.5" y1="37.25" x2="16.5" y2="27.13" gradientUnits="userSpaceOnUse"><stop offset="0" stop-color="#fff"/><stop offset="0.52" stop-color="#cce2e6"/><stop offset="1" stop-color="#8fa1bb"/></linearGradient><linearGradient id="linear-gradient-9" x1="16.5" y1="38.9" x2="16.5" y2="27.65" xlink:href="#linear-gradient-8"/><linearGradient id="linear-gradient-10" x1="16.5" y1="42.51" x2="16.5" y2="13.84" xlink:href="#linear-gradient-8"/><linearGradient id="linear-gradient-11" x1="16.5" y1="41.67" x2="16.5" y2="21.49" xlink:href="#linear-gradient-8"/><linearGradient id="linear-gradient-12" y1="34.67" x2="16.5" y2="24.42" xlink:href="#linear-gradient"/><linearGradient id="linear-gradient-13" y1="37.8" x2="16.5" y2="15.99" xlink:href="#linear-gradient"/><linearGradient id="linear-gradient-14" y1="34.19" x2="16.5" y2="24" xlink:href="#linear-gradient"/><linearGradient id="linear-gradient-15" y1="32.75" x2="16.5" y2="21.81" xlink:href="#linear-gradient"/><linearGradient id="linear-gradient-16" y1="33.48" x2="16.5" y2="22.54" xlink:href="#linear-gradient"/><linearGradient id="linear-gradient-17" x1="18.32" y1="25.3" x2="12.72" y2="22.31" xlink:href="#linear-gradient"/><linearGradient id="linear-gradient-18" x1="17.85" y1="26.16" x2="12.26" y2="23.18" xlink:href="#linear-gradient"/></defs><title>smart, house, smartphone, webcam, cam</title><rect class="cls-1" x="3" y="3" width="27" height="42" rx="5.26" ry="5.26"/><path class="cls-2" d="M24.89,6H21.62a1.29,1.29,0,0,0-1.21.83l-.1.25a1.29,1.29,0,0,1-1.21.83H13.89a1.29,1.29,0,0,1-1.21-.83l-.1-.25A1.29,1.29,0,0,0,11.38,6H8.11A2.11,2.11,0,0,0,6,8.11V39.89A2.11,2.11,0,0,0,8.11,42H24.89A2.11,2.11,0,0,0,27,39.89V8.11A2.11,2.11,0,0,0,24.89,6Z"/><rect class="cls-3" x="10.56" y="31.9" width="11.91" height="10.1"/><path class="cls-4" d="M24.89,6H21.62a1.29,1.29,0,0,0-1.21.83l-.1.25a1.29,1.29,0,0,1-1.21.83H13.89a1.29,1.29,0,0,1-1.21-.83l-.1-.25A1.29,1.29,0,0,0,11.38,6H8.11A2.11,2.11,0,0,0,6,8.11V9.23A2.11,2.11,0,0,1,8.11,7.13h3.27A1.29,1.29,0,0,1,12.59,8l.1.25A1.29,1.29,0,0,0,13.89,9h5.22a1.29,1.29,0,0,0,1.21-.83l.1-.25a1.29,1.29,0,0,1,1.21-.83h3.27A2.11,2.11,0,0,1,27,9.23V8.11A2.11,2.11,0,0,0,24.89,6Z"/><path class="cls-5" d="M34.35,20.11a1.5,1.5,0,0,0-2.12,2.12,2.5,2.5,0,0,1,0,3.54,1.5,1.5,0,0,0,2.12,2.12A5.51,5.51,0,0,0,34.35,20.11Z"/><path class="cls-6" d="M37.52,16.94a1.5,1.5,0,0,0-2.12,2.12,7,7,0,0,1,0,9.88,1.5,1.5,0,0,0,2.12,2.12A10,10,0,0,0,37.52,16.94Z"/><path class="cls-7" d="M40.74,13.72a1.5,1.5,0,0,0-2.12,2.12,11.54,11.54,0,0,1,0,16.32,1.5,1.5,0,0,0,2.12,2.12,14.53,14.53,0,0,0,0-20.56Z"/><path class="cls-8" d="M16.5,33a26.45,26.45,0,0,0,5.37-.53.74.74,0,0,0,.38-1.24L16.5,25.5l-5.75,5.75a.74.74,0,0,0,.38,1.24A26.45,26.45,0,0,0,16.5,33Z"/><path class="cls-9" d="M16.5,25.5l-4.75,4.75a6.71,6.71,0,0,0,9.49,0Z"/><circle class="cls-10" cx="16.5" cy="24.69" r="6.71"/><path class="cls-11" d="M21.33,24.69H11.67v4.65a6.7,6.7,0,0,0,9.67,0Z"/><circle class="cls-12" cx="16.5" cy="24.69" r="4.83"/><circle class="cls-13" cx="16.5" cy="24.69" r="3.98"/><path class="cls-14" d="M14.36,28.05a4,4,0,0,0,4.27,0V24.69H14.36Z"/><circle class="cls-15" cx="16.5" cy="24.69" r="2.14"/><circle class="cls-16" cx="16.5" cy="24.69" r="1.28"/><circle class="cls-17" cx="15.59" cy="23.84" r="0.52"/><circle class="cls-18" cx="15.22" cy="24.76" r="0.21"/></svg>