<svg id="Layer_1" data-name="Layer 1" xmlns="http://www.w3.org/2000/svg" xmlns:xlink="http://www.w3.org/1999/xlink" viewBox="0 0 48 48"><defs><style>.cls-1{fill:url(#linear-gradient);}.cls-2{fill:url(#linear-gradient-2);}.cls-3{fill:url(#linear-gradient-3);}.cls-4{fill:url(#linear-gradient-4);}.cls-5{fill:url(#linear-gradient-5);}.cls-6{fill:url(#linear-gradient-6);}.cls-7{fill:url(#linear-gradient-7);}.cls-8{fill:url(#linear-gradient-8);}.cls-9{fill:url(#linear-gradient-9);}.cls-10{fill:url(#linear-gradient-10);}.cls-11{fill:url(#linear-gradient-11);}.cls-12{fill:url(#linear-gradient-12);}.cls-13{fill:url(#linear-gradient-13);}.cls-14{fill:url(#linear-gradient-14);}.cls-15{fill:url(#linear-gradient-15);}</style><linearGradient id="linear-gradient" x1="24" y1="47.88" x2="24" y2="9.94" gradientUnits="userSpaceOnUse"><stop offset="0" stop-color="#273a9b"/><stop offset="0.56" stop-color="#202f65"/><stop offset="1" stop-color="#021e2f"/></linearGradient><linearGradient id="linear-gradient-2" x1="24" y1="42" x2="24" y2="-16.13" gradientUnits="userSpaceOnUse"><stop offset="0" stop-color="#27e9de"/><stop offset="0.52" stop-color="#03a4ec"/><stop offset="1" stop-color="#2547a8"/></linearGradient><linearGradient id="linear-gradient-3" x1="24" y1="30.25" x2="24" y2="-8.77" xlink:href="#linear-gradient-2"/><linearGradient id="linear-gradient-4" x1="24" y1="43" x2="24" y2="35.35" xlink:href="#linear-gradient"/><linearGradient id="linear-gradient-5" x1="24" y1="-5.31" x2="24" y2="19.1" xlink:href="#linear-gradient-2"/><linearGradient id="linear-gradient-6" x1="24" y1="46.5" x2="24" y2="-11.38" xlink:href="#linear-gradient-2"/><linearGradient id="linear-gradient-7" x1="24" y1="-8.5" x2="24" y2="18.67" xlink:href="#linear-gradient-2"/><linearGradient id="linear-gradient-8" x1="24" y1="35.5" x2="24" y2="2.66" xlink:href="#linear-gradient-2"/><linearGradient id="linear-gradient-9" x1="24" y1="33.12" x2="24" y2="-8.54" xlink:href="#linear-gradient-2"/><linearGradient id="linear-gradient-10" x1="24" y1="38.67" x2="24" y2="10.3" xlink:href="#linear-gradient-2"/><linearGradient id="linear-gradient-11" x1="24" y1="42" x2="24" y2="18.69" xlink:href="#linear-gradient-2"/><linearGradient id="linear-gradient-12" x1="24" y1="11" x2="24" y2="2.48" gradientUnits="userSpaceOnUse"><stop offset="0" stop-color="#fff"/><stop offset="0.52" stop-color="#cce2e6"/><stop offset="1" stop-color="#8fa1bb"/></linearGradient><linearGradient id="linear-gradient-13" x1="24" y1="33.54" x2="24" y2="-20.35" xlink:href="#linear-gradient-12"/><linearGradient id="linear-gradient-14" x1="24.01" y1="27.25" x2="24.01" y2="14.16" xlink:href="#linear-gradient-12"/><linearGradient id="linear-gradient-15" x1="24" y1="48.25" x2="24" y2="-0.01" xlink:href="#linear-gradient-2"/></defs><title>solar, power, energy, panel, ecology</title><path class="cls-1" d="M32.18,42a23.66,23.66,0,0,0-3.13-.56,4,4,0,0,1-3.56-4V34.92h-3v2.53a4,4,0,0,1-3.56,4,23.66,23.66,0,0,0-3.13.56,1.1,1.1,0,0,0,0,2.13A34.34,34.34,0,0,0,24,45a34.34,34.34,0,0,0,8.2-.85A1.1,1.1,0,0,0,32.18,42Z"/><path class="cls-2" d="M41.45,36H6.55a2.83,2.83,0,0,1-2.76-3.46L10,5.2A2.83,2.83,0,0,1,12.76,3H35.24A2.83,2.83,0,0,1,38,5.2l6.21,27.34A2.83,2.83,0,0,1,41.45,36Z"/><path class="cls-3" d="M41.45,36H6.55a2.83,2.83,0,0,1-2.76-3.46L10,5.2A2.83,2.83,0,0,1,12.76,3H35.24A2.83,2.83,0,0,1,38,5.2l6.21,27.34A2.83,2.83,0,0,1,41.45,36Z"/><path class="cls-4" d="M24,39a1.48,1.48,0,0,0,1.46-1.54V34.92h-3v2.54A1.48,1.48,0,0,0,24,39Z"/><path class="cls-5" d="M11.23,6H36.77a3.2,3.2,0,0,1,1.49.37L38,5.2A2.83,2.83,0,0,0,35.24,3H12.76A2.83,2.83,0,0,0,10,5.2L9.73,6.37A3.2,3.2,0,0,1,11.23,6Z"/><polygon class="cls-6" points="31.5 36 16.5 36 19.18 3 28.82 3 31.5 36"/><polygon class="cls-7" points="29.07 6 28.82 3 19.18 3 18.93 6 29.07 6"/><polygon class="cls-8" points="6.07 22.5 41.93 22.5 39.55 12 8.46 12 6.07 22.5"/><polygon class="cls-9" points="17.6 22.5 30.4 22.5 29.55 12 18.45 12 17.6 22.5"/><path class="cls-10" d="M6.55,36H41.45a2.79,2.79,0,0,0,2.31-1.21,1.17,1.17,0,0,0-1-1.79H5.24a1.17,1.17,0,0,0-1,1.79A2.79,2.79,0,0,0,6.55,36Z"/><path class="cls-11" d="M16.74,33l-.08,1a1.81,1.81,0,0,0,1.8,2H29.54a1.81,1.81,0,0,0,1.8-2l-.08-1Z"/><circle class="cls-12" cx="24" cy="17.25" r="9"/><path class="cls-13" d="M29.39,10.06a9,9,0,0,0-10.79,0L17.52,23.48a9,9,0,0,0,13,0Z"/><path class="cls-14" d="M20.46,25.52a9,9,0,0,0,7.11,0v-9.3l-7.11,2.34Z"/><path class="cls-15" d="M25.41,15.28l1-2.42a.63.63,0,0,0-.59-.86H23.31a.63.63,0,0,0-.59.4l-2.25,5.74a.63.63,0,0,0,.59.86h1.38a.16.16,0,0,1,.15.22l-1,2.42a.63.63,0,0,0,.59.86h2.46a.63.63,0,0,0,.59-.4l2.25-5.74a.63.63,0,0,0-.59-.86H25.56A.16.16,0,0,1,25.41,15.28Z"/></svg>