<svg id="Layer_1" data-name="Layer 1" xmlns="http://www.w3.org/2000/svg" xmlns:xlink="http://www.w3.org/1999/xlink" viewBox="0 0 48 48"><defs><style>.cls-1{fill:url(#linear-gradient);}.cls-2{fill:url(#linear-gradient-2);}.cls-3{fill:url(#linear-gradient-3);}.cls-4{fill:url(#linear-gradient-4);}.cls-5{fill:url(#linear-gradient-5);}.cls-6{fill:url(#linear-gradient-6);}.cls-7{fill:url(#linear-gradient-7);}.cls-8{fill:url(#linear-gradient-8);}.cls-9{fill:url(#linear-gradient-9);}.cls-10{fill:url(#linear-gradient-10);}.cls-11{fill:url(#linear-gradient-11);}.cls-12{fill:url(#linear-gradient-12);}.cls-13{fill:url(#linear-gradient-13);}.cls-14{fill:url(#linear-gradient-14);}.cls-15{fill:url(#linear-gradient-15);}.cls-16{fill:url(#linear-gradient-16);}.cls-17{fill:url(#linear-gradient-17);}.cls-18{fill:url(#linear-gradient-18);}.cls-19{fill:url(#linear-gradient-19);}.cls-20{fill:url(#linear-gradient-20);}.cls-21{fill:url(#linear-gradient-21);}.cls-22{fill:url(#linear-gradient-22);}.cls-23{fill:url(#linear-gradient-23);}.cls-24{fill:url(#linear-gradient-24);}.cls-25{fill:url(#linear-gradient-25);}.cls-26{fill:url(#linear-gradient-26);}.cls-27{fill:url(#linear-gradient-27);}.cls-28{fill:url(#linear-gradient-28);}.cls-29{fill:url(#linear-gradient-29);}.cls-30{fill:url(#linear-gradient-30);}.cls-31{fill:url(#linear-gradient-31);}.cls-32{fill:url(#linear-gradient-32);}.cls-33{fill:url(#linear-gradient-33);}.cls-34{fill:url(#linear-gradient-34);}.cls-35{fill:url(#linear-gradient-35);}</style><linearGradient id="linear-gradient" x1="11.9" y1="28.39" x2="11.9" y2="-6.24" gradientUnits="userSpaceOnUse"><stop offset="0" stop-color="#fff"/><stop offset="0.52" stop-color="#cce2e6"/><stop offset="1" stop-color="#8fa1bb"/></linearGradient><linearGradient id="linear-gradient-2" x1="11.9" y1="38.86" x2="11.9" y2="-3.75" xlink:href="#linear-gradient"/><linearGradient id="linear-gradient-3" x1="6.76" y1="38.4" x2="6.76" y2="-13.21" xlink:href="#linear-gradient"/><linearGradient id="linear-gradient-4" x1="8.85" y1="38.4" x2="8.85" y2="-13.21" xlink:href="#linear-gradient"/><linearGradient id="linear-gradient-5" x1="9.28" y1="38.41" x2="9.28" y2="-13.23" xlink:href="#linear-gradient"/><linearGradient id="linear-gradient-6" x1="13.32" y1="38.4" x2="13.32" y2="-13.22" xlink:href="#linear-gradient"/><linearGradient id="linear-gradient-7" x1="17.34" y1="38.4" x2="17.34" y2="-13.22" xlink:href="#linear-gradient"/><linearGradient id="linear-gradient-8" x1="9.78" y1="38.4" x2="9.78" y2="-13.21" xlink:href="#linear-gradient"/><linearGradient id="linear-gradient-9" x1="11.58" y1="38.4" x2="11.58" y2="-13.22" xlink:href="#linear-gradient"/><linearGradient id="linear-gradient-10" x1="5.62" y1="38.4" x2="5.62" y2="-13.21" xlink:href="#linear-gradient"/><linearGradient id="linear-gradient-11" x1="8.56" y1="38.4" x2="8.56" y2="-13.21" xlink:href="#linear-gradient"/><linearGradient id="linear-gradient-12" x1="25.6" y1="59.74" x2="25.6" y2="-2.76" gradientUnits="userSpaceOnUse"><stop offset="0" stop-color="#f3c57a"/><stop offset="0.49" stop-color="#f39369"/><stop offset="1" stop-color="#e94867"/></linearGradient><linearGradient id="linear-gradient-13" x1="25.76" y1="44.29" x2="25.76" y2="29.64" xlink:href="#linear-gradient-12"/><linearGradient id="linear-gradient-14" x1="25.6" y1="81.23" x2="25.6" y2="-16.71" gradientUnits="userSpaceOnUse"><stop offset="0" stop-color="#273a9b"/><stop offset="0.56" stop-color="#202f65"/><stop offset="1" stop-color="#021e2f"/></linearGradient><linearGradient id="linear-gradient-15" x1="10.33" y1="48.61" x2="10.33" y2="5.29" xlink:href="#linear-gradient-14"/><linearGradient id="linear-gradient-16" x1="-2.53" y1="67.01" x2="44.37" y2="-0.47" xlink:href="#linear-gradient-14"/><linearGradient id="linear-gradient-17" x1="36.75" y1="81.23" x2="36.75" y2="-16.71" xlink:href="#linear-gradient-14"/><linearGradient id="linear-gradient-18" x1="20.25" y1="15.35" x2="48.05" y2="27.25" xlink:href="#linear-gradient-14"/><linearGradient id="linear-gradient-19" x1="6.32" y1="-1.42" x2="30.7" y2="22.73" xlink:href="#linear-gradient-14"/><linearGradient id="linear-gradient-20" x1="21.89" y1="11.52" x2="49.69" y2="23.42" xlink:href="#linear-gradient-14"/><linearGradient id="linear-gradient-21" x1="8.79" y1="2.17" x2="36.59" y2="14.07" xlink:href="#linear-gradient-14"/><linearGradient id="linear-gradient-22" x1="-1.68" y1="9.37" x2="21.76" y2="32.81" xlink:href="#linear-gradient-14"/><linearGradient id="linear-gradient-23" x1="-4.96" y1="2.16" x2="30.74" y2="37.86" xlink:href="#linear-gradient-14"/><linearGradient id="linear-gradient-24" x1="8.77" y1="47.79" x2="8.77" y2="8.16" gradientUnits="userSpaceOnUse"><stop offset="0" stop-color="#27e9de"/><stop offset="0.52" stop-color="#03a4ec"/><stop offset="1" stop-color="#2547a8"/></linearGradient><linearGradient id="linear-gradient-25" x1="12.1" y1="47.79" x2="12.1" y2="8.16" xlink:href="#linear-gradient-24"/><linearGradient id="linear-gradient-26" x1="15.43" y1="47.79" x2="15.43" y2="8.16" xlink:href="#linear-gradient-24"/><linearGradient id="linear-gradient-27" x1="7.76" y1="47.79" x2="7.76" y2="8.16" xlink:href="#linear-gradient-24"/><linearGradient id="linear-gradient-28" x1="11.09" y1="47.79" x2="11.09" y2="8.16" xlink:href="#linear-gradient-24"/><linearGradient id="linear-gradient-29" x1="14.41" y1="47.79" x2="14.41" y2="8.16" xlink:href="#linear-gradient-24"/><linearGradient id="linear-gradient-30" x1="6.74" y1="47.79" x2="6.74" y2="8.16" xlink:href="#linear-gradient-24"/><linearGradient id="linear-gradient-31" x1="10.07" y1="47.79" x2="10.07" y2="8.16" xlink:href="#linear-gradient-24"/><linearGradient id="linear-gradient-32" x1="13.4" y1="47.79" x2="13.4" y2="8.16" xlink:href="#linear-gradient-24"/><linearGradient id="linear-gradient-33" x1="16.73" y1="47.79" x2="16.73" y2="8.16" xlink:href="#linear-gradient-24"/><linearGradient id="linear-gradient-34" x1="20.06" y1="47.79" x2="20.06" y2="8.16" xlink:href="#linear-gradient-24"/><linearGradient id="linear-gradient-35" x1="14.23" y1="26.49" x2="14.23" y2="0.78" xlink:href="#linear-gradient-14"/></defs><title>storm, night, moon, weather, forecast</title><circle class="cls-1" cx="11.9" cy="12.01" r="9.01"/><circle class="cls-2" cx="11.9" cy="12.01" r="7.72"/><circle class="cls-3" cx="6.76" cy="10.37" r="0.64"/><circle class="cls-4" cx="8.85" cy="13.57" r="0.38"/><circle class="cls-5" cx="9.28" cy="15.93" r="0.05"/><circle class="cls-6" cx="13.32" cy="17.86" r="0.59"/><circle class="cls-7" cx="17.34" cy="17.06" r="0.36"/><circle class="cls-8" cx="9.78" cy="17.25" r="0.55"/><circle class="cls-9" cx="11.58" cy="14.91" r="0.32"/><circle class="cls-10" cx="5.62" cy="13.7" r="0.15"/><circle class="cls-11" cx="8.56" cy="8.53" r="0.27"/><path class="cls-12" d="M22,19.88,17.78,36.65A1.3,1.3,0,0,0,19,38.27h4.88L22.21,44a.77.77,0,0,0,1.32.72l8.61-10a.93.93,0,0,0-.7-1.54H26.57l6.89-13.31"/><path class="cls-13" d="M31.44,33.19H26.57l6.89-13.31H22L18.05,35.57H31.42l.72-.84A.93.93,0,0,0,31.44,33.19Z"/><path class="cls-14" d="M36.69,15.79a11.17,11.17,0,0,0-22.17,0,9,9,0,0,0,.64,18.08H36.05a9,9,0,0,0,.64-18.08Z"/><path class="cls-15" d="M14.41,16l.1-.25A9,9,0,0,0,6.14,24,9.09,9.09,0,0,1,11,19.4,6.06,6.06,0,0,0,14.41,16Z"/><path class="cls-16" d="M45,23.69a9.62,9.62,0,0,0-.18-1,9,9,0,0,0-8.16-6.93,11.12,11.12,0,0,0-1.36-4.08h0a11.23,11.23,0,0,0-.78-1.2l0,0c-.13-.17-.26-.33-.4-.5L34,9.84a11.54,11.54,0,0,0-1.35-1.31l-.21-.17-.4-.3-.33-.22-.38-.25q-.34-.2-.68-.38l-.32-.15-.5-.22-.33-.13-.63-.21-.21-.07c-.28-.08-.57-.15-.87-.21l-.26,0-.69-.1-.28,0c-.31,0-.63,0-.95,0s-.71,0-1.06,0l-.41.06-.62.09-.58.14-.41.1L22,6.63l-.39.13c-.21.08-.41.18-.61.27l-.31.13c-.24.12-.46.25-.69.38l-.18.1c-.25.15-.49.32-.73.49L19,8.2c-.25.19-.49.39-.73.59l0,0a11.17,11.17,0,0,0-3.67,6.94A11.17,11.17,0,0,1,24.79,9h.1a5,5,0,0,1,4.39,7.21,8.29,8.29,0,0,0-.88,3.74v4.18a8.35,8.35,0,0,1,6.73-8.19,11.12,11.12,0,0,1,.75,2.85,9,9,0,0,1,8.42,9c0,.28,0,.57,0,.84h0a9.23,9.23,0,0,0,.36-.88v0c.1-.28.18-.57.25-.86l0-.09c.06-.27.1-.54.14-.82,0-.06,0-.11,0-.16a8.94,8.94,0,0,0,.06-1,8.59,8.59,0,0,0-.07-1Z"/><path class="cls-17" d="M36.05,33.87a9,9,0,0,0,.64-18.08v0a8.36,8.36,0,0,0-8.29,8.35v9.75Z"/><path class="cls-18" d="M32.08,24.12h0a1.4,1.4,0,0,1-1.33-1.82,6.29,6.29,0,0,1,4.1-4.13,1.4,1.4,0,0,1,1.83,1.32h0a1.4,1.4,0,0,1-1,1.34,3.48,3.48,0,0,0-2.28,2.3A1.4,1.4,0,0,1,32.08,24.12Z"/><path class="cls-19" d="M18.64,15.38h0a1.4,1.4,0,0,1-1.33-1.82,6.29,6.29,0,0,1,4.1-4.13,1.4,1.4,0,0,1,1.83,1.32h0a1.39,1.39,0,0,1-1,1.34A3.48,3.48,0,0,0,20,14.38,1.4,1.4,0,0,1,18.64,15.38Z"/><circle class="cls-20" cx="38.7" cy="18.72" r="0.83"/><circle class="cls-21" cx="25.6" cy="9.36" r="0.83"/><circle class="cls-22" cx="10.28" cy="21.33" r="0.83"/><circle class="cls-23" cx="13.25" cy="20.37" r="1.27"/><path class="cls-24" d="M9.33,37.17a2.32,2.32,0,0,0,0-1.91,2.32,2.32,0,0,0-1.27,1.42v0a.68.68,0,0,0,1.26.48Z"/><path class="cls-25" d="M12.66,37.17a2.32,2.32,0,0,0,0-1.91,2.32,2.32,0,0,0-1.27,1.42v0a.68.68,0,0,0,1.26.48Z"/><path class="cls-26" d="M16,37.17a2.32,2.32,0,0,0,0-1.91,2.32,2.32,0,0,0-1.27,1.42v0a.68.68,0,0,0,1.26.48Z"/><path class="cls-27" d="M7,40v0a.68.68,0,0,0,1.26.48v0a2.32,2.32,0,0,0,0-1.91A2.32,2.32,0,0,0,7,40Z"/><path class="cls-28" d="M10.38,40v0a.68.68,0,0,0,1.26.48v0a2.32,2.32,0,0,0,0-1.91A2.32,2.32,0,0,0,10.38,40Z"/><path class="cls-29" d="M13.71,40v0a.68.68,0,0,0,1.26.48v0a2.32,2.32,0,0,0,0-1.91A2.32,2.32,0,0,0,13.71,40Z"/><path class="cls-30" d="M6,43.26v0a.68.68,0,0,0,1.26.48v0a2.32,2.32,0,0,0,0-1.91A2.32,2.32,0,0,0,6,43.26Z"/><path class="cls-31" d="M9.36,43.26v0a.68.68,0,0,0,1.26.48v0a2.32,2.32,0,0,0,0-1.91A2.32,2.32,0,0,0,9.36,43.26Z"/><path class="cls-32" d="M12.69,43.26v0a.68.68,0,0,0,1.26.48v0a2.32,2.32,0,0,0,0-1.91A2.32,2.32,0,0,0,12.69,43.26Z"/><path class="cls-33" d="M16,43.26v0a.68.68,0,0,0,1.26.48v0a2.32,2.32,0,0,0,0-1.91A2.32,2.32,0,0,0,16,43.26Z"/><path class="cls-34" d="M19.35,43.26v0a.68.68,0,0,0,1.26.48v0a2.32,2.32,0,0,0,0-1.91A2.32,2.32,0,0,0,19.35,43.26Z"/><path class="cls-35" d="M7.55,19.9A9,9,0,0,0,19.78,7.64a11.19,11.19,0,0,0-5.26,8.15A9.05,9.05,0,0,0,7.55,19.9Z"/></svg>