<svg id="Layer_1" data-name="Layer 1" xmlns="http://www.w3.org/2000/svg" xmlns:xlink="http://www.w3.org/1999/xlink" viewBox="0 0 48 48"><defs><style>.cls-1{fill:url(#linear-gradient);}.cls-2{fill:url(#linear-gradient-2);}.cls-3{fill:url(#linear-gradient-3);}.cls-4{fill:url(#linear-gradient-4);}.cls-5{fill:url(#linear-gradient-5);}.cls-6{fill:url(#linear-gradient-6);}.cls-7{fill:url(#linear-gradient-7);}.cls-8{fill:url(#linear-gradient-8);}.cls-9{fill:url(#linear-gradient-9);}.cls-10{fill:url(#linear-gradient-10);}</style><linearGradient id="linear-gradient" x1="14.73" y1="15.11" x2="-11.12" y2="-10.74" gradientUnits="userSpaceOnUse"><stop offset="0" stop-color="#273a9b"/><stop offset="0.56" stop-color="#202f65"/><stop offset="1" stop-color="#021e2f"/></linearGradient><linearGradient id="linear-gradient-2" x1="-1155.48" y1="498.96" x2="-1181.33" y2="473.1" gradientTransform="translate(-1122.21 531.85) rotate(180)" xlink:href="#linear-gradient"/><linearGradient id="linear-gradient-3" x1="12" y1="64.8" x2="12" y2="17.03" gradientUnits="userSpaceOnUse"><stop offset="0" stop-color="#f3c57a"/><stop offset="0.49" stop-color="#f39369"/><stop offset="1" stop-color="#e94867"/></linearGradient><linearGradient id="linear-gradient-4" x1="12" y1="46.8" x2="12" y2="-4.65" xlink:href="#linear-gradient"/><linearGradient id="linear-gradient-5" x1="12" y1="43.64" x2="12" y2="33.84" xlink:href="#linear-gradient"/><linearGradient id="linear-gradient-6" x1="12" y1="46.76" x2="12" y2="-4.59" xlink:href="#linear-gradient"/><linearGradient id="linear-gradient-7" x1="36" y1="40.8" x2="36" y2="-6.97" xlink:href="#linear-gradient"/><linearGradient id="linear-gradient-8" x1="36" y1="37.88" x2="36" y2="-10.41" xlink:href="#linear-gradient-3"/><linearGradient id="linear-gradient-9" x1="36" y1="31.5" x2="36" y2="4.5" xlink:href="#linear-gradient-3"/><linearGradient id="linear-gradient-10" x1="36" y1="37.88" x2="36" y2="-10.41" xlink:href="#linear-gradient-3"/></defs><title>teamwork, team, woman, account, profile</title><path class="cls-1" d="M23.75,8.36l-4-4A1,1,0,0,0,18,5h0a.92.92,0,0,1-.92.92H15.52A9.52,9.52,0,0,0,6,15.49V20.8A3.11,3.11,0,0,0,8.84,24,3,3,0,0,0,12,21V15.49A3.52,3.52,0,0,1,15.52,12h1.55a.92.92,0,0,1,.92.92h0a1,1,0,0,0,1.73.71l4-4A.86.86,0,0,0,23.75,8.36Z"/><path class="cls-2" d="M24.25,39.64l4,4A1,1,0,0,0,30,43h0a.92.92,0,0,1,.92-.92h1.55A9.52,9.52,0,0,0,42,32.51V27.21A3.11,3.11,0,0,0,39.16,24,3,3,0,0,0,36,27v5.48A3.52,3.52,0,0,1,32.48,36H30.93a.92.92,0,0,1-.92-.92h0a1,1,0,0,0-1.73-.71l-4,4A.86.86,0,0,0,24.25,39.64Z"/><circle class="cls-3" cx="12" cy="36" r="9"/><path class="cls-4" d="M12,38.6a9,9,0,0,0-6.88,3.2,9,9,0,0,0,13.75,0A9,9,0,0,0,12,38.6Z"/><path class="cls-5" d="M12,38.59a8.93,8.93,0,0,0-3.31.64,3.6,3.6,0,0,0,6.61,0A8.93,8.93,0,0,0,12,38.59Z"/><path class="cls-6" d="M12,30.59c-2.5,0-4.63,1.9-5.49,4.58a2,2,0,0,0,2,2.62h7.07a2,2,0,0,0,2-2.62C16.63,32.49,14.5,30.59,12,30.59Z"/><circle class="cls-7" cx="36" cy="12" r="9"/><path class="cls-8" d="M36,14.6a9,9,0,0,0-6.88,3.2,9,9,0,0,0,13.75,0A9,9,0,0,0,36,14.6Z"/><path class="cls-9" d="M36,14.59a8.93,8.93,0,0,0-3.31.64,3.6,3.6,0,0,0,6.61,0A8.93,8.93,0,0,0,36,14.59Z"/><path class="cls-10" d="M36,6.6c-2.5,0-4.63,1.9-5.49,4.58a2,2,0,0,0,2,2.62h7.07a2,2,0,0,0,2-2.62C40.63,8.49,38.5,6.6,36,6.6Z"/></svg>