<svg id="Layer_1" data-name="Layer 1" xmlns="http://www.w3.org/2000/svg" xmlns:xlink="http://www.w3.org/1999/xlink" viewBox="0 0 48 48"><defs><style>.cls-1{fill:url(#linear-gradient);}.cls-2{fill:url(#linear-gradient-2);}.cls-3{fill:url(#linear-gradient-3);}.cls-4{fill:url(#linear-gradient-4);}.cls-5{fill:url(#linear-gradient-5);}.cls-6{fill:url(#linear-gradient-6);}.cls-7{fill:url(#linear-gradient-7);}.cls-8{fill:url(#linear-gradient-8);}</style><linearGradient id="linear-gradient" x1="24" y1="46.85" x2="24" y2="38.43" gradientUnits="userSpaceOnUse"><stop offset="0" stop-color="#fff"/><stop offset="0.52" stop-color="#cce2e6"/><stop offset="1" stop-color="#8fa1bb"/></linearGradient><linearGradient id="linear-gradient-2" x1="24" y1="29.81" x2="24" y2="-25.04" gradientUnits="userSpaceOnUse"><stop offset="0" stop-color="#273a9b"/><stop offset="0.56" stop-color="#202f65"/><stop offset="1" stop-color="#021e2f"/></linearGradient><linearGradient id="linear-gradient-3" x1="28.25" y1="49.98" x2="28.25" y2="-7.92" xlink:href="#linear-gradient-2"/><linearGradient id="linear-gradient-4" y1="28" y2="-4.25" xlink:href="#linear-gradient"/><linearGradient id="linear-gradient-5" x1="17.25" y1="22.63" x2="17.25" y2="2.08" gradientUnits="userSpaceOnUse"><stop offset="0" stop-color="#27e9de"/><stop offset="0.52" stop-color="#03a4ec"/><stop offset="1" stop-color="#2547a8"/></linearGradient><linearGradient id="linear-gradient-6" x1="30.75" y1="23.5" x2="30.75" y2="5.74" gradientUnits="userSpaceOnUse"><stop offset="0" stop-color="#f3c57a"/><stop offset="0.49" stop-color="#f39369"/><stop offset="1" stop-color="#e94867"/></linearGradient><linearGradient id="linear-gradient-7" y1="43.65" y2="-0.43" xlink:href="#linear-gradient-5"/><linearGradient id="linear-gradient-8" y1="43.65" y2="-0.43" xlink:href="#linear-gradient-6"/></defs><title>toilet, bathroom, restroom, location, pointer</title><ellipse class="cls-1" cx="24" cy="43.48" rx="10.5" ry="1.5"/><path class="cls-2" d="M36.14,32.32,25.19,43.27a1.69,1.69,0,0,1-2.39,0L11.86,32.32a17.16,17.16,0,0,1,0-24.27h0a17.16,17.16,0,0,1,24.27,0h0A17.16,17.16,0,0,1,36.14,32.32Z"/><path class="cls-3" d="M15.45,5.32h0a14.27,14.27,0,0,1,8.61,13.1V43.76a1.68,1.68,0,0,0,1.13-.49L35.81,32.65c6.65-6.65,7.1-17.51.6-24.31A17.15,17.15,0,0,0,15.45,5.32Z"/><path class="cls-4" d="M24,31.5h0a.78.78,0,0,1-.78-.78V11.28A.78.78,0,0,1,24,10.5h0a.78.78,0,0,1,.78.78V30.72A.78.78,0,0,1,24,31.5Z"/><path class="cls-5" d="M17.25,18h0A2.25,2.25,0,0,1,15,15.75h0a2.25,2.25,0,0,1,2.25-2.25h0a2.25,2.25,0,0,1,2.25,2.25h0A2.25,2.25,0,0,1,17.25,18Z"/><path class="cls-6" d="M32.51,18H29a.49.49,0,0,1-.49-.49V15.75a2.25,2.25,0,0,1,2.25-2.25h0A2.25,2.25,0,0,1,33,15.75v1.76A.49.49,0,0,1,32.51,18Z"/><path class="cls-7" d="M17,18.84a3.89,3.89,0,0,0-3.55,4v6.45a.75.75,0,0,0,1.5,0h0A2.25,2.25,0,0,1,17.25,27h0a2.25,2.25,0,0,1,2.25,2.25h0a.75.75,0,0,0,1.5,0V22.58A3.75,3.75,0,0,0,17,18.84Z"/><path class="cls-8" d="M30.55,18.84a3.89,3.89,0,0,0-3.55,4v6.45a.75.75,0,0,0,1.5,0h0A2.25,2.25,0,0,1,30.75,27h0A2.25,2.25,0,0,1,33,29.25h0a.75.75,0,0,0,1.5,0V22.58A3.75,3.75,0,0,0,30.55,18.84Z"/></svg>