<svg id="Layer_1" data-name="Layer 1" xmlns="http://www.w3.org/2000/svg" xmlns:xlink="http://www.w3.org/1999/xlink" viewBox="0 0 48 48"><defs><style>.cls-1{fill:url(#linear-gradient);}.cls-2{fill:url(#linear-gradient-2);}.cls-3{fill:url(#linear-gradient-3);}.cls-4{fill:url(#linear-gradient-4);}.cls-5{fill:url(#linear-gradient-5);}.cls-6{fill:url(#linear-gradient-6);}.cls-7{fill:url(#linear-gradient-7);}.cls-8{fill:url(#linear-gradient-8);}.cls-9{fill:url(#linear-gradient-9);}.cls-10{fill:url(#linear-gradient-10);}.cls-11{fill:url(#linear-gradient-11);}.cls-12{fill:url(#linear-gradient-12);}.cls-13{fill:url(#linear-gradient-13);}.cls-14{fill:url(#linear-gradient-14);}.cls-15{fill:url(#linear-gradient-15);}.cls-16{fill:url(#linear-gradient-16);}.cls-17{fill:url(#linear-gradient-17);}.cls-18{fill:url(#linear-gradient-18);}.cls-19{fill:url(#linear-gradient-19);}.cls-20{fill:url(#linear-gradient-20);}.cls-21{fill:url(#linear-gradient-21);}.cls-22{fill:url(#linear-gradient-22);}.cls-23{fill:url(#linear-gradient-23);}.cls-24{fill:url(#linear-gradient-24);}.cls-25{fill:url(#linear-gradient-25);}</style><linearGradient id="linear-gradient" x1="24" y1="81.5" x2="24" y2="-8.4" gradientUnits="userSpaceOnUse"><stop offset="0" stop-color="#f3c57a"/><stop offset="0.49" stop-color="#f39369"/><stop offset="1" stop-color="#e94867"/></linearGradient><linearGradient id="linear-gradient-2" x1="14.29" y1="27.74" x2="49.83" y2="22.42" xlink:href="#linear-gradient"/><linearGradient id="linear-gradient-3" x1="-2.4" y1="36.97" x2="34.93" y2="11.13" xlink:href="#linear-gradient"/><linearGradient id="linear-gradient-4" y1="78.5" x2="24" y2="8.23" xlink:href="#linear-gradient"/><linearGradient id="linear-gradient-5" x1="24.17" y1="45.22" x2="28.39" y2="44.59" xlink:href="#linear-gradient"/><linearGradient id="linear-gradient-6" x1="0.34" y1="18.36" x2="55.46" y2="36.73" xlink:href="#linear-gradient"/><linearGradient id="linear-gradient-7" y1="44" x2="24" y2="15.89" xlink:href="#linear-gradient"/><linearGradient id="linear-gradient-8" x1="26.79" y1="28.79" x2="31.21" y2="14.46" xlink:href="#linear-gradient"/><linearGradient id="linear-gradient-9" x1="11.07" y1="28.87" x2="21.32" y2="11.37" xlink:href="#linear-gradient"/><linearGradient id="linear-gradient-10" x1="2.67" y1="27.62" x2="12.42" y2="8.2" xlink:href="#linear-gradient"/><linearGradient id="linear-gradient-11" x1="24" y1="32.83" x2="24" y2="-0.62" gradientUnits="userSpaceOnUse"><stop offset="0" stop-color="#273a9b"/><stop offset="0.56" stop-color="#202f65"/><stop offset="1" stop-color="#021e2f"/></linearGradient><linearGradient id="linear-gradient-12" y1="-5.75" x2="24" y2="41.92" xlink:href="#linear-gradient-11"/><linearGradient id="linear-gradient-13" x1="28.91" y1="29.58" x2="28.91" y2="-3.75" xlink:href="#linear-gradient-11"/><linearGradient id="linear-gradient-14" y1="29.72" x2="24" y2="0.4" xlink:href="#linear-gradient-11"/><linearGradient id="linear-gradient-15" y1="-3.06" x2="24" y2="11.76" xlink:href="#linear-gradient-11"/><linearGradient id="linear-gradient-16" x1="24" y1="43.25" x2="24" y2="-6.02" gradientUnits="userSpaceOnUse"><stop offset="0" stop-color="#fff"/><stop offset="0.52" stop-color="#cce2e6"/><stop offset="1" stop-color="#8fa1bb"/></linearGradient><linearGradient id="linear-gradient-17" y1="43.62" x2="24" y2="1.9" xlink:href="#linear-gradient-16"/><linearGradient id="linear-gradient-18" y1="27.11" x2="24" y2="39.42" xlink:href="#linear-gradient"/><linearGradient id="linear-gradient-19" y1="29.58" x2="24" y2="32.85" xlink:href="#linear-gradient"/><linearGradient id="linear-gradient-20" x1="26.52" y1="33.02" x2="26.52" y2="18.83" gradientTransform="translate(-4.79)" xlink:href="#linear-gradient"/><linearGradient id="linear-gradient-21" x1="21.73" y1="35.63" x2="21.73" y2="19.24" xlink:href="#linear-gradient"/><linearGradient id="linear-gradient-22" x1="-26.27" y1="33.02" x2="-26.27" y2="18.83" gradientTransform="matrix(1, 0, 0, -1, 52.55, 56.01)" xlink:href="#linear-gradient"/><linearGradient id="linear-gradient-23" x1="-26.27" y1="35.63" x2="-26.27" y2="19.24" gradientTransform="matrix(-1, 0, 0, 1, 0, 0)" xlink:href="#linear-gradient"/><linearGradient id="linear-gradient-24" x1="22.41" y1="31.69" x2="22.41" y2="37.33" xlink:href="#linear-gradient"/><linearGradient id="linear-gradient-25" x1="25.59" y1="31.69" x2="25.59" y2="37.33" xlink:href="#linear-gradient"/></defs><title>trash, garbage, can, bin, ecology</title><path class="cls-1" d="M7.64,9.82c0,.87,0,1.75,0,2.63A97.16,97.16,0,0,0,11,38.94a7.91,7.91,0,0,0,6.54,5.62A46.83,46.83,0,0,0,24,45a46.77,46.77,0,0,0,6.73-.48A7.76,7.76,0,0,0,37,38.94a97.15,97.15,0,0,0,3.4-26.49c0-.88,0-1.76,0-2.63A43.25,43.25,0,0,0,24,6.75,43.25,43.25,0,0,0,7.64,9.82Z"/><path class="cls-2" d="M25.31,6.85a8.81,8.81,0,0,1,5.18,3.39c0,1-.4,1.87-.4,2.88,0,11.34-.07,21.9-.88,30.24v0a1.64,1.64,0,0,1-1.41,1.45c1-.08,1.92-.18,2.86-.32a1.62,1.62,0,0,0,.67-1.13v0c.81-8.34,1.3-18.78,1.3-30.13q0-1.51,0-3A9,9,0,0,0,27.67,6.9c-.63,0-1.27-.09-1.92-.11Z"/><path class="cls-3" d="M13.25,40.06a97.16,97.16,0,0,1-3.4-26.48c0-.88,0-1.76,0-2.63A43.25,43.25,0,0,1,26.25,7.88a44.23,44.23,0,0,1,14.11,2.24c0-.1,0-.2,0-.29A43.25,43.25,0,0,0,24,6.75,43.25,43.25,0,0,0,7.64,9.82c0,.87,0,1.75,0,2.63A97.16,97.16,0,0,0,11,38.94a7.88,7.88,0,0,0,5.25,5.32A7.83,7.83,0,0,1,13.25,40.06Z"/><path class="cls-4" d="M17.76,10.24q0,1.49,0,3c0,11.34.48,21.78,1.29,30.12v0a1.65,1.65,0,0,0,1.52,1.48Q22.26,45,24,45t3.43-.13A1.65,1.65,0,0,0,29,43.39v0c.81-8.34,1.3-18.78,1.3-30.13q0-1.51,0-3C28.44,8,26.3,6.75,24,6.75S19.56,8,17.76,10.24Z"/><path class="cls-5" d="M25.43,45l1.18-.05Z"/><path class="cls-6" d="M21.22,44.52v0c-.81-8.34-1.29-18.78-1.29-30.12q0-1.51,0-3c1.8-2.21,3.94-3.49,6.24-3.49a6.28,6.28,0,0,1,2,.33A7,7,0,0,0,24,6.75c-2.3,0-4.44,1.29-6.24,3.49q0,1.49,0,3c0,11.34.48,21.78,1.29,30.12v0a1.65,1.65,0,0,0,1.52,1.48l.76,0A1.59,1.59,0,0,1,21.22,44.52Z"/><path class="cls-7" d="M7.61,11.86h0c0,1.64,0,3.25.09,4.83a2.17,2.17,0,0,0,1.47,2A47.25,47.25,0,0,0,24,21a47.25,47.25,0,0,0,14.83-2.32,2.17,2.17,0,0,0,1.47-2c.06-1.59.1-3.19.09-4.83h0A46.61,46.61,0,0,0,24,9,46.61,46.61,0,0,0,7.61,11.86Z"/><path class="cls-8" d="M30.49,10.24c0,1-.4,1.87-.4,2.88,0,2.55.11,5,.1,7.49.84-.1,1.55-.22,2.37-.36q.06-3.44.07-7,0-1.51,0-3c-.16-.2-.33-.39-.5-.58-.8-.13-1.62-.25-2.45-.34C29.94,9.62,30.22,9.92,30.49,10.24Z"/><path class="cls-9" d="M22.49,9q-2,.06-3.87.27c-.29.3-.58.61-.86.95q0,1.49,0,3,0,3.77.07,7.38c.71.09,1.43.17,2.15.22,0-2.12-.06-4.28-.06-6.48q0-1.51,0-3A11,11,0,0,1,22.49,9Z"/><path class="cls-10" d="M9.86,13.58c0-.84,0-1.67,0-2.49-.77.24-1.54.5-2.27.77,0,.1,0,.19,0,.29,0,.31,0,.62,0,.93,0,.69,0,1.37,0,2,0,.53,0,1.06,0,1.58a2.17,2.17,0,0,0,1.47,2l.83.26C9.91,17.18,9.86,15.4,9.86,13.58Z"/><path class="cls-11" d="M7.35,9a1.29,1.29,0,0,0-.82,1.18q0,.93,0,1.86t0,1.86A1.29,1.29,0,0,0,7.35,15,46.52,46.52,0,0,0,24,18a46.52,46.52,0,0,0,16.65-3,1.29,1.29,0,0,0,.82-1.18q0-.93,0-1.86t0-1.86A1.29,1.29,0,0,0,40.65,9,46.52,46.52,0,0,0,24,6,46.52,46.52,0,0,0,7.35,9Z"/><path class="cls-12" d="M40.65,9A46.52,46.52,0,0,0,24,6,46.52,46.52,0,0,0,7.35,9a1.27,1.27,0,0,0-.78,1,1.27,1.27,0,0,0,.78,1,46.52,46.52,0,0,0,16.65,3,46.52,46.52,0,0,0,16.65-3,1.27,1.27,0,0,0,.78-1A1.27,1.27,0,0,0,40.65,9Z"/><path class="cls-13" d="M40.65,10.87a1.27,1.27,0,0,0,.78-1,1.27,1.27,0,0,0-.78-1A46.8,46.8,0,0,0,23.08,6l-.2,0-6.5,1,5.69,2.62a3.33,3.33,0,0,1,1.93,3v1.2A46.52,46.52,0,0,0,40.65,10.87Z"/><path class="cls-14" d="M17.37,4a1.75,1.75,0,0,0-1.2,1.66h0q0,.51,0,1a.32.32,0,0,0,.2.29A20.76,20.76,0,0,0,24,8.38,20.76,20.76,0,0,0,31.62,7a.32.32,0,0,0,.2-.29q0-.5,0-1h0A1.75,1.75,0,0,0,30.63,4,21.88,21.88,0,0,0,17.37,4Z"/><path class="cls-15" d="M24,6.75a20.76,20.76,0,0,0,7.62-1.39.32.32,0,0,0,.14-.11A1.74,1.74,0,0,0,30.63,4,21.88,21.88,0,0,0,17.37,4a1.74,1.74,0,0,0-1.13,1.22.32.32,0,0,0,.14.11A20.76,20.76,0,0,0,24,6.75Z"/><circle class="cls-16" cx="24" cy="30" r="9.04"/><path class="cls-17" d="M17.89,23.35c.13,4.92.35,9.57.65,13.84a9,9,0,0,0,10.93,0c.3-4.26.52-8.92.65-13.84a9,9,0,0,0-12.23,0Z"/><path class="cls-18" d="M28.22,25.41h-.68A3.53,3.53,0,0,0,24,28.94a3.53,3.53,0,0,0-3.53-3.53h-.68a.33.33,0,0,0-.33.33v1.33A3.53,3.53,0,0,0,23,30.61h.34a.29.29,0,0,1,.29.32l-.22,2.15a.19.19,0,0,1-.17.17,4.42,4.42,0,0,0-1.71.47.22.22,0,0,0,0,.38,5.3,5.3,0,0,0,2.48.5,5.3,5.3,0,0,0,2.48-.5.22.22,0,0,0,0-.38,4.42,4.42,0,0,0-1.71-.47.19.19,0,0,1-.17-.17l-.22-2.15a.29.29,0,0,1,.29-.32H25a3.53,3.53,0,0,0,3.53-3.53V25.74A.33.33,0,0,0,28.22,25.41Z"/><path class="cls-19" d="M24,29.14c-1.34,0-2.45.48-2.59,1.09a3.51,3.51,0,0,0,1.57.37h.34a.29.29,0,0,1,.29.32l-.07.63.45,0,.45,0-.07-.63a.29.29,0,0,1,.29-.32H25a3.51,3.51,0,0,0,1.57-.37C26.45,29.62,25.34,29.14,24,29.14Z"/><path class="cls-20" d="M19.78,25.41h.68A3.53,3.53,0,0,1,24,28.94v1.66a0,0,0,0,1,0,0H23a3.53,3.53,0,0,1-3.53-3.53V25.74a.33.33,0,0,1,.33-.33Z"/><path class="cls-21" d="M22,28.32c-.86-.95-1.72-1.84-2.57-2.66a.33.33,0,0,0,0,.07v1.33A3.53,3.53,0,0,0,23,30.61h1C23.38,29.86,22.72,29.09,22,28.32Z"/><path class="cls-22" d="M27.53,25.41h1a0,0,0,0,1,0,0v1.66A3.53,3.53,0,0,1,25,30.61h-.68a.33.33,0,0,1-.33-.33V28.94A3.53,3.53,0,0,1,27.53,25.41Z" transform="translate(52.55 56.01) rotate(180)"/><path class="cls-23" d="M26,28.32c.86-.95,1.72-1.84,2.57-2.66a.33.33,0,0,1,0,.07v1.33A3.53,3.53,0,0,1,25,30.61H24C24.62,29.86,25.28,29.09,26,28.32Z"/><path class="cls-24" d="M23.39,33.1a.19.19,0,0,1-.16.14,4.42,4.42,0,0,0-1.71.47.21.21,0,0,0-.09.12,1.38,1.38,0,0,0,.74.21A1.19,1.19,0,0,0,23.39,33.1Z"/><path class="cls-25" d="M26.48,33.71a4.42,4.42,0,0,0-1.71-.47.19.19,0,0,1-.16-.14,1.19,1.19,0,0,0,1.23.93,1.38,1.38,0,0,0,.74-.21A.21.21,0,0,0,26.48,33.71Z"/></svg>