<svg id="Layer_1" data-name="Layer 1" xmlns="http://www.w3.org/2000/svg" xmlns:xlink="http://www.w3.org/1999/xlink" viewBox="0 0 48 48"><defs><style>.cls-1{fill:url(#linear-gradient);}.cls-2{fill:url(#linear-gradient-2);}.cls-3{fill:url(#linear-gradient-3);}.cls-4{fill:url(#linear-gradient-4);}.cls-5{fill:url(#linear-gradient-5);}.cls-6{fill:url(#linear-gradient-6);}.cls-7{fill:url(#linear-gradient-7);}.cls-8{fill:url(#linear-gradient-8);}</style><linearGradient id="linear-gradient" x1="24" y1="46.85" x2="24" y2="38.43" gradientUnits="userSpaceOnUse"><stop offset="0" stop-color="#fff"/><stop offset="0.52" stop-color="#cce2e6"/><stop offset="1" stop-color="#8fa1bb"/></linearGradient><linearGradient id="linear-gradient-2" x1="24" y1="29.81" x2="24" y2="-25.04" gradientUnits="userSpaceOnUse"><stop offset="0" stop-color="#273a9b"/><stop offset="0.56" stop-color="#202f65"/><stop offset="1" stop-color="#021e2f"/></linearGradient><linearGradient id="linear-gradient-3" x1="28.25" y1="49.98" x2="28.25" y2="-7.92" xlink:href="#linear-gradient-2"/><linearGradient id="linear-gradient-4" x1="24.02" y1="27" x2="24.02" y2="3.39" xlink:href="#linear-gradient"/><linearGradient id="linear-gradient-5" x1="28.85" y1="32.42" x2="28.85" y2="6.08" xlink:href="#linear-gradient"/><linearGradient id="linear-gradient-6" x1="24.02" y1="27" x2="24.02" y2="3.39" xlink:href="#linear-gradient"/><linearGradient id="linear-gradient-7" x1="27.46" y1="27.33" x2="27.46" y2="12.22" xlink:href="#linear-gradient"/><linearGradient id="linear-gradient-8" x1="23.97" y1="34.33" x2="23.97" y2="-2.5" gradientUnits="userSpaceOnUse"><stop offset="0" stop-color="#f3c57a"/><stop offset="0.49" stop-color="#f39369"/><stop offset="1" stop-color="#e94867"/></linearGradient></defs><title>wifi, wireless, internet, location, pointer</title><ellipse class="cls-1" cx="24" cy="43.48" rx="10.5" ry="1.5"/><path class="cls-2" d="M36.14,32.32,25.19,43.27a1.69,1.69,0,0,1-2.39,0L11.86,32.32a17.16,17.16,0,0,1,0-24.27h0a17.16,17.16,0,0,1,24.27,0h0A17.16,17.16,0,0,1,36.14,32.32Z"/><path class="cls-3" d="M15.45,5.32h0a14.26,14.26,0,0,1,8.61,13.1V43.76a1.68,1.68,0,0,0,1.13-.49L35.81,32.65c6.65-6.65,7.1-17.51.6-24.31A17.15,17.15,0,0,0,15.45,5.32Z"/><path class="cls-4" d="M14.42,19a1.51,1.51,0,0,1-1.07-2.58,15.12,15.12,0,0,1,21.35,0,1.51,1.51,0,1,1-2.14,2.14,12.09,12.09,0,0,0-17.08,0A1.51,1.51,0,0,1,14.42,19Z"/><path class="cls-5" d="M22.56,12.07a14.24,14.24,0,0,1,1.09,3,12,12,0,0,1,8.91,3.51,1.51,1.51,0,1,0,2.14-2.14A15.07,15.07,0,0,0,22.56,12.07Z"/><path class="cls-6" d="M29.36,23.26a1.51,1.51,0,0,1-1.07-.44,6,6,0,0,0-8.54,0,1.51,1.51,0,0,1-2.14-2.14,9.07,9.07,0,0,1,12.81,0,1.51,1.51,0,0,1-1.07,2.58Z"/><path class="cls-7" d="M24,18c0,.13,0,.25,0,.38v2.64a6,6,0,0,1,4.23,1.76,1.51,1.51,0,0,0,2.14-2.14A9,9,0,0,0,24,18Z"/><circle class="cls-8" cx="23.97" cy="27.09" r="3.03"/></svg>