<svg id="Layer_1" data-name="Layer 1" xmlns="http://www.w3.org/2000/svg" xmlns:xlink="http://www.w3.org/1999/xlink" viewBox="0 0 48 48"><defs><style>.cls-1{fill:url(#linear-gradient);}.cls-2{fill:url(#linear-gradient-2);}.cls-3{fill:url(#linear-gradient-3);}.cls-4{fill:url(#linear-gradient-4);}.cls-5{fill:url(#linear-gradient-5);}.cls-6{fill:url(#linear-gradient-6);}.cls-7{fill:url(#linear-gradient-7);}.cls-8{fill:url(#linear-gradient-8);}.cls-9{fill:url(#linear-gradient-9);}.cls-10{fill:url(#linear-gradient-10);}.cls-11{fill:url(#linear-gradient-11);}.cls-12{fill:url(#linear-gradient-12);}.cls-13{fill:url(#linear-gradient-13);}.cls-14{fill:url(#linear-gradient-14);}.cls-15{fill:url(#linear-gradient-15);}.cls-16{fill:url(#linear-gradient-16);}.cls-17{fill:url(#linear-gradient-17);}.cls-18{fill:url(#linear-gradient-18);}.cls-19{fill:url(#linear-gradient-19);}.cls-20{fill:url(#linear-gradient-20);}.cls-21{fill:url(#linear-gradient-21);}.cls-22{fill:url(#linear-gradient-22);}.cls-23{fill:url(#linear-gradient-23);}.cls-24{fill:url(#linear-gradient-24);}.cls-25{fill:url(#linear-gradient-25);}</style><linearGradient id="linear-gradient" x1="17.99" y1="14.66" x2="17.99" y2="-12.97" gradientUnits="userSpaceOnUse"><stop offset="0" stop-color="#27e9de"/><stop offset="0.52" stop-color="#03a4ec"/><stop offset="1" stop-color="#2547a8"/></linearGradient><linearGradient id="linear-gradient-2" x1="17.99" y1="38.8" x2="17.99" y2="-29.76" xlink:href="#linear-gradient"/><linearGradient id="linear-gradient-3" x1="8.35" y1="26.56" x2="8.35" y2="-26.72" gradientUnits="userSpaceOnUse"><stop offset="0" stop-color="#273a9b"/><stop offset="0.56" stop-color="#202f65"/><stop offset="1" stop-color="#021e2f"/></linearGradient><linearGradient id="linear-gradient-4" x1="9.43" y1="39.41" x2="9.43" y2="-4.74" xlink:href="#linear-gradient-3"/><linearGradient id="linear-gradient-5" x1="13.5" y1="31.06" x2="13.5" y2="10.36" xlink:href="#linear-gradient-3"/><linearGradient id="linear-gradient-6" x1="27.12" y1="26.56" x2="27.12" y2="-26.72" xlink:href="#linear-gradient-3"/><linearGradient id="linear-gradient-7" x1="26.05" y1="39.41" x2="26.05" y2="-4.74" xlink:href="#linear-gradient-3"/><linearGradient id="linear-gradient-8" x1="17.99" y1="32.33" x2="17.99" y2="9.71" xlink:href="#linear-gradient-3"/><linearGradient id="linear-gradient-9" x1="18.58" y1="33.54" x2="18.58" y2="-0.44" xlink:href="#linear-gradient-3"/><linearGradient id="linear-gradient-10" x1="30" y1="51.38" x2="30" y2="3.84" gradientUnits="userSpaceOnUse"><stop offset="0" stop-color="#f3c57a"/><stop offset="0.49" stop-color="#f39369"/><stop offset="1" stop-color="#e94867"/></linearGradient><linearGradient id="linear-gradient-11" x1="10.65" y1="12.28" x2="31.06" y2="30.2" xlink:href="#linear-gradient-10"/><linearGradient id="linear-gradient-12" x1="25.09" y1="37.08" x2="28.34" y2="15.08" xlink:href="#linear-gradient-10"/><linearGradient id="linear-gradient-13" y1="54.57" x2="30" y2="23.75" xlink:href="#linear-gradient-10"/><linearGradient id="linear-gradient-14" x1="30" y1="44.72" x2="30" y2="2.97" gradientUnits="userSpaceOnUse"><stop offset="0" stop-color="#fff"/><stop offset="0.52" stop-color="#cce2e6"/><stop offset="1" stop-color="#8fa1bb"/></linearGradient><linearGradient id="linear-gradient-15" y1="27.86" x2="30" y2="3.84" xlink:href="#linear-gradient-14"/><linearGradient id="linear-gradient-16" x1="26.96" y1="32.83" x2="26.96" y2="11.95" xlink:href="#linear-gradient-14"/><linearGradient id="linear-gradient-17" x1="30" y1="32.36" x2="30" y2="14.02" xlink:href="#linear-gradient"/><linearGradient id="linear-gradient-18" x1="30" y1="33.65" x2="30" y2="21.85" xlink:href="#linear-gradient"/><linearGradient id="linear-gradient-19" x1="32.67" y1="35.22" x2="32.67" y2="25.08" xlink:href="#linear-gradient-10"/><linearGradient id="linear-gradient-20" x1="31.07" y1="37.89" x2="31.07" y2="27.44" xlink:href="#linear-gradient-10"/><linearGradient id="linear-gradient-21" x1="38.36" y1="32.04" x2="38.94" y2="25.59" xlink:href="#linear-gradient"/><linearGradient id="linear-gradient-22" x1="59.27" y1="36.75" x2="19.92" y2="16.19" xlink:href="#linear-gradient-14"/><linearGradient id="linear-gradient-23" x1="52.25" y1="50.17" x2="12.9" y2="29.61" xlink:href="#linear-gradient-14"/><linearGradient id="linear-gradient-24" x1="53.93" y1="46.97" x2="14.58" y2="26.41" xlink:href="#linear-gradient-14"/><linearGradient id="linear-gradient-25" x1="30" y1="34.72" x2="30" y2="22.92" xlink:href="#linear-gradient-3"/></defs><title>world, clock, global, globe, international, time</title><circle class="cls-1" cx="17.99" cy="17.99" r="14.99"/><circle class="cls-2" cx="17.99" cy="17.99" r="12.85"/><path class="cls-3" d="M13.71,13.13V3.63a15,15,0,0,0-8.24,22.6l2.06-2.06a2.79,2.79,0,0,0,.82-2V20.77a1.54,1.54,0,0,1,.45-1.09l3.74-3.74A4,4,0,0,0,13.71,13.13Z"/><path class="cls-4" d="M5.14,18A12.77,12.77,0,0,0,7,24.67l.51-.51a2.79,2.79,0,0,0,.82-2V20.77a1.54,1.54,0,0,1,.45-1.09l3.74-3.74a4,4,0,0,0,1.16-2.81V5.89A12.84,12.84,0,0,0,5.14,18Z"/><path class="cls-5" d="M15,20.34a2.14,2.14,0,0,0-3,0h0a2.14,2.14,0,0,0,0,3h0a2.14,2.14,0,0,0,3,0h0a2.14,2.14,0,0,0,0-3Z"/><path class="cls-6" d="M29.77,22.81v-1a1.4,1.4,0,0,1,.41-1L33,18A15,15,0,0,0,27.47,6.38l-3.75,3.75a1.26,1.26,0,0,0-.37.89V16.4a1.26,1.26,0,0,0,.37.89l1.38,1.38a1.75,1.75,0,0,1,.51,1.24v2.71a1.75,1.75,0,0,1-.51,1.24L22,26.91a2.66,2.66,0,0,0-.78,1.88v3.82a15,15,0,0,0,10-7.62l-1.12-1.26A1.4,1.4,0,0,1,29.77,22.81Z"/><path class="cls-7" d="M25.94,7.91l-2.22,2.22a1.26,1.26,0,0,0-.37.89V16.4a1.26,1.26,0,0,0,.37.89l1.38,1.38a1.75,1.75,0,0,1,.51,1.24v2.71a1.75,1.75,0,0,1-.51,1.24L22,26.91a2.66,2.66,0,0,0-.78,1.88v1.61a12.87,12.87,0,0,0,8.53-7.34,1.4,1.4,0,0,1,0-.26v-1a1.4,1.4,0,0,1,.41-1l.43-.43A12.76,12.76,0,0,0,25.94,7.91Z"/><circle class="cls-8" cx="17.99" cy="17.99" r="0.8"/><circle class="cls-9" cx="18.58" cy="12" r="1.21"/><circle class="cls-10" cx="30" cy="30" r="15"/><path class="cls-11" d="M15,30a15,15,0,0,0,.26,2.72A14.95,14.95,0,0,0,32.72,15.26,15,15,0,0,0,15,30Z"/><path class="cls-12" d="M30.18,20.79,33,18h0c0-.51,0-1-.09-1.5,0-.28-.07-.56-.12-.84,0-.13,0-.26-.07-.38a14.74,14.74,0,0,0-9.33,1.3,1.25,1.25,0,0,0,.34.73l1.38,1.38a1.75,1.75,0,0,1,.51,1.24v2.71a1.75,1.75,0,0,1-.51,1.24L22,26.91a2.66,2.66,0,0,0-.78,1.88v3.82h0a14.93,14.93,0,0,0,1.53-.43l.18-.06q.66-.23,1.29-.52l.25-.12q.59-.28,1.14-.62l.26-.16c.36-.23.71-.47,1.05-.72l.24-.18c.35-.27.68-.56,1-.86l.18-.16a15,15,0,0,0,1-1.1l0,0A15,15,0,0,0,31.24,25l-1.12-1.26a1.4,1.4,0,0,1-.35-.93v-1A1.4,1.4,0,0,1,30.18,20.79Z"/><path class="cls-13" d="M40.67,30H19.33V40.54a15,15,0,0,0,21.34,0Z"/><circle class="cls-14" cx="30" cy="30.01" r="10.67"/><circle class="cls-15" cx="30" cy="30" r="8.55"/><path class="cls-16" d="M32.47,21.82A8.54,8.54,0,0,0,21.82,32.47,15,15,0,0,0,32.47,21.82Z"/><path class="cls-17" d="M31.07,30H28.93V23.59A1.07,1.07,0,0,1,30,22.52h0a1.07,1.07,0,0,1,1.07,1.07Z"/><path class="cls-18" d="M31.07,28.16a2.07,2.07,0,0,0-2.14,0V30h2.14Z"/><path class="cls-19" d="M34.27,31.07H30V28.93h4.27A1.07,1.07,0,0,1,35.34,30h0A1.07,1.07,0,0,1,34.27,31.07Z"/><path class="cls-20" d="M30,31.07h1.84a2.07,2.07,0,0,0,0-2.14H30Z"/><circle class="cls-21" cx="38.55" cy="30" r="0.53"/><circle class="cls-22" cx="30" cy="21.45" r="0.53"/><circle class="cls-23" cx="30" cy="38.55" r="0.53"/><circle class="cls-24" cx="21.45" cy="30" r="0.53"/><circle class="cls-25" cx="30" cy="30" r="1.07"/></svg>